<?xml version="1.0" encoding="UTF-8"?>
<svg id="LOGO" xmlns="http://www.w3.org/2000/svg" version="1.1" viewBox="0 0 1080 625.54">
  <!-- Generator: Adobe Illustrator 29.5.1, SVG Export Plug-In . SVG Version: 2.1.0 Build 141)  -->
  <defs>
    <style>
      .st0 {
        fill: #383838;
      }
    </style>
  </defs>
  <path class="st0" d="M871.8,425.57c-2.86.49-4.22,2.13-5.84,3.31-12.88,9.35-26.93,15.97-42.7,18.77-19.63,3.49-37.79.23-53.64-12.22-14.11-11.09-21.28-26.31-24.21-43.71-.59-3.52-1.33-7.04-1.22-10.65.07-2.4-1.18-3.73-3.47-4.36-6.58-1.81-13.14-3.66-19.68-5.58-2.21-.65-3.1.16-3.55,2.27-.79,3.71-.83,7.46-.76,11.2.24,13.16-.57,26.26-3.23,39.15-3.59,17.38-10.66,33.05-23.5,45.73-2.82,2.78-5.89,5.25-9.38,7.03-23.33,11.91-48.76,12.87-69.24-5.38-9.7-8.64-15.16-20.02-20.55-31.45-9.35-19.84-13.27-41.12-16.48-62.58-.48-3.18-.91-6.36-1.41-9.83-2.48.5-3.57,2.35-4.96,3.7-8.06,7.84-17.13,13.95-27.96,17.4-6.81,2.16-13.64,3.2-20.65,1.74-1.61-.33-2.92-.26-4.04.21-1.88.79-2.83,2.45-3.17,3.03-3.76,6.55-5.46,14.85-8.01,21.91-4.62,12.83-9.63,25.6-16.03,37.66-5.45,10.28-12.08,22.56-22.73,28.17-11.34,5.97-25.81,5.93-37.67,1.58-23.07-8.45-39.93-29.46-48.28-52.56-8.35-23.1-9.18-48.23-7.98-72.77,1.2-24.54,4.33-49.03,3.53-73.58-.03-.85-.06-1.72-.32-2.54-1.27-4.01-7.32-4.45-10.53-1.74-3.22,2.72-4.3,7.13-5.28,11.22-13.69,57.75-39.11,113.97-74.77,161.54-11.79,15.74-28.3,33.23-49.38,33.7-14.53.28-28.33-8.17-36.97-19.86-8.63-11.69-12.62-26.26-14.06-40.72-24.97,18.21-58.02,30.71-86.61,18.97-24.21-9.94-39.43-35.98-41.17-62.09-1.75-26.11,8.27-51.91,22.96-73.57,15.01-22.14,35.92-41.36,61.55-49,25.63-7.65,56.22-1.7,73.44,18.77,3.8-8.6,5.1-18.08,8.16-26.97,3.06-8.89,8.57-17.73,17.36-21.06,7.28-2.75,15.46-1.22,22.89,1.11,11.65,3.66,23.64,10.22,28.01,21.63,3.49,9.12,1.35,19.34-1.31,28.74-15.96,56.47-49.15,108.02-56.71,166.21-.39,3.03-.03,7.45,2.37,8.71,7.89,4.14,36.3-28.1,54.87-60.88,30.12-53.17,38.66-115.41,38.66-115.42h0c.28-.75,1.35-3.37.25-5.78-.77-1.67-2.5-2.64-4.12-3.52-14.9-8.11-29.23-19.07-36.02-34.62-6.79-15.55-3.6-36.39,10.72-45.49,15.79-10.04,37.98-1.67,49.36,13.18,11.38,14.85,14.69,34.17,17.66,52.64,20.11-4.23,40.85-5.39,61.3-3.44,5.23.5,10.76,1.33,14.77,4.73,5.62,4.76,6.53,12.98,6.67,20.34.58,30.9-5.11,61.41-8.48,92.01-1.67,15.12-2.83,30.35-2.3,45.57.46,13.21-.03,32.35,10.44,41.92,2.24,2.04,3.8,3.06,5.27,2.92,1.95-.18,3.44-1.9,4.59-3.75,9.44-15.33,21.36-83.09,21.98-86.3.11-.54.52-2.48.12-4.94-.27-1.67-.88-3.27-1.79-4.85-9.86-16.98-14.33-35.63-16.93-54.84-2.79-20.61.99-40.78,4.41-60.95,1.63-9.6,4.36-18.94,7.27-28.21,2.11-6.74,4.63-8.9,11.47-8.53,9.7.53,19.4.82,29.11.98,6.18.1,10.81,4.33,12.62,10.25.81,2.65.88,5.37.93,8.1.25,12.96-.52,25.9-1.06,38.84-.27,6.47-.18,12.96-.19,19.44-.03,19.34,4.65,37.81,10.45,56.07.67,2.11,1.61,4.14,2.98,5.92,1.71,2.23,2.97,2.34,5.04.34.97-.94,1.88-2.03,2.49-3.22,3.44-6.66,7.49-13.07,9.59-20.32,3.42-11.84,9.49-22.63,13.36-34.29.53-1.6,1.39-3.13,2.31-4.55,3.37-5.17,7.94-8.4,14.36-8.32,12.62.15,24.6,3.26,36.26,7.87.47.19.9.49,1.35.74,8.03,4.37,12.77,11.16,14.37,20.07,1.24,6.88,2.46,13.77,3.2,20.72,1.87,17.62,3.21,35.3,5.22,52.91,1.38,12.08,3.16,24.11,5.3,36.08,1.25,7.01,1.59,23.97,8.48,28.32,6.1,3.85,9.96-6.15,11.39-10.17,3.12-8.71,4.88-17.75,6.13-26.88,1.52-11.13,3-22.28,4.06-33.47.59-6.26.65-12.58,1.27-18.86.26-2.67-.28-4.94-2.78-6.64-12.21-8.33-20.99-19.86-29.13-31.92-11.91-17.63-20.38-36.67-22.78-58.01-2.41-21.43,1.62-41.47,16.33-57.75,13.99-15.48,36.11-21.72,54.83-6.1,9.21,7.69,15.74,17.4,19.85,28.71,4.99,13.72,7.26,28.02,8.86,42.45,2.27,20.52-2.24,40.35-6.29,60.22-.24,1.17-.58,2.32-.94,3.45-.71,2.18.16,3.66,2.07,4.63,10.89,5.54,24.89,5.38,32.21-8.36,5.97-11.19,12.52-21.96,20.96-31.41,17.41-19.49,38.22-33.5,64.59-37.39,19.42-2.86,37.36.95,52.57,14.19,1.28,1.11,2.41,2.4,3.58,3.63,1.15,1.2,1.91,3.48,3.69,3.17,2.2-.38,1.83-3.01,2.35-4.69,1.15-3.75,1.94-7.6,3-11.37,2.22-7.9,4.81-15.64,9.43-22.55,5.23-7.82,12.54-11.47,21.83-10.48,11.94,1.28,22.81,5.52,32.32,12.98,6.32,4.96,9.26,11.57,9.47,19.55.22,8.45-1.15,16.63-3.74,24.65-6.41,19.82-14.31,39.06-22.47,58.2-10.16,23.86-19.59,47.98-27.03,72.85-2.4,8.02-4.09,16.2-5.66,24.41-.41,2.16-.47,4.4-.53,6.61-.29,11.42,4.18,10.33,11.5,7.74,3.24-1.15,5.71-3.6,7.94-6.26,7.22-8.6,10.47-19.06,13.79-29.45,2.28-7.14,4.07-14.44,5.6-21.79.31-1.5.76-2.97,1.25-4.43,2.12-6.34,5.8-9.2,12.37-9.56,2.21-.12,4.44-.14,6.65-.06,5.43.2,9.23,3.33,10.53,8.72,1.06,4.36,1.33,8.83.4,13.2-3.69,17.31-9.05,34-19.85,48.35-17.82,23.68-49.81,43.34-76.84,20.49-7.64-6.45-12.61-14.67-15.94-24-2.94-8.21-4.7-16.7-6.02-25.62ZM817.9,400.62c.09,7.64-.02,12.76,1.99,17.63,2.35,5.7,6.54,7.64,12.32,5.48,2.72-1.02,5.27-2.42,7.43-4.41,3.89-3.58,7.64-7.29,10.82-11.55,13.78-18.44,21.97-39.58,28.59-61.28,3.42-11.21,4.68-23.03,4.16-34.87-.28-6.48-.97-12.95-4.22-18.77-2.42-4.32-5.33-5.24-9.84-3.26-2.2.97-4.13,2.37-5.91,3.98-6.23,5.64-11.5,12.08-16.02,19.16-11.11,17.4-18.67,36.32-24.06,56.17-3.04,11.21-5.17,22.58-5.25,31.72ZM130.23,402.81c0,2.04,0,4.09,0,6.13-.02,3.11.57,6.12,1.6,9.02,2.17,6.09,6.42,8.03,12.51,5.79,2.26-.83,4.29-2.09,6.2-3.54,3.41-2.59,6.36-5.65,9.08-8.96,9.86-11.97,16.87-25.58,22.68-39.83,6.64-16.3,12-32.95,12.92-50.76.41-8.08.03-16.04-2.36-23.77-2.73-8.83-7.91-10.46-15.39-5.19-5.95,4.2-10.43,9.77-14.56,15.64-11.37,16.19-19.39,34.04-25.29,52.83-4.35,13.85-7.5,27.98-7.39,42.63ZM683.61,290.45c1.48-1.98,1.04-3.37.94-4.66-1.04-13.05-1.29-26.14-1.68-39.22-.12-4.1-.65-8.14-1.38-12.15-.52-2.85-1.32-5.66-2.99-8.08-2.61-3.78-4.99-3.86-7.45-.04-2.71,4.21-4.01,8.92-4.44,13.94-1.65,19.05,7.2,34.45,17,50.21ZM325.54,245.09c.97-.73.97-1.43.88-2.08-.88-6.41-1.89-12.8-3.4-19.09-.35-1.47-.88-2.97-1.68-4.25-1.48-2.37-3.75-2.35-5.27.04-2.18,3.42-2.19,7.12-.76,10.79,1.3,3.33,2.99,6.49,5.13,9.39,1.48,2.01,2.96,4.03,5.09,5.21Z"/>
  <path class="st0" d="M871.8,425.57c-2.86.49-4.22,2.13-5.84,3.31-12.88,9.35-26.93,15.97-42.7,18.77-19.63,3.49-37.79.23-53.64-12.22-14.11-11.09-21.28-26.31-24.21-43.71-.59-3.52-1.33-7.04-1.22-10.65.07-2.4-1.18-3.73-3.47-4.36-6.58-1.81-13.14-3.66-19.68-5.58-2.21-.65-3.1.16-3.55,2.27-.79,3.71-.83,7.46-.76,11.2.24,13.16-.57,26.26-3.23,39.15-3.59,17.38-10.66,33.05-23.5,45.73-2.82,2.78-5.89,5.25-9.38,7.03-23.33,11.91-48.76,12.87-69.24-5.38-9.7-8.64-15.16-20.02-20.55-31.45-9.35-19.84-13.27-41.12-16.48-62.58-.48-3.18-.91-6.36-1.41-9.83-2.48.5-3.57,2.35-4.96,3.7-8.06,7.84-17.13,13.95-27.96,17.4-6.81,2.16-13.64,3.2-20.65,1.74-1.61-.33-2.92-.26-4.04.21-1.88.79-2.83,2.45-3.17,3.03-3.76,6.55-5.46,14.85-8.01,21.91-4.62,12.83-9.63,25.6-16.03,37.66-5.45,10.28-12.08,22.56-22.73,28.17-11.34,5.97-25.81,5.93-37.67,1.58-23.07-8.45-39.93-29.46-48.28-52.56-8.35-23.1-9.18-48.23-7.98-72.77,1.2-24.54,4.33-49.03,3.53-73.58-.03-.85-.06-1.72-.32-2.54-1.27-4.01-7.32-4.45-10.53-1.74-3.22,2.72-4.3,7.13-5.28,11.22-13.69,57.75-39.11,113.97-74.77,161.54-11.79,15.74-28.3,33.23-49.38,33.7-14.53.28-28.33-8.17-36.97-19.86-8.63-11.69-12.62-26.26-14.06-40.72-24.97,18.21-58.02,30.71-86.61,18.97-24.21-9.94-39.43-35.98-41.17-62.09-1.75-26.11,8.27-51.91,22.96-73.57,15.01-22.14,35.92-41.36,61.55-49,25.63-7.65,56.22-1.7,73.44,18.77,3.8-8.6,5.1-18.08,8.16-26.97,3.06-8.89,8.57-17.73,17.36-21.06,7.28-2.75,15.46-1.22,22.89,1.11,11.65,3.66,23.64,10.22,28.01,21.63,3.49,9.12,1.35,19.34-1.31,28.74-15.96,56.47-49.15,108.02-56.71,166.21-.39,3.03-.03,7.45,2.37,8.71,7.89,4.14,36.3-28.1,54.87-60.88,30.12-53.17,38.66-115.41,38.66-115.42h0c.28-.75,1.35-3.37.25-5.78-.77-1.67-2.5-2.64-4.12-3.52-14.9-8.11-29.23-19.07-36.02-34.62-6.79-15.55-3.6-36.39,10.72-45.49,15.79-10.04,37.98-1.67,49.36,13.18,11.38,14.85,14.69,34.17,17.66,52.64,20.11-4.23,40.85-5.39,61.3-3.44,5.23.5,10.76,1.33,14.77,4.73,5.62,4.76,6.53,12.98,6.67,20.34.58,30.9-5.11,61.41-8.48,92.01-1.67,15.12-2.83,30.35-2.3,45.57.46,13.21-.03,32.35,10.44,41.92,2.24,2.04,3.8,3.06,5.27,2.92,1.95-.18,3.44-1.9,4.59-3.75,9.44-15.33,21.36-83.09,21.98-86.3.11-.54.52-2.48.12-4.94-.27-1.67-.88-3.27-1.79-4.85-9.86-16.98-14.33-35.63-16.93-54.84-2.79-20.61.99-40.78,4.41-60.95,1.63-9.6,4.36-18.94,7.27-28.21,2.11-6.74,4.63-8.9,11.47-8.53,9.7.53,19.4.82,29.11.98,6.18.1,10.81,4.33,12.62,10.25.81,2.65.88,5.37.93,8.1.25,12.96-.52,25.9-1.06,38.84-.27,6.47-.18,12.96-.19,19.44-.03,19.34,4.65,37.81,10.45,56.07.67,2.11,1.61,4.14,2.98,5.92,1.71,2.23,2.97,2.34,5.04.34.97-.94,1.88-2.03,2.49-3.22,3.44-6.66,7.49-13.07,9.59-20.32,3.42-11.84,9.49-22.63,13.36-34.29.53-1.6,1.39-3.13,2.31-4.55,3.37-5.17,7.94-8.4,14.36-8.32,12.62.15,24.6,3.26,36.26,7.87.47.19.9.49,1.35.74,8.03,4.37,12.77,11.16,14.37,20.07,1.24,6.88,2.46,13.77,3.2,20.72,1.87,17.62,3.21,35.3,5.22,52.91,1.38,12.08,3.16,24.11,5.3,36.08,1.25,7.01,1.59,23.97,8.48,28.32,6.1,3.85,9.96-6.15,11.39-10.17,3.12-8.71,4.88-17.75,6.13-26.88,1.52-11.13,3-22.28,4.06-33.47.59-6.26.65-12.58,1.27-18.86.26-2.67-.28-4.94-2.78-6.64-12.21-8.33-20.99-19.86-29.13-31.92-11.91-17.63-20.38-36.67-22.78-58.01-2.41-21.43,1.62-41.47,16.33-57.75,13.99-15.48,36.11-21.72,54.83-6.1,9.21,7.69,15.74,17.4,19.85,28.71,4.99,13.72,7.26,28.02,8.86,42.45,2.27,20.52-2.24,40.35-6.29,60.22-.24,1.17-.58,2.32-.94,3.45-.71,2.18.16,3.66,2.07,4.63,10.89,5.54,24.89,5.38,32.21-8.36,5.97-11.19,12.52-21.96,20.96-31.41,17.41-19.49,38.22-33.5,64.59-37.39,19.42-2.86,37.36.95,52.57,14.19,1.28,1.11,2.41,2.4,3.58,3.63,1.15,1.2,1.91,3.48,3.69,3.17,2.2-.38,1.83-3.01,2.35-4.69,1.15-3.75,1.94-7.6,3-11.37,2.22-7.9,4.81-15.64,9.43-22.55,5.23-7.82,12.54-11.47,21.83-10.48,11.94,1.28,22.81,5.52,32.32,12.98,6.32,4.96,9.26,11.57,9.47,19.55.22,8.45-1.15,16.63-3.74,24.65-6.41,19.82-14.31,39.06-22.47,58.2-10.16,23.86-19.59,47.98-27.03,72.85-2.4,8.02-4.09,16.2-5.66,24.41-.41,2.16-.47,4.4-.53,6.61-.29,11.42,4.18,10.33,11.5,7.74,3.24-1.15,5.71-3.6,7.94-6.26,7.22-8.6,10.47-19.06,13.79-29.45,2.28-7.14,4.07-14.44,5.6-21.79.31-1.5.76-2.97,1.25-4.43,2.12-6.34,5.8-9.2,12.37-9.56,2.21-.12,4.44-.14,6.65-.06,5.43.2,9.23,3.33,10.53,8.72,1.06,4.36,1.33,8.83.4,13.2-3.69,17.31-9.05,34-19.85,48.35-17.82,23.68-49.81,43.34-76.84,20.49-7.64-6.45-12.61-14.67-15.94-24-2.94-8.21-4.7-16.7-6.02-25.62ZM817.9,400.62c.09,7.64-.02,12.76,1.99,17.63,2.35,5.7,6.54,7.64,12.32,5.48,2.72-1.02,5.27-2.42,7.43-4.41,3.89-3.58,7.64-7.29,10.82-11.55,13.78-18.44,21.97-39.58,28.59-61.28,3.42-11.21,4.68-23.03,4.16-34.87-.28-6.48-.97-12.95-4.22-18.77-2.42-4.32-5.33-5.24-9.84-3.26-2.2.97-4.13,2.37-5.91,3.98-6.23,5.64-11.5,12.08-16.02,19.16-11.11,17.4-18.67,36.32-24.06,56.17-3.04,11.21-5.17,22.58-5.25,31.72ZM130.23,402.81c0,2.04,0,4.09,0,6.13-.02,3.11.57,6.12,1.6,9.02,2.17,6.09,6.42,8.03,12.51,5.79,2.26-.83,4.29-2.09,6.2-3.54,3.41-2.59,6.36-5.65,9.08-8.96,9.86-11.97,16.87-25.58,22.68-39.83,6.64-16.3,12-32.95,12.92-50.76.41-8.08.03-16.04-2.36-23.77-2.73-8.83-7.91-10.46-15.39-5.19-5.95,4.2-10.43,9.77-14.56,15.64-11.37,16.19-19.39,34.04-25.29,52.83-4.35,13.85-7.5,27.98-7.39,42.63ZM683.61,290.45c1.48-1.98,1.04-3.37.94-4.66-1.04-13.05-1.29-26.14-1.68-39.22-.12-4.1-.65-8.14-1.38-12.15-.52-2.85-1.32-5.66-2.99-8.08-2.61-3.78-4.99-3.86-7.45-.04-2.71,4.21-4.01,8.92-4.44,13.94-1.65,19.05,7.2,34.45,17,50.21ZM325.54,245.09c.97-.73.97-1.43.88-2.08-.88-6.41-1.89-12.8-3.4-19.09-.35-1.47-.88-2.97-1.68-4.25-1.48-2.37-3.75-2.35-5.27.04-2.18,3.42-2.19,7.12-.76,10.79,1.3,3.33,2.99,6.49,5.13,9.39,1.48,2.01,2.96,4.03,5.09,5.21Z"/>
</svg>