<svg width="148" height="49" viewBox="0 0 148 49" fill="none" xmlns="http://www.w3.org/2000/svg">
<path d="M119.468 36.5102C119.077 36.5776 118.89 36.8031 118.668 36.9653C116.903 38.2507 114.978 39.1609 112.817 39.5458C110.127 40.0256 107.638 39.5774 105.466 37.8658C103.532 36.3411 102.55 34.2487 102.148 31.8565C102.068 31.3726 101.966 30.8886 101.981 30.3923C101.991 30.0624 101.819 29.8795 101.506 29.7929C100.604 29.5441 99.705 29.2897 98.8088 29.0258C98.5059 28.9364 98.384 29.0478 98.3223 29.3378C98.214 29.8479 98.2086 30.3634 98.2181 30.8776C98.251 32.6869 98.14 34.4879 97.7755 36.26C97.2836 38.6494 96.3147 40.8038 94.5552 42.547C94.1687 42.9292 93.748 43.2688 93.2697 43.5135C90.0727 45.1509 86.5878 45.2829 83.7813 42.7739C82.452 41.586 81.7038 40.0215 80.9652 38.4501C79.6839 35.7225 79.1467 32.7969 78.7068 29.8465C78.641 29.4093 78.5821 28.9721 78.5136 28.4951C78.1737 28.5638 78.0244 28.8182 77.8339 29.0038C76.7294 30.0816 75.4865 30.9216 74.0023 31.3959C73.0691 31.6929 72.1332 31.8359 71.1725 31.6351C70.9519 31.5898 70.7724 31.5994 70.6189 31.664C70.3613 31.7726 70.2311 32.0009 70.1845 32.0806C69.6692 32.9811 69.4363 34.1222 69.0868 35.0928C68.4537 36.8567 67.7672 38.6123 66.8901 40.2703C66.1433 41.6837 65.2347 43.3719 63.7753 44.1432C62.2213 44.964 60.2383 44.9585 58.6131 44.3604C55.4516 43.1987 53.1412 40.3102 51.9969 37.1344C50.8527 33.9586 50.7389 30.5037 50.9034 27.1299C51.0678 23.7561 51.4967 20.3892 51.3871 17.014C51.383 16.8972 51.3789 16.7776 51.3433 16.6648C51.1692 16.1135 50.3402 16.053 49.9003 16.4256C49.459 16.7996 49.311 17.4058 49.1767 17.9681C47.3007 25.9077 43.8172 33.6369 38.9305 40.1769C37.3148 42.3408 35.0523 44.7454 32.1636 44.81C30.1724 44.8485 28.2813 43.6868 27.0973 42.0796C25.9147 40.4724 25.3679 38.4693 25.1706 36.4814C21.7487 38.9849 17.2197 40.7034 13.3018 39.0894C9.98412 37.7228 7.89841 34.1428 7.65997 30.5532C7.42015 26.9635 8.79326 23.4165 10.8063 20.4387C12.8633 17.3948 15.7287 14.7525 19.241 13.7021C22.7532 12.6504 26.9452 13.4684 29.305 16.2826C29.8257 15.1003 30.0039 13.797 30.4232 12.5748C30.8425 11.3525 31.5976 10.1372 32.8022 9.6794C33.7998 9.30132 34.9207 9.51167 35.9389 9.832C37.5354 10.3352 39.1785 11.2371 39.7773 12.8057C40.2556 14.0595 39.9623 15.4646 39.5978 16.7569C37.4107 24.5205 32.8625 31.6077 31.8265 39.6077C31.773 40.0243 31.8223 40.6319 32.1512 40.8051C33.2325 41.3743 37.1257 36.9419 39.6704 32.4353C43.798 25.1254 44.9683 16.5686 44.9683 16.5672C45.0067 16.4641 45.1533 16.1039 45.0026 15.7726C44.897 15.543 44.66 15.4096 44.438 15.2886C42.3961 14.1737 40.4324 12.6669 39.5019 10.529C38.5714 8.3912 39.0086 5.52609 40.9709 4.27501C43.1348 2.8947 46.1756 4.04542 47.7351 6.08701C49.2946 8.12861 49.7482 10.7847 50.1552 13.324C52.911 12.7425 55.7531 12.583 58.5555 12.8511C59.2722 12.9198 60.03 13.0339 60.5796 13.5014C61.3497 14.1558 61.4744 15.2859 61.4936 16.2977C61.5731 20.5459 60.7933 24.7405 60.3315 28.9474C60.1027 31.0261 59.9437 33.1199 60.0163 35.2124C60.0794 37.0285 60.0122 39.6599 61.447 40.9756C61.754 41.2561 61.9677 41.3963 62.1692 41.3771C62.4364 41.3523 62.6406 41.1159 62.7982 40.8615C64.0918 38.7539 65.7253 29.4382 65.8103 28.9969C65.8253 28.9226 65.8815 28.6559 65.8267 28.3177C65.7897 28.0881 65.7061 27.8682 65.5814 27.6509C64.2302 25.3165 63.6177 22.7525 63.2614 20.1115C62.879 17.278 63.397 14.505 63.8657 11.732C64.0891 10.4122 64.4632 9.1281 64.862 7.85365C65.1511 6.92702 65.4965 6.63006 66.4338 6.68093C67.763 6.7538 69.0923 6.79367 70.4229 6.81566C71.2698 6.82941 71.9043 7.41096 72.1523 8.22485C72.2633 8.58917 72.2729 8.96312 72.2798 9.33844C72.314 11.1202 72.2085 12.8992 72.1345 14.6782C72.0975 15.5677 72.1099 16.46 72.1085 17.3508C72.1044 20.0097 72.7457 22.549 73.5405 25.0594C73.6323 25.3495 73.7612 25.6286 73.9489 25.8733C74.1832 26.1799 74.3559 26.195 74.6396 25.9201C74.7725 25.7908 74.8972 25.641 74.9808 25.4774C75.4522 24.5617 76.0072 23.6805 76.295 22.6837C76.7636 21.056 77.5955 19.5725 78.1258 17.9695C78.1984 17.7495 78.3163 17.5392 78.4423 17.344C78.9042 16.6332 79.5304 16.1891 80.4102 16.2001C82.1396 16.2208 83.7813 16.6483 85.3792 17.2821C85.4436 17.3082 85.5025 17.3495 85.5642 17.3838C86.6646 17.9846 87.3141 18.9181 87.5334 20.1431C87.7033 21.089 87.8705 22.0362 87.9719 22.9917C88.2282 25.4141 88.4118 27.8448 88.6872 30.2658C88.8763 31.9266 89.1203 33.5805 89.4135 35.2262C89.5848 36.1899 89.6314 38.5216 90.5756 39.1196C91.4115 39.6489 91.9405 38.2741 92.1364 37.7214C92.564 36.524 92.8052 35.2812 92.9765 34.0259C93.1848 32.4958 93.3876 30.9629 93.5329 29.4245C93.6137 28.5638 93.6219 27.6949 93.7069 26.8316C93.7425 26.4645 93.6685 26.1524 93.3259 25.9187C91.6527 24.7735 90.4495 23.1883 89.334 21.5303C87.7019 19.1065 86.5412 16.4888 86.2123 13.555C85.8821 10.6088 86.4343 7.85365 88.4502 5.61545C90.3673 3.48724 93.3986 2.62936 95.9639 4.77682C97.226 5.83405 98.1209 7.16899 98.6841 8.7239C99.3679 10.6101 99.679 12.5761 99.8982 14.56C100.209 17.3811 99.5913 20.1073 99.0363 22.8391C99.0034 23 98.9568 23.1581 98.9074 23.3134C98.8102 23.6131 98.9294 23.8166 99.1911 23.9499C100.683 24.7116 102.602 24.6896 103.605 22.8006C104.423 21.2622 105.321 19.7815 106.477 18.4823C108.863 15.8028 111.715 13.8767 115.329 13.3419C117.99 12.9487 120.448 13.4725 122.533 15.2928C122.708 15.4454 122.863 15.6227 123.023 15.7918C123.181 15.9568 123.285 16.2702 123.529 16.2276C123.83 16.1754 123.78 15.8138 123.851 15.5828C124.009 15.0673 124.117 14.538 124.262 14.0197C124.566 12.9336 124.921 11.8695 125.554 10.9195C126.271 9.84437 127.273 9.34257 128.546 9.47867C130.182 9.65465 131.672 10.2376 132.975 11.2632C133.841 11.9451 134.244 12.8538 134.273 13.9509C134.303 15.1127 134.115 16.2373 133.76 17.3399C132.882 20.0647 131.799 22.7099 130.681 25.3413C129.289 28.6216 127.996 31.9376 126.977 35.3568C126.648 36.4594 126.416 37.584 126.201 38.7127C126.145 39.0096 126.137 39.3176 126.128 39.6214C126.089 41.1915 126.701 41.0416 127.704 40.6855C128.148 40.5274 128.487 40.1906 128.792 39.8249C129.782 38.6426 130.227 37.2045 130.682 35.7761C130.995 34.7945 131.24 33.7909 131.45 32.7804C131.492 32.5741 131.554 32.3721 131.621 32.1713C131.911 31.2997 132.416 30.9065 133.316 30.857C133.619 30.8405 133.925 30.8378 134.227 30.8488C134.971 30.8763 135.492 31.3066 135.67 32.0476C135.816 32.647 135.853 33.2616 135.725 33.8623C135.22 36.2421 134.485 38.5367 133.005 40.5096C130.563 43.7651 126.179 46.468 122.475 43.3266C121.428 42.4398 120.747 41.3097 120.291 40.027C119.888 38.8983 119.647 37.7311 119.466 36.5047L119.468 36.5102ZM112.082 33.0801C112.095 34.1304 112.079 34.8343 112.355 35.5039C112.677 36.2875 113.251 36.5542 114.043 36.2573C114.416 36.117 114.765 35.9246 115.061 35.651C115.594 35.1588 116.108 34.6487 116.544 34.0631C118.432 31.5279 119.555 28.6216 120.462 25.6382C120.931 24.0971 121.103 22.472 121.032 20.8442C120.994 19.9534 120.899 19.0639 120.454 18.2637C120.122 17.6698 119.723 17.5433 119.105 17.8155C118.804 17.9489 118.539 18.1414 118.295 18.3627C117.442 19.1381 116.72 20.0235 116.1 20.9969C114.578 23.389 113.542 25.9902 112.803 28.7192C112.386 30.2603 112.095 31.8235 112.084 33.0801H112.082ZM17.8459 33.3812C17.8459 33.6616 17.8459 33.9435 17.8459 34.2239C17.8432 34.6515 17.924 35.0653 18.0652 35.464C18.3626 36.3013 18.945 36.568 19.7795 36.26C20.0892 36.1459 20.3674 35.9727 20.6292 35.7733C21.0964 35.4173 21.5007 34.9966 21.8734 34.5415C23.2246 32.8959 24.1853 31.0247 24.9815 29.0656C25.8914 26.8247 26.6259 24.5356 26.752 22.0871C26.8082 20.9762 26.7561 19.8819 26.4286 18.8192C26.0545 17.6052 25.3446 17.3811 24.3196 18.1056C23.5042 18.683 22.8903 19.4488 22.3243 20.2558C20.7662 22.4816 19.6672 24.9357 18.8586 27.519C18.2625 29.4231 17.8309 31.3657 17.8459 33.3798V33.3812ZM93.6795 17.9338C93.8823 17.6616 93.822 17.4705 93.8083 17.2931C93.6658 15.499 93.6315 13.6993 93.5781 11.9011C93.5616 11.3374 93.489 10.782 93.389 10.2307C93.3177 9.83887 93.2081 9.45255 92.9792 9.11985C92.6216 8.60017 92.2954 8.58917 91.9583 9.11435C91.5869 9.69315 91.4088 10.3407 91.3499 11.0308C91.1237 13.6499 92.3365 15.7671 93.6795 17.9338ZM44.6106 11.6976C44.7436 11.5973 44.7436 11.501 44.7312 11.4117C44.6106 10.5304 44.4722 9.6519 44.2653 8.78714C44.2173 8.58505 44.1447 8.37882 44.0351 8.20285C43.8323 7.87702 43.5212 7.87977 43.3129 8.20835C43.0142 8.67853 43.0128 9.18721 43.2087 9.69177C43.3869 10.1496 43.6185 10.584 43.9117 10.9827C44.1146 11.2591 44.3174 11.5368 44.6093 11.699L44.6106 11.6976Z" fill="#383838"/>
<path d="M32.0689 48.0779C29.1857 48.0779 26.3476 46.5601 24.4771 44.0181C23.9152 43.2551 23.4411 42.4096 23.056 41.4857C20.8675 42.4659 18.6544 42.9856 16.5783 42.9856C14.9914 42.9856 13.4744 42.6914 12.067 42.1112C7.7572 40.335 4.7506 35.882 4.40938 30.7676C4.14353 26.7807 5.42345 22.5724 8.11075 18.5978C10.0375 15.7478 13.3702 12.0413 18.3118 10.562C19.5917 10.1785 20.9278 9.98461 22.2831 9.98461C24.1455 9.98461 25.9242 10.3476 27.5179 11.0281C28.3785 8.86276 29.8325 7.30373 31.651 6.61495C32.3759 6.33998 33.1598 6.20113 33.982 6.20113C34.6069 6.20113 35.2441 6.27674 35.9375 6.4376C36.3555 4.4125 37.4929 2.61424 39.2236 1.51027C40.3665 0.781616 41.7095 0.39667 43.11 0.39667C45.8192 0.39667 48.5846 1.8141 50.325 4.09491C51.6365 5.81205 52.3353 7.74917 52.778 9.60791C53.8181 9.50343 54.865 9.44981 55.9106 9.44981C56.8946 9.44981 57.8895 9.49793 58.8665 9.59004C59.5051 9.65053 60.1958 9.75227 60.8878 9.98736C61.1331 8.90126 61.4428 7.8564 61.7512 6.87203C62.6953 3.85157 64.9702 3.40201 66.2419 3.40201C66.3597 3.40201 66.4831 3.40476 66.6132 3.41301C67.7712 3.47625 69.036 3.52024 70.4777 3.54362C72.7114 3.58073 74.5915 5.04216 75.2712 7.26661C75.5179 8.07637 75.5316 8.79677 75.5412 9.27521C75.5713 10.8356 75.5028 12.3658 75.4357 13.8451L75.3932 14.8143C75.3754 15.246 75.3699 15.686 75.3699 16.141C75.4699 15.9485 75.5837 15.7533 75.7125 15.5554C76.8115 13.8616 78.4697 12.9267 80.3813 12.9267H80.4526C81.2584 12.9377 82.0724 13.0161 82.9028 13.1646C82.6315 9.3027 83.6826 6.0279 86.0314 3.41988C87.8416 1.40991 90.2823 0.257812 92.727 0.257812C94.6442 0.257812 96.4859 0.950718 98.0536 2.26229C99.731 3.66597 100.974 5.46285 101.75 7.60344C102.59 9.91999 102.924 12.2366 103.14 14.197C103.258 15.2653 103.269 16.3005 103.21 17.3082C103.472 16.9687 103.75 16.6318 104.045 16.3005C107.219 12.7356 110.754 10.7091 114.853 10.1028C115.563 9.99836 116.266 9.94474 116.944 9.94474C118.706 9.94474 120.345 10.2926 121.847 10.9813C122.109 10.3531 122.431 9.72065 122.844 9.10061C124.096 7.21986 125.978 6.18463 128.143 6.18463C128.39 6.18463 128.643 6.19838 128.894 6.22587C131.171 6.47196 133.221 7.30098 134.986 8.68954C136.597 9.95711 137.476 11.7471 137.531 13.8657C137.57 15.3423 137.345 16.849 136.861 18.3462C135.992 21.0422 134.96 23.6049 133.681 26.6226C133.542 26.9484 133.408 27.2688 133.276 27.5836C133.472 27.5753 133.668 27.5712 133.866 27.5712C134.026 27.5712 134.186 27.574 134.347 27.5795C136.553 27.6592 138.318 29.111 138.841 31.2763C139.113 32.3995 139.139 33.4994 138.915 34.5443C138.427 36.8361 137.612 39.8098 135.611 42.4769C133.021 45.9305 129.457 47.9927 126.075 47.9927C124.015 47.9927 122.043 47.2434 120.37 45.826C119.059 44.7151 118.049 43.2633 117.361 41.5077C116.07 42.1016 114.741 42.5209 113.384 42.7629C112.523 42.9169 111.672 42.9939 110.854 42.9939C108.094 42.9939 105.602 42.1332 103.447 40.434C102.406 39.6132 101.532 38.6453 100.827 37.5372C100.116 40.5178 98.8087 42.921 96.8422 44.8691C96.1666 45.5386 95.4828 46.0459 94.7483 46.4213C92.738 47.451 90.7153 47.972 88.7351 47.972C86.093 47.972 83.6291 47.0166 81.6078 45.21C79.7592 43.5575 78.7903 41.4953 78.012 39.8387C77.1171 37.9345 76.5457 35.9686 76.1373 34.0727C75.7618 34.2363 75.3781 34.3807 74.9848 34.5058C74.127 34.7794 73.3226 34.9361 72.5415 34.9787L72.5141 35.0694C72.4044 35.431 72.2907 35.8063 72.1523 36.1927C71.5479 37.8782 70.7915 39.8607 69.7692 41.795C68.9305 43.3815 67.6629 45.7778 65.2936 47.0303C64.0301 47.6971 62.5528 48.0504 61.0194 48.0504C59.8244 48.0504 58.6034 47.8346 57.4893 47.4249C53.6427 46.0116 50.5223 42.6625 48.9286 38.2398C48.1735 36.1432 47.8145 33.9985 47.6665 31.9761C45.9316 35.5905 43.8747 39.0055 41.5382 42.1346C40.4611 43.5768 37.1804 47.9665 32.2334 48.0752H32.0648L32.0689 48.0779Z" fill="white"/>
<path d="M119.468 36.5102C119.077 36.5776 118.89 36.8031 118.668 36.9653C116.903 38.2507 114.978 39.1609 112.817 39.5458C110.127 40.0256 107.638 39.5774 105.466 37.8658C103.532 36.3411 102.55 34.2487 102.148 31.8565C102.068 31.3726 101.966 30.8886 101.981 30.3923C101.991 30.0624 101.819 29.8795 101.506 29.7929C100.604 29.5441 99.705 29.2897 98.8088 29.0258C98.5059 28.9364 98.384 29.0478 98.3223 29.3378C98.214 29.8479 98.2086 30.3634 98.2181 30.8776C98.251 32.6869 98.14 34.4879 97.7755 36.26C97.2836 38.6494 96.3147 40.8038 94.5552 42.547C94.1687 42.9292 93.748 43.2688 93.2697 43.5135C90.0727 45.1509 86.5878 45.2829 83.7813 42.7739C82.452 41.586 81.7038 40.0215 80.9652 38.4501C79.6839 35.7225 79.1467 32.7969 78.7068 29.8465C78.641 29.4093 78.5821 28.9721 78.5136 28.4951C78.1737 28.5638 78.0244 28.8182 77.8339 29.0038C76.7294 30.0816 75.4865 30.9216 74.0023 31.3959C73.0691 31.6929 72.1332 31.8359 71.1725 31.6351C70.9519 31.5898 70.7724 31.5994 70.6189 31.664C70.3613 31.7726 70.2311 32.0009 70.1845 32.0806C69.6692 32.9811 69.4363 34.1222 69.0868 35.0928C68.4537 36.8567 67.7672 38.6123 66.8901 40.2703C66.1433 41.6837 65.2347 43.3719 63.7753 44.1432C62.2213 44.964 60.2383 44.9585 58.6131 44.3604C55.4516 43.1987 53.1412 40.3102 51.9969 37.1344C50.8527 33.9586 50.7389 30.5037 50.9034 27.1299C51.0678 23.7561 51.4967 20.3892 51.3871 17.014C51.383 16.8972 51.3789 16.7776 51.3433 16.6648C51.1692 16.1135 50.3402 16.053 49.9003 16.4256C49.459 16.7996 49.311 17.4058 49.1767 17.9681C47.3007 25.9077 43.8172 33.6369 38.9305 40.1769C37.3148 42.3408 35.0523 44.7454 32.1636 44.81C30.1724 44.8485 28.2813 43.6868 27.0973 42.0796C25.9147 40.4724 25.3679 38.4693 25.1706 36.4814C21.7487 38.9849 17.2197 40.7034 13.3018 39.0894C9.98412 37.7228 7.89841 34.1428 7.65997 30.5532C7.42015 26.9635 8.79326 23.4165 10.8063 20.4387C12.8633 17.3948 15.7287 14.7525 19.241 13.7021C22.7532 12.6504 26.9452 13.4684 29.305 16.2826C29.8257 15.1003 30.0039 13.797 30.4232 12.5748C30.8425 11.3525 31.5976 10.1372 32.8022 9.6794C33.7998 9.30132 34.9207 9.51167 35.9389 9.832C37.5354 10.3352 39.1785 11.2371 39.7773 12.8057C40.2556 14.0595 39.9623 15.4646 39.5978 16.7569C37.4107 24.5205 32.8625 31.6077 31.8265 39.6077C31.773 40.0243 31.8223 40.6319 32.1512 40.8051C33.2325 41.3743 37.1257 36.9419 39.6704 32.4353C43.798 25.1254 44.9683 16.5686 44.9683 16.5672C45.0067 16.4641 45.1533 16.1039 45.0026 15.7726C44.897 15.543 44.66 15.4096 44.438 15.2886C42.3961 14.1737 40.4324 12.6669 39.5019 10.529C38.5714 8.3912 39.0086 5.52609 40.9709 4.27501C43.1348 2.8947 46.1756 4.04542 47.7351 6.08701C49.2946 8.12861 49.7482 10.7847 50.1552 13.324C52.911 12.7425 55.7531 12.583 58.5555 12.8511C59.2722 12.9198 60.03 13.0339 60.5796 13.5014C61.3497 14.1558 61.4744 15.2859 61.4936 16.2977C61.5731 20.5459 60.7933 24.7405 60.3315 28.9474C60.1027 31.0261 59.9437 33.1199 60.0163 35.2124C60.0794 37.0285 60.0122 39.6599 61.447 40.9756C61.754 41.2561 61.9677 41.3963 62.1692 41.3771C62.4364 41.3523 62.6406 41.1159 62.7982 40.8615C64.0918 38.7539 65.7253 29.4382 65.8103 28.9969C65.8253 28.9226 65.8815 28.6559 65.8267 28.3177C65.7897 28.0881 65.7061 27.8682 65.5814 27.6509C64.2302 25.3165 63.6177 22.7525 63.2614 20.1115C62.879 17.278 63.397 14.505 63.8657 11.732C64.0891 10.4122 64.4632 9.1281 64.862 7.85365C65.1511 6.92702 65.4965 6.63006 66.4338 6.68093C67.763 6.7538 69.0923 6.79367 70.4229 6.81566C71.2698 6.82941 71.9043 7.41096 72.1523 8.22485C72.2633 8.58917 72.2729 8.96312 72.2798 9.33844C72.314 11.1202 72.2085 12.8992 72.1345 14.6782C72.0975 15.5677 72.1099 16.46 72.1085 17.3508C72.1044 20.0097 72.7457 22.549 73.5405 25.0594C73.6323 25.3495 73.7612 25.6286 73.9489 25.8733C74.1832 26.1799 74.3559 26.195 74.6396 25.9201C74.7725 25.7908 74.8972 25.641 74.9808 25.4774C75.4522 24.5617 76.0072 23.6805 76.295 22.6837C76.7636 21.056 77.5955 19.5725 78.1258 17.9695C78.1984 17.7495 78.3163 17.5392 78.4423 17.344C78.9042 16.6332 79.5304 16.1891 80.4102 16.2001C82.1396 16.2208 83.7813 16.6483 85.3792 17.2821C85.4436 17.3082 85.5025 17.3495 85.5642 17.3838C86.6646 17.9846 87.3141 18.9181 87.5334 20.1431C87.7033 21.089 87.8705 22.0362 87.9719 22.9917C88.2282 25.4141 88.4118 27.8448 88.6872 30.2658C88.8763 31.9266 89.1203 33.5805 89.4135 35.2262C89.5848 36.1899 89.6314 38.5216 90.5756 39.1196C91.4115 39.6489 91.9405 38.2741 92.1364 37.7214C92.564 36.524 92.8052 35.2812 92.9765 34.0259C93.1848 32.4958 93.3876 30.9629 93.5329 29.4245C93.6137 28.5638 93.6219 27.6949 93.7069 26.8316C93.7425 26.4645 93.6685 26.1524 93.3259 25.9187C91.6527 24.7735 90.4495 23.1883 89.334 21.5303C87.7019 19.1065 86.5412 16.4888 86.2123 13.555C85.8821 10.6088 86.4343 7.85365 88.4502 5.61545C90.3673 3.48724 93.3986 2.62936 95.9639 4.77682C97.226 5.83405 98.1209 7.16899 98.6841 8.7239C99.3679 10.6101 99.679 12.5761 99.8982 14.56C100.209 17.3811 99.5913 20.1073 99.0363 22.8391C99.0034 23 98.9568 23.1581 98.9074 23.3134C98.8102 23.6131 98.9294 23.8166 99.1911 23.9499C100.683 24.7116 102.602 24.6896 103.605 22.8006C104.423 21.2622 105.321 19.7815 106.477 18.4823C108.863 15.8028 111.715 13.8767 115.329 13.3419C117.99 12.9487 120.448 13.4725 122.533 15.2928C122.708 15.4454 122.863 15.6227 123.023 15.7918C123.181 15.9568 123.285 16.2702 123.529 16.2276C123.83 16.1754 123.78 15.8138 123.851 15.5828C124.009 15.0673 124.117 14.538 124.262 14.0197C124.566 12.9336 124.921 11.8695 125.554 10.9195C126.271 9.84437 127.273 9.34257 128.546 9.47867C130.182 9.65465 131.672 10.2376 132.975 11.2632C133.841 11.9451 134.244 12.8538 134.273 13.9509C134.303 15.1127 134.115 16.2373 133.76 17.3399C132.882 20.0647 131.799 22.7099 130.681 25.3413C129.289 28.6216 127.996 31.9376 126.977 35.3568C126.648 36.4594 126.416 37.584 126.201 38.7127C126.145 39.0096 126.137 39.3176 126.128 39.6214C126.089 41.1915 126.701 41.0416 127.704 40.6855C128.148 40.5274 128.487 40.1906 128.792 39.8249C129.782 38.6426 130.227 37.2045 130.682 35.7761C130.995 34.7945 131.24 33.7909 131.45 32.7804C131.492 32.5741 131.554 32.3721 131.621 32.1713C131.911 31.2997 132.416 30.9065 133.316 30.857C133.619 30.8405 133.925 30.8378 134.227 30.8488C134.971 30.8763 135.492 31.3066 135.67 32.0476C135.816 32.647 135.853 33.2616 135.725 33.8623C135.22 36.2421 134.485 38.5367 133.005 40.5096C130.563 43.7651 126.179 46.468 122.475 43.3266C121.428 42.4398 120.747 41.3097 120.291 40.027C119.888 38.8983 119.647 37.7311 119.466 36.5047L119.468 36.5102ZM112.082 33.0801C112.095 34.1304 112.079 34.8343 112.355 35.5039C112.677 36.2875 113.251 36.5542 114.043 36.2573C114.416 36.117 114.765 35.9246 115.061 35.651C115.594 35.1588 116.108 34.6487 116.544 34.0631C118.432 31.5279 119.555 28.6216 120.462 25.6382C120.931 24.0971 121.103 22.472 121.032 20.8442C120.994 19.9534 120.899 19.0639 120.454 18.2637C120.122 17.6698 119.723 17.5433 119.105 17.8155C118.804 17.9489 118.539 18.1414 118.295 18.3627C117.442 19.1381 116.72 20.0235 116.1 20.9969C114.578 23.389 113.542 25.9902 112.803 28.7192C112.386 30.2603 112.095 31.8235 112.084 33.0801H112.082ZM17.8459 33.3812C17.8459 33.6616 17.8459 33.9435 17.8459 34.2239C17.8432 34.6515 17.924 35.0653 18.0652 35.464C18.3626 36.3013 18.945 36.568 19.7795 36.26C20.0892 36.1459 20.3674 35.9727 20.6292 35.7733C21.0964 35.4173 21.5007 34.9966 21.8734 34.5415C23.2246 32.8959 24.1853 31.0247 24.9815 29.0656C25.8914 26.8247 26.6259 24.5356 26.752 22.0871C26.8082 20.9762 26.7561 19.8819 26.4286 18.8192C26.0545 17.6052 25.3446 17.3811 24.3196 18.1056C23.5042 18.683 22.8903 19.4488 22.3243 20.2558C20.7662 22.4816 19.6672 24.9357 18.8586 27.519C18.2625 29.4231 17.8309 31.3657 17.8459 33.3798V33.3812ZM93.6795 17.9338C93.8823 17.6616 93.822 17.4705 93.8083 17.2931C93.6658 15.499 93.6315 13.6993 93.5781 11.9011C93.5616 11.3374 93.489 10.782 93.389 10.2307C93.3177 9.83887 93.2081 9.45255 92.9792 9.11985C92.6216 8.60017 92.2954 8.58917 91.9583 9.11435C91.5869 9.69315 91.4088 10.3407 91.3499 11.0308C91.1237 13.6499 92.3365 15.7671 93.6795 17.9338ZM44.6106 11.6976C44.7436 11.5973 44.7436 11.501 44.7312 11.4117C44.6106 10.5304 44.4722 9.6519 44.2653 8.78714C44.2173 8.58505 44.1447 8.37882 44.0351 8.20285C43.8323 7.87702 43.5212 7.87977 43.3129 8.20835C43.0142 8.67853 43.0128 9.18721 43.2087 9.69177C43.3869 10.1496 43.6185 10.584 43.9117 10.9827C44.1146 11.2591 44.3174 11.5368 44.6093 11.699L44.6106 11.6976Z" fill="#383838"/>
</svg>
