<svg width="461" height="369" viewBox="0 0 461 369" fill="none" xmlns="http://www.w3.org/2000/svg">
<g clip-path="url(#clip0_1_694)">
<mask id="mask0_1_694" style="mask-type:luminance" maskUnits="userSpaceOnUse" x="-95" y="-139" width="711" height="697">
<path d="M615.646 -138.527H-94.5186V557.723H615.646V-138.527Z" fill="white"/>
</mask>
<g mask="url(#mask0_1_694)">
<path d="M155.886 397.837C155.774 397.846 155.662 397.846 155.55 397.837C155.23 397.794 154.921 397.688 154.642 397.526C154.363 397.363 154.118 397.147 153.923 396.89C153.727 396.633 153.585 396.339 153.503 396.027C153.421 395.714 153.402 395.389 153.446 395.069C156.011 376.21 163.066 360.04 174.416 347.014C196.266 321.928 231.821 312.039 261.575 312.551C259.124 304.04 257.445 295.325 256.558 286.512C255.302 273.104 252.31 241.831 271.432 216.423C289.291 192.685 320.677 181.875 349.34 180.454C348.463 178.653 347.617 176.814 346.802 174.937C334.446 146.255 334.446 117.329 346.802 95.5765C361.209 70.2012 391.147 55.9848 417.16 52.1249C413.537 35.7385 415.28 15.9197 423.532 0.881308C423.863 0.340418 424.389 -0.0524372 425.001 -0.215722C425.614 -0.379007 426.265 -0.300173 426.821 0.00441423C427.377 0.309002 427.794 0.815943 427.986 1.42002C428.178 2.0241 428.13 2.67891 427.852 3.24853C420.172 17.2414 418.594 36.1923 422.046 51.5134C423.19 51.4016 424.321 51.303 425.446 51.2306C440.925 50.218 452.971 53.302 457.666 59.483C461.776 64.9211 462.585 75.5604 457.423 80.6038C451.86 86.0419 440.609 83.5168 434.408 79.9923C426.925 75.7839 421.513 67.2883 418.377 56.9186C393.495 60.4628 364.746 73.9033 351.056 98.0094C339.476 118.394 339.562 145.735 351.299 172.971C352.371 175.463 353.535 177.903 354.765 180.283C359.654 180.234 364.541 180.475 369.402 181.007C387.347 182.979 400.11 188.693 403.542 196.282C405.679 200.99 405.975 210.09 400.991 214.871C397.296 218.428 391.312 219.224 383.204 217.232C373.176 214.766 361.044 202.18 351.806 185.254C323.807 186.122 292.717 196.282 275.338 219.369C257.367 243.251 260.115 272.131 261.437 286.006C262.332 295.057 264.094 304.001 266.698 312.716C269.38 312.874 272.011 313.124 274.588 313.452C292.106 315.727 304.895 321.823 308.781 329.76C308.985 330.174 313.693 339.912 308.933 346.449C304.553 352.452 294.545 352.058 289.863 351.012C276.942 348.119 268.355 333.297 263.081 317.477C234.214 316.536 199.298 325.854 178.098 350.21C167.393 362.5 160.732 377.827 158.292 395.693C158.213 396.284 157.922 396.825 157.473 397.217C157.024 397.609 156.449 397.824 155.853 397.824M268.368 317.772C273.313 331.838 280.802 343.943 290.975 346.218C294.986 347.113 302.337 347.185 304.981 343.555C307.486 340.129 305.342 333.876 304.396 331.956C301.259 325.597 289.594 320.383 273.957 318.351C272.129 318.114 270.266 317.921 268.368 317.772ZM357.493 185.222C365.805 199.537 376.339 210.478 384.407 212.458C392.298 214.43 395.948 212.925 397.598 211.333C400.735 208.315 400.57 201.608 399.084 198.327C396.454 192.521 384.618 187.648 368.889 185.912C365.207 185.511 361.393 185.254 357.493 185.254M423.328 56.3728C426.084 65.1512 430.647 72.2528 436.802 75.7445C442.352 78.8942 450.762 80.2356 453.951 77.1122C457.14 73.9888 456.469 66.1375 453.708 62.4881C450.091 57.7076 439.386 55.2944 425.761 56.1821C424.953 56.2347 424.144 56.3004 423.328 56.3728Z" fill="#383838"/>
<path d="M145.495 228.818L145.604 229.015L145.75 229.292L145.962 229.686L146.422 230.547C169.847 274.398 182.369 299.4 185.828 309.23L185.901 309.449L187.434 314.469C188.011 315.932 188.847 317.279 189.9 318.447C190.643 319.231 191.481 319.917 192.396 320.49L192.725 320.68C193.239 320.957 193.77 321.201 194.316 321.409C194.841 321.614 213.129 325.314 232.825 309.42C236.59 306.376 254.944 291.57 251.601 277.507C251.349 276.457 250.984 275.437 250.514 274.464C249.331 272.089 247.576 270.045 245.406 268.517L244.413 267.962C243.392 267.544 242.349 267.179 241.29 266.867C239.166 266.254 232.475 263.992 225.075 266.583C217.122 269.421 210.285 274.726 205.561 281.725L204.496 283.331L203.576 281.645C193.287 262.88 182.999 244.116 172.715 225.352L172.481 224.936L171.649 223.418L170.482 221.287C170.537 221.084 170.635 220.896 170.77 220.734C170.905 220.573 171.073 220.443 171.262 220.353C171.453 220.258 171.663 220.211 171.875 220.214C172.129 220.219 172.379 220.282 172.605 220.396C173.39 220.882 174.068 221.523 174.597 222.279L174.685 222.389C176.787 224.95 183.063 225.308 186.77 224.921C195.206 224.045 200.409 217.966 202.365 215.675C203.89 213.88 207.473 209.691 208.203 203.473C208.332 202.398 208.396 201.316 208.393 200.233C206.145 201.153 204.386 201.197 203.131 200.343C202.633 199.966 202.216 199.492 201.905 198.951C201.594 198.409 201.396 197.81 201.321 197.19C201.212 196.613 201.221 196.019 201.346 195.445C201.472 194.871 201.711 194.327 202.051 193.848C203.365 192.191 206.094 192.089 207.816 193.031C208.441 193.407 208.984 193.905 209.413 194.496C209.842 195.086 210.147 195.757 210.312 196.468C213.232 194.544 215.874 192.228 218.164 189.586C219.843 187.691 221.3 185.61 222.506 183.383C224.358 179.914 225.408 176.074 225.578 172.145C225.8 166.826 224.42 161.564 221.616 157.039C221.119 156.251 217.69 150.989 213.282 148.537C212.837 150.045 211.992 151.404 210.837 152.471C208.94 154.171 206.897 154.806 205.087 154.259C202.81 153.573 201.131 151.15 201.489 149.07C202.073 145.684 207.283 144.983 207.874 144.918C209.075 144.779 210.291 144.87 211.458 145.188C211.55 143.053 211.388 140.914 210.976 138.817C209.855 132.97 207.068 127.572 202.949 123.273C198.798 118.954 193.614 115.766 187.886 114.012C182.609 112.335 177.022 111.868 171.54 112.648C169.084 113.024 166.67 113.632 164.33 114.465C165.395 117.085 166.249 121.259 163.848 123.477C163.1 124.134 162.179 124.562 161.194 124.711C160.21 124.859 159.204 124.723 158.295 124.317C157.35 123.809 156.567 123.044 156.039 122.11C155.511 121.176 155.258 120.112 155.31 119.04C155.485 116.851 157.382 114.91 160.951 113.202C159.63 111.261 157.733 109.838 154.974 108.671C150.693 106.872 146.153 105.764 141.525 105.387C137.693 105.071 133.837 105.211 130.038 105.803C126.246 106.346 122.538 107.371 119.005 108.853C115.051 110.687 111.368 113.054 108.058 115.888C107.284 116.616 106.56 117.397 105.891 118.223C108.022 118.537 110.065 119.318 111.182 121.186C112.298 123.054 112.386 126.141 110.663 127.586C108.686 129.235 105.774 127.907 105.212 127.622C104.351 127.169 103.589 126.549 102.971 125.797C102.353 125.045 101.892 124.177 101.614 123.244C101.414 122.304 101.477 121.326 101.797 120.42H101.417C96.3239 120.287 91.3134 121.729 87.0704 124.55L87.012 124.594C85.0291 125.912 83.2197 127.473 81.6264 129.242C79.0845 131.975 77.4417 135.421 76.9194 139.116C76.5987 141.869 76.8471 144.658 77.6492 147.311C78.8606 146.545 80.612 145.713 82.2759 146.297C83.9397 146.881 85.5963 149.216 84.9614 151.215C84.3265 153.215 81.8526 154.222 80.0355 153.864C78.576 153.573 77.3865 152.405 76.4597 150.719C72.9657 152.435 69.9255 154.95 67.5859 158.061C66.1773 160.044 65.0547 162.216 64.2509 164.512C62.6097 168.951 62.3302 173.778 63.4481 178.377C65.2287 185.602 69.9357 189.725 72.7452 192.184L72.9204 192.337C74.564 193.828 76.3261 195.182 78.1892 196.387C78.6709 194.643 79.7509 191.316 82.6262 190.549C83.4679 190.374 84.3372 190.378 85.1773 190.562C86.0173 190.745 86.8092 191.104 87.5009 191.615C88.0732 191.983 88.5592 192.47 88.9258 193.043C89.2923 193.616 89.5306 194.261 89.6245 194.935C89.8216 197.176 87.8293 199.277 85.859 200.109C84.1732 200.839 82.2102 200.766 80.0209 199.949C79.8708 202.961 80.3917 205.97 81.5461 208.757C83.1645 212.888 85.7584 216.566 89.1064 219.477C91.3144 221.342 93.7703 222.892 96.404 224.082C100.965 226.103 105.227 226.475 109.073 225.176C111.275 224.464 113.396 223.52 115.4 222.36C115.465 222.268 115.538 222.182 115.618 222.104C115.891 221.839 116.256 221.69 116.636 221.69C117.017 221.69 117.382 221.839 117.654 222.104C117.743 222.213 117.808 222.34 117.844 222.476C113.612 231.642 109.379 239.399 105.438 245.194C103.419 248.332 101.006 251.199 98.2576 253.724C95.791 255.826 93.5798 256.643 91.6897 256.125C87.6469 255.053 81.8088 246.733 76.1386 238.268L76.0948 238.203L75.8978 237.903C73.8102 234.838 71.5491 231.895 69.1256 229.088L68.2937 228.154C65.9366 225.57 59.6753 218.703 54.1437 218.142C50.079 217.733 46.5397 220.827 42.9711 224.308C22.9466 243.844 11.92 254.607 14.3501 260.548C15.2034 262.406 16.6309 263.941 18.4221 264.926C20.6158 266.202 23.005 267.107 25.4935 267.604C30.7842 268.75 36.7755 268.648 41.1322 267.32C43.7209 266.564 46.1811 265.423 48.4297 263.934C49.9568 262.913 51.3346 261.685 52.5237 260.285C53.1075 259.555 53.6475 258.825 54.2678 257.957C55.2457 256.585 56.0776 255.403 56.7636 254.308C56.3987 253.754 56.0338 253.177 55.6689 252.601C55.0705 251.659 53.6767 249.448 54.5232 247.273C54.8172 246.582 55.2481 245.957 55.7898 245.437C56.3316 244.916 56.9731 244.511 57.6758 244.245C58.0576 244.087 58.4691 244.012 58.8821 244.028C59.2952 244.043 59.7001 244.147 60.0694 244.333C61.7551 245.281 61.2735 247.981 60.9815 249.601V249.645C60.6887 251.251 60.1444 252.8 59.3688 254.235C63.9132 261.345 68.9743 268.111 74.5113 274.479C76.5384 276.824 78.7335 279.019 81.0791 281.047C84.1149 283.156 88.924 285.6 94.6671 285.286C97.9555 284.957 101.138 283.94 104.008 282.302C108.058 279.996 114.385 273.362 121.821 263.627C129.916 252.882 137.317 241.631 143.977 229.942L145.495 228.818Z" fill="white"/>
<path d="M241.691 274.296L241.457 274.165C240.786 273.902 240.085 273.661 239.385 273.435L238.969 273.311C236.962 272.712 232.27 271.311 227.344 273.034C220.809 275.379 215.188 279.738 211.289 285.483L203.992 296.576L197.606 284.899L166.752 228.613L163.103 221.987L163.979 219.199C164.314 218.102 164.873 217.086 165.62 216.216C166.368 215.346 167.287 214.639 168.321 214.142L168.46 214.076L168.569 214.033C169.626 213.555 170.773 213.306 171.933 213.303C173.224 213.305 174.497 213.602 175.655 214.171C177.242 214.992 178.627 216.153 179.713 217.572C181.801 218.139 183.978 218.3 186.127 218.046C191.841 217.455 195.614 213.048 197.219 211.165L197.278 211.099C198.51 209.727 199.544 208.189 200.35 206.531C200 206.341 199.671 206.144 199.372 205.947C198.091 205.041 197.01 203.882 196.195 202.542C195.381 201.201 194.85 199.707 194.636 198.153C194.382 196.643 194.44 195.097 194.808 193.611C195.176 192.125 195.845 190.73 196.774 189.513C197.677 188.399 198.794 187.478 200.058 186.802C201.323 186.127 202.71 185.711 204.137 185.579C206.574 185.314 209.034 185.792 211.194 186.951H211.231C211.888 186.317 212.508 185.66 213.062 185.018C214.408 183.511 215.574 181.853 216.536 180.077C217.89 177.54 218.66 174.733 218.791 171.86C218.96 167.927 217.943 164.035 215.872 160.687C215.388 159.93 214.865 159.199 214.303 158.498C210.851 161.074 206.867 161.913 203.16 160.797C200.541 159.99 198.271 158.324 196.716 156.068C195.021 153.699 194.328 150.757 194.789 147.88C195.169 145.691 196.614 141.699 202.087 139.408C202.718 139.144 203.363 138.918 204.021 138.729C202.984 134.687 200.923 130.979 198.037 127.965C194.695 124.492 190.519 121.932 185.908 120.529C181.622 119.16 177.082 118.776 172.627 119.405L172.313 119.449C172.351 121.135 172.036 122.81 171.389 124.367C170.742 125.924 169.776 127.329 168.555 128.491C166.802 130.075 164.623 131.109 162.287 131.465C159.952 131.82 157.563 131.481 155.419 130.49C153.066 129.359 151.148 127.488 149.96 125.163C148.863 123.113 148.358 120.799 148.501 118.478C148.63 116.923 149.082 115.412 149.829 114.041C146.96 113.079 143.986 112.466 140.97 112.217C137.676 111.95 134.362 112.073 131.096 112.582C127.956 113.047 124.883 113.89 121.945 115.092C120.273 115.879 118.655 116.774 117.099 117.77C118.341 119.932 118.936 122.404 118.814 124.893C118.774 126.408 118.416 127.898 117.765 129.266C117.114 130.635 116.184 131.852 115.034 132.84C110.955 136.255 105.679 135.54 102.11 133.738C99.5706 132.442 97.484 130.406 96.1261 127.899C94.2687 128.365 92.5093 129.159 90.9303 130.242L90.85 130.293C89.3336 131.288 87.9504 132.472 86.7342 133.818C85.2077 135.443 84.1729 137.467 83.7495 139.656C84.0116 139.719 84.2699 139.797 84.523 139.889C87.0054 140.793 89.0921 142.539 90.4194 144.823C91.1866 146.063 91.6823 147.451 91.8738 148.897C92.0653 150.342 91.9482 151.812 91.5304 153.209C91.1125 154.606 90.4034 155.898 89.4496 157.001C88.4958 158.104 87.3191 158.992 85.9971 159.607C83.7456 160.749 81.1798 161.113 78.6995 160.644C77.6155 160.426 76.5718 160.042 75.6054 159.505C74.6707 160.315 73.8288 161.225 73.095 162.22C72.0901 163.652 71.2894 165.216 70.716 166.868C69.5246 170.049 69.3111 173.513 70.103 176.815C71.2268 181.383 74.0583 184.251 76.4154 186.353C77.722 185.247 79.2609 184.448 80.918 184.018C82.7236 183.591 84.5998 183.558 86.4193 183.921C88.2388 184.283 89.959 185.033 91.463 186.119C92.8492 187.061 94.0137 188.292 94.8757 189.729C95.7377 191.166 96.2765 192.773 96.4545 194.439C96.9581 200.226 92.7036 204.757 88.5367 206.523L88.0477 206.713C89.2797 209.635 91.1733 212.23 93.5793 214.295C95.2877 215.737 97.1857 216.938 99.2203 217.864C102.205 219.185 104.73 219.469 106.927 218.725C108.383 218.237 109.805 217.649 111.181 216.966C111.464 216.701 111.766 216.457 112.086 216.237C113.876 215.034 116.064 214.576 118.187 214.959C119.646 215.229 121.003 215.896 122.108 216.888C123.213 217.879 124.023 219.156 124.448 220.579L125.178 223.06L124.083 225.41C119.646 235.013 115.282 242.982 111.115 249.112C108.131 253.491 105.379 256.731 102.709 259C97.374 263.539 92.8203 263.576 89.9305 262.802C86.5663 261.905 83.2605 259.292 79.2177 254.337C76.3424 250.82 73.2993 246.376 70.4606 242.085L70.4022 242.004L70.2416 241.763C68.3068 238.922 66.2114 236.193 63.9657 233.59L63.236 232.795C61.6283 230.973 59.8945 229.266 58.0474 227.686C55.0408 225.205 53.6178 224.994 53.4645 224.979C52.9348 225.055 52.4327 225.263 52.005 225.585C50.4723 226.664 49.0453 227.885 47.7432 229.234C39.081 237.677 32.2432 244.354 27.456 249.667C25.5758 251.697 23.8419 253.857 22.2674 256.132C21.7839 256.842 21.3662 257.594 21.0195 258.38C21.3177 258.655 21.6428 258.9 21.9901 259.11C23.5291 259.976 25.1972 260.589 26.9306 260.927C31.0829 261.832 35.8701 261.773 39.1248 260.788C41.0612 260.22 42.903 259.37 44.5907 258.263C45.5884 257.603 46.4897 256.807 47.2689 255.899C47.6703 255.417 48.1227 254.79 48.6481 254.053C48.4206 253.578 48.2208 253.091 48.0497 252.593C47.1547 250.07 47.1832 247.311 48.13 244.807C48.7797 243.2 49.7588 241.747 51.0045 240.541C52.2501 239.336 53.7345 238.405 55.3619 237.808C56.6695 237.318 58.0675 237.116 59.4604 237.215C60.8533 237.315 62.2084 237.714 63.433 238.385C64.8256 239.207 65.9851 240.371 66.8012 241.767C67.6174 243.163 68.0631 244.744 68.0962 246.361C68.1498 247.857 68.0249 249.354 67.724 250.82V250.893C67.5702 251.772 67.3581 252.64 67.0891 253.491C70.9025 259.236 75.0881 264.726 79.619 269.925C81.3551 271.929 83.2173 273.821 85.1944 275.588C87.3326 277.047 90.5581 278.631 94.1923 278.448C96.4373 278.175 98.6068 277.463 100.578 276.354C103.03 274.953 108.459 269.786 116.34 259.467C124.253 248.961 131.488 237.961 138 226.533L143.663 229.781L151.544 225.607C151.565 225.652 151.59 225.696 151.617 225.738L151.697 225.891L151.785 226.066L151.996 226.453L152.456 227.314C176.378 272.092 188.659 296.641 192.286 306.96L192.41 307.318L192.454 307.456C192.941 309.018 193.427 310.584 193.914 312.156C194.165 312.749 194.513 313.296 194.943 313.776C195.25 314.1 195.596 314.387 195.972 314.63L196.074 314.688L196.358 314.827C199.704 315.236 203.093 315.13 206.407 314.513C214.172 313.178 221.615 309.667 228.533 304.085C240.275 294.598 246.412 285.264 244.945 279.098C244.81 278.527 244.614 277.971 244.362 277.441C243.734 276.198 242.825 275.118 241.705 274.289" fill="white"/>
<path d="M53.3468 261.022C49.1142 266.057 42.904 267.947 41.4372 268.393C32.483 271.115 16.5743 268.954 13.305 260.971C10.5903 254.33 21.1207 244.055 42.1815 223.513C45.48 220.294 49.4791 216.551 54.2444 217.032C60.1919 217.638 66.6868 224.76 69.1023 227.402L69.9488 228.358C72.4016 231.2 74.6895 234.18 76.8012 237.283L77.0493 237.648C81.1506 243.785 87.9957 254.031 91.9728 255.089C98.1904 256.753 109.706 239.21 120.433 213.865C129.227 219.616 132.949 220.973 145.376 229.606C130.672 255.469 113.063 278.383 104.51 283.272C101.5 285.005 98.1575 286.081 94.7022 286.432C88.1343 286.79 82.9312 283.754 80.3843 281.973C80.3843 281.973 70.6202 274.231 56.5942 252.053C56.0469 251.192 54.9012 249.382 55.5434 247.726C56.1856 246.069 58.3894 244.719 59.506 245.354C60.6225 245.989 60.0898 248.229 59.8635 249.506C59.2724 252.871 57.5429 255.344 55.1566 258.687C54.5217 259.577 53.9744 260.343 53.3614 261.08" fill="white"/>
<path d="M12.2912 261.394C13.9259 265.371 18.4358 268.348 25.0182 269.786C30.6592 271.012 37.0811 270.88 41.8026 269.457C48.3704 267.443 52.209 264.152 54.2085 261.737C54.8507 261.007 55.4126 260.182 56.0621 259.277C56.7116 258.372 57.4632 257.314 58.0835 256.358C62.546 263.276 67.5043 269.861 72.9195 276.062C74.9956 278.496 77.2626 280.76 79.6989 282.834L79.7427 282.878C83.7883 285.83 88.6445 287.466 93.6519 287.563C94.0241 287.563 94.3816 287.563 94.7684 287.563C98.4068 287.2 101.926 286.068 105.094 284.242C113.706 279.324 130.636 257.387 144.961 232.634C144.589 231.948 144.231 231.247 143.845 230.547C143.716 230.277 143.697 229.969 143.79 229.686C143.883 229.402 144.081 229.166 144.344 229.025C144.607 228.884 144.914 228.85 145.202 228.929C145.489 229.009 145.735 229.196 145.888 229.452C146.034 229.722 146.187 229.992 146.326 230.269L146.391 230.16L146.888 229.277L146.056 228.7C138.51 223.461 134.168 220.892 129.957 218.404C127.177 216.754 124.55 215.207 121.091 212.938L119.974 212.208L119.456 213.427C118.167 216.467 116.87 219.386 115.566 222.184C115.589 222.158 115.613 222.133 115.639 222.111C115.707 222.043 115.783 221.984 115.866 221.936C115.998 221.829 116.15 221.75 116.313 221.703C116.476 221.656 116.646 221.642 116.815 221.662C116.983 221.682 117.146 221.735 117.294 221.818C117.442 221.901 117.571 222.013 117.675 222.147C117.793 222.301 117.871 222.482 117.902 222.673C117.668 223.322 117.435 223.972 117.172 224.606C116.997 225.11 116.814 225.606 116.632 226.066C116.377 225.643 116.143 225.234 115.939 224.84C115.435 225.125 114.881 225.402 114.304 225.672L113.757 225.913C110.797 232.162 107.4 238.195 103.591 243.967C96.7971 253.943 93.3746 254.308 92.2507 254.001C91.2291 253.724 89.2149 252.388 85.4275 247.572C82.7274 244.142 79.9762 240.019 77.9621 237.02L77.9256 236.947L77.714 236.647C75.5839 233.506 73.2714 230.491 70.7886 227.62C70.7229 227.555 70.2851 227.051 69.9129 226.643C67.4025 223.884 60.7252 216.557 54.3471 215.915C51.755 215.723 49.1765 216.435 47.0496 217.929C45.0089 219.326 43.1141 220.925 41.394 222.702C30.7249 233.159 22.953 240.734 17.9906 246.747C12.5102 253.381 10.8098 257.759 12.2912 261.394ZM56.5802 248.068C56.939 247.278 57.5904 246.658 58.3973 246.339C58.5649 246.266 58.7479 246.236 58.93 246.251C59.0383 246.593 59.0732 246.953 59.0322 247.309C58.9872 247.949 58.9018 248.585 58.7768 249.214C58.6003 250.171 58.3189 251.106 57.9376 252.002L57.5289 251.367C57.0837 250.637 56.1423 249.177 56.5802 248.032" fill="#383838"/>
<path d="M79.2176 283.418C76.7431 281.317 74.4418 279.02 72.3359 276.551C67.1542 270.628 62.3919 264.352 58.0838 257.767C57.7481 258.255 57.3978 258.744 57.0402 259.226L56.6972 259.715C56.0332 260.642 55.4639 261.437 54.8072 262.225C52.7128 264.714 48.794 268.122 42.0072 270.187C37.1835 271.647 30.6157 271.778 24.8506 270.53C18.0201 269.07 13.3059 265.896 11.5691 261.671C9.96359 257.73 11.7077 253.118 17.4071 246.236C22.3841 240.209 30.1122 232.663 40.898 222.154C42.6591 220.342 44.5978 218.712 46.685 217.287C49.3559 215.594 51.9027 214.893 54.4715 215.156C61.1415 215.827 67.9647 223.315 70.5261 226.102L71.4091 227.095C73.9055 229.986 76.2324 233.02 78.3783 236.18L78.7067 236.669C80.6917 239.639 83.4136 243.711 86.07 247.076C90.0617 252.147 91.908 253.074 92.4845 253.235C93.061 253.395 96.1333 253.607 102.978 243.514C106.767 237.776 110.144 231.777 113.086 225.562L114.866 221.819C116.151 219.06 117.464 216.127 118.748 213.062L119.631 210.974L121.529 212.215C124.878 214.404 127.433 215.922 130.14 217.528L130.359 217.659C134.57 220.148 138.919 222.716 146.508 227.985L147.924 228.97L146.975 230.634L146.246 231.692L145.209 229.744C145.186 229.7 145.153 229.661 145.115 229.63C145.076 229.599 145.031 229.575 144.983 229.561C144.935 229.547 144.884 229.543 144.834 229.55C144.783 229.556 144.735 229.572 144.691 229.598C144.647 229.62 144.608 229.65 144.577 229.688C144.545 229.726 144.522 229.77 144.509 229.817C144.472 229.911 144.472 230.015 144.509 230.109L145.83 232.575L145.611 232.955C131.081 258.037 114.231 279.856 105.474 284.848C102.202 286.726 98.5627 287.876 94.8052 288.219C94.4184 288.219 94.0316 288.219 93.6448 288.219C88.792 288.219 83.8296 286.548 79.2103 283.323M143.144 230.78C142.911 230.33 142.862 229.807 143.006 229.321C143.155 228.833 143.49 228.424 143.94 228.182L144.027 228.138C137.459 223.621 133.439 221.257 129.549 218.965L129.33 218.834C126.608 217.221 124.039 215.696 120.66 213.485L120.325 213.266L120.172 213.631C119.121 216.097 118.063 218.498 117.012 220.797C117.511 220.874 117.964 221.134 118.281 221.527C118.475 221.78 118.605 222.075 118.661 222.388L118.705 222.6L117.924 224.73L117.377 226.19L116.8 227.722L115.975 226.307C115.859 226.117 115.749 225.927 115.64 225.738C115.326 225.905 114.99 226.066 114.647 226.219L114.355 226.358C111.411 232.553 108.034 238.532 104.248 244.251C97.7753 253.738 94.0316 255.125 92.0686 254.607C90.412 254.154 87.9746 251.899 84.8294 247.9C82.1439 244.485 79.4 240.391 77.3348 237.297L77.977 236.866L77.2472 237.122L77.1085 236.925C75.0007 233.82 72.7151 230.84 70.2634 228L69.3804 227.015C66.9211 224.314 60.3898 217.156 54.3182 216.535C51.9028 216.368 49.5034 217.038 47.5242 218.433C45.493 219.825 43.6079 221.419 41.8978 223.191C31.236 233.597 23.5298 241.106 18.6112 247.076C13.3424 253.454 11.6785 257.599 13.0359 260.941C14.5683 264.677 18.8739 267.509 25.2082 268.873C30.7179 270.063 36.9938 269.946 41.5767 268.56C47.9985 266.604 51.6765 263.415 53.6323 261.08C54.2671 260.35 54.8145 259.562 55.4494 258.671L55.7923 258.19C56.3761 257.365 56.9381 256.57 57.4562 255.782L58.1057 254.789L58.7625 255.782C63.1956 262.696 68.122 269.281 73.5035 275.485C75.5569 277.886 77.7943 280.124 80.1954 282.177C84.1086 285.037 88.806 286.627 93.6522 286.731C94.0097 286.731 94.3819 286.731 94.7322 286.731C98.2447 286.391 101.645 285.309 104.708 283.556C113.049 278.791 129.936 256.935 144.071 232.612L143.144 230.78ZM116.494 224.096L117.077 222.519V222.475C117.019 222.395 116.778 222.14 116.209 222.527L114.603 224.57C114.954 224.402 115.289 224.227 115.603 224.052L116.333 223.658L116.494 224.096ZM56.8651 251.688C56.347 250.863 55.2669 249.155 55.8434 247.652C56.2904 246.65 57.1134 245.864 58.1349 245.463C58.4388 245.335 58.7732 245.297 59.0981 245.353L59.4703 245.441L59.6309 245.784C59.7943 246.252 59.854 246.75 59.806 247.243C59.7531 247.927 59.663 248.606 59.536 249.279C59.3483 250.282 59.0497 251.261 58.6457 252.199L58.0619 253.556L56.8651 251.688Z" fill="#383838"/>
<path d="M145.495 228.818L145.604 229.015L145.75 229.292L145.962 229.686L146.422 230.547C169.847 274.398 182.369 299.4 185.828 309.23L185.901 309.449L187.434 314.469C188.011 315.932 188.847 317.279 189.9 318.447C190.643 319.231 191.481 319.917 192.396 320.49L192.725 320.68C193.239 320.957 193.77 321.201 194.316 321.409C194.841 321.614 213.129 325.314 232.825 309.42C236.59 306.376 254.944 291.57 251.601 277.507C251.349 276.457 250.984 275.437 250.514 274.464C249.331 272.089 247.576 270.045 245.406 268.517L244.413 267.962C243.392 267.544 242.349 267.179 241.29 266.867C239.166 266.254 232.475 263.992 225.075 266.583C217.122 269.421 210.285 274.726 205.561 281.725L204.496 283.331L203.576 281.645C193.287 262.88 182.999 244.116 172.715 225.352L172.481 224.936L171.649 223.418L170.482 221.287C170.537 221.084 170.635 220.896 170.77 220.734C170.905 220.573 171.073 220.443 171.262 220.353C171.453 220.258 171.663 220.211 171.875 220.214C172.129 220.219 172.379 220.282 172.605 220.396C173.39 220.882 174.068 221.523 174.597 222.279L174.685 222.389C176.787 224.95 183.063 225.308 186.77 224.921C195.206 224.045 200.409 217.966 202.365 215.675C203.89 213.88 207.473 209.691 208.203 203.473C208.332 202.398 208.396 201.316 208.393 200.233C206.145 201.153 204.386 201.197 203.131 200.343C202.633 199.966 202.216 199.492 201.905 198.951C201.594 198.409 201.396 197.81 201.321 197.19C201.212 196.613 201.221 196.019 201.346 195.445C201.472 194.871 201.711 194.327 202.051 193.848C203.365 192.191 206.094 192.089 207.816 193.031C208.441 193.407 208.984 193.905 209.413 194.496C209.842 195.086 210.147 195.757 210.312 196.468C213.232 194.544 215.874 192.228 218.164 189.586C219.843 187.691 221.3 185.61 222.506 183.383C224.358 179.914 225.408 176.074 225.578 172.145C225.8 166.826 224.42 161.564 221.616 157.039C221.119 156.251 217.69 150.989 213.282 148.537C212.837 150.045 211.992 151.404 210.837 152.471C208.94 154.171 206.897 154.806 205.087 154.259C202.81 153.573 201.131 151.15 201.489 149.07C202.073 145.684 207.283 144.983 207.874 144.918C209.075 144.779 210.291 144.87 211.458 145.188C211.55 143.053 211.388 140.914 210.976 138.817C209.855 132.97 207.068 127.572 202.949 123.273C198.798 118.954 193.614 115.766 187.886 114.012C182.609 112.335 177.022 111.868 171.54 112.648C169.084 113.024 166.67 113.632 164.33 114.465C165.395 117.085 166.249 121.259 163.848 123.477C163.1 124.134 162.179 124.562 161.194 124.711C160.21 124.859 159.204 124.723 158.295 124.317C157.35 123.809 156.567 123.044 156.039 122.11C155.511 121.176 155.258 120.112 155.31 119.04C155.485 116.851 157.382 114.91 160.951 113.202C159.63 111.261 157.733 109.838 154.974 108.671C150.693 106.872 146.153 105.764 141.525 105.387C137.693 105.071 133.837 105.211 130.038 105.803C126.246 106.346 122.538 107.371 119.005 108.853C115.051 110.687 111.368 113.054 108.058 115.888C107.284 116.616 106.56 117.397 105.891 118.223C108.022 118.537 110.065 119.318 111.182 121.186C112.298 123.054 112.386 126.141 110.663 127.586C108.686 129.235 105.774 127.907 105.212 127.622C104.351 127.169 103.589 126.549 102.971 125.797C102.353 125.045 101.892 124.177 101.614 123.244C101.414 122.304 101.477 121.326 101.797 120.42H101.417C96.3239 120.287 91.3134 121.729 87.0704 124.55L87.012 124.594C85.0291 125.912 83.2197 127.473 81.6264 129.242C79.0845 131.975 77.4417 135.421 76.9194 139.116C76.5987 141.869 76.8471 144.658 77.6492 147.311C78.8606 146.545 80.612 145.713 82.2759 146.297C83.9397 146.881 85.5963 149.216 84.9614 151.215C84.3265 153.215 81.8526 154.222 80.0355 153.864C78.576 153.573 77.3865 152.405 76.4597 150.719C72.9657 152.435 69.9255 154.95 67.5859 158.061C66.1773 160.044 65.0547 162.216 64.2509 164.512C62.6097 168.951 62.3302 173.778 63.4481 178.377C65.2287 185.602 69.9357 189.725 72.7452 192.184L72.9204 192.337C74.564 193.828 76.3261 195.182 78.1892 196.387C78.6709 194.643 79.7509 191.316 82.6262 190.549C83.4679 190.374 84.3372 190.378 85.1773 190.562C86.0173 190.745 86.8092 191.104 87.5009 191.615C88.0732 191.983 88.5592 192.47 88.9258 193.043C89.2923 193.616 89.5306 194.261 89.6245 194.935C89.8216 197.176 87.8293 199.277 85.859 200.109C84.1732 200.839 82.2102 200.766 80.0209 199.949C79.8708 202.961 80.3917 205.97 81.5461 208.757C83.1645 212.888 85.7584 216.566 89.1064 219.477C91.3144 221.342 93.7703 222.892 96.404 224.082C100.965 226.103 105.227 226.475 109.073 225.176C111.275 224.464 113.396 223.52 115.4 222.36C115.465 222.268 115.538 222.182 115.618 222.104C115.891 221.839 116.256 221.69 116.636 221.69C117.017 221.69 117.382 221.839 117.654 222.104C117.743 222.213 117.808 222.34 117.844 222.476C113.612 231.642 109.379 239.399 105.438 245.194C103.419 248.332 101.006 251.199 98.2576 253.724C95.791 255.826 93.5798 256.643 91.6897 256.125C87.6469 255.053 81.8088 246.733 76.1386 238.268L76.0948 238.203L75.8978 237.903C73.8102 234.838 71.5491 231.895 69.1256 229.088L68.2937 228.154C65.9366 225.57 59.6753 218.703 54.1437 218.142C50.079 217.733 46.5397 220.827 42.9711 224.308C22.9466 243.844 11.92 254.607 14.3501 260.548C15.2034 262.406 16.6309 263.941 18.4221 264.926C20.6158 266.202 23.005 267.107 25.4935 267.604C30.7842 268.75 36.7755 268.648 41.1322 267.32C43.7209 266.564 46.1811 265.423 48.4297 263.934C49.9568 262.913 51.3346 261.685 52.5237 260.285C53.1075 259.555 53.6475 258.825 54.2678 257.957C55.2457 256.585 56.0776 255.403 56.7636 254.308C56.3987 253.754 56.0338 253.177 55.6689 252.601C55.0705 251.659 53.6767 249.448 54.5232 247.273C54.8172 246.582 55.2481 245.957 55.7898 245.437C56.3316 244.916 56.9731 244.511 57.6758 244.245C58.0576 244.087 58.4691 244.012 58.8821 244.028C59.2952 244.043 59.7001 244.147 60.0694 244.333C61.7551 245.281 61.2735 247.981 60.9815 249.601V249.645C60.6887 251.251 60.1444 252.8 59.3688 254.235C63.9132 261.345 68.9743 268.111 74.5113 274.479C76.5384 276.824 78.7335 279.019 81.0791 281.047C84.1149 283.156 88.924 285.6 94.6671 285.286C97.9555 284.957 101.138 283.94 104.008 282.302C108.058 279.996 114.385 273.362 121.821 263.627C129.916 252.882 137.317 241.631 143.977 229.942L145.495 228.818Z" fill="white"/>
<path d="M145.495 228.818L145.604 229.015L145.75 229.292L145.962 229.686L146.422 230.547C169.847 274.398 182.369 299.4 185.828 309.23L185.901 309.449L187.434 314.469C188.011 315.932 188.847 317.279 189.9 318.447C190.643 319.231 191.481 319.917 192.396 320.49L192.725 320.68C193.239 320.957 193.77 321.201 194.316 321.409C194.841 321.614 213.129 325.314 232.825 309.42C236.59 306.376 254.944 291.57 251.601 277.507C251.349 276.457 250.984 275.437 250.514 274.464C249.331 272.089 247.576 270.045 245.406 268.517L244.413 267.962C243.392 267.544 242.349 267.179 241.29 266.867C239.166 266.254 232.475 263.992 225.075 266.583C217.122 269.421 210.285 274.726 205.561 281.725L204.496 283.331L203.576 281.645C193.287 262.88 182.999 244.116 172.715 225.352L172.481 224.936L171.649 223.418L170.482 221.287C170.537 221.084 170.635 220.896 170.77 220.734C170.905 220.573 171.073 220.443 171.262 220.353C171.453 220.258 171.663 220.211 171.875 220.214C172.129 220.219 172.379 220.282 172.605 220.396C173.39 220.882 174.068 221.523 174.597 222.279L174.685 222.389C176.787 224.95 183.063 225.308 186.77 224.921C195.206 224.045 200.409 217.966 202.365 215.675C203.89 213.88 207.473 209.691 208.203 203.473C208.332 202.398 208.396 201.316 208.393 200.233C206.145 201.153 204.386 201.197 203.131 200.343C202.633 199.966 202.216 199.492 201.905 198.951C201.594 198.409 201.396 197.81 201.321 197.19C201.212 196.613 201.221 196.019 201.346 195.445C201.472 194.871 201.711 194.327 202.051 193.848C203.365 192.191 206.094 192.089 207.816 193.031C208.441 193.407 208.984 193.905 209.413 194.496C209.842 195.086 210.147 195.757 210.312 196.468C213.232 194.544 215.874 192.228 218.164 189.586C219.843 187.691 221.3 185.61 222.506 183.383C224.358 179.914 225.408 176.074 225.578 172.145C225.8 166.826 224.42 161.564 221.616 157.039C221.119 156.251 217.69 150.989 213.282 148.537C212.837 150.045 211.992 151.404 210.837 152.471C208.94 154.171 206.897 154.806 205.087 154.259C202.81 153.573 201.131 151.15 201.489 149.07C202.073 145.684 207.283 144.983 207.874 144.918C209.075 144.779 210.291 144.87 211.458 145.188C211.55 143.053 211.388 140.914 210.976 138.817C209.855 132.97 207.068 127.572 202.949 123.273C198.798 118.954 193.614 115.766 187.886 114.012C182.609 112.335 177.022 111.868 171.54 112.648C169.084 113.024 166.67 113.632 164.33 114.465C165.395 117.085 166.249 121.259 163.848 123.477C163.1 124.134 162.179 124.562 161.194 124.711C160.21 124.859 159.204 124.723 158.295 124.317C157.35 123.809 156.567 123.044 156.039 122.11C155.511 121.176 155.258 120.112 155.31 119.04C155.485 116.851 157.382 114.91 160.951 113.202C159.63 111.261 157.733 109.838 154.974 108.671C150.693 106.872 146.153 105.764 141.525 105.387C137.693 105.071 133.837 105.211 130.038 105.803C126.246 106.346 122.538 107.371 119.005 108.853C115.051 110.687 111.368 113.054 108.058 115.888C107.284 116.616 106.56 117.397 105.891 118.223C108.022 118.537 110.065 119.318 111.182 121.186C112.298 123.054 112.386 126.141 110.663 127.586C108.686 129.235 105.774 127.907 105.212 127.622C104.351 127.169 103.589 126.549 102.971 125.797C102.353 125.045 101.892 124.177 101.614 123.244C101.414 122.304 101.477 121.326 101.797 120.42H101.417C96.3239 120.287 91.3134 121.729 87.0704 124.55L87.012 124.594C85.0291 125.912 83.2197 127.473 81.6264 129.242C79.0845 131.975 77.4417 135.421 76.9194 139.116C76.5987 141.869 76.8471 144.658 77.6492 147.311C78.8606 146.545 80.612 145.713 82.2759 146.297C83.9397 146.881 85.5963 149.216 84.9614 151.215C84.3265 153.215 81.8526 154.222 80.0355 153.864C78.576 153.573 77.3865 152.405 76.4597 150.719C72.9657 152.435 69.9255 154.95 67.5859 158.061C66.1773 160.044 65.0547 162.216 64.2509 164.512C62.6097 168.951 62.3302 173.778 63.4481 178.377C65.2287 185.602 69.9357 189.725 72.7452 192.184L72.9204 192.337C74.564 193.828 76.3261 195.182 78.1892 196.387C78.6709 194.643 79.7509 191.316 82.6262 190.549C83.4679 190.374 84.3372 190.378 85.1773 190.562C86.0173 190.745 86.8092 191.104 87.5009 191.615C88.0732 191.983 88.5592 192.47 88.9258 193.043C89.2923 193.616 89.5306 194.261 89.6245 194.935C89.8216 197.176 87.8293 199.277 85.859 200.109C84.1732 200.839 82.2102 200.766 80.0209 199.949C79.8708 202.961 80.3917 205.97 81.5461 208.757C83.1645 212.888 85.7584 216.566 89.1064 219.477C91.3144 221.342 93.7703 222.892 96.404 224.082C100.965 226.103 105.227 226.475 109.073 225.176C111.275 224.464 113.396 223.52 115.4 222.36C115.465 222.268 115.538 222.182 115.618 222.104C115.891 221.839 116.256 221.69 116.636 221.69C117.017 221.69 117.382 221.839 117.654 222.104C117.743 222.213 117.808 222.34 117.844 222.476C113.612 231.642 109.379 239.399 105.438 245.194C103.419 248.332 101.006 251.199 98.2576 253.724C95.791 255.826 93.5798 256.643 91.6897 256.125C87.6469 255.053 81.8088 246.733 76.1386 238.268L76.0948 238.203L75.8978 237.903C73.8102 234.838 71.5491 231.895 69.1256 229.088L68.2937 228.154C65.9366 225.57 59.6753 218.703 54.1437 218.142C50.079 217.733 46.5397 220.827 42.9711 224.308C22.9466 243.844 11.92 254.607 14.3501 260.548C15.2034 262.406 16.6309 263.941 18.4221 264.926C20.6158 266.202 23.005 267.107 25.4935 267.604C30.7842 268.75 36.7755 268.648 41.1322 267.32C43.7209 266.564 46.1811 265.423 48.4297 263.934C49.9568 262.913 51.3346 261.685 52.5237 260.285C53.1075 259.555 53.6475 258.825 54.2678 257.957C55.2457 256.585 56.0776 255.403 56.7636 254.308C56.3987 253.754 56.0338 253.177 55.6689 252.601C55.0705 251.659 53.6767 249.448 54.5232 247.273C54.8172 246.582 55.2481 245.957 55.7898 245.437C56.3316 244.916 56.9731 244.511 57.6758 244.245C58.0576 244.087 58.4691 244.012 58.8821 244.028C59.2952 244.043 59.7001 244.147 60.0694 244.333C61.7551 245.281 61.2735 247.981 60.9815 249.601V249.645C60.6887 251.251 60.1444 252.8 59.3688 254.235C63.9132 261.345 68.9743 268.111 74.5113 274.479C76.5384 276.824 78.7335 279.019 81.0791 281.047C84.1149 283.156 88.924 285.6 94.6671 285.286C97.9555 284.957 101.138 283.94 104.008 282.302C108.058 279.996 114.385 273.362 121.821 263.627C129.916 252.882 137.317 241.631 143.977 229.942L145.495 228.818Z" fill="white"/>
<path d="M172.721 225.359C183.006 244.128 193.293 262.893 203.583 281.652L204.502 283.338L205.568 281.733C210.292 274.734 217.129 269.428 225.082 266.59C231.248 264.438 236.699 264.532 241.297 266.875C242.498 267.492 243.622 268.249 244.646 269.13L245.413 268.524C246.201 269.144 244.924 271.516 245.675 272.304C245.048 271.575 245.573 270.064 244.727 269.32C243.669 268.4 243.267 266.568 241.808 265.846C230.175 259.906 216.762 269.269 214.85 270.604C210.829 273.458 207.351 277.01 204.583 281.091L173.758 224.804L171.904 221.426L171.313 220.346C171.123 220.436 170.955 220.566 170.821 220.727C170.686 220.889 170.587 221.077 170.532 221.28L171.7 223.411L172.532 224.928L172.721 225.359Z" fill="white"/>
<path d="M145.399 231.094C167.358 272.194 181.158 299.385 184.733 309.616C184.894 310.076 185.135 310.769 185.463 311.586C185.928 312.789 186.49 313.954 187.142 315.067C187.874 316.336 188.808 317.477 189.907 318.446L188.097 314.41C187.209 312.831 186.475 311.169 185.908 309.448L185.835 309.229C182.376 299.399 169.854 274.398 146.428 230.547L145.969 229.685L145.429 231.028L145.399 231.094Z" fill="white"/>
<path d="M142.546 230.169C142.823 230.001 143.093 229.848 143.341 229.709L143.487 229.629L143.852 228.717C143.836 228.725 143.824 228.738 143.816 228.753C143.353 229.213 142.92 229.7 142.517 230.213" fill="white"/>
<path d="M142.546 230.169C142.823 230.001 143.093 229.848 143.341 229.709L143.487 229.629L143.852 228.717C143.836 228.725 143.824 228.738 143.816 228.753C143.353 229.213 142.92 229.7 142.517 230.213" fill="white"/>
<path d="M143.342 229.709L143.407 229.825L143.487 229.629L143.342 229.709Z" fill="white"/>
<path d="M62.2576 178.705C64.1258 186.302 69.0079 190.564 71.9342 193.125C74.0654 195.111 76.433 196.827 78.9837 198.233C77.6555 205.531 81.6035 214.646 88.3392 220.374C90.1928 221.951 99.6942 229.598 109.502 226.3C111.373 225.668 113.197 224.905 114.961 224.016C115.468 223.754 115.956 223.457 116.42 223.125C116.417 223.14 116.417 223.155 116.42 223.169C116.676 223.607 116.931 224.081 117.216 224.585L117.945 222.644C117.91 222.452 117.832 222.27 117.719 222.111C117.447 221.846 117.081 221.697 116.701 221.697C116.321 221.697 115.956 221.846 115.683 222.111C115.604 222.188 115.531 222.271 115.464 222.359C113.463 223.525 111.342 224.472 109.137 225.183C105.291 226.482 101.03 226.11 96.4687 224.089C93.8329 222.899 91.3766 221.347 89.1711 219.477C85.808 216.593 83.1939 212.937 81.5524 208.822C80.398 206.035 79.8771 203.027 80.0272 200.014C82.2165 200.831 84.2087 200.89 85.8653 200.175C87.8356 199.343 89.8279 197.256 89.6308 194.993C89.5351 194.32 89.296 193.675 88.9296 193.103C88.5633 192.53 88.0782 192.042 87.5073 191.673C86.8143 191.165 86.0222 190.808 85.1824 190.626C84.3426 190.443 83.4738 190.44 82.6325 190.615C79.7572 191.345 78.6772 194.687 78.1955 196.453C76.3277 195.254 74.5651 193.9 72.9267 192.403L72.7516 192.249C69.942 189.79 65.2351 185.682 63.4472 178.45C62.3355 173.85 62.6175 169.023 64.2572 164.584C65.061 162.288 66.1836 160.117 67.5922 158.133C69.9275 155.019 72.9688 152.502 76.466 150.792C77.3928 152.47 78.6042 153.645 80.0418 153.937C81.8589 154.295 84.3547 153.244 84.9677 151.288C85.5807 149.332 84.0482 146.983 82.2822 146.37C80.5162 145.757 78.8669 146.618 77.6555 147.377C76.8534 144.726 76.605 141.939 76.9258 139.189C77.448 135.494 79.0908 132.048 81.6327 129.315C83.2239 127.544 85.0336 125.982 87.0183 124.667L87.0767 124.623C91.3207 121.803 96.33 120.359 101.424 120.485H101.803C101.484 121.392 101.421 122.369 101.621 123.309C101.898 124.242 102.359 125.11 102.977 125.862C103.595 126.614 104.357 127.235 105.218 127.688C105.78 127.972 108.692 129.301 110.67 127.651C112.392 126.192 112.326 123.171 111.188 121.251C110.049 119.332 108.028 118.602 105.897 118.289C106.607 117.461 107.375 116.685 108.196 115.968C111.506 113.134 115.189 110.767 119.142 108.933C122.675 107.451 126.383 106.426 130.176 105.883C133.975 105.291 137.831 105.151 141.663 105.467C146.291 105.844 150.831 106.952 155.112 108.751C157.87 109.918 159.768 111.341 161.089 113.282C157.52 114.961 155.623 116.931 155.448 119.121C155.396 120.192 155.649 121.256 156.177 122.19C156.705 123.124 157.487 123.889 158.432 124.397C159.342 124.801 160.349 124.936 161.333 124.786C162.317 124.636 163.238 124.207 163.986 123.55C166.387 121.361 165.533 117.165 164.467 114.538C166.809 113.711 169.223 113.105 171.677 112.728C177.159 111.946 182.747 112.409 188.024 114.085C193.751 115.845 198.934 119.034 203.086 123.353C207.205 127.652 209.993 133.05 211.114 138.897C211.525 140.992 211.687 143.128 211.595 145.26C210.428 144.949 209.212 144.86 208.012 144.998C207.421 145.063 202.211 145.764 201.627 149.15C201.269 151.23 202.948 153.653 205.224 154.339C207.034 154.886 209.078 154.251 210.975 152.551C212.129 151.481 212.974 150.119 213.42 148.61C217.798 151.069 221.257 156.331 221.753 157.119C224.557 161.644 225.938 166.906 225.716 172.225C225.546 176.154 224.496 179.994 222.644 183.463C221.437 185.69 219.981 187.771 218.302 189.666C216.011 192.306 213.369 194.619 210.449 196.54C210.284 195.831 209.978 195.162 209.549 194.573C209.12 193.984 208.578 193.486 207.954 193.111C206.231 192.169 203.502 192.271 202.189 193.928C201.849 194.408 201.609 194.951 201.484 195.525C201.358 196.099 201.35 196.693 201.459 197.27C201.534 197.89 201.733 198.489 202.044 199.03C202.355 199.572 202.771 200.045 203.269 200.423C204.524 201.277 206.283 201.233 208.53 200.306C208.534 201.391 208.47 202.476 208.34 203.553C207.611 209.771 204.02 213.96 202.502 215.748C200.539 218.039 195.343 224.118 186.907 224.994C183.2 225.38 176.924 224.994 174.823 222.461L174.735 222.352C174.208 221.594 173.53 220.953 172.743 220.469C172.516 220.354 172.267 220.292 172.013 220.287C171.802 220.286 171.593 220.33 171.4 220.418C171.21 220.508 171.042 220.639 170.908 220.8C170.773 220.961 170.675 221.149 170.619 221.352L171.787 223.476C171.805 223.294 171.805 223.11 171.787 222.928C171.787 222.658 171.59 221.673 171.933 221.505C171.962 221.499 171.992 221.499 172.02 221.505C172.553 221.505 173.641 222.892 173.925 223.235C174.162 223.522 174.429 223.784 174.721 224.016C177.756 226.431 183.908 226.533 187.068 226.205C196.008 225.278 201.517 218.805 203.473 216.521C205.093 214.624 208.829 210.18 209.596 203.677C209.827 201.937 209.852 200.176 209.669 198.43C213.292 196.316 216.54 193.616 219.28 190.44C221.367 188.017 226.577 181.785 226.986 172.261C227.213 166.696 225.767 161.19 222.833 156.455C222.242 155.514 218.061 149.07 212.661 146.866C213.237 143.721 212.661 140.298 212.361 138.671C211.207 132.591 208.315 126.976 204.035 122.507C195.198 113.18 182.142 109.933 171.568 111.516C168.602 111.972 165.697 112.757 162.906 113.859C161.6 111.363 159.491 109.269 155.652 107.649C136.452 99.563 118.704 107.853 118.704 107.853C112.866 110.575 106.218 115.224 103.774 119.325C102.978 119.325 102.205 119.325 101.519 119.325C96.1847 119.191 90.9395 120.707 86.5002 123.667C84.6977 124.907 76.9477 130.103 75.8311 139.079C75.4217 142.523 75.8756 146.014 77.152 149.238C73.0301 151.032 69.4427 153.863 66.7384 157.455C66.0086 158.447 59.5867 167.394 62.3598 178.8" fill="white"/>
<path d="M61.0822 178.997C63.0452 186.959 68.1097 191.403 71.1382 194.037L71.3134 194.19C73.2077 195.923 75.2656 197.467 77.4579 198.803L77.655 198.919C76.7209 206.363 80.647 215.441 87.5505 221.316C90.2506 223.607 99.8469 230.846 109.866 227.467C110.888 227.124 112.362 226.57 113.778 225.928L114.325 225.687C114.902 225.417 115.456 225.139 115.96 224.855C116.164 225.249 116.128 225.541 116.376 225.971C116.558 225.482 117.018 225.103 117.193 224.599C117.434 223.965 117.668 223.315 117.923 222.666C117.892 222.474 117.814 222.294 117.697 222.14C117.593 222.006 117.463 221.894 117.315 221.811C117.168 221.728 117.005 221.674 116.836 221.655C116.668 221.635 116.497 221.649 116.334 221.696C116.171 221.743 116.019 221.822 115.887 221.929C115.804 221.977 115.728 222.036 115.661 222.104C115.635 222.126 115.61 222.151 115.588 222.177L115.442 222.352C113.441 223.519 111.32 224.466 109.115 225.176C105.269 226.475 101.007 226.103 96.4462 224.081C93.8125 222.891 91.3566 221.341 89.1486 219.477C85.7885 216.587 83.175 212.93 81.53 208.815C80.3791 206.027 79.8583 203.019 80.0048 200.007C82.1941 200.824 84.1863 200.882 85.8428 200.167C87.8132 199.335 89.8054 197.248 89.6011 194.993C89.5095 194.319 89.273 193.672 88.9076 193.097C88.5423 192.523 88.0569 192.035 87.4848 191.666C86.7924 191.156 86.0004 190.798 85.1603 190.616C84.3203 190.434 83.4513 190.431 82.61 190.607C79.7348 191.337 78.6547 194.672 78.1731 196.445C76.3073 195.247 74.5449 193.895 72.9042 192.403L72.7291 192.242C69.9195 189.79 65.2053 185.674 63.432 178.442C62.314 173.844 62.5936 169.016 64.2347 164.577C65.0328 162.281 66.1559 160.111 67.5697 158.133C69.9073 155.019 72.9479 152.501 76.4436 150.785C77.3777 152.463 78.5817 153.638 80.0194 153.93C81.8365 154.287 84.3322 153.236 84.9452 151.281C85.5582 149.325 84.0257 146.975 82.2597 146.355C80.6032 145.778 78.8445 146.61 77.6331 147.369C76.8377 144.718 76.5894 141.932 76.9033 139.181C77.4276 135.485 79.073 132.039 81.6175 129.308C83.205 127.535 85.0124 125.973 86.9958 124.659L87.0542 124.615C91.2973 121.794 96.3077 120.352 101.401 120.485H101.781C101.457 121.391 101.394 122.369 101.598 123.309C101.872 124.244 102.332 125.113 102.95 125.866C103.569 126.618 104.332 127.238 105.196 127.688C105.758 127.972 108.67 129.3 110.64 127.651C112.377 126.192 112.304 123.178 111.165 121.251C110.027 119.325 108.006 118.602 105.882 118.288C106.589 117.461 107.355 116.685 108.173 115.968C111.485 113.136 115.168 110.769 119.12 108.933C122.653 107.451 126.361 106.425 130.154 105.883C133.951 105.295 137.803 105.155 141.633 105.467C146.264 105.843 150.806 106.951 155.09 108.75C157.491 109.631 159.575 111.209 161.074 113.282C157.498 114.961 155.6 116.931 155.425 119.12C155.373 120.192 155.626 121.256 156.154 122.19C156.683 123.124 157.465 123.889 158.41 124.396C159.32 124.801 160.326 124.936 161.31 124.786C162.295 124.636 163.215 124.207 163.963 123.55C166.364 121.361 165.503 117.172 164.445 114.537C166.786 113.71 169.2 113.104 171.655 112.728C177.139 111.946 182.729 112.409 188.009 114.085C193.732 115.846 198.913 119.036 203.064 123.353C207.18 127.65 209.968 133.046 211.091 138.889C211.503 140.989 211.664 143.13 211.573 145.268C210.409 144.951 209.195 144.859 207.997 144.998C207.398 145.063 202.195 145.764 201.604 149.15C201.247 151.23 202.925 153.652 205.195 154.338C207.012 154.886 209.055 154.251 210.952 152.551C212.109 151.483 212.954 150.121 213.397 148.61C217.776 151.069 221.235 156.331 221.731 157.119C224.535 161.644 225.915 166.906 225.694 172.225C225.526 176.155 224.473 179.996 222.614 183.463C221.412 185.69 219.958 187.772 218.279 189.666C215.991 192.308 213.348 194.621 210.427 196.54C210.262 195.83 209.957 195.161 209.528 194.572C209.099 193.982 208.556 193.485 207.931 193.11C206.209 192.169 203.48 192.271 202.166 193.928C201.825 194.408 201.585 194.953 201.46 195.528C201.334 196.104 201.326 196.699 201.436 197.277C201.512 197.895 201.71 198.492 202.02 199.032C202.33 199.572 202.744 200.045 203.239 200.423C204.501 201.276 206.26 201.233 208.508 200.313C208.511 201.396 208.447 202.478 208.318 203.553C207.588 209.771 204.005 213.96 202.48 215.748C200.531 218.039 195.336 224.118 186.892 224.994C183.185 225.38 176.909 224.994 174.808 222.461L174.713 222.352C174.188 221.594 173.512 220.953 172.728 220.469C172.501 220.354 172.252 220.292 171.998 220.287C171.786 220.283 171.575 220.331 171.385 220.425C171.108 220.561 170.88 220.78 170.735 221.053C170.581 221.231 170.484 221.453 170.459 221.688C170.435 221.923 170.483 222.16 170.597 222.366C177.581 235.108 182.543 243.945 187.337 252.505C192.037 260.883 196.905 269.545 203.662 281.871C202.615 283.419 201.872 285.153 201.473 286.979C201.374 287.411 201.365 287.858 201.445 288.293C201.526 288.729 201.694 289.143 201.94 289.511C202.501 290.125 203.261 290.522 204.085 290.633C204.909 290.744 205.746 290.561 206.45 290.117C207.698 289.198 207.909 287.293 207.18 284.279C206.992 283.497 206.717 282.738 206.362 282.017C206.727 281.499 207.092 280.966 207.537 280.426C209.94 277.361 212.771 274.657 215.944 272.399C218.889 270.319 222.102 268.65 225.496 267.436C231.656 265.247 237.114 265.378 241.712 267.721C243.059 268.414 244.31 269.28 245.433 270.297L245.645 270.494C246.639 271.429 247.533 272.463 248.316 273.581C246.131 274.209 244.017 275.065 242.011 276.135C235.596 279.543 232.867 283.775 229.094 289.65C227.292 292.445 225.256 295.619 222.431 299.297C222.302 299.47 222.223 299.675 222.203 299.889C222.183 300.104 222.223 300.32 222.318 300.514C222.413 300.707 222.56 300.87 222.742 300.986C222.925 301.101 223.135 301.163 223.351 301.166C223.53 301.165 223.707 301.123 223.868 301.043C224.028 300.964 224.169 300.848 224.278 300.706C227.153 296.955 229.218 293.744 231.05 290.905C234.764 285.118 237.224 281.309 243.098 278.178C245.231 277.051 247.49 276.179 249.827 275.58C250.302 276.54 250.657 277.555 250.885 278.602C251.819 283.017 250.097 288.497 245.886 294.459C241.996 299.961 236.114 305.661 229.32 310.514C222.672 315.243 215.55 318.862 209.267 320.694C204.691 322.037 200.692 322.416 197.466 321.832C198.637 321.432 199.782 320.962 200.896 320.424C201.582 320.117 202.283 319.796 203.042 319.482C206.056 318.213 210.245 316.031 215.995 310.273C216.213 310.055 216.335 309.76 216.335 309.452C216.335 309.144 216.213 308.849 215.995 308.631C215.777 308.413 215.482 308.291 215.174 308.291C214.866 308.291 214.571 308.413 214.353 308.631C208.894 314.104 204.954 316.155 202.144 317.337C201.356 317.673 200.634 318.001 199.955 318.315C197.408 319.468 195.576 320.307 193.694 319.825C189.257 318.68 187.06 312.389 186.338 310.339L186.257 310.112C182.185 298.546 170.648 275.412 146.464 230.379C146.325 230.102 146.172 229.832 146.026 229.562C145.873 229.306 145.627 229.119 145.34 229.039C145.052 228.959 144.745 228.994 144.482 229.134C144.219 229.275 144.021 229.512 143.928 229.795C143.835 230.079 143.854 230.387 143.983 230.656C144.355 231.386 144.712 232.058 145.099 232.744C168.758 276.843 180.076 299.538 184.068 310.879L184.141 311.105C184.796 313.108 185.672 315.032 186.754 316.841V316.885C188.048 319.162 189.927 321.052 192.198 322.358C194.758 323.803 197.666 324.517 200.604 324.423C203.76 324.382 206.893 323.89 209.909 322.963C216.433 321.059 223.774 317.322 230.656 312.448C237.662 307.471 243.74 301.582 247.769 295.868C252.359 289.358 254.22 283.25 253.14 278.186C252.302 274.481 250.205 271.183 247.207 268.852C245.879 267.602 244.38 266.548 242.755 265.721C239.846 264.252 236.613 263.539 233.356 263.649C230.408 263.741 227.494 264.302 224.723 265.313C217.206 267.992 210.609 272.758 205.705 279.054C205.501 279.309 205.319 279.565 205.129 279.784C198.649 267.991 193.927 259.569 189.352 251.418C185.134 243.894 180.792 236.152 175.056 225.731C175.309 225.877 175.57 226.011 175.836 226.132C177.155 226.692 178.541 227.077 179.96 227.278C182.35 227.622 184.773 227.676 187.177 227.438C191.314 226.979 195.249 225.411 198.568 222.899C200.706 221.287 202.646 219.427 204.348 217.36C205.881 215.58 209.938 210.792 210.755 203.882C210.961 202.314 211.015 200.731 210.916 199.153L211.646 198.715C214.818 196.647 217.687 194.146 220.169 191.286C222.045 189.097 227.751 182.529 228.197 172.371C228.438 166.558 226.928 160.808 223.862 155.864C222.435 153.64 220.761 151.586 218.87 149.741C217.44 148.313 215.795 147.116 213.995 146.194C214.219 143.63 214.072 141.047 213.558 138.525C212.357 132.215 209.359 126.386 204.925 121.74C202.761 119.457 200.307 117.468 197.627 115.822C189.789 111.026 180.527 109.107 171.429 110.392C168.717 110.806 166.053 111.486 163.474 112.421C161.876 109.889 159.526 108.043 156.177 106.583C151.642 104.679 146.834 103.506 141.932 103.109C137.9 102.784 133.844 102.936 129.847 103.562C125.856 104.137 121.956 105.226 118.244 106.802C113.136 109.174 106.218 113.654 103.182 118.142C102.613 118.142 102.065 118.142 101.555 118.142C95.9819 118.002 90.5028 119.593 85.872 122.696L85.8064 122.74C83.6554 124.165 81.6938 125.857 79.9683 127.775C77.0614 130.819 75.1565 134.68 74.5097 138.838C74.1266 142.093 74.4553 145.392 75.473 148.508C71.592 150.387 68.2185 153.17 65.6359 156.623C64.0869 158.795 62.8581 161.179 61.9871 163.701C60.1802 168.592 59.8753 173.91 61.1114 178.975M203.618 287.256C203.827 286.25 204.197 285.284 204.713 284.396C204.749 284.513 204.779 284.629 204.808 284.739C205.501 287.592 204.939 288.161 204.932 288.161C204.721 288.244 204.494 288.275 204.269 288.251C204.044 288.227 203.828 288.148 203.64 288.023C203.572 287.784 203.572 287.531 203.64 287.293M208.216 197.708C206.253 198.649 205.049 198.693 204.567 198.365C204.131 197.972 203.858 197.431 203.801 196.847C203.69 196.349 203.771 195.828 204.027 195.387C204.487 194.818 205.881 194.716 206.742 195.19C207.471 195.577 207.946 196.445 208.201 197.723M211.12 147.617C210.816 148.798 210.183 149.868 209.296 150.704C208.048 151.821 206.829 152.273 205.851 151.981C204.676 151.624 203.808 150.31 203.939 149.515C204.122 148.471 206.304 147.574 208.23 147.325C209.211 147.215 210.204 147.304 211.149 147.588M162.212 115.377C163.102 117.566 163.62 120.485 162.321 121.704C161.928 122.032 161.451 122.246 160.944 122.322C160.437 122.398 159.919 122.333 159.446 122.134C158.938 121.84 158.519 121.412 158.235 120.898C157.951 120.384 157.812 119.802 157.833 119.215C157.928 118.004 159.519 116.595 162.212 115.355M104.379 120.463C106.356 120.609 108.312 121.054 109.115 122.397C109.764 123.499 109.772 125.163 109.115 125.71C108.458 126.257 106.809 125.71 106.298 125.44C105.202 124.849 104.373 123.862 103.977 122.682C103.857 121.928 103.996 121.156 104.371 120.492M78.6109 149.61C79.3267 149.04 80.1753 148.66 81.0775 148.508C81.2117 148.506 81.3451 148.529 81.4716 148.573C81.8433 148.728 82.1567 148.997 82.3676 149.34C82.5785 149.683 82.676 150.084 82.6465 150.485C82.4218 150.841 82.0992 151.125 81.7174 151.302C81.3355 151.48 80.9107 151.543 80.4937 151.485C79.8661 151.361 79.1874 150.653 78.5817 149.573M80.3478 197.562L80.3916 197.394C80.7199 196.197 81.4789 193.388 83.1938 192.943C83.3873 192.895 83.5857 192.87 83.7849 192.87C84.6039 192.895 85.3965 193.165 86.0618 193.643C86.3442 193.812 86.589 194.037 86.7811 194.305C86.9731 194.572 87.1083 194.876 87.1783 195.198C87.244 196.008 86.3172 197.328 84.8796 197.941C83.6755 198.452 82.1576 198.321 80.3478 197.562Z" fill="#383838"/>
<path d="M191.936 322.482C189.633 321.152 187.726 319.233 186.412 316.921V316.87C185.321 315.027 184.438 313.069 183.778 311.032L183.705 310.821C179.713 299.466 168.423 276.843 144.757 232.737L143.634 230.649C143.261 229.92 143.955 229.752 144.648 229.387C144.984 229.197 144.947 228.482 145.312 228.592C145.497 228.65 145.668 228.745 145.816 228.87C145.964 228.995 146.085 229.149 146.173 229.321L146.611 230.139C170.802 275.194 182.333 298.305 186.419 309.908L186.5 310.135C187.229 312.163 189.368 318.352 193.666 319.461C195.439 319.921 197.234 319.103 199.737 318.001L199.964 317.899C200.591 317.615 201.241 317.323 201.949 317.024C204.743 315.849 208.655 313.805 214.07 308.376C214.183 308.185 214.338 308.023 214.524 307.902C214.709 307.78 214.919 307.702 215.139 307.674C215.359 307.646 215.582 307.668 215.792 307.739C216.002 307.811 216.193 307.928 216.351 308.084C216.508 308.24 216.628 308.43 216.702 308.639C216.775 308.848 216.8 309.071 216.774 309.291C216.748 309.511 216.673 309.723 216.553 309.909C216.434 310.096 216.273 310.253 216.084 310.368C210.304 316.155 206.079 318.395 203.043 319.636C202.313 319.95 201.584 320.264 200.854 320.592C200.124 320.92 199.27 321.322 198.504 321.614C202.076 321.87 205.664 321.433 209.071 320.329C215.318 318.505 222.411 314.9 229.044 310.186C235.817 305.369 241.677 299.699 245.544 294.219C249.704 288.322 251.382 282.915 250.492 278.58C250.291 277.63 249.98 276.707 249.565 275.829C247.326 276.419 245.161 277.263 243.114 278.346C237.276 281.448 234.853 285.235 231.168 290.971L231.117 291.044C229.3 293.868 227.242 297.065 224.381 300.794C224.129 301.025 223.803 301.161 223.46 301.176C223.118 301.192 222.781 301.086 222.509 300.878C222.236 300.67 222.046 300.373 221.97 300.039C221.895 299.704 221.94 299.354 222.097 299.05C224.914 295.401 226.943 292.219 228.745 289.417C232.54 283.513 235.313 279.251 241.764 275.807C243.674 274.795 245.678 273.971 247.748 273.348C247.032 272.361 246.223 271.444 245.333 270.611L245.201 270.487L245.128 270.421C244.028 269.422 242.801 268.57 241.479 267.889C236.948 265.583 231.562 265.488 225.483 267.612C218.437 270.135 212.252 274.606 207.648 280.506C207.268 280.995 206.918 281.484 206.575 281.966C206.906 282.667 207.163 283.401 207.341 284.155C208.115 287.293 207.838 289.264 206.48 290.285C205.718 290.768 204.81 290.966 203.916 290.846C203.022 290.726 202.199 290.295 201.591 289.628C201.321 289.231 201.135 288.783 201.044 288.311C200.954 287.839 200.961 287.354 201.066 286.885C201.472 285.076 202.214 283.361 203.255 281.827C196.738 269.954 192.009 261.525 187.441 253.367L186.551 251.791C181.873 243.435 177.027 234.802 170.262 222.469C170.126 222.215 170.068 221.926 170.095 221.639C170.122 221.352 170.234 221.08 170.416 220.856C170.582 220.547 170.836 220.293 171.145 220.126H171.233C171.478 220.025 171.742 219.979 172.007 219.99C172.271 220.002 172.53 220.07 172.766 220.192C173.585 220.693 174.291 221.359 174.838 222.148L174.889 222.206L174.67 222.381L174.94 222.265C176.969 224.746 183.135 225.074 186.777 224.695C195.103 223.834 200.248 217.813 202.204 215.522C203.715 213.756 207.261 209.625 207.984 203.473C208.097 202.543 208.16 201.608 208.173 200.671C205.984 201.481 204.284 201.459 203.029 200.605C202.501 200.207 202.059 199.707 201.729 199.134C201.399 198.561 201.188 197.927 201.109 197.27C200.992 196.655 201 196.022 201.134 195.41C201.268 194.797 201.526 194.219 201.89 193.709C203.299 191.943 206.188 191.826 208.006 192.826C209.23 193.542 210.132 194.703 210.523 196.066C213.304 194.176 215.821 191.926 218.01 189.374L218.054 189.323C219.702 187.455 221.132 185.406 222.316 183.215C224.155 179.787 225.195 175.988 225.359 172.101C225.582 166.837 224.217 161.627 221.44 157.148C220.835 156.185 217.638 151.354 213.493 148.902C213.021 150.334 212.189 151.62 211.078 152.638C209.107 154.404 206.969 155.061 205.057 154.492C202.664 153.762 200.898 151.193 201.277 148.982C201.897 145.385 207.29 144.677 207.903 144.604C209.025 144.473 210.161 144.54 211.26 144.801C211.312 142.796 211.145 140.792 210.764 138.824C209.654 133.033 206.895 127.686 202.817 123.426C198.702 119.141 193.56 115.978 187.879 114.239C182.639 112.576 177.092 112.114 171.649 112.889C169.309 113.247 167.005 113.816 164.767 114.589C165.439 116.362 166.869 121.091 164.111 123.638C163.323 124.326 162.355 124.775 161.321 124.933C160.287 125.09 159.23 124.95 158.273 124.528C157.277 123.996 156.453 123.193 155.896 122.211C155.34 121.229 155.073 120.109 155.127 118.982C155.302 116.793 157.156 114.779 160.637 113.086C159.17 111.194 157.204 109.75 154.959 108.919C150.705 107.128 146.192 106.027 141.59 105.657C137.781 105.346 133.947 105.483 130.17 106.065C126.409 106.614 122.731 107.631 119.223 109.094C115.307 110.924 111.657 113.276 108.372 116.085C107.687 116.688 107.039 117.331 106.431 118.011C108.839 118.457 110.473 119.471 111.415 121.025C112.619 123.047 112.677 126.243 110.838 127.776C108.729 129.542 105.679 128.148 105.088 127.849C104.191 127.38 103.398 126.736 102.755 125.955C102.112 125.174 101.632 124.272 101.344 123.302C101.153 122.441 101.181 121.545 101.424 120.697C96.3859 120.562 91.4287 121.987 87.2307 124.776L87.165 124.827C85.2021 126.128 83.4121 127.673 81.8378 129.425C79.3306 132.112 77.7103 135.506 77.1965 139.145C76.9017 141.74 77.1149 144.367 77.8241 146.881C79.5829 145.852 81.0716 145.574 82.3851 146.027C84.2606 146.684 85.9244 149.128 85.2458 151.296C84.5671 153.463 81.9254 154.514 79.9915 154.134C78.6269 153.857 77.3717 152.806 76.3427 151.084C72.987 152.78 70.0658 155.224 67.8046 158.228C66.407 160.186 65.2963 162.334 64.5061 164.606C62.8823 168.999 62.6054 173.775 63.7106 178.326C65.4621 185.456 70.1252 189.535 72.9202 191.987L73.1318 192.169C74.6593 193.558 76.2915 194.826 78.0139 195.964C78.459 194.432 79.6047 191.075 82.553 190.316C83.434 190.129 84.3446 190.13 85.225 190.32C86.1054 190.51 86.9357 190.884 87.6613 191.418C88.2657 191.809 88.7783 192.327 89.1637 192.936C89.5492 193.544 89.7984 194.229 89.8943 194.942C90.1059 197.321 88.0261 199.525 85.9682 200.401C84.1285 201.118 82.0867 201.118 80.2469 200.401C80.1657 203.253 80.6854 206.09 81.7721 208.728C83.3972 212.802 85.9776 216.426 89.2959 219.294C91.4861 221.143 93.9224 222.678 96.5351 223.855C101.038 225.848 105.234 226.213 108.999 224.943C111.168 224.241 113.257 223.314 115.231 222.177C115.265 222.127 115.304 222.08 115.348 222.038L115.443 221.936C115.525 221.856 115.616 221.785 115.713 221.725C115.874 221.597 116.059 221.503 116.256 221.447C116.454 221.391 116.661 221.376 116.864 221.401C117.068 221.426 117.265 221.491 117.443 221.593C117.621 221.695 117.777 221.832 117.902 221.995C118.075 222.2 118.176 222.456 118.187 222.724C118.129 222.991 118.041 223.251 117.924 223.498C117.771 223.914 116.085 226.891 116.085 226.891L116.005 226.161C115.801 225.826 116.042 225.592 115.866 225.271C115.45 225.497 114.976 225.731 114.458 226.001L113.911 226.249C112.699 226.796 111.225 227.373 109.97 227.796C99.8336 231.219 90.1206 223.914 87.384 221.593C80.5097 215.755 76.5033 206.735 77.379 199.139H77.3352C75.1249 197.796 73.0521 196.239 71.1469 194.49L70.9717 194.344C67.9432 191.564 62.8349 187.112 60.8135 179.063C59.5653 173.945 59.8728 168.571 61.6965 163.629C62.5911 161.081 63.8416 158.674 65.411 156.477C67.9807 153.063 71.3083 150.293 75.1313 148.384C74.1533 145.293 73.84 142.03 74.2118 138.809C74.8155 134.568 76.7025 130.614 79.6193 127.476C81.3645 125.538 83.3425 123.822 85.5085 122.368H85.5596C90.2323 119.227 95.7667 117.617 101.395 117.763C101.862 117.763 102.366 117.763 102.855 117.763C105.869 113.385 112.582 108.948 117.946 106.445C121.68 104.856 125.605 103.762 129.622 103.19C133.64 102.559 137.719 102.404 141.773 102.73C146.7 103.119 151.535 104.284 156.098 106.182C159.455 107.598 161.79 109.422 163.395 111.918C165.927 111.014 168.539 110.354 171.197 109.948C177.084 109.104 183.087 109.603 188.755 111.407C191.853 112.372 194.82 113.721 197.585 115.421C200.295 117.079 202.775 119.086 204.962 121.39C209.443 126.078 212.469 131.964 213.676 138.335C214.176 140.815 214.331 143.352 214.135 145.874C215.887 146.805 217.492 147.987 218.901 149.384C220.812 151.243 222.502 153.317 223.936 155.565C227.033 160.554 228.558 166.358 228.315 172.225C227.899 182.442 222.141 189.126 220.287 191.316C217.786 194.2 214.898 196.724 211.705 198.817L211.523 198.927L211.129 199.168C211.216 200.705 211.16 202.246 210.961 203.772C210.136 210.793 206.035 215.595 204.488 217.404L204.452 217.448C202.734 219.525 200.774 221.389 198.614 223.002C195.257 225.545 191.276 227.134 187.091 227.599C184.661 227.84 182.21 227.786 179.793 227.438C178.352 227.233 176.944 226.841 175.604 226.271C180.946 235.977 185.091 243.34 189.076 250.47L189.47 251.163C194.352 259.869 198.898 267.998 205.035 279.156L205.356 278.74C210.282 272.386 216.924 267.574 224.498 264.875C227.298 263.857 230.241 263.29 233.219 263.197C236.524 263.086 239.804 263.808 242.757 265.298C244.398 266.135 245.911 267.202 247.252 268.465C250.297 270.837 252.427 274.189 253.28 277.952C254.382 283.061 252.506 289.278 247.865 295.853C243.822 301.589 237.721 307.529 230.686 312.499C223.819 317.388 216.42 321.139 209.859 323.059C206.815 323.984 203.656 324.475 200.474 324.518C197.485 324.612 194.527 323.886 191.922 322.416M233.248 263.81C230.33 263.9 227.445 264.457 224.702 265.459C221.124 266.721 217.733 268.464 214.624 270.64C211.284 273.012 208.305 275.856 205.78 279.083L205.313 279.689L204.948 280.178L204.736 279.799C198.504 268.451 193.907 260.241 188.966 251.433L188.579 250.74C184.471 243.442 180.224 235.845 174.67 225.746L174.189 224.877L175.05 225.373C175.286 225.514 175.53 225.643 175.779 225.76C177.073 226.314 178.435 226.692 179.83 226.884C182.196 227.226 184.595 227.28 186.974 227.044C191.061 226.592 194.95 225.041 198.227 222.556C200.34 220.966 202.258 219.131 203.941 217.091L204.152 217.273L203.985 217.039C205.495 215.266 209.516 210.567 210.326 203.707C210.526 202.156 210.577 200.59 210.479 199.029V198.854L210.633 198.766C210.808 198.671 210.983 198.562 211.158 198.453L211.333 198.343C214.483 196.29 217.332 193.81 219.798 190.973C221.659 188.783 227.322 182.215 227.731 172.218C227.97 166.464 226.475 160.772 223.44 155.879C222.028 153.668 220.365 151.628 218.485 149.8C217.075 148.396 215.458 147.217 213.69 146.304L213.515 146.217V146.02C213.729 143.482 213.581 140.926 213.077 138.43C211.886 132.172 208.91 126.391 204.51 121.784C202.343 119.517 199.89 117.542 197.212 115.91C189.454 111.182 180.295 109.291 171.299 110.561C168.604 110.968 165.956 111.642 163.395 112.575L163.184 112.655L163.067 112.465C161.498 109.969 159.214 108.16 155.879 106.751C151.374 104.847 146.596 103.669 141.722 103.263C137.712 102.938 133.677 103.09 129.703 103.715C125.736 104.278 121.859 105.358 118.172 106.926C112.831 109.422 106.139 113.866 103.227 118.172L103.139 118.296H102.972C102.402 118.296 101.855 118.296 101.344 118.296C95.8232 118.153 90.3941 119.729 85.8077 122.806H85.7566C83.6271 124.219 81.6851 125.896 79.9769 127.797C77.1453 130.854 75.3191 134.705 74.7446 138.831C74.3696 142.051 74.7008 145.313 75.7151 148.391L75.7954 148.625L75.5692 148.734C71.7338 150.601 68.397 153.352 65.8342 156.762C64.2918 158.909 63.0632 161.266 62.1854 163.76C60.4049 168.62 60.1228 173.902 61.3754 178.924C63.3166 186.813 68.3446 191.206 71.3439 193.826L71.519 193.979C73.3985 195.704 75.4418 197.241 77.6198 198.569C77.683 198.599 77.744 198.633 77.8022 198.671L77.9774 198.759V198.949C77.036 206.414 80.9767 215.317 87.778 221.104C90.4562 223.374 99.965 230.525 109.824 227.205C111.065 226.789 112.517 226.213 113.714 225.673C113.896 225.6 114.078 225.512 114.254 225.432C114.867 225.154 115.407 224.877 115.866 224.614L116.107 224.476L116.246 224.724C116.37 224.957 116.501 225.191 116.64 225.454C116.757 225.147 116.866 224.841 116.983 224.527L117.428 223.301L117.662 222.666C117.63 222.544 117.572 222.429 117.494 222.33C117.411 222.221 117.306 222.129 117.186 222.062C117.066 221.995 116.934 221.952 116.797 221.938C116.66 221.924 116.522 221.937 116.391 221.979C116.26 222.02 116.138 222.087 116.034 222.177C115.956 222.226 115.885 222.285 115.823 222.352L115.633 222.148L115.779 222.396C115.735 222.44 115.699 222.491 115.662 222.535L115.596 222.608C113.571 223.784 111.425 224.741 109.196 225.461C105.292 226.782 100.957 226.41 96.3235 224.359C93.6631 223.155 91.1826 221.589 88.9529 219.703C85.5599 216.787 82.9213 213.094 81.2613 208.939C80.0897 206.113 79.5613 203.062 79.7142 200.007V199.635L80.0645 199.766C82.21 200.562 84.1073 200.62 85.7201 199.934C87.6029 199.139 89.5003 197.154 89.3178 195.037C89.2273 194.403 89.0012 193.796 88.6549 193.257C88.3086 192.718 87.8502 192.26 87.311 191.914C86.6517 191.429 85.8978 191.088 85.0982 190.913C84.2986 190.739 83.4712 190.734 82.6697 190.9C80.0791 191.564 79.0209 194.424 78.4298 196.511L78.3277 196.869L78.0139 196.679C76.1348 195.47 74.3602 194.105 72.7085 192.6L72.5188 192.439C69.6873 189.958 64.9439 185.799 63.1487 178.501C62.0157 173.844 62.2977 168.956 63.9588 164.46C64.769 162.138 65.9067 159.944 67.3375 157.944C69.703 154.798 72.7754 152.253 76.3062 150.515L76.5398 150.398L76.6711 150.632C77.6271 152.339 78.7947 153.383 80.0572 153.631C81.7575 153.974 84.0928 152.989 84.6693 151.179C85.2458 149.369 83.8009 147.173 82.1589 146.596C80.9402 146.173 79.5026 146.494 77.7804 147.588L77.4738 147.778L77.3644 147.435C76.5587 144.743 76.3104 141.915 76.6346 139.123C77.1612 135.373 78.8273 131.876 81.4072 129.104C83.0079 127.318 84.83 125.743 86.8293 124.419L86.9023 124.368C91.188 121.51 96.2533 120.049 101.403 120.186H102.169L102.045 120.551C101.737 121.407 101.676 122.333 101.87 123.222C102.141 124.103 102.584 124.921 103.174 125.628C103.764 126.336 104.489 126.92 105.307 127.345C105.84 127.615 108.605 128.885 110.452 127.345C112.072 125.995 111.999 123.134 110.911 121.31C109.999 119.777 108.335 118.851 105.803 118.478L105.314 118.405L105.635 118.026C106.348 117.187 107.121 116.402 107.949 115.676C111.281 112.818 114.988 110.429 118.968 108.576C122.52 107.103 126.241 106.076 130.046 105.518C133.867 104.926 137.744 104.786 141.598 105.102C146.254 105.48 150.821 106.596 155.127 108.408C157.578 109.309 159.704 110.919 161.235 113.034L161.418 113.304L161.126 113.443C157.645 115.078 155.799 116.953 155.638 119.026C155.588 120.043 155.827 121.053 156.328 121.939C156.83 122.825 157.572 123.551 158.47 124.032C159.328 124.412 160.278 124.539 161.207 124.397C162.135 124.255 163.004 123.849 163.709 123.229C166.366 120.784 164.694 115.932 164.125 114.523L164.016 114.26L164.286 114.158C166.644 113.327 169.075 112.716 171.547 112.334C177.073 111.552 182.704 112.021 188.025 113.706C193.796 115.473 199.019 118.689 203.196 123.047C207.357 127.394 210.168 132.854 211.289 138.766C211.704 140.872 211.866 143.021 211.771 145.166V145.501L211.45 145.414C210.316 145.109 209.135 145.023 207.969 145.158C207.743 145.158 202.386 145.822 201.824 149.077C201.489 151.026 203.08 153.31 205.218 153.959C206.94 154.477 208.867 153.857 210.713 152.222C211.83 151.19 212.644 149.873 213.07 148.413L213.172 148.085L213.471 148.253C217.85 150.712 221.273 155.849 221.907 156.849C224.742 161.424 226.138 166.745 225.914 172.123C225.755 176.114 224.692 180.016 222.805 183.536C221.6 185.76 220.148 187.841 218.478 189.739L218.434 189.79C216.122 192.436 213.458 194.752 210.516 196.672L210.209 196.869L210.1 196.519C209.945 195.844 209.657 195.207 209.252 194.646C208.847 194.084 208.334 193.61 207.743 193.249C206.123 192.359 203.554 192.447 202.328 193.979C202.01 194.43 201.786 194.94 201.671 195.479C201.555 196.019 201.551 196.576 201.657 197.117C201.726 197.697 201.911 198.258 202.201 198.765C202.49 199.273 202.878 199.717 203.342 200.073C204.51 200.868 206.188 200.802 208.341 199.934L208.721 199.781V200.189C208.722 201.285 208.656 202.379 208.524 203.466C207.794 209.786 204.145 214.011 202.598 215.835C200.62 218.149 195.373 224.293 186.828 225.176C183.062 225.57 176.67 225.176 174.517 222.564L174.451 222.483L174.408 222.425C173.901 221.705 173.256 221.092 172.51 220.623C172.343 220.528 172.156 220.475 171.964 220.467C171.773 220.46 171.582 220.498 171.408 220.579H171.35C171.138 220.686 170.964 220.857 170.854 221.068V221.119C170.736 221.255 170.662 221.423 170.643 221.602C170.623 221.78 170.658 221.961 170.744 222.119C177.509 234.451 182.347 243.085 187.032 251.44L187.915 253.017C192.505 261.204 197.256 269.67 203.809 281.623L203.89 281.769L203.802 281.908C202.763 283.415 202.02 285.107 201.613 286.892C201.523 287.287 201.513 287.696 201.585 288.095C201.656 288.493 201.807 288.873 202.029 289.212C202.547 289.766 203.241 290.122 203.993 290.222C204.744 290.322 205.507 290.159 206.152 289.76C207.305 288.913 207.517 287.096 206.801 284.206C206.615 283.45 206.349 282.716 206.006 282.017L205.933 281.871L206.028 281.732C206.393 281.214 206.794 280.674 207.21 280.127C209.631 277.043 212.481 274.322 215.675 272.049C218.641 269.958 221.876 268.278 225.293 267.057C231.533 264.868 237.057 264.977 241.728 267.356C243.098 268.058 244.37 268.939 245.508 269.976L245.573 270.034C245.628 270.079 245.679 270.128 245.727 270.18C246.735 271.125 247.642 272.172 248.434 273.304L248.66 273.625L248.288 273.734C246.121 274.356 244.025 275.202 242.034 276.259C235.678 279.638 232.971 283.849 229.212 289.694C227.41 292.489 225.374 295.664 222.542 299.349C222.401 299.536 222.34 299.771 222.371 300.004C222.403 300.236 222.524 300.446 222.71 300.589C222.898 300.725 223.131 300.782 223.36 300.751C223.59 300.72 223.798 300.602 223.943 300.422C226.797 296.707 228.847 293.525 230.657 290.708L230.708 290.635C234.437 284.797 236.904 280.988 242.859 277.821C245.011 276.679 247.292 275.797 249.653 275.194L249.864 275.143L249.967 275.34C250.452 276.32 250.815 277.357 251.047 278.427C252.003 282.922 250.258 288.483 246.004 294.481C242.1 300.013 236.196 305.727 229.373 310.58C222.688 315.331 215.507 318.957 209.232 320.796C204.612 322.146 200.606 322.533 197.307 321.935L196.205 321.738L197.278 321.395C198.439 321 199.575 320.535 200.679 320.001C201.357 319.694 202.065 319.373 202.824 319.06C205.816 317.804 209.976 315.63 215.69 309.908C215.853 309.742 215.945 309.518 215.945 309.284C215.945 309.051 215.853 308.827 215.69 308.661C215.522 308.496 215.297 308.405 215.062 308.405C214.828 308.405 214.602 308.496 214.435 308.661C208.947 314.163 204.948 316.235 202.131 317.418C201.401 317.717 200.788 318.009 200.161 318.293L199.913 318.403C197.329 319.578 195.461 320.424 193.498 319.921C188.908 318.731 186.675 312.338 185.945 310.237L185.865 310.011C181.793 298.437 170.27 275.347 146.093 230.314L145.655 229.504C145.6 229.4 145.525 229.308 145.433 229.234C145.341 229.16 145.236 229.105 145.122 229.073C145.012 229.04 144.897 229.029 144.783 229.041C144.669 229.054 144.558 229.09 144.458 229.146C144.356 229.2 144.265 229.273 144.191 229.362C144.117 229.451 144.062 229.554 144.028 229.665C143.994 229.775 143.982 229.892 143.993 230.007C144.005 230.122 144.039 230.234 144.093 230.336L145.217 232.423C168.898 276.566 180.194 299.217 184.201 310.602L184.288 310.857C184.931 312.826 185.79 314.718 186.85 316.498L186.894 316.571C188.166 318.802 190.01 320.654 192.235 321.935C196.344 324.423 202.452 324.613 209.75 322.482C216.252 320.577 223.615 316.856 230.409 312.003C237.393 307.04 243.443 301.173 247.456 295.488C252.003 289.045 253.849 283.002 252.783 278.025C251.953 274.382 249.891 271.137 246.945 268.838C243.391 265.502 238.684 263.672 233.81 263.729H233.313M203.488 288.14C203.359 287.833 203.333 287.492 203.415 287.169C203.64 286.144 204.021 285.159 204.546 284.25L204.868 283.644L205.057 284.301C205.057 284.399 205.079 284.486 205.123 284.564V284.659C205.853 287.541 205.291 288.242 205.123 288.373C204.933 288.484 204.715 288.537 204.495 288.526C204.113 288.552 203.735 288.427 203.445 288.176M204.649 285.17C204.309 285.838 204.064 286.55 203.919 287.286C203.886 287.472 203.886 287.662 203.919 287.848C204.193 287.962 204.495 287.995 204.787 287.943C204.853 287.819 205.108 287.169 204.671 285.17M204.408 198.555C203.909 198.12 203.593 197.513 203.525 196.854C203.402 196.274 203.504 195.669 203.809 195.161C204.349 194.49 205.897 194.359 206.874 194.891C207.648 195.322 208.188 196.234 208.487 197.613L208.538 197.832L208.341 197.927C207.415 198.419 206.396 198.712 205.349 198.788C205.017 198.807 204.686 198.726 204.401 198.555M206.59 195.38C205.787 194.942 204.561 195.088 204.225 195.512C204.015 195.897 203.955 196.347 204.058 196.774C204.107 197.277 204.335 197.745 204.7 198.095C205.065 198.343 206.115 198.328 207.881 197.518C207.822 197.093 207.676 196.685 207.454 196.317C207.232 195.95 206.938 195.631 206.59 195.38ZM80.2688 197.818L80.0426 197.708L80.1156 197.467C80.1156 197.424 80.1156 197.38 80.1593 197.307C80.495 196.066 81.2905 193.155 83.1587 192.673C83.3738 192.621 83.5942 192.594 83.8154 192.593C84.6922 192.617 85.5413 192.904 86.2528 193.417C86.5692 193.609 86.8423 193.864 87.0546 194.167C87.267 194.47 87.4139 194.813 87.4861 195.176C87.5591 196.095 86.5885 197.526 85.0195 198.197C84.478 198.42 83.8973 198.531 83.3119 198.526C82.2595 198.484 81.2255 198.236 80.2688 197.796M84.8006 197.664C86.2017 197.066 86.9899 195.825 86.9315 195.205C86.8628 194.924 86.7391 194.659 86.5675 194.426C86.3959 194.193 86.1798 193.997 85.9317 193.848C85.3143 193.4 84.5776 193.146 83.8154 193.118C83.6383 193.119 83.4619 193.141 83.29 193.184C81.7648 193.578 81.0278 196.19 80.7067 197.365C82.3486 198.015 83.7206 198.095 84.8006 197.657M205.765 152.164C204.452 151.77 203.51 150.303 203.663 149.391C203.89 148.07 206.451 147.202 208.188 146.997C209.196 146.888 210.216 146.982 211.187 147.275L211.457 147.348L211.377 147.618C211.06 148.847 210.399 149.961 209.472 150.829C208.675 151.665 207.602 152.183 206.451 152.288C206.219 152.287 205.988 152.253 205.765 152.186M208.254 147.567C206.24 147.8 204.349 148.705 204.211 149.508C204.247 149.997 204.431 150.464 204.737 150.848C205.042 151.232 205.457 151.515 205.926 151.661C206.801 151.923 207.933 151.493 209.1 150.442C209.878 149.716 210.449 148.797 210.757 147.778C209.938 147.565 209.088 147.5 208.246 147.588M80.4367 151.799C79.5464 151.617 78.802 150.588 78.335 149.749L78.2109 149.522L78.4225 149.384C79.8383 148.442 80.838 148.092 81.5605 148.355C81.9992 148.535 82.3674 148.854 82.6096 149.262C82.8517 149.67 82.9548 150.145 82.9032 150.617C82.6954 150.994 82.3883 151.307 82.0152 151.522C81.6422 151.737 81.2174 151.845 80.787 151.836C80.6693 151.834 80.552 151.822 80.4367 151.799ZM78.9771 149.705C79.5099 150.595 80.0864 151.164 80.5753 151.259C80.9257 151.308 81.2827 151.257 81.6062 151.114C81.9298 150.971 82.207 150.741 82.407 150.449C82.4126 150.117 82.32 149.79 82.1409 149.509C81.9618 149.229 81.7041 149.008 81.3999 148.873C81.3032 148.842 81.2022 148.828 81.1007 148.829C80.3292 148.933 79.5976 149.234 78.9771 149.705ZM106.168 125.725C105.003 125.102 104.121 124.058 103.701 122.806C103.557 121.985 103.701 121.139 104.11 120.412L104.19 120.244H104.38C106.993 120.434 108.62 121.106 109.342 122.317C110.065 123.528 110.036 125.353 109.284 125.966C108.988 126.186 108.624 126.297 108.255 126.28C107.53 126.235 106.821 126.049 106.168 125.732M104.241 122.66C104.62 123.764 105.402 124.684 106.431 125.236C107 125.521 108.408 125.966 108.948 125.535C109.488 125.105 109.51 123.652 108.883 122.616C108.255 121.58 106.854 121.018 104.548 120.828C104.248 121.399 104.145 122.054 104.256 122.689M159.331 122.419C158.774 122.102 158.315 121.638 158.002 121.079C157.69 120.519 157.536 119.885 157.557 119.245C157.66 117.909 159.272 116.457 162.096 115.151L162.359 115.034L162.469 115.297C163.381 117.537 163.928 120.617 162.512 121.938C161.95 122.419 161.231 122.678 160.491 122.667C160.091 122.672 159.695 122.59 159.331 122.426M158.112 119.296C158.103 119.823 158.233 120.344 158.489 120.805C158.745 121.267 159.119 121.652 159.572 121.923C159.99 122.081 160.442 122.125 160.883 122.052C161.323 121.979 161.737 121.791 162.082 121.507C163.177 120.5 162.812 117.858 162.009 115.756C159.615 116.909 158.141 118.216 158.061 119.267" fill="#383838"/>
<path d="M116.158 226.701C116.34 226.205 116.938 225.074 117.114 224.577C117.289 224.081 117.595 223.519 117.792 222.972C117.844 222.835 117.861 222.687 117.84 222.541C117.82 222.396 117.763 222.258 117.675 222.14C117.403 221.875 117.038 221.726 116.657 221.726C116.277 221.726 115.912 221.875 115.639 222.14C115.406 222.79 114.771 223.424 114.538 224.067C114.304 224.709 114.158 225.139 113.954 225.687L109.174 239.129" fill="#383838"/>
<path d="M245.273 270.232L245.499 270.414L245.288 270.218L245.273 270.232Z" fill="#383838"/>
<path d="M245.427 270.516L245.624 270.319L245.471 270.173L245.303 270.027L245.099 270.232L245.208 270.341L245.427 270.516Z" fill="#383838"/>
<path d="M140.51 235.969C143.648 233.867 142.947 231.773 145.18 232.262C146.06 232.498 146.875 232.928 147.567 233.52C148.259 234.112 148.81 234.852 149.179 235.684C148.013 233.554 146.966 231.362 146.041 229.116C145.625 228 144.509 228.117 143.852 229.116L140.51 235.969Z" fill="#383838"/>
<path d="M117.865 173.626C118.592 172.833 119.479 172.204 120.468 171.78C121.457 171.356 122.525 171.147 123.601 171.167C124.548 171.176 125.482 171.391 126.338 171.795C127.195 172.199 127.954 172.784 128.563 173.509C129.39 174.511 129.936 175.715 130.146 176.997C130.356 178.278 130.223 179.593 129.76 180.807V180.887C138.152 187.856 152.776 187.958 160.862 180.646V180.566C160.349 179.351 160.162 178.023 160.319 176.714C160.477 175.405 160.973 174.159 161.76 173.101C162.376 172.274 163.169 171.595 164.08 171.113C164.991 170.631 165.998 170.357 167.029 170.313C168.081 170.246 169.135 170.415 170.113 170.808C171.092 171.201 171.97 171.807 172.684 172.582C172.782 172.688 172.857 172.811 172.905 172.946C172.954 173.081 172.974 173.224 172.966 173.367C172.958 173.51 172.921 173.65 172.858 173.779C172.794 173.907 172.705 174.022 172.597 174.115C172.504 174.207 172.393 174.279 172.271 174.327C172.149 174.374 172.019 174.396 171.889 174.391C171.758 174.387 171.63 174.355 171.512 174.299C171.394 174.242 171.289 174.162 171.203 174.064C170.708 173.524 170.104 173.095 169.431 172.806C168.758 172.517 168.031 172.373 167.299 172.385C166.604 172.391 165.919 172.545 165.289 172.839C164.66 173.132 164.101 173.557 163.65 174.086C162.812 175.078 162.352 176.334 162.352 177.632C162.352 178.931 162.812 180.187 163.65 181.179C163.994 181.59 164.4 181.944 164.854 182.23C165.011 182.326 165.139 182.463 165.225 182.626C165.311 182.789 165.352 182.973 165.343 183.157C165.334 183.351 165.276 183.541 165.174 183.707C165.072 183.873 164.929 184.01 164.759 184.105C164.635 184.171 164.498 184.206 164.358 184.207C164.157 184.211 163.961 184.152 163.796 184.04C163.171 183.636 162.608 183.145 162.125 182.58C153.265 190.272 137.919 190.17 128.702 182.879C128.146 183.626 127.464 184.271 126.688 184.784C126.525 184.894 126.336 184.957 126.14 184.966C125.99 184.968 125.843 184.933 125.71 184.864C125.536 184.775 125.388 184.642 125.282 184.478C125.176 184.314 125.114 184.125 125.104 183.93C125.093 183.748 125.13 183.566 125.212 183.404C125.294 183.241 125.418 183.103 125.571 183.003C126.168 182.616 126.687 182.121 127.104 181.544C127.554 180.927 127.878 180.228 128.059 179.486C128.243 178.738 128.262 177.96 128.116 177.204C127.97 176.448 127.662 175.733 127.213 175.107C126.826 174.57 126.322 174.127 125.74 173.812C125.157 173.498 124.51 173.319 123.849 173.29C123.722 173.283 123.596 173.283 123.469 173.29C122.713 173.309 121.969 173.479 121.28 173.79C120.59 174.101 119.97 174.546 119.456 175.1C119.369 175.202 119.262 175.285 119.142 175.343C119.022 175.402 118.89 175.435 118.757 175.44C118.623 175.446 118.49 175.423 118.365 175.375C118.241 175.326 118.127 175.253 118.033 175.158C117.925 175.068 117.837 174.957 117.774 174.832C117.711 174.707 117.674 174.571 117.665 174.431C117.656 174.291 117.676 174.151 117.723 174.019C117.77 173.887 117.843 173.765 117.938 173.662" fill="#383838"/>
<path d="M158.549 150.289C158.549 154.164 160.884 157.302 163.759 157.302C166.635 157.302 168.97 154.164 168.97 150.289C168.97 146.414 166.642 143.268 163.759 143.268C160.877 143.268 158.549 146.414 158.549 150.289Z" fill="#383838"/>
<path d="M153.603 153.295C153.603 147.267 157.317 142.349 161.893 142.349C166.468 142.349 170.183 147.252 170.183 153.295C170.183 159.337 166.461 164.241 161.893 164.241C157.324 164.241 153.603 159.337 153.603 153.295ZM155.398 153.295C155.398 158.33 158.317 162.431 161.893 162.431C165.468 162.431 168.38 158.33 168.38 153.295C168.38 148.26 165.461 144.166 161.893 144.166C158.324 144.166 155.398 148.26 155.398 153.295Z" fill="#383838"/>
<path d="M125.258 150.288C125.258 154.163 127.593 157.301 130.468 157.301C133.344 157.301 135.679 154.163 135.679 150.288C135.679 146.413 133.351 143.267 130.468 143.267C127.586 143.267 125.258 146.413 125.258 150.288Z" fill="#383838"/>
<path d="M120.302 153.295C120.302 147.267 124.024 142.349 128.592 142.349C133.16 142.349 136.882 147.252 136.882 153.295C136.882 159.337 133.167 164.241 128.592 164.241C124.016 164.241 120.302 159.337 120.302 153.295ZM122.104 153.295C122.104 158.33 125.023 162.431 128.592 162.431C132.16 162.431 135.087 158.33 135.087 153.295C135.087 148.26 132.168 144.166 128.592 144.166C125.016 144.166 122.104 148.26 122.104 153.295Z" fill="#383838"/>
<path d="M58.2795 249.886C58.2211 250.068 58.1408 250.317 58.0241 250.616C57.9511 250.522 57.8876 250.422 57.8343 250.317C57.3381 249.412 57.4038 248.2 57.8343 247.989C57.9642 247.929 58.1089 247.908 58.2503 247.93C58.3324 247.943 58.4101 247.975 58.4765 248.025C58.5087 248.145 58.5331 248.267 58.5495 248.39C58.5741 248.907 58.4843 249.422 58.2868 249.901" fill="white"/>
</g>
</g>
<defs>
<clipPath id="clip0_1_694">
<rect width="461" height="369" fill="white"/>
</clipPath>
</defs>
</svg>
