<svg width="156" height="191" viewBox="0 0 156 191" fill="none" xmlns="http://www.w3.org/2000/svg">
<path d="M114.558 49.7994C115.749 51.1877 118.875 55.1648 119.793 61.0247C120.076 62.8256 120.834 67.6623 118.449 70.026C118.172 70.2989 116.916 71.5439 115.558 71.0902C114.511 70.7423 113.664 69.4735 113.828 68.4332C114.047 67.0279 116.056 66.3832 117.183 66.2365C121.851 65.6396 125.905 72.5501 126.376 73.3721C129.017 77.9905 129.048 82.6532 128.986 84.3484C128.741 90.9587 125.454 95.2871 124.141 96.9721C121.284 100.632 116.353 104.558 114.534 103.2C113.709 102.583 113.402 100.779 114.026 99.9055C114.569 99.1517 115.855 99.1517 116.691 99.5542C119.298 100.809 119.131 106.485 119.107 107.065C119.07 108.047 118.896 112.464 116.234 114.917C113.002 117.891 107.829 116.387 105.167 115.732C91.2821 124.259 78.4615 118.833 68.7258 115.879C62.7847 114.074 56.325 115.162 56.325 115.162C56.325 115.162 50.4556 120.074 44.7943 119.16C39.6995 118.338 33.5913 114.398 32.9804 108.931C32.6836 106.277 33.7312 103.999 34.9324 101.604C36.5294 98.4149 38.0582 98.0466 38.3619 97.9818C38.4096 97.9715 38.4472 97.9647 38.4813 97.9613C39.9555 97.7601 41.8221 98.8686 41.9347 100.267C42.0234 101.406 41.0202 102.552 40.0271 103.016C37.1402 104.367 33.1954 100.461 31.5779 98.8993C29.7352 97.1222 26.6674 94.1581 25.4901 88.8815C23.7225 80.9614 27.7628 74.7467 28.2235 74.0611C30.5166 70.6571 33.3797 69.0062 34.9358 68.2728C34.946 68.2694 34.9767 68.2387 35.0279 68.2012C35.6251 67.7407 36.8433 66.8027 37.8261 67.1779C38.6144 67.4815 39.2935 68.648 39.0375 69.5519C38.7816 70.4456 37.6316 70.9981 36.8126 70.8174C34.8368 70.3808 33.4787 65.3906 33.9427 61.2976C34.6491 55.0624 39.5187 51.4503 40.6516 50.5942C44.5418 47.6574 48.3672 47.596 50.0938 47.5755C51.882 47.5551 54.5949 47.5244 55.5845 49.3628C56.1236 50.3622 56.2055 52.0097 55.4241 52.7328C54.5232 53.5685 52.9501 52.7226 52.8272 52.6509C51.6329 51.9892 51.0698 50.6726 50.964 50.1814C50.2781 46.9752 56.0383 42.1249 60.9045 39.6145C60.9045 39.6145 72.0632 33.8569 84.1364 39.4781C86.5866 40.6207 87.914 42.101 88.733 43.8679C89.5076 45.5392 90.2174 48.5545 88.9036 49.8915C88.245 50.5601 87.1121 50.7818 86.2555 50.3349C85.2523 49.8097 84.7438 48.4248 84.8087 47.4971C85.0066 44.7308 90.5484 42.7593 94.1417 42.1624C100.799 41.0573 109 43.3153 114.555 49.7926L114.558 49.7994Z" fill="white"/>
<path d="M89.1624 120.999C94.9397 120.999 100.232 119.505 105.279 116.459C105.327 116.472 105.378 116.483 105.426 116.496C106.839 116.851 108.774 117.335 110.784 117.373C110.862 117.373 110.944 117.373 111.023 117.373C113.374 117.373 115.278 116.715 116.691 115.415C118.567 113.686 119.639 110.807 119.782 107.092C119.806 106.468 119.84 104.432 119.352 102.512C121.178 101.233 123.164 99.319 124.669 97.3919C125.839 95.8911 129.399 91.3307 129.658 84.3759C129.743 82.0531 129.508 77.4927 126.959 73.0381C126.382 72.0284 123.956 68.0479 120.714 66.3254C120.97 64.1902 120.629 62.0243 120.458 60.9192C119.578 55.298 116.704 51.2629 115.07 49.3562C112.381 46.2216 108.893 43.851 104.982 42.5003C101.379 41.2553 97.5911 40.9108 94.0285 41.5009C92.3428 41.7806 90.541 42.2922 89.002 42.9233C88.0124 41.1564 86.5382 39.8569 84.4157 38.8711C81.5936 37.5579 78.5872 36.7461 75.4751 36.463C72.9908 36.2345 70.4349 36.3402 67.8824 36.7768C63.5315 37.5204 60.7026 38.9598 60.5832 39.0212C57.9692 40.3685 55.2734 42.2922 53.3658 44.1614C52.5741 44.9391 51.7347 45.8873 51.1204 46.9038C50.7451 46.8969 50.3936 46.9038 50.0762 46.9038C48.3564 46.9242 44.3263 46.9686 40.2313 50.0589L40.1938 50.0896C39.6034 50.5364 38.0303 51.72 36.5493 53.5721C34.6759 55.9085 33.5702 58.4838 33.2597 61.2295C33.0072 63.4739 33.2597 66.0253 33.9217 68.0275C32.038 69.0269 29.622 70.7664 27.6565 73.6895C27.3323 74.1705 26.2164 75.9373 25.3701 78.5569C24.2406 82.0701 24.0563 85.5936 24.8241 89.0352C26.0458 94.5097 29.2125 97.5658 31.103 99.3907L31.2122 99.4964C31.864 100.127 32.857 101.086 34.0002 101.952C32.8673 104.278 32.0176 106.468 32.3008 109.013C32.5124 110.899 33.4576 113.703 36.7779 116.326C39.037 118.11 41.9171 119.389 44.6777 119.836C45.1725 119.914 45.6844 119.955 46.2099 119.955C48.2949 119.955 50.6052 119.331 52.9836 118.113C54.8229 117.172 56.164 116.159 56.6008 115.811C57.6485 115.661 63.3336 114.958 68.5239 116.534C69.4385 116.81 70.3666 117.107 71.3528 117.421C76.0415 118.911 81.3547 120.603 87.1047 120.944C87.794 120.985 88.4799 121.006 89.159 121.006L89.1624 120.999ZM105.054 115.009L104.812 115.159C92.5032 122.721 81.0066 119.065 71.7657 116.125C70.7761 115.811 69.8445 115.514 68.9198 115.234C62.8934 113.406 56.478 114.453 56.2084 114.498L56.0275 114.528L55.8876 114.648C55.833 114.695 50.182 119.348 44.8996 118.495C42.3573 118.086 39.7058 116.906 37.6242 115.258C34.669 112.922 33.833 110.49 33.6521 108.856C33.4133 106.714 34.1094 104.841 35.1297 102.727C37.1465 103.989 38.8902 104.289 40.3098 103.627C41.5076 103.068 42.719 101.679 42.603 100.209C42.545 99.4725 42.1321 98.7596 41.4393 98.2002C40.5692 97.4976 39.3953 97.1463 38.3818 97.2861C38.3442 97.2929 38.2828 97.2998 38.2078 97.3168C37.4673 97.4771 36.0545 98.1389 34.6247 100.717C33.6248 99.9398 32.741 99.0871 32.1507 98.5141L32.0415 98.4083C30.2602 96.6892 27.2777 93.807 26.1448 88.7316C25.4315 85.5288 25.6022 82.2441 26.66 78.9628C27.4483 76.5104 28.4823 74.8799 28.7792 74.4365C30.5502 71.8033 32.7137 70.2138 34.4302 69.2827C35.0035 70.456 35.7576 71.2815 36.6585 71.4793C37.7812 71.7283 39.31 71.0359 39.6785 69.7397C40.0505 68.4368 39.1121 66.953 38.0576 66.5471C36.9963 66.1378 35.8736 66.7484 35.1161 67.2839C35.1127 67.2702 35.1092 67.2566 35.1024 67.2395C34.5803 65.442 34.3926 63.2488 34.6042 61.3728C34.884 58.8863 35.8941 56.5464 37.6037 54.4112C38.9824 52.6921 40.402 51.621 41.0094 51.164L41.0469 51.1333C44.7869 48.3091 48.5031 48.2681 50.0899 48.2511C50.2127 48.2511 50.3424 48.2511 50.4721 48.2477C50.2332 48.9435 50.1445 49.6427 50.2878 50.3215C50.4038 50.857 51.0215 52.4294 52.4854 53.2412C53.458 53.7801 54.9253 54.1008 55.8706 53.2276C56.8909 52.2862 56.8465 50.301 56.1675 49.039C55.4543 47.7156 54.0586 47.2039 52.6595 47.0061C53.0894 46.4092 53.6422 45.7748 54.3111 45.1199C56.1265 43.3394 58.6995 41.5043 61.1974 40.215C61.2247 40.2014 63.9751 38.8029 68.1315 38.0968C70.5646 37.6841 72.9976 37.5852 75.3591 37.8035C78.3074 38.0764 81.1568 38.8438 83.8322 40.0888C85.668 40.9415 86.9034 42.0057 87.7496 43.4758C85.4428 44.6355 84.2212 45.9726 84.1154 47.4495C84.0301 48.6536 84.6819 50.2874 85.924 50.9355C87.0296 51.5119 88.4799 51.2731 89.3706 50.3658C90.8652 48.8446 90.2476 45.8941 89.5685 44.1409C90.9983 43.5611 92.6704 43.0904 94.2401 42.8278C97.5809 42.2752 101.137 42.5992 104.529 43.7726C108.211 45.0448 111.497 47.279 114.029 50.2328C115.571 52.0304 118.277 55.8301 119.11 61.1238C119.26 62.0891 119.554 63.9514 119.403 65.7763C118.66 65.5477 117.882 65.4591 117.083 65.5614C115.756 65.7319 113.428 66.5062 113.145 68.3242C112.933 69.6783 113.954 71.2678 115.329 71.7283C116.462 72.1035 117.731 71.6703 118.912 70.5038C119.683 69.7397 120.158 68.7676 120.441 67.7239C123.256 69.4259 125.457 73.154 125.778 73.7066C128.16 77.8679 128.378 82.1452 128.3 84.3213C128.197 87.0637 127.539 89.7208 126.344 92.2141C125.324 94.3425 124.157 95.8365 123.597 96.5562C122.263 98.2685 120.53 99.9637 118.898 101.164C118.479 100.196 117.868 99.3736 116.977 98.9438C115.844 98.3981 114.22 98.4595 113.466 99.51C112.63 100.67 112.971 102.887 114.118 103.743C115.015 104.415 116.39 104.251 118.134 103.279C118.161 103.416 118.189 103.549 118.209 103.678C118.475 105.244 118.434 106.755 118.424 107.041C118.294 110.343 117.353 112.963 115.766 114.422C112.968 116.998 108.45 115.862 105.747 115.183C105.6 115.146 105.457 115.111 105.32 115.077L105.044 115.009H105.054ZM117.762 101.935C117.185 102.28 116.656 102.532 116.199 102.672C115.797 102.795 115.251 102.894 114.937 102.662C114.387 102.249 114.172 100.861 114.571 100.305C114.875 99.8818 115.8 99.8852 116.394 100.168C117.028 100.475 117.462 101.157 117.759 101.935H117.762ZM38.8391 98.6096C39.4294 98.6096 40.0914 98.8483 40.5965 99.2542C40.9957 99.5748 41.2312 99.95 41.2585 100.315C41.3199 101.106 40.5248 102.031 39.7399 102.399C38.7503 102.863 37.4195 102.573 35.7917 101.54C35.7747 101.529 35.761 101.519 35.744 101.509C37.027 99.1314 38.1702 98.7119 38.5046 98.6403C38.5285 98.6334 38.5524 98.63 38.5695 98.63C38.6582 98.6198 38.7469 98.613 38.8391 98.613V98.6096ZM119.209 67.1338C118.991 68.0616 118.608 68.9109 117.97 69.5453C117.175 70.3332 116.394 70.6538 115.773 70.4492C115.032 70.2036 114.387 69.2383 114.496 68.5391C114.643 67.5943 116.274 67.0383 117.267 66.9121C117.926 66.8268 118.578 66.9189 119.209 67.1372V67.1338ZM37.3239 67.7682C37.4127 67.7682 37.498 67.7819 37.5764 67.8126C38.0474 67.9933 38.5388 68.812 38.3784 69.3679C38.2248 69.9035 37.4468 70.265 36.952 70.1559C36.5049 70.0569 36.0238 69.4839 35.6109 68.6005C36.0511 68.2696 36.7745 67.7648 37.3205 67.7648L37.3239 67.7682ZM51.9155 48.2886C53.185 48.3841 54.4544 48.7013 54.9867 49.6871C55.4474 50.5398 55.4338 51.8018 54.9629 52.2384C54.5022 52.6648 53.5023 52.2555 53.1543 52.0645C52.2227 51.546 51.7142 50.4613 51.6255 50.0452C51.5197 49.5438 51.6187 48.9537 51.919 48.292L51.9155 48.2886ZM88.3468 44.7072C88.9508 46.2932 89.3125 48.5137 88.4185 49.4244C87.951 49.902 87.1388 50.0418 86.5655 49.7416C85.8591 49.3733 85.4292 48.292 85.4838 47.5518C85.552 46.6173 86.5655 45.6076 88.3468 44.7072Z" fill="#383838"/>
<path d="M89.1659 121.288C94.9637 121.288 100.25 119.811 105.327 116.768L105.358 116.775C106.784 117.133 108.736 117.625 110.78 117.662H111.026C113.449 117.662 115.425 116.98 116.892 115.629C118.827 113.849 119.929 110.898 120.079 107.105C120.1 106.526 120.137 104.54 119.687 102.634C121.492 101.341 123.43 99.4582 124.904 97.5685C126.089 96.0507 129.692 91.4323 129.955 84.3854C130.04 82.0319 129.801 77.4101 127.218 72.8907C126.566 71.7515 124.215 67.9449 121.031 66.161C121.25 64.0497 120.915 61.9144 120.752 60.8707C119.857 55.1779 116.95 51.0917 115.295 49.1645C112.572 45.989 109.04 43.5911 105.082 42.2233C101.434 40.9613 97.5981 40.6134 93.9877 41.2103C92.3702 41.4797 90.6572 41.9539 89.1352 42.5542C88.1183 40.8419 86.6544 39.5799 84.5455 38.601C81.6927 37.2741 78.6522 36.4555 75.5093 36.1656C73.0012 35.9336 70.4214 36.0428 67.8416 36.4828C63.4668 37.2298 60.5799 38.693 60.4604 38.7544C57.8226 40.1154 55.0995 42.0562 53.1749 43.9458C52.2501 44.8565 51.5096 45.7468 50.9738 46.6029C50.6701 46.6029 50.3801 46.6029 50.1139 46.6029C48.336 46.6234 44.2411 46.6677 40.0711 49.816C39.4329 50.2969 37.8427 51.4941 36.3344 53.377C34.4269 55.7578 33.2974 58.3842 32.9834 61.1811C32.7377 63.3675 32.9629 65.8472 33.584 67.8699C31.8266 68.8351 29.4003 70.5781 27.4245 73.5115C27.0969 73.9992 25.9606 75.7934 25.1041 78.4505C23.9575 82.0114 23.7698 85.5895 24.5513 89.0788C25.79 94.6352 28.9943 97.7323 30.9086 99.5776L31.0178 99.6833C31.6423 100.287 32.5671 101.181 33.6454 102.016C32.4374 104.527 31.7515 106.597 32.0211 109.022C32.2361 110.963 33.2086 113.842 36.6074 116.53C38.9006 118.344 41.8319 119.644 44.6403 120.098C47.1553 120.503 50.0832 119.903 53.1203 118.348C54.8879 117.444 56.188 116.482 56.7238 116.062C57.9659 115.892 63.4395 115.268 68.4421 116.786C69.3226 117.052 70.2132 117.335 71.155 117.635L71.2676 117.669C75.97 119.166 81.3037 120.862 87.0877 121.206C87.7839 121.247 88.4834 121.267 89.1591 121.267L89.1659 121.288ZM105.232 116.151L105.129 116.213C100.113 119.238 94.892 120.708 89.1659 120.708C88.5005 120.708 87.8146 120.688 87.1287 120.647C81.4163 120.309 76.1201 118.624 71.4485 117.137L71.3359 117.103C70.3906 116.803 69.4966 116.519 68.6162 116.25C63.3815 114.661 57.6622 115.36 56.5702 115.517L56.4918 115.527L56.4303 115.575C55.956 115.95 54.6559 116.925 52.8609 117.846C49.9672 119.327 47.1007 119.924 44.7359 119.542C42.0196 119.102 39.1872 117.846 36.9692 116.09C33.7273 113.525 32.8026 110.803 32.5978 108.971C32.3351 106.618 33.0414 104.585 34.2699 102.071L34.3757 101.856L34.1846 101.713C33.0551 100.857 32.0723 99.9084 31.4205 99.2808L31.3113 99.1751C29.4413 97.3707 26.3155 94.3521 25.1143 88.9628C24.3568 85.5724 24.541 82.1001 25.6535 78.6381C26.4861 76.0526 27.5849 74.313 27.9023 73.8423C29.8917 70.8885 32.3521 69.1831 34.0652 68.2723L34.2801 68.1598L34.2051 67.9278C33.5499 65.9427 33.3076 63.4459 33.5567 61.2527C33.8604 58.5649 34.9456 56.0375 36.7849 53.7453C38.2454 51.9205 39.7947 50.754 40.3782 50.314C44.4356 47.251 48.3974 47.2066 50.09 47.1862C50.4244 47.1862 50.7657 47.1794 51.1274 47.1862H51.2946L51.3799 47.0463C51.8986 46.1902 52.6391 45.2863 53.5809 44.362C55.468 42.5098 58.1366 40.6066 60.7266 39.2695C60.8426 39.2115 63.6511 37.7857 67.9439 37.0524C70.4725 36.6192 73.0012 36.5169 75.4615 36.742C78.5362 37.0251 81.5118 37.8267 84.3032 39.1262C86.3814 40.0949 87.7975 41.3433 88.7599 43.059L88.8861 43.2841L89.1216 43.1886C90.664 42.5576 92.4282 42.0596 94.0867 41.7867C97.6015 41.2035 101.338 41.5446 104.897 42.7759C108.757 44.1096 112.203 46.4528 114.858 49.5465C116.472 51.4293 119.311 55.4133 120.182 60.9662C120.359 62.0952 120.69 64.1963 120.438 66.294L120.414 66.4919L120.591 66.584C123.727 68.2485 126.075 72.0584 126.723 73.184C129.235 77.5739 129.467 82.0762 129.382 84.3684C129.126 91.2243 125.611 95.7335 124.454 97.2138C122.966 99.1205 121.001 101.014 119.199 102.276L119.035 102.392L119.083 102.586C119.561 104.476 119.526 106.509 119.503 107.085C119.359 110.724 118.322 113.532 116.503 115.206C115.145 116.455 113.306 117.089 111.029 117.089H110.794C108.818 117.052 106.9 116.567 105.501 116.216L105.235 116.151H105.232ZM89.1625 119.93C94.1822 119.93 99.4886 118.764 104.966 115.401L105.105 115.315L105.682 115.459C108.446 116.151 113.06 117.311 115.974 114.63C117.615 113.119 118.591 110.428 118.725 107.047C118.738 106.631 118.769 105.161 118.506 103.626C118.482 103.493 118.458 103.357 118.428 103.217L118.349 102.828L118.005 103.023C116.868 103.657 115.305 104.257 114.302 103.51C113.285 102.75 112.971 100.71 113.712 99.6799C114.377 98.7555 115.838 98.7112 116.861 99.2058C117.602 99.5639 118.202 100.26 118.643 101.28L118.786 101.614L119.079 101.399C120.745 100.171 122.478 98.4724 123.833 96.7363C124.399 96.0098 125.577 94.4987 126.611 92.343C127.822 89.8156 128.491 87.121 128.597 84.3377C128.679 82.1308 128.457 77.7922 126.037 73.5661C125.628 72.8498 123.444 69.1967 120.601 67.4776L120.27 67.2798L120.171 67.6516C119.878 68.7499 119.387 69.6401 118.721 70.3018C117.622 71.3865 116.459 71.7992 115.435 71.4581C114.203 71.0488 113.258 69.5787 113.445 68.3747C113.705 66.7272 115.885 66.0143 117.134 65.854C117.851 65.7619 118.588 65.8301 119.332 66.0553L119.677 66.161L119.707 65.8029C119.861 63.9507 119.571 62.0952 119.414 61.0958C118.571 55.7202 115.827 51.8693 114.264 50.0513C111.698 47.06 108.368 44.7985 104.638 43.5092C101.202 42.3222 97.5981 41.9914 94.2095 42.5542C92.6261 42.8168 90.9472 43.2875 89.4799 43.8844L89.2137 43.9902L89.3161 44.2562C90.0907 46.2584 90.4661 48.8643 89.183 50.1741C88.3811 50.9927 87.0741 51.211 86.0777 50.6892C84.9413 50.0957 84.3441 48.5915 84.426 47.4795C84.525 46.1117 85.6955 44.8565 87.9033 43.7446L88.1763 43.6081L88.0228 43.3421C87.1492 41.8311 85.8661 40.7157 83.9756 39.8391C81.2729 38.5805 78.3894 37.8028 75.4069 37.5265C73.0216 37.3082 70.5613 37.4071 68.1043 37.8233C63.9889 38.5225 61.2043 39.9073 61.0883 39.9653C58.5631 41.2683 55.9628 43.1204 54.1269 44.9213C53.4513 45.5865 52.8848 46.2311 52.4412 46.8451L52.1614 47.2339L52.6357 47.3021C54.2941 47.5341 55.3691 48.1515 55.9287 49.185C56.5464 50.3276 56.5975 52.1831 55.6898 53.0222C54.8606 53.7897 53.5263 53.4895 52.6425 52.9949C51.2707 52.2343 50.694 50.7676 50.5882 50.2662C50.4654 49.683 50.5234 49.0383 50.7623 48.3459L50.8953 47.9605L50.1037 47.9673C48.4862 47.9843 44.7052 48.0287 40.89 50.9075C40.2349 51.402 38.7948 52.4867 37.3957 54.2331C35.6519 56.4092 34.6214 58.8037 34.3313 61.3414C34.1163 63.2515 34.304 65.4891 34.8398 67.3207L34.9524 67.7095L35.2971 67.5185C36.3686 66.7647 37.2421 66.5362 37.969 66.8159C38.8904 67.1706 39.7401 68.5179 39.4159 69.6572C39.0951 70.7862 37.7062 71.4104 36.7337 71.1955C35.9795 71.0283 35.2766 70.3223 34.7033 69.1524L34.5702 68.8829L34.304 69.0261C32.707 69.8925 30.4138 71.5059 28.5506 74.2721C28.2469 74.7224 27.1959 76.3903 26.3974 78.87C25.3259 82.199 25.1484 85.5383 25.8753 88.7889C27.0287 93.9496 30.0487 96.8693 31.8539 98.6123L31.9631 98.718C32.5637 99.2979 33.4543 100.157 34.461 100.942L34.7272 101.15L34.891 100.853C36.2764 98.3565 37.6107 97.7391 38.2829 97.5958C38.3478 97.5822 38.399 97.5754 38.4331 97.5685C39.3749 97.4423 40.4567 97.7698 41.2688 98.4213C41.8967 98.9261 42.2721 99.5707 42.3233 100.226C42.4291 101.563 41.3064 102.838 40.1939 103.357C38.8665 103.978 37.2183 103.677 35.2902 102.473L35.0172 102.303L34.8773 102.593C33.7717 104.885 33.1336 106.737 33.3724 108.879C33.5601 110.564 34.4201 113.078 37.4537 115.476C39.5728 117.15 42.2755 118.351 44.8621 118.771C50.2879 119.654 56.0243 114.906 56.0823 114.858L56.1642 114.79L56.2665 114.773C56.5327 114.729 62.9037 113.695 68.8448 115.503C69.7423 115.776 70.6466 116.062 71.6021 116.366L71.6874 116.393C76.8845 118.048 82.7983 119.927 89.1693 119.927L89.1625 119.93ZM105.007 114.698L104.662 114.91C92.4658 122.4 81.0375 118.767 71.858 115.848L71.7727 115.82C70.8138 115.517 69.9061 115.227 69.0086 114.954C62.9345 113.112 56.4372 114.163 56.1642 114.21L55.9048 114.255L55.7035 114.422C55.6489 114.47 50.0934 119.037 44.9475 118.204C42.453 117.802 39.8493 116.642 37.8052 115.029C34.9285 112.754 34.1163 110.4 33.9423 108.821C33.7273 106.904 34.2801 105.206 35.2561 103.139C37.2456 104.312 38.9859 104.564 40.4362 103.889C41.7227 103.289 43.0228 101.784 42.8966 100.188C42.8317 99.3695 42.3813 98.585 41.6271 97.9778C40.6955 97.2274 39.4466 96.8523 38.3478 97.0023C38.3034 97.0092 38.2352 97.0194 38.1533 97.0364C37.4162 97.1967 35.9864 97.8346 34.5463 100.284C33.6693 99.5776 32.8981 98.8306 32.3692 98.3189L32.2497 98.203C30.4923 96.5043 27.5474 93.6631 26.4349 88.6695C25.732 85.5178 25.9026 82.2843 26.9434 79.0542C27.718 76.6427 28.7349 75.0362 29.0284 74.5996C30.7278 72.0755 32.7957 70.5474 34.3177 69.681C34.949 70.8544 35.7338 71.5707 36.604 71.7617C37.853 72.038 39.5558 71.2637 39.9653 69.8175C40.385 68.3474 39.3647 66.734 38.1703 66.277C37.3343 65.9563 36.3924 66.1337 35.2971 66.8193C34.8534 65.1002 34.7067 63.1185 34.9012 61.4062C35.1742 58.9776 36.1638 56.6855 37.8393 54.5946C39.1941 52.9063 40.5932 51.8489 41.1903 51.3986C44.8826 48.6119 48.5203 48.5642 50.0866 48.5471C49.916 49.1986 49.8921 49.816 50.0115 50.389C50.1344 50.962 50.793 52.6368 52.3525 53.5032C53.4103 54.0898 55.0176 54.4275 56.0754 53.4486C57.2323 52.381 57.1606 50.2628 56.4303 48.9121C55.8366 47.8104 54.7719 47.1214 53.1885 46.811C53.5605 46.3369 54.0109 45.8423 54.5228 45.3375C56.3177 43.574 58.8668 41.7594 61.3408 40.4838C61.4534 40.4292 64.1595 39.0785 68.193 38.3963C70.6022 37.987 73.008 37.8881 75.3489 38.1064C78.2632 38.3758 81.0818 39.1365 83.7265 40.3678C85.3918 41.1421 86.552 42.1039 87.3607 43.3762C85.1358 44.553 83.9551 45.9207 83.8459 47.442C83.7538 48.7381 84.4602 50.5016 85.8081 51.2042C87.0263 51.8386 88.6165 51.576 89.5959 50.58C91.0121 49.1372 90.7254 46.4528 89.9576 44.3176C91.326 43.7889 92.8548 43.366 94.3051 43.1272C97.5947 42.5815 101.106 42.9021 104.45 44.0584C108.085 45.3136 111.326 47.517 113.828 50.4334C115.35 52.207 118.022 55.959 118.841 61.1811C118.984 62.102 119.24 63.7495 119.155 65.414C118.452 65.2401 117.749 65.1991 117.063 65.2878C115.653 65.4686 113.186 66.3043 112.876 68.2928C112.644 69.7766 113.756 71.5161 115.254 72.0141C116.493 72.4268 117.871 71.9663 119.131 70.718C119.793 70.0597 120.294 69.2103 120.622 68.1837C123.249 69.9471 125.304 73.4535 125.536 73.8594C127.884 77.9593 128.099 82.1752 128.017 84.3206C127.914 87.0255 127.266 89.6416 126.089 92.0975C125.082 94.1986 123.929 95.6755 123.376 96.385C122.127 97.9847 120.554 99.5503 119.018 100.727C118.533 99.7549 117.895 99.0693 117.11 98.6941C115.868 98.0972 114.084 98.1791 113.237 99.3524C112.306 100.649 112.671 103.029 113.951 103.984C114.889 104.687 116.227 104.598 117.929 103.729V103.735C118.182 105.216 118.155 106.638 118.138 107.037C118.011 110.26 117.1 112.808 115.575 114.214C112.893 116.683 108.467 115.571 105.825 114.91L105.003 114.705L105.007 114.698ZM115.459 103.091C115.698 103.091 115.974 103.043 116.288 102.948C116.766 102.801 117.312 102.545 117.912 102.183L118.121 102.057L118.035 101.832C117.663 100.857 117.155 100.212 116.527 99.9084C115.817 99.5673 114.746 99.5741 114.343 100.137C113.852 100.819 114.094 102.392 114.77 102.896C114.947 103.029 115.179 103.094 115.459 103.094V103.091ZM117.401 101.812C116.926 102.081 116.493 102.279 116.117 102.395C115.65 102.538 115.278 102.548 115.114 102.429C114.688 102.112 114.503 100.904 114.814 100.471C115.008 100.202 115.759 100.178 116.274 100.427C116.721 100.642 117.1 101.106 117.401 101.812ZM38.7368 102.9C39.1463 102.9 39.5182 102.818 39.8629 102.661C40.7297 102.255 41.6203 101.235 41.5452 100.294C41.5111 99.8504 41.2381 99.4002 40.7774 99.0318C40.1393 98.5168 39.2555 98.2439 38.532 98.3428L38.4433 98.3599C37.9929 98.4588 36.7985 98.9499 35.4916 101.375L35.3619 101.614L35.5939 101.757C36.8019 102.521 37.8496 102.903 38.7402 102.903L38.7368 102.9ZM38.8392 98.8988C39.3647 98.8988 39.9687 99.1205 40.4123 99.4786C40.7467 99.7481 40.9446 100.052 40.9651 100.335C41.0163 100.996 40.2963 101.815 39.6138 102.132C38.7539 102.535 37.5834 102.289 36.1263 101.406C37.3309 99.2842 38.3614 98.9636 38.5628 98.9193C38.6822 98.9022 38.7573 98.8954 38.8358 98.8954L38.8392 98.8988ZM116.158 70.7964C116.783 70.7964 117.482 70.4383 118.175 69.7493C118.796 69.1319 119.24 68.2758 119.492 67.1979L119.55 66.9421L119.301 66.8568C118.591 66.6146 117.895 66.5328 117.23 66.6181C116.111 66.7613 114.384 67.3787 114.21 68.4872C114.08 69.3229 114.807 70.4246 115.681 70.7146C115.834 70.7657 115.995 70.7896 116.158 70.7896V70.7964ZM118.861 67.3275C118.629 68.1734 118.26 68.8488 117.766 69.34C117.063 70.0392 116.37 70.3428 115.861 70.1722C115.261 69.971 114.694 69.1387 114.78 68.5827C114.896 67.8426 116.353 67.3173 117.302 67.1979C117.8 67.1331 118.322 67.1774 118.858 67.3275H118.861ZM37.1432 70.4655C37.7472 70.4655 38.4843 70.0597 38.6583 69.4457C38.8596 68.7362 38.2795 67.7709 37.6824 67.539C37.0408 67.2934 36.0512 67.9074 35.4404 68.3679L35.2527 68.5077L35.3517 68.7192C35.6793 69.4184 36.2116 70.2848 36.8941 70.4349C36.9726 70.4519 37.0579 70.4621 37.1432 70.4621V70.4655ZM37.3241 68.0575C37.3821 68.0575 37.4298 68.0643 37.4742 68.0813C37.8189 68.2144 38.2181 68.8863 38.1021 69.2888C37.9963 69.664 37.3752 69.9505 37.0169 69.8755C36.7746 69.8209 36.3822 69.4798 35.9795 68.6919C36.5665 68.2689 37.0169 68.0575 37.3241 68.0575ZM54.3931 52.7152C54.6729 52.7152 54.9459 52.647 55.1575 52.4492C55.7854 51.8693 55.7206 50.4368 55.2394 49.5499C54.748 48.6392 53.6662 48.1344 51.9361 48.0014L51.7348 47.9877L51.6529 48.1719C51.3287 48.895 51.2229 49.5465 51.3424 50.1025C51.4447 50.5766 51.9873 51.7431 53.0145 52.3128C53.0554 52.3366 53.7447 52.7118 54.3965 52.7118L54.3931 52.7152ZM52.0999 48.5949C53.4956 48.7313 54.359 49.1338 54.7309 49.8228C55.1541 50.6107 55.1029 51.709 54.7651 52.0228C54.4784 52.2889 53.6663 52.0126 53.2943 51.8079C52.4309 51.327 51.9737 50.3003 51.9054 49.9797C51.8235 49.5909 51.8884 49.1236 52.0999 48.5949ZM87.2447 50.1878C87.7498 50.1878 88.265 49.9899 88.6268 49.625C89.6403 48.5915 89.2547 46.2755 88.6199 44.6041L88.5039 44.304L88.2173 44.4506C86.3165 45.4125 85.2723 46.4801 85.1973 47.5341C85.1358 48.38 85.6204 49.5738 86.436 50.0002C86.6851 50.1298 86.9649 50.1912 87.2481 50.1912L87.2447 50.1878ZM88.1866 45.1158C88.7121 46.6438 88.9271 48.4891 88.2104 49.2191C87.8317 49.6045 87.1526 49.7205 86.6987 49.4817C86.1118 49.1747 85.7228 48.2197 85.7705 47.5716C85.8251 46.8042 86.7021 45.9173 88.1866 45.1158Z" fill="#383838"/>
<path d="M90.7135 100.158C93.4468 100.748 99.9168 102.556 105.124 108.368C107.492 111.012 108.905 113.706 109.755 115.77C110.144 117.359 110.164 118.734 110.117 119.658C110.117 119.658 109.472 127.224 102.916 141.815C102.664 142.382 102.128 143.572 101.067 143.804C99.9987 144.036 98.5826 143.374 98.528 142.59C98.4768 141.891 99.7837 141.328 100.517 141.011C103.787 139.585 107.032 140.137 108.588 140.42C112.318 141.103 114.744 142.757 115.59 143.391C115.935 143.651 116.187 143.859 116.341 143.985C120.74 147.617 124.998 156.421 122.043 160.766C119.583 164.379 110.82 162.489 93.2933 158.71C90.5497 158.12 87.301 157.342 85.9429 154.763C84.2435 151.54 85.6767 145.847 86.209 143.729C86.2875 143.412 86.3933 143.023 86.407 142.975C87.3113 139.776 88.2599 137.398 88.6319 136.494C88.6831 136.375 88.7138 136.297 88.7342 136.245C93.109 125.795 92.5732 122.796 92.5732 122.796C85.6392 120.225 78.7051 117.653 71.7676 115.077" fill="white"/>
<path d="M116.496 163.406C119.69 163.406 121.588 162.69 122.628 161.165C124.109 158.989 124.102 155.684 122.611 151.854C121.335 148.572 119.103 145.349 116.793 143.442C116.636 143.313 116.373 143.094 116.018 142.828C114.851 141.955 112.353 140.39 108.719 139.728C107.9 139.578 106.47 139.319 104.761 139.377C107.402 133.155 108.873 128.441 109.664 125.446C110.651 121.715 110.821 119.798 110.828 119.72V119.696C110.903 118.301 110.773 116.923 110.449 115.599L110.436 115.548L110.415 115.5C109.255 112.683 107.654 110.125 105.658 107.897C103.341 105.312 100.533 103.218 97.3045 101.669C95.2673 100.69 93.1038 99.95 90.8721 99.469C90.4899 99.3872 90.1145 99.6293 90.0326 100.011C89.9507 100.393 90.193 100.769 90.5752 100.85C92.6977 101.311 94.7589 102.014 96.6971 102.945C99.7547 104.411 102.416 106.397 104.611 108.842C106.487 110.936 107.996 113.341 109.095 115.991C109.378 117.161 109.487 118.379 109.426 119.61C109.412 119.757 109.217 121.643 108.289 125.146C107.48 128.192 105.952 133.066 103.167 139.527C102.229 139.673 101.242 139.932 100.249 140.366L100.226 140.376C99.3008 140.778 97.755 141.454 97.8403 142.644C97.8744 143.111 98.1474 143.562 98.6149 143.913C99.3315 144.449 100.386 144.684 101.236 144.5C102.642 144.193 103.297 142.733 103.577 142.109C103.771 141.679 103.959 141.253 104.143 140.833C106.006 140.669 107.614 140.959 108.477 141.119C111.824 141.73 114.114 143.163 115.182 143.961C115.513 144.21 115.759 144.411 115.906 144.534C118.042 146.297 120.113 149.302 121.308 152.369C121.929 153.962 122.28 155.513 122.328 156.851C122.379 158.283 122.089 159.467 121.475 160.374C119.284 163.594 110.111 161.616 93.4587 158.024C90.4933 157.386 87.736 156.629 86.5826 154.439C85.0095 151.455 86.3915 145.97 86.9102 143.906C86.9887 143.599 87.0911 143.214 87.1047 143.173C87.9476 140.185 88.8451 137.879 89.3023 136.771C89.3399 136.679 89.3672 136.614 89.3877 136.566L89.4047 136.525C91.2372 132.149 92.4486 128.523 93.0049 125.75C93.4212 123.669 93.312 122.827 93.2847 122.68L93.213 122.281L72.0285 114.422C71.6634 114.286 71.2539 114.474 71.1208 114.839C70.9843 115.203 71.172 115.613 71.5372 115.746L91.8992 123.298C91.889 123.71 91.8276 124.471 91.5682 125.689C91.1826 127.517 90.2681 130.784 88.0943 135.972L88.0773 136.01C88.0568 136.061 88.0295 136.126 87.9886 136.221C87.5176 137.357 86.5997 139.721 85.7363 142.781C85.7227 142.835 85.6169 143.227 85.5316 143.555C84.9754 145.762 83.5012 151.625 85.3234 155.091C86.0093 156.39 87.1525 157.383 88.8178 158.126C90.1759 158.733 91.7047 159.088 93.1516 159.398C102.079 161.322 108.525 162.714 113.254 163.212C114.462 163.338 115.544 163.403 116.506 163.403L116.496 163.406ZM102.461 141.102C102.399 141.242 102.334 141.386 102.27 141.525C102.061 141.989 101.625 142.958 100.915 143.115C100.492 143.207 99.898 143.084 99.5021 142.818C99.3384 142.709 99.2667 142.613 99.2428 142.566C99.2803 142.511 99.3998 142.375 99.7376 142.173C100.072 141.976 100.461 141.805 100.772 141.669L100.795 141.658C101.352 141.416 101.908 141.235 102.457 141.102H102.461Z" fill="#383838"/>
<path d="M116.494 163.696C119.742 163.696 121.766 162.942 122.865 161.329C124.4 159.074 124.404 155.67 122.878 151.747C121.585 148.425 119.323 145.154 116.975 143.217C116.815 143.084 116.548 142.865 116.187 142.596C114.999 141.706 112.457 140.116 108.765 139.441C108.045 139.311 106.768 139.076 105.243 139.076H105.195C107.768 132.96 109.191 128.342 109.938 125.518C110.928 121.766 111.102 119.821 111.109 119.743C111.187 118.287 111.054 116.881 110.723 115.531L110.696 115.438C109.502 112.543 107.884 109.954 105.867 107.703C103.526 105.09 100.684 102.972 97.425 101.406C95.3673 100.42 93.18 99.6699 90.9277 99.1821C90.6684 99.1275 90.4022 99.1753 90.177 99.3186C89.9518 99.4618 89.7982 99.6869 89.7436 99.9462C89.6276 100.482 89.9688 101.014 90.5046 101.13C92.6067 101.583 94.6439 102.283 96.5617 103.2C99.5851 104.653 102.216 106.611 104.383 109.029C106.239 111.1 107.731 113.477 108.812 116.097C109.075 117.195 109.184 118.385 109.119 119.59C109.099 119.774 108.905 121.622 107.993 125.067C107.219 127.997 105.714 132.827 102.95 139.26C101.96 139.427 101.008 139.707 100.117 140.096C99.0971 140.539 97.4353 141.266 97.5342 142.661C97.5718 143.213 97.8891 143.739 98.4249 144.138C99.2063 144.721 100.353 144.98 101.281 144.776C102.83 144.438 103.53 142.886 103.827 142.221C103.997 141.842 104.161 141.47 104.325 141.102C106.076 140.972 107.587 141.245 108.41 141.399C111.699 141.999 113.948 143.404 114.996 144.189C115.32 144.431 115.562 144.632 115.706 144.752C117.808 146.488 119.845 149.445 121.022 152.471C121.63 154.033 121.978 155.551 122.022 156.857C122.07 158.225 121.8 159.354 121.22 160.206C119.138 163.266 109.491 161.185 93.5041 157.737C90.6104 157.113 87.9214 156.379 86.8226 154.299C85.304 151.413 86.6622 146.01 87.1741 143.974C87.2525 143.667 87.3549 143.288 87.3651 143.244C88.2046 140.27 89.0953 137.974 89.5525 136.873L89.614 136.729L89.3887 136.518L89.6549 136.63C91.4942 132.237 92.7125 128.591 93.2721 125.801C93.6884 123.724 93.5929 122.844 93.5519 122.625L93.453 122.066L93.2994 122.008L72.1183 114.149C71.8692 114.057 71.5996 114.067 71.3574 114.176C71.1151 114.286 70.9308 114.487 70.8387 114.736C70.7465 114.985 70.7568 115.258 70.866 115.496C70.9752 115.739 71.1765 115.923 71.4256 116.015L91.5898 123.495C91.5659 123.932 91.4874 124.621 91.2758 125.63C90.8936 127.448 89.9825 130.699 87.819 135.863L87.7132 136.112C87.2423 137.255 86.3175 139.629 85.4474 142.702C85.4337 142.756 85.3245 143.152 85.2426 143.486C84.6796 145.724 83.1849 151.666 85.0617 155.227C85.7784 156.588 86.9659 157.621 88.696 158.392C90.078 159.009 91.6239 159.367 93.0878 159.685C102.022 161.612 108.478 163.003 113.221 163.501C114.46 163.631 115.535 163.696 116.504 163.696H116.494ZM105.253 139.652C106.714 139.652 107.915 139.871 108.659 140.007C112.235 140.659 114.692 142.197 115.839 143.056C116.19 143.319 116.449 143.534 116.603 143.66C118.879 145.54 121.077 148.719 122.336 151.956C123.793 155.694 123.807 158.907 122.384 161.001C121.387 162.464 119.572 163.116 116.49 163.116C115.542 163.116 114.487 163.055 113.269 162.925C108.556 162.43 102.114 161.039 93.197 159.118C91.7638 158.808 90.2521 158.457 88.9212 157.863C87.3174 157.147 86.2186 156.199 85.5668 154.957C83.7957 151.594 85.2494 145.806 85.7988 143.63C85.8807 143.302 85.9865 142.913 86.0002 142.862C86.8601 139.816 87.7746 137.466 88.2421 136.337L88.3309 136.126C90.5251 130.883 91.4464 127.595 91.8355 125.753C92.0948 124.528 92.1596 123.747 92.1699 123.307V123.103L71.6201 115.476C71.5143 115.438 71.4324 115.36 71.3847 115.258C71.3369 115.155 71.3335 115.043 71.371 114.937C71.4085 114.831 71.487 114.749 71.5894 114.702C71.6918 114.654 71.8044 114.651 71.9102 114.688L92.9377 122.489L92.9786 122.724C92.9923 122.809 93.1151 123.614 92.6988 125.685C92.146 128.441 90.9414 132.046 89.1157 136.405L89.0134 136.651C88.5527 137.766 87.6518 140.082 86.8021 143.087C86.7884 143.132 86.6861 143.517 86.6076 143.831C86.0787 145.928 84.683 151.488 86.3039 154.568C87.5153 156.871 90.3408 157.648 93.3745 158.303C110.15 161.919 119.391 163.914 121.691 160.531C122.343 159.572 122.646 158.33 122.595 156.837C122.547 155.465 122.189 153.883 121.558 152.259C120.346 149.148 118.244 146.099 116.071 144.305C115.921 144.182 115.671 143.977 115.337 143.725C114.248 142.91 111.914 141.45 108.509 140.829C107.632 140.669 106.001 140.372 104.096 140.539L103.926 140.553L103.858 140.71C103.673 141.129 103.486 141.552 103.294 141.982C103.032 142.565 102.417 143.933 101.155 144.209C100.38 144.377 99.4247 144.162 98.7695 143.674C98.3703 143.377 98.1382 143.002 98.1109 142.62C98.0393 141.634 99.4691 141.01 100.322 140.638C101.237 140.239 102.196 139.963 103.195 139.809L103.352 139.785L103.417 139.639C106.236 133.1 107.765 128.188 108.553 125.221C109.478 121.732 109.679 119.842 109.696 119.637C109.761 118.365 109.648 117.12 109.358 115.923C108.236 113.201 106.707 110.769 104.81 108.647C102.595 106.174 99.8991 104.165 96.8074 102.682C94.8486 101.74 92.7671 101.031 90.6206 100.567C90.3954 100.519 90.2521 100.294 90.2999 100.072C90.3237 99.9632 90.3886 99.8711 90.4807 99.8097C90.5728 99.7483 90.6855 99.7313 90.7947 99.7517C93.0025 100.229 95.1489 100.963 97.1657 101.931C100.356 103.463 103.137 105.537 105.427 108.091C107.4 110.295 108.983 112.822 110.133 115.612C110.471 116.967 110.597 118.317 110.525 119.685C110.519 119.777 110.348 121.67 109.372 125.374C108.614 128.24 107.154 132.977 104.482 139.264L104.305 139.683L104.758 139.666C104.926 139.659 105.089 139.656 105.25 139.656L105.253 139.652ZM100.612 143.435C100.742 143.435 100.865 143.425 100.977 143.398C101.831 143.21 102.305 142.156 102.533 141.648L102.963 140.683L102.39 140.822C101.8 140.966 101.227 141.16 100.684 141.395C100.339 141.545 99.94 141.719 99.5919 141.927C99.2336 142.142 99.0733 142.306 99.005 142.405L98.906 142.552L98.9879 142.709C99.0323 142.794 99.1313 142.923 99.3428 143.063C99.6977 143.302 100.182 143.439 100.612 143.439V143.435ZM101.943 141.542C101.742 141.975 101.363 142.719 100.855 142.828C100.51 142.903 99.9946 142.794 99.6636 142.572H99.6568C99.7148 142.524 99.7899 142.477 99.8854 142.419C100.203 142.231 100.582 142.064 100.889 141.931C101.237 141.777 101.588 141.648 101.943 141.539V141.542Z" fill="#383838"/>
<path d="M71.5971 100.359C74.5079 100.55 83.4929 101.505 89.8469 108.368C91.3074 109.947 94.2967 113.178 94.8222 117.963C94.9041 118.72 94.9417 119.662 93.6961 125.266C93.6961 125.266 92.3072 131.426 87.639 141.815C87.3865 142.382 86.8507 143.572 85.7895 143.804C84.7214 144.036 83.3052 143.374 83.2506 142.59C83.1994 141.89 84.5064 141.328 85.2401 141.01C88.5092 139.585 91.7544 140.137 93.3105 140.42C97.0403 141.103 99.4666 142.757 100.313 143.391C100.658 143.65 100.91 143.859 101.064 143.985C105.462 147.617 109.721 156.421 106.766 160.766C104.305 164.378 95.5422 162.489 78.0159 158.71C73.979 157.84 72.0373 156.714 70.6655 154.763C67.1302 149.739 70.2833 141.004 71.993 136.269C74.3646 129.7 76.8045 127.271 75.5624 123.71C74.6649 121.135 72.4639 119.74 70.3652 118.41C65.192 115.132 59.7013 114.9 56.4936 115.084" fill="white"/>
<path d="M101.219 163.407C104.413 163.407 106.31 162.69 107.351 161.166C108.832 158.99 108.825 155.684 107.334 151.854C106.058 148.573 103.826 145.349 101.516 143.443C101.359 143.313 101.096 143.095 100.741 142.829C99.574 141.956 97.0761 140.39 93.4418 139.728C92.6228 139.578 91.193 139.319 89.4834 139.377C93.1757 130.703 94.3393 125.655 94.3905 125.423C95.6121 119.928 95.6326 118.833 95.5302 117.888C94.9808 112.871 91.8653 109.508 90.3706 107.891C84.3579 101.397 76.0588 99.9435 71.6465 99.657C71.2575 99.6297 70.9197 99.9265 70.8958 100.315C70.8719 100.704 71.1654 101.042 71.5544 101.066C75.7551 101.339 83.6515 102.717 89.3332 108.849C90.7255 110.354 93.6261 113.485 94.1243 118.042C94.1891 118.625 94.2745 119.423 93.0119 125.116C92.9982 125.171 91.7629 130.536 87.8829 139.527C86.9445 139.674 85.9549 139.933 84.9653 140.366L84.9414 140.376C84.0166 140.779 82.4708 141.454 82.5561 142.645C82.5902 143.112 82.8632 143.562 83.3307 143.91C84.0474 144.446 85.1018 144.681 85.9515 144.497C87.3574 144.19 88.0126 142.73 88.2924 142.106C88.4869 141.672 88.6746 141.249 88.8589 140.83C90.7221 140.666 92.3294 140.956 93.1927 141.116C96.5403 141.727 98.8301 143.16 99.8982 143.958C100.229 144.207 100.475 144.408 100.622 144.531C102.758 146.294 104.829 149.299 106.024 152.366C106.645 153.958 106.996 155.51 107.044 156.848C107.095 158.28 106.805 159.464 106.191 160.371C104 163.591 94.8273 161.613 78.1745 158.021C74.4413 157.216 72.5645 156.223 71.2507 154.358C67.927 149.633 71.0084 141.096 72.6634 136.508C73.4073 134.448 74.1479 132.821 74.803 131.385C76.2329 128.247 77.1781 126.173 76.2363 123.475C75.2569 120.668 72.8614 119.15 70.7491 117.81C65.6645 114.587 60.1739 114.164 56.4611 114.375C56.0721 114.399 55.7718 114.73 55.7957 115.122C55.8196 115.511 56.154 115.811 56.543 115.787C60.0476 115.589 65.2277 115.985 69.9949 119.004C72.0048 120.279 74.0864 121.596 74.902 123.939C75.6562 126.105 74.8986 127.773 73.52 130.799C72.8545 132.258 72.1004 133.913 71.3394 136.027C69.5956 140.857 66.3504 149.845 70.1007 155.169C71.6261 157.335 73.8066 158.522 77.8811 159.402C86.808 161.326 93.2541 162.718 97.9838 163.216C99.1918 163.342 100.274 163.407 101.236 163.407H101.219ZM87.1834 141.103C87.122 141.243 87.0571 141.386 86.9923 141.526C86.7841 141.99 86.3473 142.958 85.6376 143.115C85.2144 143.207 84.6206 143.085 84.2248 142.818C84.061 142.709 83.9893 142.614 83.9655 142.566C84.003 142.512 84.1224 142.375 84.4603 142.174C84.7947 141.976 85.1837 141.805 85.4942 141.669L85.5181 141.659C86.0744 141.417 86.6306 141.236 87.18 141.103H87.1834Z" fill="#383838"/>
<path d="M101.22 163.696C104.469 163.696 106.493 162.942 107.591 161.329C109.127 159.074 109.13 155.67 107.605 151.748C106.312 148.422 104.049 145.154 101.702 143.217C101.545 143.084 101.278 142.866 100.913 142.596C99.7257 141.706 97.1869 140.116 93.4912 139.441C92.7746 139.311 91.4949 139.076 89.9661 139.076H89.9218C93.498 130.61 94.6241 125.692 94.6719 125.484C95.9038 119.941 95.9242 118.826 95.815 117.853C95.2554 112.741 92.0955 109.33 90.5804 107.692C84.4994 101.123 76.1184 99.6563 71.6652 99.3664C71.4024 99.3493 71.1431 99.4346 70.9417 99.612C70.7404 99.7859 70.621 100.032 70.6039 100.298C70.5868 100.564 70.6721 100.819 70.8496 101.021C71.027 101.222 71.2693 101.341 71.5355 101.358C75.6953 101.628 83.5064 102.989 89.1198 109.05C90.4916 110.53 93.3478 113.617 93.8358 118.075C93.8938 118.611 93.9826 119.416 92.7268 125.054C92.6756 125.276 91.4266 130.552 87.6764 139.267C86.6868 139.434 85.7347 139.714 84.844 140.103C83.8237 140.546 82.1618 141.273 82.2608 142.668C82.2983 143.22 82.6157 143.746 83.1515 144.145C83.9329 144.728 85.0829 144.987 86.0077 144.782C87.5569 144.445 88.2565 142.893 88.5534 142.228C88.724 141.849 88.8912 141.477 89.0516 141.109C90.7987 140.979 92.3139 141.252 93.1363 141.406C96.4259 142.006 98.6747 143.411 99.7223 144.196C100.046 144.438 100.289 144.639 100.432 144.759C102.534 146.495 104.571 149.452 105.749 152.477C106.356 154.04 106.704 155.558 106.749 156.864C106.796 158.232 106.527 159.361 105.947 160.213C103.865 163.273 94.2146 161.192 78.2341 157.744C74.5794 156.956 72.7503 155.994 71.4843 154.197C68.2459 149.595 71.2966 141.15 72.9346 136.613C73.6717 134.577 74.4054 132.96 75.0537 131.538C76.5245 128.311 77.4868 126.197 76.5074 123.389C75.4939 120.487 73.054 118.942 70.9008 117.577C65.7514 114.313 60.1959 113.887 56.4388 114.098C55.8894 114.129 55.4697 114.599 55.5004 115.149C55.5141 115.415 55.6335 115.657 55.8314 115.834C56.0293 116.012 56.275 116.107 56.5514 116.087C60.0219 115.889 65.1303 116.281 69.8293 119.259C71.7982 120.507 73.8355 121.796 74.6203 124.044C75.337 126.098 74.593 127.728 73.2485 130.689C72.5729 132.172 71.8221 133.827 71.0578 135.938C69.2969 140.816 66.0176 149.895 69.8532 155.346C71.4263 157.58 73.6546 158.798 77.8076 159.695C86.7414 161.622 93.1977 163.014 97.941 163.512C99.1797 163.641 100.255 163.706 101.224 163.706L101.22 163.696ZM89.9798 139.656C91.4403 139.656 92.6415 139.874 93.3854 140.011C96.9616 140.662 99.4186 142.2 100.565 143.06C100.917 143.323 101.176 143.538 101.33 143.664C103.606 145.543 105.803 148.722 107.062 151.959C108.52 155.697 108.533 158.91 107.11 161.005C106.114 162.468 104.298 163.119 101.217 163.119C100.268 163.119 99.2138 163.058 97.9956 162.928C93.283 162.434 86.8403 161.042 77.9236 159.122C73.931 158.262 71.7982 157.106 70.3207 155.008C66.6591 149.807 69.8702 140.911 71.5969 136.132C72.3511 134.042 73.0984 132.398 73.7604 130.948C75.18 127.83 75.958 126.125 75.1629 123.85C74.3132 121.411 72.1907 120.067 70.1364 118.764C65.3044 115.705 60.0628 115.302 56.5139 115.503C56.4081 115.503 56.2955 115.473 56.2136 115.398C56.1317 115.323 56.0805 115.22 56.0737 115.111C56.0601 114.883 56.2375 114.685 56.4661 114.671C60.1345 114.463 65.5637 114.879 70.5834 118.062C72.6582 119.375 75.0059 120.865 75.9512 123.577C76.8555 126.166 75.9307 128.199 74.5282 131.272C73.8628 132.732 73.1223 134.359 72.3818 136.416C70.7063 141.051 67.5941 149.681 71.0031 154.527C72.3647 156.461 74.2893 157.485 78.101 158.307C94.8766 161.922 104.118 163.918 106.418 160.534C107.069 159.576 107.373 158.334 107.322 156.84C107.274 155.469 106.916 153.886 106.284 152.263C105.073 149.152 102.971 146.103 100.797 144.308C100.647 144.186 100.398 143.981 100.064 143.729C98.975 142.913 96.6409 141.453 93.2352 140.833C92.3582 140.672 90.7271 140.376 88.8229 140.543L88.6523 140.556L88.5841 140.713C88.4032 141.129 88.2121 141.552 88.021 141.986C87.7583 142.569 87.144 143.937 85.8814 144.213C85.1068 144.383 84.1513 144.165 83.4961 143.677C83.0969 143.381 82.8648 143.005 82.8375 142.623C82.7659 141.638 84.1957 141.013 85.0488 140.642C85.9633 140.243 86.9222 139.966 87.9221 139.813L88.079 139.789L88.1439 139.642C91.9624 130.794 93.2386 125.409 93.2898 125.183C94.5661 119.446 94.474 118.617 94.4091 118.014C93.8973 113.361 90.9557 110.182 89.543 108.654C83.7964 102.446 75.8181 101.055 71.573 100.779C71.4604 100.772 71.358 100.721 71.2864 100.639C71.2147 100.553 71.1772 100.448 71.184 100.335C71.1908 100.223 71.242 100.124 71.3273 100.049C71.4092 99.9735 71.5082 99.9428 71.631 99.9462C75.999 100.233 84.2161 101.669 90.1606 108.091C91.6348 109.684 94.706 113 95.2452 117.922C95.3475 118.839 95.3237 119.91 94.1122 125.361C94.0645 125.569 92.9145 130.593 89.2222 139.264L89.0448 139.683L89.4986 139.67C89.6658 139.663 89.8262 139.663 89.9866 139.663L89.9798 139.656ZM85.3388 143.435C85.4685 143.435 85.5914 143.425 85.704 143.398C86.5571 143.21 87.0314 142.156 87.26 141.648L87.69 140.683L87.1167 140.822C86.5264 140.966 85.9531 141.16 85.4105 141.395C85.0658 141.546 84.6666 141.72 84.3185 141.928C83.9602 142.142 83.7998 142.306 83.7316 142.405L83.6326 142.552L83.7145 142.709C83.7589 142.794 83.8578 142.924 84.0694 143.063C84.4243 143.302 84.9089 143.439 85.3388 143.439V143.435ZM86.6697 141.542C86.4684 141.975 86.0896 142.719 85.5811 142.828C85.2296 142.906 84.7212 142.794 84.3902 142.572H84.3834C84.4414 142.524 84.5164 142.477 84.612 142.419C84.9293 142.231 85.3081 142.064 85.6152 141.931C85.9633 141.777 86.3148 141.648 86.6697 141.539V141.542Z" fill="#383838"/>
<path d="M57.9776 70.0762C58.8171 68.6095 60.1752 67.6919 61.8985 67.4293C64.1473 67.0882 66.8636 67.9102 68.8735 69.4997C67.529 66.464 65.502 65.5977 64.3691 65.3589C63.9937 65.277 63.8606 64.9428 63.9221 64.6528C63.9869 64.3493 64.2701 64.073 64.666 64.1583C66.3005 64.5062 67.7645 65.5192 68.9042 67.078C69.8802 68.4151 70.5866 70.1239 70.9005 71.8908C70.9619 72.2523 70.7197 72.5457 70.4569 72.6377C70.3955 72.6582 70.3306 72.6719 70.2692 72.6719C70.0645 72.6753 69.8802 72.5627 69.7676 72.3615C68.6108 70.2876 65.5635 68.589 62.97 68.572C62.9222 68.572 62.8744 68.572 62.8267 68.572C61.6153 68.5924 60.0251 68.9915 59.0593 70.6833C58.8614 71.0312 58.486 71.0551 58.2165 70.9016C57.9503 70.7515 57.7865 70.4173 57.981 70.0762H57.9776Z" fill="#383838"/>
<path d="M90.2143 68.4085C87.6242 68.5176 84.6417 70.3288 83.56 72.4436C83.4542 72.6516 83.2733 72.7676 83.0686 72.771C83.0072 72.771 82.9457 72.7608 82.8809 72.7437C82.6147 72.6585 82.3588 72.3753 82.41 72.0104C82.6557 70.2333 83.304 68.5006 84.2288 67.1294C85.3072 65.5263 86.737 64.4655 88.3579 64.0562C88.7503 63.9573 89.0438 64.2233 89.1189 64.5235C89.1905 64.81 89.0711 65.1511 88.6957 65.2466C87.5696 65.5297 85.5767 66.4677 84.3448 69.5511C86.2899 67.89 88.979 66.9657 91.238 67.2249C92.9715 67.4261 94.3604 68.2891 95.2544 69.7251C95.4626 70.0628 95.309 70.397 95.0497 70.5608C94.9473 70.6256 94.8313 70.6631 94.7084 70.6631C94.5174 70.6665 94.3263 70.5812 94.1966 70.3732C93.1251 68.6507 91.4359 68.3539 90.2108 68.4051L90.2143 68.4085Z" fill="#383838"/>
<path d="M63.8358 79.1942C65.0063 79.2181 66.0505 79.7093 66.7705 80.579C67.7601 81.7694 68.0229 83.3794 67.4735 84.8836C67.4666 84.9041 67.4598 84.9211 67.453 84.9382C72.4113 89.0517 81.055 89.1097 85.8358 84.7949C85.829 84.7779 85.8222 84.7574 85.8119 84.7403C85.1943 83.2771 85.3922 81.6296 86.3409 80.3335C87.0609 79.3511 88.1972 78.7508 89.453 78.686C90.7361 78.6178 91.9543 79.1055 92.7972 80.0265C93.0736 80.33 92.9747 80.7189 92.7426 80.9304C92.5311 81.1282 92.1762 81.1794 91.9202 80.8997C91.3333 80.2584 90.4904 79.8935 89.6134 79.9105C88.7603 79.9241 87.9959 80.2789 87.4533 80.9133C86.747 81.7387 86.5115 82.8643 86.822 83.9217C86.9483 84.3617 87.1667 84.7574 87.4567 85.1053C87.6615 85.3475 87.9004 85.5555 88.1699 85.7261C88.3645 85.8489 88.4702 86.0501 88.46 86.2752C88.4498 86.5106 88.3133 86.7323 88.1154 86.8346C88.0403 86.8721 87.9618 86.896 87.8799 86.896C87.7673 86.896 87.6547 86.8653 87.5489 86.7971C87.1769 86.5583 86.8459 86.2718 86.5593 85.9444C85.0066 87.2917 83.1161 88.2331 81.0857 88.7823C81.2222 89.154 81.2939 89.5463 81.2836 89.942C81.2836 90.0579 81.2563 90.3751 81.0925 90.7231C81.386 90.9004 81.6112 91.1017 81.775 91.2722C81.9456 91.4496 81.9388 91.7293 81.7614 91.8998C81.5839 92.0669 81.3041 92.0601 81.1335 91.8862C80.9902 91.7361 80.7854 91.5587 80.5124 91.4121C80.3623 91.3336 80.1916 91.2654 80.0005 91.2142C79.2362 91.0232 78.6219 91.2858 78.3592 91.3984C78.2807 91.4325 78.2056 91.47 78.1339 91.5076C77.878 91.644 77.6664 91.8111 77.4924 91.9783C77.2296 92.2307 77.059 92.4865 76.9566 92.6639C76.9464 92.6809 76.9362 92.6945 76.9259 92.7116C76.9191 92.7014 76.9123 92.6946 76.9055 92.6843C76.7929 92.507 76.6052 92.2511 76.3288 92.0021C76.1581 91.8521 75.9534 91.7088 75.7145 91.586C75.6326 91.5417 75.5473 91.5041 75.4586 91.47C75.1924 91.3677 74.5679 91.1255 73.8138 91.3438C73.6534 91.3882 73.5101 91.4496 73.3838 91.5178C73.0767 91.6815 72.8549 91.8862 72.7047 92.0533C72.5409 92.2375 72.2611 92.2545 72.0769 92.0908C71.896 91.9271 71.8789 91.6474 72.0393 91.4666C72.2099 91.2722 72.4556 91.0403 72.7866 90.839C72.6228 90.5116 72.5921 90.2114 72.5853 90.0989C72.5614 89.6964 72.6228 89.2871 72.7525 88.905C70.5686 88.4002 68.5143 87.4656 66.8149 86.1183C66.4838 86.5618 66.0812 86.9404 65.6239 87.2439C65.5215 87.3122 65.4123 87.3463 65.2997 87.3497C65.2144 87.3497 65.1291 87.3326 65.0472 87.2917C64.8459 87.1928 64.7026 86.9745 64.6889 86.7391C64.6753 86.5174 64.7742 86.3196 64.9653 86.1934C65.3168 85.9614 65.6205 85.6681 65.8696 85.327C66.1392 84.9586 66.3269 84.5493 66.4361 84.1127C66.6579 83.1918 66.4804 82.264 65.9345 81.5034C65.4738 80.8587 64.7674 80.4767 63.9484 80.429C63.8733 80.4256 63.7983 80.4221 63.7232 80.4255C62.8394 80.4426 61.9487 80.8417 61.3549 81.4966C61.0956 81.7831 60.7339 81.7319 60.5121 81.5307C60.2834 81.3226 60.1845 80.944 60.4575 80.6438C61.3072 79.7093 62.5732 79.1669 63.846 79.1942H63.8358ZM80.2155 90.3513C80.236 90.3547 80.2599 90.3615 80.2804 90.3683C80.393 90.1568 80.3998 89.9522 80.3998 89.9215C80.4066 89.6043 80.3418 89.2836 80.2155 88.9903C79.3727 89.1677 78.5093 89.2768 77.6426 89.3246C77.6426 89.4849 77.6596 89.6623 77.7279 89.8533C77.762 89.9488 77.8882 90.2592 78.1885 90.5048C78.5844 90.3478 79.3215 90.1227 80.2155 90.3479V90.3513ZM77.3627 90.9379C77.1409 90.6889 77.0078 90.4365 76.9362 90.266C76.8645 90.4536 76.728 90.7333 76.4857 91.0096C76.6359 91.1085 76.7724 91.2142 76.8952 91.32C77.0317 91.1869 77.1887 91.0573 77.3661 90.9345L77.3627 90.9379ZM73.4657 90.0477C73.4657 90.075 73.4828 90.2762 73.5988 90.4809C74.5065 90.2285 75.2641 90.4536 75.6463 90.5934C75.9739 90.3274 76.1001 89.9863 76.1343 89.884C76.1991 89.6861 76.2093 89.5054 76.1991 89.345C75.3357 89.3212 74.4724 89.2325 73.6261 89.0824C73.5067 89.3894 73.4487 89.7202 73.4657 90.0477Z" fill="#383838"/>
</svg>
