<svg width="169" height="197" viewBox="0 0 169 197" fill="none" xmlns="http://www.w3.org/2000/svg">
<path d="M76.1407 111.064C76.1196 111.106 76.095 111.149 76.0739 111.187C76.0423 111.247 76.0106 111.303 75.9825 111.363C75.9368 111.448 75.8912 111.532 75.849 111.617C75.7506 111.799 75.6557 111.979 75.5573 112.162C60.7281 139.954 52.8005 155.796 50.6113 162.027L50.5621 162.164C50.2388 163.223 49.9155 164.285 49.5922 165.344C49.4165 165.784 48.9386 166.889 48.0285 167.863C47.3221 168.623 46.5491 169.098 46.4542 169.158C46.3663 169.21 46.2925 169.253 46.2433 169.281C46.2433 169.281 45.7619 169.548 45.2383 169.749C44.901 169.875 33.3258 172.218 20.8615 162.15C18.4755 160.222 6.86166 150.836 8.97359 141.928C9.17038 141.098 9.44798 140.44 9.65882 139.997C10.5549 138.15 11.8902 136.95 12.8917 136.229C13.1026 136.113 13.3099 135.997 13.5207 135.881C13.9705 135.694 14.6487 135.434 15.4956 135.187C16.8415 134.797 21.0759 133.365 25.7601 135.005C27.1727 135.501 29.369 136.447 31.8077 138.15C34.1902 139.814 36.5481 142.227 38.1154 144.602L38.7866 145.618L39.3734 144.549C45.8849 132.658 52.3964 120.767 58.9079 108.876L59.0555 108.609L59.5826 107.648L60.3205 106.297C60.2467 106.058 60.0991 105.836 59.825 105.706C59.818 105.706 59.8145 105.699 59.8075 105.699C59.6775 105.639 59.5474 105.611 59.4244 105.611C59.2663 105.611 59.1082 105.653 58.9571 105.727C58.4651 105.963 58.0294 106.508 57.6991 106.92C57.678 106.948 57.6569 106.973 57.6428 106.99C56.3145 108.612 52.3402 108.837 49.9928 108.595C44.6515 108.039 41.3624 104.186 40.1254 102.733L40.1149 102.723C39.145 101.59 36.8785 98.934 36.4146 94.9938C36.3268 94.2409 36.2881 93.5549 36.2951 92.9393C37.7148 93.5268 38.8287 93.5514 39.6264 93.0131C40.2098 92.6156 40.6385 91.8698 40.7685 91.0149C40.895 90.1952 40.7263 89.4212 40.3081 88.8935C39.4753 87.8451 37.7499 87.7818 36.6571 88.3799C35.9121 88.788 35.385 89.5162 35.0793 90.554C33.3715 89.4564 31.5196 87.8346 30.1069 86.1952C29.5482 85.5443 28.3815 84.1899 27.3625 82.262C26.1712 80.0104 25.5176 77.6182 25.4157 75.145C25.3349 73.1819 25.5528 69.3261 27.9247 65.5689C28.241 65.0693 30.4127 61.7377 33.1993 60.1792C33.4945 61.1115 33.9794 61.984 34.7454 62.6735C35.9472 63.7535 37.2369 64.1546 38.386 63.8063C39.8232 63.3736 40.888 61.8362 40.6595 60.5205C40.2906 58.3745 36.9909 57.9312 36.6184 57.8854C35.8734 57.7975 35.1144 57.8538 34.3519 58.0543C34.2324 56.4642 34.51 54.8599 34.6576 54.0191C35.4834 49.2381 38.1892 45.7974 39.7283 44.1721C42.269 41.4878 45.5651 39.4579 49.2619 38.3005C52.674 37.231 56.2513 36.9355 59.6107 37.4386C61.1393 37.6672 62.7663 38.0824 64.1754 38.5854C63.5042 40.2495 62.9631 42.8951 64.4811 44.2988C65.3913 45.1396 66.8707 45.3647 67.9951 44.8335C69.2953 44.2178 69.9771 42.6488 69.8857 41.4914C69.7768 40.1123 68.575 38.8739 66.3119 37.8115C67.1483 36.5802 68.3501 35.676 70.0965 34.9372C72.7848 33.8044 75.6487 33.1008 78.611 32.8545C80.9865 32.654 83.4358 32.7455 85.8815 33.1219C90.0667 33.7657 92.8358 35.0393 92.8639 35.0533C95.3729 36.2284 97.9557 37.8959 99.776 39.5142C100.345 40.0208 100.83 40.5133 101.227 40.9848C99.8779 41.1853 98.5847 41.6778 97.8819 42.8634C97.158 44.0806 97.1159 46.0015 98.2087 46.9162C99.4562 47.961 101.301 47.1202 101.659 46.9373C103.012 46.2548 103.761 44.9109 103.937 44.1756C104.074 43.5987 104.021 42.9971 103.821 42.3849C103.901 42.3849 103.982 42.3849 104.06 42.3849C105.655 42.4025 109.39 42.4377 113.14 45.0059L113.178 45.034C113.786 45.4492 115.21 46.4237 116.587 47.9786C118.284 49.8995 119.289 52.0068 119.567 54.2337C119.774 55.8907 119.599 57.8256 119.096 59.4263C118.327 58.9444 117.216 58.4167 116.165 58.7825C115.048 59.173 114.064 60.619 114.468 61.9031C114.858 63.1414 116.436 63.8098 117.585 63.5776C118.495 63.3947 119.261 62.6489 119.848 61.5864C121.563 62.4343 123.706 63.8732 125.464 66.2408C125.759 66.6383 126.788 68.1124 127.575 70.3253C128.626 73.2804 128.798 76.2391 128.088 79.1239C126.96 83.7044 123.981 86.3113 122.199 87.8698L122.087 87.9683C121.331 88.6332 120.098 89.7097 118.752 90.5364C118.446 89.4318 117.764 87.3245 115.944 86.853C114.981 86.6033 113.8 86.8636 112.859 87.5285C112.072 88.0844 111.583 88.8513 111.513 89.6323C111.39 91.0571 112.648 92.3869 113.895 92.9146C114.96 93.3649 116.204 93.3298 117.606 92.8126C117.729 94.5435 117.402 96.4714 116.643 98.3958C115.631 100.964 113.916 103.363 111.819 105.15C111.021 105.829 109.362 107.11 107.194 108.07C104.306 109.351 101.607 109.587 99.1751 108.763C97.78 108.292 96.0265 107.55 95.1691 106.976C95.1304 106.92 95.0848 106.867 95.0321 106.818C94.9899 106.779 94.9442 106.741 94.8915 106.705C94.4136 106.389 93.9603 106.551 93.7424 106.839C93.6897 106.909 93.6475 106.99 93.6229 107.078C96.3041 112.887 98.9853 117.801 101.484 121.474C103.128 123.891 104.657 125.71 106.027 126.881C107.588 128.211 108.99 128.725 110.188 128.405C112.746 127.722 116.457 122.424 120.038 117.062L120.066 117.024C120.098 116.978 120.136 116.918 120.192 116.834C120.892 115.8 122.375 113.696 124.48 111.247C124.511 111.212 124.782 110.902 125.007 110.656C126.5 109.017 130.464 104.665 133.96 104.31C136.533 104.049 138.775 106.009 141.034 108.215C153.709 120.595 160.688 127.416 159.149 131.184C158.717 132.243 157.849 133.179 156.577 133.963C155.389 134.695 153.839 135.279 152.1 135.659C148.751 136.387 144.956 136.32 142.197 135.479C140.272 134.892 138.764 134.129 137.587 133.333C136.413 132.542 135.573 131.722 134.994 131.029C134.625 130.586 134.284 130.111 133.89 129.555C133.272 128.686 132.745 127.937 132.312 127.226C132.541 126.871 132.773 126.508 133.005 126.139C133.381 125.541 134.263 124.144 133.728 122.762C133.405 121.924 132.604 121.158 131.736 120.844C131.174 120.644 130.636 120.661 130.218 120.897C129.153 121.499 129.455 123.216 129.638 124.239V124.264C129.831 125.33 130.193 126.269 130.668 127.173C126.634 133.372 123.257 137.538 121.064 140.007C118.601 142.779 117.086 144.039 116.924 144.169C115.002 145.509 111.956 147.057 108.319 146.857C108.29 146.857 105.405 146.681 102.404 144.968C99.8428 143.504 95.8368 139.3 91.1315 133.133C86.4508 126.997 81.4855 119.437 77.107 111.782" fill="white"/>
<path d="M13.5662 141.886C13.4045 142.224 13.278 142.576 13.1937 142.931C12.266 146.839 16.149 152.76 23.5846 158.769C27.9666 162.308 32.6789 164.532 37.5916 165.376C40.8842 165.942 43.2351 165.686 43.9519 165.577C44.0257 165.541 44.0925 165.506 44.1311 165.485L44.1171 165.492C44.1171 165.492 44.1206 165.492 44.1241 165.489H44.1311V165.485C44.1522 165.475 44.1733 165.46 44.1979 165.446C44.2998 165.383 44.6055 165.168 44.848 164.908C45.0905 164.648 45.3224 164.278 45.4981 163.877C45.8003 162.885 46.1025 161.893 46.4047 160.898L46.4293 160.813L46.5101 160.584C48.8048 154.055 56.5778 138.488 71.7198 110.115C71.8146 109.935 71.913 109.752 72.0114 109.569C72.0536 109.488 72.0993 109.404 72.1414 109.323C72.1625 109.284 72.1801 109.249 72.2012 109.21L72.2504 109.115C72.2644 109.087 72.2785 109.063 72.2961 109.035L77.2825 111.677L80.8703 109.619C85.1539 117.105 90.0208 124.517 94.5785 130.491C99.5649 137.028 103.002 140.303 104.555 141.189C106.488 142.294 108.403 142.498 108.596 142.519C110.898 142.632 112.939 141.619 114.292 140.704C114.668 140.38 115.912 139.265 117.82 137.116C119.633 135.072 122.417 131.673 125.776 126.688C125.607 126.143 125.47 125.594 125.372 125.038L125.365 124.992C125.245 124.32 125.066 123.3 125.126 122.167C125.245 119.948 126.324 118.104 128.081 117.112C129.585 116.261 131.448 116.127 133.191 116.75C135.239 117.481 136.993 119.181 137.769 121.186C138.367 122.727 138.384 124.437 137.819 126.122C137.706 126.459 137.576 126.776 137.443 127.061C137.773 127.525 138.058 127.926 138.314 128.229C138.764 128.764 139.337 129.27 140.011 129.724C140.981 130.379 142.141 130.913 143.455 131.314C145.514 131.941 148.543 131.976 151.172 131.406C152.423 131.135 153.533 130.723 154.303 130.252C154.587 130.076 154.784 129.921 154.914 129.795C154.802 129.517 154.577 129.056 154.124 128.37C153.4 127.269 152.324 125.925 150.838 124.271C147.809 120.897 143.48 116.669 137.998 111.314C137.084 110.421 136.125 109.524 135.299 109.003C134.818 108.7 134.508 108.605 134.389 108.619C134.294 108.63 133.391 108.76 131.49 110.336C130.109 111.48 128.918 112.788 128.204 113.569C128.025 113.766 127.804 114.016 127.754 114.072C125.797 116.352 124.423 118.294 123.78 119.251V119.258C123.731 119.325 123.699 119.374 123.675 119.413L123.639 119.462C121.826 122.178 119.901 124.996 118.084 127.226C115.522 130.368 113.431 132.025 111.302 132.591C109.474 133.08 106.589 133.059 103.212 130.182C101.522 128.743 99.7828 126.692 97.8922 123.912C95.2532 120.028 92.4912 114.977 89.6799 108.894L88.9912 107.402L89.4621 105.83C89.6413 105.232 89.9224 104.679 90.3019 104.187C91.0715 103.181 92.1819 102.502 93.4259 102.269C94.7542 102.023 96.1247 102.312 97.2843 103.082H97.2913C97.4916 103.219 97.6849 103.37 97.8676 103.529C98.4193 103.817 99.4806 104.282 100.559 104.644C101.951 105.115 103.546 104.936 105.437 104.095C107.166 103.328 108.508 102.259 109.007 101.837C110.508 100.56 111.745 98.8603 112.511 97.031C112.402 96.9923 112.3 96.95 112.201 96.9078C109.562 95.7926 106.867 92.9184 107.187 89.2491C107.366 87.1945 108.519 85.2737 110.349 83.9755C112.331 82.5718 114.826 82.0722 117.023 82.6422C117.841 82.8532 118.874 83.2789 119.872 84.1233C121.366 82.7899 123.155 80.9746 123.868 78.0793C124.37 76.0353 124.24 73.9174 123.481 71.7749C122.87 70.0546 122.065 68.9464 121.977 68.8268C121.51 68.1971 120.979 67.6236 120.385 67.1065C119.683 67.497 119.008 67.7116 118.428 67.8277C116.903 68.1337 115.262 67.898 113.797 67.1698C112.092 66.3184 110.859 64.9077 110.321 63.1979C109.77 61.4389 110.016 59.4723 111 57.7977C111.857 56.3412 113.217 55.2014 114.731 54.6737C114.886 54.6209 115.048 54.5717 115.22 54.5259C115.009 53.263 114.373 52.0281 113.329 50.8496C112.307 49.6921 111.238 48.9639 110.725 48.6121L110.68 48.5804C109.555 47.81 108.42 47.3632 107.391 47.0993C106.642 48.4714 105.402 49.9032 103.603 50.8074C101.343 51.9472 98.0047 52.3975 95.4219 50.2374C93.9741 49.0237 93.1237 47.2365 93.0253 45.1996C92.948 43.6235 93.3345 42.0228 94.1146 40.6859C93.1307 40.0562 92.073 39.4687 91.0469 38.9867C90.8571 38.9023 88.5765 37.9172 85.2136 37.4001C83.1017 37.0764 81.0003 36.999 78.9622 37.1679C77.033 37.3297 75.153 37.7167 73.3573 38.3253C73.8352 39.2084 74.1198 40.1582 74.1971 41.1363C74.3096 42.54 73.9863 44.0457 73.2905 45.372C72.4964 46.8847 71.3016 48.0527 69.8362 48.7493C68.5009 49.3826 67.0004 49.5936 65.4929 49.365C63.9854 49.1363 62.6114 48.4855 61.5256 47.4828C59.9724 46.0474 59.1677 44.0457 59.1501 41.7554C59.0833 41.7449 59.0166 41.7343 58.9533 41.7238C56.2405 41.3157 53.3309 41.5619 50.5442 42.4344C47.5538 43.3702 44.8972 45.0026 42.8661 47.1486C41.7522 48.3271 39.8546 50.7124 39.0815 53.9701C39.468 54.0827 39.8862 54.2234 40.3079 54.4028C43.7692 55.8558 44.6864 58.3923 44.9253 59.7749C45.231 61.5409 44.7953 63.3844 43.706 64.9605C42.708 66.4029 41.2602 67.4653 39.6297 67.9578C37.2858 68.665 34.7592 68.1337 32.577 66.5014C32.1729 67.0044 31.825 67.4899 31.5826 67.8804C29.8396 70.6421 29.6815 73.4988 29.7412 74.9587C29.815 76.7811 30.3035 78.5507 31.189 80.2253C31.9797 81.7169 32.8933 82.7829 33.3853 83.3563C33.7367 83.7644 34.1302 84.1795 34.5449 84.5806C34.5519 84.5771 34.5589 84.5736 34.5695 84.5665C35.8978 83.8383 37.4861 83.5287 39.0393 83.6976C40.9334 83.9016 42.5885 84.7882 43.6989 86.1919C44.8656 87.6624 45.3575 89.6571 45.0483 91.6695C44.732 93.7275 43.6392 95.5288 42.0508 96.6053C41.8611 96.7319 41.6573 96.8586 41.4324 96.9747C42.0438 98.2975 42.8766 99.2825 43.3791 99.87L43.4143 99.9122C44.4334 101.105 46.8194 103.898 50.4353 104.275C52.115 104.451 53.8439 104.225 54.4975 103.972C55.0281 103.321 55.8469 102.407 57.0663 101.816C57.8183 101.45 58.6124 101.267 59.4242 101.267C60.1621 101.267 60.8755 101.418 61.5537 101.721C61.5783 101.731 61.5994 101.742 61.624 101.752L61.7118 101.794C63.0401 102.435 64.017 103.575 64.4633 104.999L65.015 106.765L62.7133 110.966C56.2018 122.853 49.6903 134.744 43.1788 146.635L39.1377 154.02L34.4992 146.991C33.2377 145.08 31.2558 143.054 29.3301 141.707C27.299 140.289 25.4892 139.504 24.3331 139.1C21.2197 138.009 18.2433 138.896 16.9748 139.276C16.8799 139.304 16.792 139.328 16.7147 139.353C16.2684 139.483 15.8292 139.634 15.4005 139.803C15.3513 139.832 15.3021 139.86 15.2529 139.884C14.5009 140.461 13.9386 141.133 13.5732 141.883L13.5662 141.886Z" fill="white"/>
<path d="M134.464 131.473C137.146 134.667 141.071 135.863 142.002 136.145C147.674 137.872 157.741 136.504 159.811 131.441C161.529 127.233 154.863 120.722 141.535 107.701C139.447 105.661 136.914 103.293 133.899 103.599C130.132 103.979 126.024 108.493 124.495 110.171C124.267 110.421 123.989 110.737 123.954 110.776C121.702 113.401 120.187 115.585 119.618 116.43C119.54 116.542 119.495 116.612 119.463 116.662C116.866 120.553 112.533 127.043 110.017 127.715C106.078 128.767 98.7936 117.654 91.9799 101.587C86.4137 105.232 84.0593 106.09 76.1914 111.564C85.5001 127.955 96.6465 142.474 102.072 145.573C105.252 147.388 108.299 147.557 108.299 147.557C112.463 147.782 115.749 145.858 117.365 144.729C117.365 144.729 123.546 139.825 132.426 125.756C132.771 125.211 133.495 124.06 133.087 123.012C132.676 121.953 131.288 121.109 130.578 121.51C129.938 121.872 130.205 123.332 130.35 124.141C130.729 126.277 131.822 127.842 133.329 129.96C133.734 130.526 134.081 131.012 134.468 131.476L134.464 131.473Z" fill="white"/>
<path d="M156.857 122.427C153.716 118.617 148.814 113.829 142.025 107.198C140.925 106.125 139.744 105.006 138.44 104.176C136.849 103.163 135.341 102.744 133.826 102.899C129.792 103.307 125.565 107.947 123.973 109.696C123.738 109.956 123.46 110.273 123.421 110.315C121.267 112.82 119.749 114.973 119.036 116.035C118.976 116.12 118.934 116.183 118.902 116.229L118.878 116.271C117.606 118.174 115.863 120.788 114.155 122.959C111.755 126.012 110.483 126.86 109.833 127.036C109.109 127.229 106.955 126.997 102.657 120.675C100.605 117.657 98.4227 113.776 96.2194 109.235C96.1034 109.185 95.9874 109.133 95.875 109.08C95.5095 108.911 95.1581 108.735 94.8419 108.556C94.7083 108.802 94.5607 109.062 94.4026 109.333C94.2867 109.024 94.1707 108.711 94.0582 108.394C93.9071 107.989 93.7595 107.578 93.6084 107.166C93.633 107.039 93.6822 106.927 93.756 106.832C93.9739 106.543 94.4237 106.382 94.9016 106.698C94.9543 106.733 95 106.769 95.0422 106.811C95.0562 106.825 95.0738 106.839 95.0878 106.856C94.2656 105.09 93.4433 103.24 92.6245 101.312L92.2977 100.538L91.5914 100.999C89.4022 102.434 87.74 103.416 85.9795 104.461C83.3159 106.037 80.5644 107.666 75.7888 110.987L75.2617 111.353L75.578 111.912C75.592 111.933 75.6026 111.958 75.6166 111.979C75.708 111.806 75.8029 111.634 75.8942 111.462C76.0875 111.103 76.5338 110.969 76.8887 111.163C77.2471 111.353 77.3807 111.799 77.1909 112.158C76.952 112.601 76.7165 113.045 76.4811 113.481C85.5613 129.168 96.265 143.068 101.719 146.185C105.008 148.063 108.125 148.253 108.255 148.26C108.49 148.274 108.726 148.278 108.961 148.278C111.941 148.278 114.967 147.258 117.764 145.305L117.795 145.281C117.862 145.228 119.419 143.982 122.086 140.985C124.251 138.554 127.543 134.501 131.476 128.521C131.869 129.126 132.305 129.731 132.755 130.368C133.166 130.945 133.521 131.441 133.928 131.926C135.211 133.456 137.618 135.546 141.796 136.82C144.773 137.724 148.838 137.805 152.409 137.027C156.573 136.12 159.43 134.23 160.463 131.708C161.401 129.407 160.326 126.631 156.857 122.427ZM131.827 125.379C131.739 125.513 131.655 125.646 131.57 125.78C131.328 125.214 131.152 124.64 131.04 124.014V123.989C130.977 123.652 130.896 123.194 130.875 122.786C130.857 122.343 130.917 122.167 130.941 122.114C130.987 122.104 131.096 122.104 131.279 122.167C131.757 122.343 132.252 122.814 132.428 123.265C132.705 123.982 132.112 124.925 131.827 125.379Z" fill="#383838" stroke="#383838" stroke-width="0.703609" stroke-miterlimit="10"/>
<path d="M76.1407 111.064C76.1196 111.106 76.095 111.149 76.0739 111.187C76.0423 111.247 76.0106 111.303 75.9825 111.363C75.9368 111.448 75.8912 111.532 75.849 111.617C75.7506 111.799 75.6557 111.979 75.5573 112.162C60.7281 139.954 52.8005 155.796 50.6113 162.027L50.5621 162.164C50.2388 163.223 49.9155 164.285 49.5922 165.344C49.4165 165.784 48.9386 166.889 48.0285 167.863C47.3221 168.623 46.5491 169.098 46.4542 169.158C46.3663 169.21 46.2925 169.253 46.2433 169.281C46.2433 169.281 45.7619 169.548 45.2383 169.749C44.901 169.875 33.3258 172.218 20.8615 162.15C18.4755 160.222 6.86166 150.836 8.97359 141.928C9.17038 141.098 9.44798 140.44 9.65882 139.997C10.5549 138.15 11.8902 136.95 12.8917 136.229C13.1026 136.113 13.3099 135.997 13.5207 135.881C13.9705 135.694 14.6487 135.434 15.4956 135.187C16.8415 134.797 21.0759 133.365 25.7601 135.005C27.1727 135.501 29.369 136.447 31.8077 138.15C34.1902 139.814 36.5481 142.227 38.1154 144.602L38.7866 145.618L39.3734 144.549C45.8849 132.658 52.3964 120.767 58.9079 108.876L59.0555 108.609L59.5826 107.648L60.3205 106.297C60.2467 106.058 60.0991 105.836 59.825 105.706C59.818 105.706 59.8145 105.699 59.8075 105.699C59.6775 105.639 59.5474 105.611 59.4244 105.611C59.2663 105.611 59.1082 105.653 58.9571 105.727C58.4651 105.963 58.0294 106.508 57.6991 106.92C57.678 106.948 57.6569 106.973 57.6428 106.99C56.3145 108.612 52.3402 108.837 49.9928 108.595C44.6515 108.039 41.3624 104.186 40.1254 102.733L40.1149 102.723C39.145 101.59 36.8785 98.934 36.4146 94.9938C36.3268 94.2409 36.2881 93.5549 36.2951 92.9393C37.7148 93.5268 38.8287 93.5514 39.6264 93.0131C40.2098 92.6156 40.6385 91.8698 40.7685 91.0149C40.895 90.1952 40.7263 89.4212 40.3081 88.8935C39.4753 87.8451 37.7499 87.7818 36.6571 88.3799C35.9121 88.788 35.385 89.5162 35.0793 90.554C33.3715 89.4564 31.5196 87.8346 30.1069 86.1952C29.5482 85.5443 28.3815 84.1899 27.3625 82.262C26.1712 80.0104 25.5176 77.6182 25.4157 75.145C25.3349 73.1819 25.5528 69.3261 27.9247 65.5689C28.241 65.0693 30.4127 61.7377 33.1993 60.1792C33.4945 61.1115 33.9794 61.984 34.7454 62.6735C35.9472 63.7535 37.2369 64.1546 38.386 63.8063C39.8232 63.3736 40.888 61.8362 40.6595 60.5205C40.2906 58.3745 36.9909 57.9312 36.6184 57.8854C35.8734 57.7975 35.1144 57.8538 34.3519 58.0543C34.2324 56.4642 34.51 54.8599 34.6576 54.0191C35.4834 49.2381 38.1892 45.7974 39.7283 44.1721C42.269 41.4878 45.5651 39.4579 49.2619 38.3005C52.674 37.231 56.2513 36.9355 59.6107 37.4386C61.1393 37.6672 62.7663 38.0824 64.1754 38.5854C63.5042 40.2495 62.9631 42.8951 64.4811 44.2988C65.3913 45.1396 66.8707 45.3647 67.9951 44.8335C69.2953 44.2178 69.9771 42.6488 69.8857 41.4914C69.7768 40.1123 68.575 38.8739 66.3119 37.8115C67.1483 36.5802 68.3501 35.676 70.0965 34.9372C72.7848 33.8044 75.6487 33.1008 78.611 32.8545C80.9865 32.654 83.4358 32.7455 85.8815 33.1219C90.0667 33.7657 92.8358 35.0393 92.8639 35.0533C95.3729 36.2284 97.9557 37.8959 99.776 39.5142C100.345 40.0208 100.83 40.5133 101.227 40.9848C99.8779 41.1853 98.5847 41.6778 97.8819 42.8634C97.158 44.0806 97.1159 46.0015 98.2087 46.9162C99.4562 47.961 101.301 47.1202 101.659 46.9373C103.012 46.2548 103.761 44.9109 103.937 44.1756C104.074 43.5987 104.021 42.9971 103.821 42.3849C103.901 42.3849 103.982 42.3849 104.06 42.3849C105.655 42.4025 109.39 42.4377 113.14 45.0059L113.178 45.034C113.786 45.4492 115.21 46.4237 116.587 47.9786C118.284 49.8995 119.289 52.0068 119.567 54.2337C119.774 55.8907 119.599 57.8256 119.096 59.4263C118.327 58.9444 117.216 58.4167 116.165 58.7825C115.048 59.173 114.064 60.619 114.468 61.9031C114.858 63.1414 116.436 63.8098 117.585 63.5776C118.495 63.3947 119.261 62.6489 119.848 61.5864C121.563 62.4343 123.706 63.8732 125.464 66.2408C125.759 66.6383 126.788 68.1124 127.575 70.3253C128.626 73.2804 128.798 76.2391 128.088 79.1239C126.96 83.7044 123.981 86.3113 122.199 87.8698L122.087 87.9683C121.331 88.6332 120.098 89.7097 118.752 90.5364C118.446 89.4318 117.764 87.3245 115.944 86.853C114.981 86.6033 113.8 86.8636 112.859 87.5285C112.072 88.0844 111.583 88.8513 111.513 89.6323C111.39 91.0571 112.648 92.3869 113.895 92.9146C114.96 93.3649 116.204 93.3298 117.606 92.8126C117.729 94.5435 117.402 96.4714 116.643 98.3958C115.631 100.964 113.916 103.363 111.819 105.15C111.021 105.829 109.362 107.11 107.194 108.07C104.306 109.351 101.607 109.587 99.1751 108.763C97.78 108.292 96.0265 107.55 95.1691 106.976C95.1304 106.92 95.0848 106.867 95.0321 106.818C94.9899 106.779 94.9442 106.741 94.8915 106.705C94.4136 106.389 93.9603 106.551 93.7424 106.839C93.6897 106.909 93.6475 106.99 93.6229 107.078C96.3041 112.887 98.9853 117.801 101.484 121.474C103.128 123.891 104.657 125.71 106.027 126.881C107.588 128.211 108.99 128.725 110.188 128.405C112.746 127.722 116.457 122.424 120.038 117.062L120.066 117.024C120.098 116.978 120.136 116.918 120.192 116.834C120.892 115.8 122.375 113.696 124.48 111.247C124.511 111.212 124.782 110.902 125.007 110.656C126.5 109.017 130.464 104.665 133.96 104.31C136.533 104.049 138.775 106.009 141.034 108.215C153.709 120.595 160.688 127.416 159.149 131.184C158.717 132.243 157.849 133.179 156.577 133.963C155.389 134.695 153.839 135.279 152.1 135.659C148.751 136.387 144.956 136.32 142.197 135.479C140.272 134.892 138.764 134.129 137.587 133.333C136.413 132.542 135.573 131.722 134.994 131.029C134.625 130.586 134.284 130.111 133.89 129.555C133.272 128.686 132.745 127.937 132.312 127.226C132.541 126.871 132.773 126.508 133.005 126.139C133.381 125.541 134.263 124.144 133.728 122.762C133.405 121.924 132.604 121.158 131.736 120.844C131.174 120.644 130.636 120.661 130.218 120.897C129.153 121.499 129.455 123.216 129.638 124.239V124.264C129.831 125.33 130.193 126.269 130.668 127.173C126.634 133.372 123.257 137.538 121.064 140.007C118.601 142.779 117.086 144.039 116.924 144.169C115.002 145.509 111.956 147.057 108.319 146.857C108.29 146.857 105.405 146.681 102.404 144.968C99.8428 143.504 95.8368 139.3 91.1315 133.133C86.4508 126.997 81.4855 119.437 77.107 111.782" fill="white"/>
<path d="M76.1407 111.064C76.1196 111.106 76.095 111.149 76.0739 111.187C76.0423 111.247 76.0106 111.303 75.9825 111.363C75.9368 111.448 75.8912 111.532 75.849 111.617C75.7506 111.799 75.6557 111.979 75.5573 112.162C60.7281 139.954 52.8005 155.796 50.6113 162.027L50.5621 162.164C50.2388 163.223 49.9155 164.285 49.5922 165.344C49.4165 165.784 48.9386 166.889 48.0285 167.863C47.3221 168.623 46.5491 169.098 46.4542 169.158C46.3663 169.21 46.2925 169.253 46.2433 169.281C46.2433 169.281 45.7619 169.548 45.2383 169.749C44.901 169.875 33.3258 172.218 20.8615 162.15C18.4755 160.222 6.86166 150.836 8.97359 141.928C9.17038 141.098 9.44798 140.44 9.65882 139.997C10.5549 138.15 11.8902 136.95 12.8917 136.229C13.1026 136.113 13.3099 135.997 13.5207 135.881C13.9705 135.694 14.6487 135.434 15.4956 135.187C16.8415 134.797 21.0759 133.365 25.7601 135.005C27.1727 135.501 29.369 136.447 31.8077 138.15C34.1902 139.814 36.5481 142.227 38.1154 144.602L38.7866 145.618L39.3734 144.549C45.8849 132.658 52.3964 120.767 58.9079 108.876L59.0555 108.609L59.5826 107.648L60.3205 106.297C60.2467 106.058 60.0991 105.836 59.825 105.706C59.818 105.706 59.8145 105.699 59.8075 105.699C59.6775 105.639 59.5474 105.611 59.4244 105.611C59.2663 105.611 59.1082 105.653 58.9571 105.727C58.4651 105.963 58.0294 106.508 57.6991 106.92C57.678 106.948 57.6569 106.973 57.6428 106.99C56.3145 108.612 52.3402 108.837 49.9928 108.595C44.6515 108.039 41.3624 104.186 40.1254 102.733L40.1149 102.723C39.145 101.59 36.8785 98.934 36.4146 94.9938C36.3268 94.2409 36.2881 93.5549 36.2951 92.9393C37.7148 93.5268 38.8287 93.5514 39.6264 93.0131C40.2098 92.6156 40.6385 91.8698 40.7685 91.0149C40.895 90.1952 40.7263 89.4212 40.3081 88.8935C39.4753 87.8451 37.7499 87.7818 36.6571 88.3799C35.9121 88.788 35.385 89.5162 35.0793 90.554C33.3715 89.4564 31.5196 87.8346 30.1069 86.1952C29.5482 85.5443 28.3815 84.1899 27.3625 82.262C26.1712 80.0104 25.5176 77.6182 25.4157 75.145C25.3349 73.1819 25.5528 69.3261 27.9247 65.5689C28.241 65.0693 30.4127 61.7377 33.1993 60.1792C33.4945 61.1115 33.9794 61.984 34.7454 62.6735C35.9472 63.7535 37.2369 64.1546 38.386 63.8063C39.8232 63.3736 40.888 61.8362 40.6595 60.5205C40.2906 58.3745 36.9909 57.9312 36.6184 57.8854C35.8734 57.7975 35.1144 57.8538 34.3519 58.0543C34.2324 56.4642 34.51 54.8599 34.6576 54.0191C35.4834 49.2381 38.1892 45.7974 39.7283 44.1721C42.269 41.4878 45.5651 39.4579 49.2619 38.3005C52.674 37.231 56.2513 36.9355 59.6107 37.4386C61.1393 37.6672 62.7663 38.0824 64.1754 38.5854C63.5042 40.2495 62.9631 42.8951 64.4811 44.2988C65.3913 45.1396 66.8707 45.3647 67.9951 44.8335C69.2953 44.2178 69.9771 42.6488 69.8857 41.4914C69.7768 40.1123 68.575 38.8739 66.3119 37.8115C67.1483 36.5802 68.3501 35.676 70.0965 34.9372C72.7848 33.8044 75.6487 33.1008 78.611 32.8545C80.9865 32.654 83.4358 32.7455 85.8815 33.1219C90.0667 33.7657 92.8358 35.0393 92.8639 35.0533C95.3729 36.2284 97.9557 37.8959 99.776 39.5142C100.345 40.0208 100.83 40.5133 101.227 40.9848C99.8779 41.1853 98.5847 41.6778 97.8819 42.8634C97.158 44.0806 97.1159 46.0015 98.2087 46.9162C99.4562 47.961 101.301 47.1202 101.659 46.9373C103.012 46.2548 103.761 44.9109 103.937 44.1756C104.074 43.5987 104.021 42.9971 103.821 42.3849C103.901 42.3849 103.982 42.3849 104.06 42.3849C105.655 42.4025 109.39 42.4377 113.14 45.0059L113.178 45.034C113.786 45.4492 115.21 46.4237 116.587 47.9786C118.284 49.8995 119.289 52.0068 119.567 54.2337C119.774 55.8907 119.599 57.8256 119.096 59.4263C118.327 58.9444 117.216 58.4167 116.165 58.7825C115.048 59.173 114.064 60.619 114.468 61.9031C114.858 63.1414 116.436 63.8098 117.585 63.5776C118.495 63.3947 119.261 62.6489 119.848 61.5864C121.563 62.4343 123.706 63.8732 125.464 66.2408C125.759 66.6383 126.788 68.1124 127.575 70.3253C128.626 73.2804 128.798 76.2391 128.088 79.1239C126.96 83.7044 123.981 86.3113 122.199 87.8698L122.087 87.9683C121.331 88.6332 120.098 89.7097 118.752 90.5364C118.446 89.4318 117.764 87.3245 115.944 86.853C114.981 86.6033 113.8 86.8636 112.859 87.5285C112.072 88.0844 111.583 88.8513 111.513 89.6323C111.39 91.0571 112.648 92.3869 113.895 92.9146C114.96 93.3649 116.204 93.3298 117.606 92.8126C117.729 94.5435 117.402 96.4714 116.643 98.3958C115.631 100.964 113.916 103.363 111.819 105.15C111.021 105.829 109.362 107.11 107.194 108.07C104.306 109.351 101.607 109.587 99.1751 108.763C97.78 108.292 96.0265 107.55 95.1691 106.976C95.1304 106.92 95.0848 106.867 95.0321 106.818C94.9899 106.779 94.9442 106.741 94.8915 106.705C94.4136 106.389 93.9603 106.551 93.7424 106.839C93.6897 106.909 93.6475 106.99 93.6229 107.078C96.3041 112.887 98.9853 117.801 101.484 121.474C103.128 123.891 104.657 125.71 106.027 126.881C107.588 128.211 108.99 128.725 110.188 128.405C112.746 127.722 116.457 122.424 120.038 117.062L120.066 117.024C120.098 116.978 120.136 116.918 120.192 116.834C120.892 115.8 122.375 113.696 124.48 111.247C124.511 111.212 124.782 110.902 125.007 110.656C126.5 109.017 130.464 104.665 133.96 104.31C136.533 104.049 138.775 106.009 141.034 108.215C153.709 120.595 160.688 127.416 159.149 131.184C158.717 132.243 157.849 133.179 156.577 133.963C155.389 134.695 153.839 135.279 152.1 135.659C148.751 136.387 144.956 136.32 142.197 135.479C140.272 134.892 138.764 134.129 137.587 133.333C136.413 132.542 135.573 131.722 134.994 131.029C134.625 130.586 134.284 130.111 133.89 129.555C133.272 128.686 132.745 127.937 132.312 127.226C132.541 126.871 132.773 126.508 133.005 126.139C133.381 125.541 134.263 124.144 133.728 122.762C133.405 121.924 132.604 121.158 131.736 120.844C131.174 120.644 130.636 120.661 130.218 120.897C129.153 121.499 129.455 123.216 129.638 124.239V124.264C129.831 125.33 130.193 126.269 130.668 127.173C126.634 133.372 123.257 137.538 121.064 140.007C118.601 142.779 117.086 144.039 116.924 144.169C115.002 145.509 111.956 147.057 108.319 146.857C108.29 146.857 105.405 146.681 102.404 144.968C99.8428 143.504 95.8368 139.3 91.1315 133.133C86.4508 126.997 81.4855 119.437 77.107 111.782" fill="white"/>
<path d="M62.9261 69C59.7938 69 57.2458 65.6352 57.2458 61.5C57.2458 57.3648 59.7938 54 62.9261 54C66.0584 54 68.6064 57.3648 68.6064 61.5C68.6064 65.6352 66.0584 69 62.9261 69ZM62.9261 55.2318C60.4725 55.2318 58.4763 58.0443 58.4763 61.5C58.4763 64.9557 60.4725 67.7682 62.9261 67.7682C65.3797 67.7682 67.376 64.9557 67.376 61.5C67.376 58.0443 65.3797 55.2318 62.9261 55.2318Z" fill="#383838"/>
<path d="M61.3798 66.1079C63.3523 66.1079 64.9513 63.9523 64.9513 61.2932C64.9513 58.6341 63.3523 56.4785 61.3798 56.4785C59.4074 56.4785 57.8083 58.6341 57.8083 61.2932C57.8083 63.9523 59.4074 66.1079 61.3798 66.1079Z" fill="#383838"/>
<path d="M58.9094 108.873C52.3979 120.764 45.8865 132.655 39.375 144.546L38.7881 145.616L38.117 144.599C36.5497 142.224 34.1918 139.811 31.8093 138.147C29.3705 136.444 27.1743 135.498 25.7616 135.002C21.8611 133.637 18.4068 133.696 15.4972 135.185C14.7452 135.568 14.0353 136.046 13.3782 136.613L12.8968 136.226C12.3978 136.623 13.2025 138.126 12.7281 138.625C13.1287 138.143 12.7949 137.204 13.3325 136.732C14.0002 136.148 14.2638 134.991 15.1669 134.53C22.5323 130.769 31.0221 136.701 32.2345 137.545C34.9227 139.424 37.2736 141.985 38.7319 144.194C45.2434 132.303 51.7549 120.412 58.2664 108.521C58.6564 107.807 59.0465 107.093 59.4401 106.379C59.563 106.15 59.6896 105.925 59.8125 105.696C59.8196 105.696 59.8231 105.7 59.8301 105.703C60.1007 105.833 60.2483 106.052 60.3256 106.294L59.5876 107.645L59.0605 108.606L58.913 108.873H58.9094Z" fill="white"/>
<path d="M76.2032 112.508C62.3017 138.559 53.5799 155.79 51.3028 162.27C51.2009 162.562 51.0498 163.002 50.846 163.523C50.5859 164.177 50.2381 164.958 49.7812 165.725C49.3139 166.506 48.7376 167.27 48.0312 167.868L49.1768 165.31C49.8867 164.107 50.3224 162.851 50.5613 162.168L50.6105 162.031C52.7998 155.801 60.7239 139.959 75.5566 112.166C75.655 111.983 75.7499 111.804 75.8483 111.621L76.1891 112.472L76.2032 112.511V112.508Z" fill="white"/>
<path d="M78.0114 111.924C77.832 111.815 77.6631 111.716 77.5048 111.628C77.4732 111.611 77.4415 111.593 77.4134 111.579C77.4063 111.579 77.4028 111.572 77.3958 111.572L77.1636 110.995C77.1636 110.995 77.1812 111.009 77.1882 111.02C77.4802 111.301 77.7511 111.611 78.0114 111.927V111.924Z" fill="white"/>
<path d="M78.0114 111.924C77.832 111.815 77.6631 111.716 77.5048 111.628C77.4732 111.611 77.4415 111.593 77.4134 111.579C77.4063 111.579 77.4028 111.572 77.3958 111.572L77.1636 110.995C77.1636 110.995 77.1812 111.009 77.1882 111.02C77.4802 111.301 77.7511 111.611 78.0114 111.927V111.924Z" fill="white"/>
<path d="M77.5047 111.627L77.4625 111.705L77.4097 111.578C77.4413 111.596 77.4695 111.61 77.5012 111.627H77.5047Z" fill="white"/>
<path d="M128.831 79.3031C127.647 84.1158 124.555 86.8212 122.703 88.443C121.772 89.2592 120.071 90.7755 118.244 91.6937C119.084 96.2988 116.582 102.097 112.323 105.724C111.149 106.723 105.133 111.571 98.9377 109.481C97.8799 109.122 96.5024 108.573 95.4834 108.032C95.1214 107.838 94.8052 107.648 94.5627 107.469C94.5627 107.476 94.5592 107.486 94.5522 107.497C94.3905 107.775 94.2289 108.077 94.0532 108.39C93.9056 107.982 93.7545 107.574 93.6069 107.163C93.628 107.036 93.6807 106.923 93.751 106.828C93.9688 106.54 94.4221 106.378 94.9001 106.695C94.9528 106.73 94.9984 106.765 95.0406 106.807C95.0933 106.856 95.139 106.909 95.1777 106.966C96.0351 107.539 97.7921 108.281 99.1836 108.753C101.615 109.576 104.314 109.34 107.203 108.06C109.371 107.099 111.029 105.819 111.827 105.14C113.925 103.353 115.636 100.957 116.652 98.385C117.411 96.4607 117.738 94.5328 117.615 92.8019C116.213 93.3226 114.969 93.3577 113.904 92.9039C112.656 92.3762 111.398 91.0464 111.521 89.6216C111.588 88.8406 112.08 88.0736 112.867 87.5178C113.809 86.8529 114.99 86.5925 115.953 86.8423C117.773 87.3137 118.455 89.4246 118.76 90.5257C120.106 89.699 121.336 88.6225 122.095 87.9575L122.208 87.859C123.989 86.3005 126.969 83.6902 128.097 79.1132C128.807 76.2319 128.635 73.2697 127.584 70.3145C126.797 68.1017 125.771 66.6276 125.472 66.2301C123.715 63.8624 121.568 62.4236 119.857 61.5757C119.27 62.6382 118.504 63.384 117.594 63.5669C116.441 63.7956 114.863 63.1307 114.477 61.8923C114.073 60.6082 115.056 59.1623 116.174 58.7718C117.228 58.4059 118.335 58.9337 119.105 59.4156C119.604 57.8149 119.779 55.8835 119.576 54.223C119.298 51.9926 118.293 49.8888 116.596 47.9679C115.218 46.4094 113.795 45.4384 113.187 45.0233L113.148 44.9952C109.399 42.427 105.664 42.3883 104.068 42.3742C103.991 42.3742 103.91 42.3742 103.829 42.3742C104.029 42.9864 104.079 43.5879 103.945 44.1649C103.773 44.9037 103.021 46.2441 101.668 46.9266C101.31 47.106 99.4683 47.9503 98.2173 46.9055C97.1244 45.9872 97.1631 44.0699 97.8905 42.8527C98.5933 41.6671 99.8865 41.1746 101.236 40.974C100.839 40.5026 100.354 40.0101 99.7845 39.5035C97.9643 37.8852 95.3815 36.2141 92.8725 35.0426C92.8443 35.0321 90.0753 33.755 85.8901 33.1112C83.4443 32.7348 80.9951 32.6468 78.6196 32.8438C75.6573 33.0936 72.7933 33.7937 70.1051 34.9265C68.3586 35.6653 67.1568 36.5694 66.3205 37.8008C68.5835 38.8632 69.7818 40.1016 69.8943 41.4806C69.9856 42.6416 69.3039 44.2071 68.0037 44.8228C66.8792 45.354 65.4033 45.1288 64.4897 44.288C62.9716 42.8843 63.5093 40.2388 64.184 38.5747C62.7784 38.0681 61.1514 37.6565 59.6192 37.4278C56.2598 36.9212 52.6791 37.2203 49.2704 38.2898C45.5737 39.4472 42.2775 41.4771 39.7369 44.1614C38.1978 45.7867 35.492 49.2274 34.6662 54.0084C34.5186 54.8492 34.241 56.457 34.3604 58.0436C35.123 57.8431 35.882 57.7868 36.627 57.8747C37.003 57.9169 40.2991 58.3637 40.6681 60.5097C40.8965 61.8255 39.8318 63.3629 38.3945 63.7956C37.2455 64.1439 35.9523 63.7393 34.754 62.6628C33.988 61.9732 33.4995 61.1043 33.2078 60.1685C30.4177 61.727 28.246 65.0586 27.9333 65.5581C25.5613 69.3154 25.3435 73.1712 25.4243 75.1343C25.5262 77.6074 26.1798 80.0032 27.371 82.2513C28.3901 84.1792 29.5568 85.5336 30.1155 86.1844C31.5246 87.8239 33.3765 89.4457 35.0878 90.5433C35.3936 89.5055 35.9207 88.7772 36.6656 88.3692C37.7585 87.7711 39.4839 87.8344 40.3167 88.8828C40.7349 89.4105 40.9036 90.1845 40.7771 91.0042C40.647 91.8591 40.2183 92.6049 39.635 93.0024C38.8408 93.5407 37.7234 93.5161 36.3037 92.9285C36.2967 93.5442 36.3353 94.2302 36.4232 94.9831C36.887 98.9233 39.1536 101.579 40.1234 102.712L40.134 102.723C41.3744 104.172 44.6636 108.028 50.0014 108.584C52.3487 108.827 56.3231 108.601 57.6514 106.98C57.6655 106.962 57.6865 106.937 57.7076 106.909C58.0379 106.498 58.4772 105.952 58.9656 105.717C59.1167 105.643 59.2749 105.601 59.433 105.601C59.5595 105.601 59.686 105.625 59.816 105.688C59.8231 105.688 59.8266 105.692 59.8336 105.696C60.1042 105.826 60.2518 106.044 60.3291 106.287L59.5911 107.637C59.5806 107.521 59.5806 107.402 59.5911 107.289C59.6122 107.117 59.7176 106.494 59.4998 106.389C59.4822 106.382 59.4646 106.375 59.4435 106.375C59.1062 106.35 58.4175 107.254 58.2382 107.472C58.0906 107.652 57.922 107.813 57.7357 107.965C55.8136 109.499 51.92 109.562 49.917 109.354C44.2594 108.767 40.7735 104.668 39.5366 103.219C38.5105 102.016 36.142 99.2012 35.6606 95.0816C35.6009 94.582 35.4322 93.1361 35.6149 91.7535C33.5628 90.6418 31.1978 88.626 29.5322 86.691C28.2074 85.1537 24.9042 81.2029 24.6547 75.1694C24.5915 73.6215 24.6231 69.3647 27.2832 65.1536C27.6592 64.559 30.3017 60.471 33.7244 59.0744C33.3589 57.0832 33.7349 54.9266 33.9142 53.8817C34.8383 48.5308 37.9869 44.9037 39.1852 43.6372C44.7795 37.7269 53.034 35.6653 59.7352 36.675C61.3868 36.9248 63.4495 37.4349 65.2206 38.1561C66.0464 36.5765 67.3782 35.2467 69.8099 34.2229C81.9649 29.0936 93.1993 34.3496 93.1993 34.3496C96.896 36.0769 101.106 39.0215 102.652 41.6214C103.158 41.6038 103.646 41.6073 104.082 41.6108C105.818 41.6284 109.669 41.6847 113.588 44.3654C114.73 45.1464 119.632 48.4428 120.342 54.1315C120.616 56.3338 120.254 58.8176 119.505 60.566C121.101 61.2661 123.866 62.7754 126.094 65.7763C126.558 66.4025 130.624 72.0736 128.846 79.2996L128.831 79.3031Z" fill="white"/>
<path d="M129.018 69.8116C128.16 67.3983 127.022 65.7659 126.691 65.3261C124.738 62.6911 122.352 61.108 120.465 60.1827C121.097 58.3498 121.336 56.0596 121.087 54.0437C120.767 51.5002 119.639 49.1185 117.731 46.9584C116.23 45.2592 114.642 44.1721 114.041 43.764L114.002 43.7394C109.87 40.9074 105.808 40.8652 104.075 40.8511C103.752 40.8476 103.404 40.844 103.042 40.8476C101.12 38.0015 96.7238 35.1624 93.5085 33.6602C93.389 33.6039 90.5497 32.2917 86.1642 31.6092C83.5919 31.2116 81.0197 31.1131 78.5142 31.3207C75.3796 31.581 72.347 32.3198 69.4972 33.523C67.3677 34.4201 65.8777 35.6022 64.8692 37.2099C63.3265 36.64 61.5238 36.1756 59.8336 35.9223C56.2458 35.3805 52.4295 35.6971 48.7996 36.8335C46.8282 37.4526 44.9622 38.304 43.2474 39.3629C41.5326 40.4184 39.9723 41.6778 38.6124 43.1132C36.9573 44.8652 34.0406 48.5767 33.1446 53.7553C32.9724 54.7544 32.6386 56.6823 32.867 58.6137C31.8479 59.1168 30.8183 59.8661 29.7852 60.8617C28.1125 62.466 26.9423 64.2426 26.6225 64.7456C24.0292 68.8547 23.7902 73.0623 23.8781 75.2048C24.1416 81.6182 27.7541 85.8152 28.9418 87.1943C30.4704 88.9674 32.4875 90.7264 34.3393 91.9014C34.494 91.9964 34.6415 92.0914 34.7927 92.1758C34.6907 93.474 34.8348 94.7018 34.891 95.1732C35.4076 99.5743 37.9799 102.586 38.9462 103.719L38.9568 103.733C39.6069 104.493 40.8157 105.91 42.6184 107.24C44.8533 108.887 47.2815 109.854 49.8292 110.118C50.3738 110.178 52.3136 110.336 54.3939 110.016C55.4059 109.858 56.2774 109.615 57.0048 109.288C57.177 109.21 57.3422 109.126 57.5003 109.034C53.8703 115.638 51.1188 120.545 48.4482 125.312C45.5526 130.48 42.5657 135.817 38.4648 143.29C38.3453 143.131 38.2259 142.969 38.0993 142.811C36.4934 140.757 34.494 138.846 32.4629 137.425C29.8906 135.631 27.5608 134.625 26.0603 134.1C24.1662 133.435 22.3284 133.08 20.596 133.045C18.4454 132.996 16.4424 133.439 14.6432 134.361C13.6207 134.881 12.6789 135.543 11.8285 136.345C9.81496 138.005 8.55343 139.993 8.07201 142.259C7.38677 145.467 8.56397 149.341 11.4701 153.464C14.0213 157.084 17.8691 160.816 22.3038 163.972C26.6401 167.061 31.3067 169.429 35.4357 170.639C37.5828 171.269 39.5577 171.582 41.3252 171.582C43.4126 171.582 45.2082 171.145 46.649 170.273C48.1846 169.344 49.404 168.116 50.0927 166.804C50.0997 166.794 50.1033 166.787 50.1103 166.776C50.9818 165.372 51.4878 163.919 51.7619 163.138L51.8076 162.998C54.3341 155.81 61.4992 141.425 76.476 113.481C76.7115 113.045 76.9469 112.602 77.1859 112.158C77.3756 111.799 77.2421 111.353 76.8836 111.163C76.5287 110.969 76.0824 111.103 75.8892 111.462C75.7978 111.634 75.7029 111.807 75.6116 111.979C60.3045 140.521 52.9988 155.181 50.423 162.509L50.3738 162.653C49.917 163.962 48.5255 167.948 45.7142 168.676C44.5265 168.982 43.3634 168.451 41.7539 167.719C41.3112 167.518 40.8579 167.311 40.3589 167.1C38.5773 166.35 36.0858 165.049 32.628 161.58C32.3399 161.295 31.876 161.295 31.5879 161.58C31.3032 161.868 31.3032 162.333 31.5879 162.621C35.2284 166.269 37.8815 167.656 39.7896 168.458C40.2675 168.658 40.7138 168.859 41.146 169.056C41.905 169.4 42.6149 169.724 43.3177 169.946C41.276 170.315 38.7459 170.076 35.8504 169.228C31.8725 168.064 27.364 165.77 23.1542 162.776C18.853 159.712 15.1282 156.102 12.6684 152.616C10.0047 148.837 8.91186 145.362 9.50573 142.565C9.64629 141.9 9.87119 141.26 10.1734 140.651C11.6669 141.034 13.0971 141.587 14.4324 142.297C18.1537 144.278 19.7105 146.695 22.0613 150.361C23.2175 152.159 24.5247 154.195 26.3484 156.574C26.4925 156.764 26.7104 156.862 26.9318 156.862C27.0864 156.862 27.2445 156.813 27.3781 156.711C27.6978 156.465 27.7611 156 27.5151 155.68C25.7265 153.348 24.4368 151.339 23.2983 149.566C20.9087 145.844 19.1834 143.159 15.1211 140.999C13.8596 140.327 12.5208 139.786 11.1292 139.384C11.6423 138.656 12.208 137.998 12.8195 137.428C12.8651 137.383 12.9108 137.344 12.9565 137.302C13.6769 136.647 14.464 136.102 15.3109 135.669C18.2205 134.185 21.6748 134.121 25.5754 135.487C26.9915 135.983 29.1878 136.932 31.623 138.632C33.5346 139.968 35.4252 141.777 36.9432 143.715C37.2068 144.056 37.4563 144.394 37.6882 144.725C37.4633 145.182 37.2876 145.664 37.1681 146.157C36.6973 148.071 36.8554 149.281 37.646 149.861C38.4578 150.456 39.8985 150.262 40.4994 149.478C40.8016 149.08 40.9 148.542 40.7981 147.874C40.6646 147.012 40.1691 145.886 39.396 144.647C43.6761 136.834 46.7544 131.346 49.7308 126.034C52.7669 120.612 55.9084 115.008 60.3291 106.938C60.4802 106.66 60.4345 106.329 60.2412 106.104C60.1534 105.942 60.0233 105.801 59.8266 105.706C59.8195 105.703 59.8125 105.699 59.809 105.699C59.679 105.636 59.549 105.611 59.4225 105.611C59.2643 105.611 59.1062 105.653 58.9551 105.727C58.4666 105.963 58.0274 106.508 57.6971 106.92C57.6725 106.948 57.6549 106.973 57.6373 106.99C56.309 108.616 52.3347 108.841 49.9873 108.595C44.646 108.042 41.3568 104.186 40.1199 102.737L40.1094 102.723C39.1395 101.59 36.873 98.934 36.4091 94.9938C36.3213 94.2409 36.2826 93.5514 36.2896 92.9393C37.7093 93.5233 38.8232 93.5514 39.6209 93.0096C40.2043 92.6156 40.6294 91.8698 40.763 91.0149C40.886 90.1917 40.7208 89.4212 40.3026 88.8935C39.4698 87.8451 37.7409 87.7783 36.6516 88.3764C35.9066 88.7845 35.3795 89.5162 35.0738 90.5505C33.3624 89.4564 31.5106 87.8311 30.1014 86.1952C29.5427 85.5408 28.376 84.1864 27.357 82.262C26.1657 80.0104 25.5086 77.6147 25.4067 75.1415C25.3259 73.1784 25.5473 69.3226 27.9157 65.5653C28.232 65.0658 30.4036 61.7342 33.1938 60.1757C33.4889 61.1115 33.9739 61.9805 34.7399 62.67C35.9417 63.75 37.2349 64.1511 38.384 63.8063C39.8212 63.3701 40.8825 61.8362 40.6576 60.517C40.2851 58.3709 36.9889 57.9277 36.6129 57.8855C35.8679 57.7975 35.1124 57.8538 34.3464 58.0543C34.2304 56.4642 34.508 54.8599 34.6521 54.0156C35.4814 49.2346 38.1872 45.7939 39.7263 44.1686C42.2635 41.4843 45.5596 39.4544 49.2564 38.297C52.6685 37.2275 56.2458 36.932 59.6087 37.4351C61.1373 37.6672 62.7643 38.0789 64.1699 38.5819C63.4987 40.2495 62.9576 42.8915 64.4756 44.2952C65.3893 45.1361 66.8652 45.3612 67.9897 44.83C69.2898 44.2143 69.9716 42.6453 69.8802 41.4878C69.7713 40.1053 68.5695 38.8669 66.3064 37.8044C67.1428 36.5767 68.3446 35.669 70.0945 34.9337C72.7793 33.7974 75.6467 33.0973 78.609 32.851C80.9845 32.6505 83.4303 32.7385 85.8795 33.1149C90.0648 33.7587 92.8338 35.0357 92.8619 35.0463C95.3709 36.2213 97.9537 37.8889 99.774 39.5072C100.343 40.0138 100.828 40.5063 101.225 40.9777C99.8794 41.1783 98.5863 41.6708 97.8799 42.8564C97.1561 44.0736 97.1139 45.9945 98.2103 46.9092C99.4577 47.954 101.303 47.1132 101.658 46.9338C103.014 46.2513 103.762 44.9074 103.935 44.1686C104.072 43.5916 104.019 42.99 103.819 42.3779C103.903 42.3779 103.98 42.3814 104.058 42.3814C105.653 42.3955 109.388 42.4342 113.141 45.0024L113.18 45.0305C113.788 45.4456 115.211 46.4166 116.585 47.9751C118.286 49.896 119.287 52.0033 119.565 54.2302C119.772 55.8907 119.597 57.8256 119.098 59.4228C118.328 58.9409 117.218 58.4132 116.167 58.779C115.049 59.1695 114.066 60.619 114.466 61.8995C114.856 63.1379 116.434 63.8063 117.587 63.5777C118.497 63.3947 119.259 62.6489 119.85 61.5864C121.561 62.4343 123.708 63.8732 125.465 66.2408C125.76 66.6383 126.79 68.1124 127.577 70.3253C128.624 73.2804 128.796 76.2391 128.087 79.1239C126.962 83.7009 123.979 86.3113 122.201 87.8698L122.088 87.9683C121.333 88.6297 120.103 89.7097 118.753 90.5329C118.448 89.4282 117.766 87.3209 115.946 86.8495C114.983 86.5997 113.802 86.8566 112.86 87.5215C112.073 88.0808 111.585 88.8478 111.518 89.6288C111.391 91.0501 112.653 92.3799 113.9 92.9076C114.965 93.3614 116.209 93.3262 117.611 92.8056C117.734 94.5364 117.407 96.4643 116.648 98.3887C115.636 100.957 113.921 103.356 111.827 105.143C111.029 105.822 109.367 107.103 107.203 108.063C104.314 109.344 101.615 109.58 99.1836 108.756C97.7886 108.288 96.0351 107.543 95.1741 106.969C95.146 106.931 95.1179 106.892 95.0828 106.857C95.0687 106.839 95.0511 106.825 95.0371 106.811C94.9949 106.769 94.9492 106.734 94.8965 106.698C94.4186 106.382 93.9688 106.544 93.751 106.832C93.6772 106.927 93.628 107.04 93.6034 107.166C93.7545 107.578 93.9021 107.989 94.0532 108.394C94.1656 108.711 94.4573 108.95 94.5732 109.259C94.7314 108.989 94.7033 108.802 94.8368 108.556C95.1531 108.735 95.5045 108.911 95.8699 109.08C95.9824 109.133 96.0983 109.186 96.2143 109.235C97.1104 109.639 98.0451 109.991 98.6917 110.209C105.034 112.352 111.107 107.764 112.818 106.311C117.19 102.586 119.674 96.8337 119.08 92.116C119.122 92.0949 119.164 92.0703 119.207 92.0457C120.805 91.1275 122.239 89.8715 123.097 89.1187L123.206 89.0237C125.124 87.3456 128.332 84.5382 129.573 79.4898C130.357 76.3095 130.17 73.0553 129.018 69.8116ZM39.3328 148.584C39.2274 148.721 38.6862 148.802 38.514 148.676C38.5105 148.672 38.1521 148.313 38.5948 146.505C38.6124 146.435 38.63 146.361 38.6511 146.287C39.0306 146.994 39.2695 147.617 39.3468 148.102C39.396 148.415 39.3503 148.56 39.3328 148.584ZM37.386 89.7202C37.9342 89.4212 38.8162 89.4845 39.1044 89.8469C39.2519 90.0334 39.3082 90.3992 39.2484 90.7827C39.1852 91.2013 38.9884 91.5883 38.7635 91.7431C38.4543 91.9507 37.6917 91.9225 36.4478 91.328C36.6235 90.5188 36.9397 89.9665 37.386 89.7202ZM36.4372 59.4053C37.6531 59.546 39.0341 60.1124 39.15 60.7773C39.2344 61.2804 38.6827 62.1141 37.9412 62.3393C37.3228 62.5258 36.5497 62.2373 35.7625 61.5301C35.1862 61.013 34.8243 60.3305 34.6064 59.5741C35.2038 59.4017 35.8187 59.3349 36.4372 59.4053ZM68.3551 41.6075C68.3973 42.1422 68.0599 43.1026 67.336 43.4439C66.7808 43.7077 65.9621 43.5846 65.5158 43.1695C64.6935 42.4131 65.0203 40.5415 65.5861 39.1589C67.2868 39.9469 68.2954 40.837 68.3551 41.6075ZM102.445 43.8168C102.392 44.0455 101.963 45.0622 100.972 45.5653C100.649 45.7271 99.6334 46.1035 99.1907 45.7341C98.7795 45.3894 98.7831 44.3339 99.1942 43.6374C99.7037 42.786 100.941 42.501 102.195 42.4131C102.452 42.9513 102.54 43.4263 102.445 43.8168ZM117.288 62.0754C116.785 62.174 116.051 61.8292 115.928 61.4422C115.805 61.0552 116.216 60.3868 116.669 60.2285C116.747 60.2003 116.831 60.1863 116.919 60.1863C117.414 60.1863 118.057 60.5662 118.5 60.8617C118.117 61.5477 117.685 61.9945 117.288 62.0754ZM114.494 91.4969C113.584 91.1099 112.997 90.2726 113.039 89.7589C113.071 89.4353 113.331 89.0659 113.746 88.7739C114.185 88.4643 114.723 88.2849 115.187 88.2849C115.32 88.2849 115.447 88.3025 115.563 88.3306C116.648 88.6121 117.13 90.3922 117.337 91.1521C117.344 91.1873 117.355 91.2225 117.365 91.2576C116.22 91.7396 115.257 91.8205 114.494 91.4969Z" fill="#383838"/>
<path d="M41.3254 171.758C39.5332 171.758 37.5338 171.438 35.3867 170.808C31.2331 169.591 26.5524 167.213 22.2021 164.117C17.7533 160.951 13.8879 157.204 11.3262 153.566C8.38844 149.401 7.20421 145.478 7.89999 142.224C8.38844 139.92 9.67457 137.897 11.7162 136.212C12.5631 135.413 13.5224 134.738 14.5626 134.206C16.3899 133.271 18.414 132.824 20.5997 132.873C22.3497 132.908 24.2051 133.267 26.1167 133.939C27.6242 134.467 29.9646 135.473 32.5614 137.285C34.6066 138.717 36.6201 140.641 38.2366 142.706C38.3068 142.794 38.3736 142.882 38.4404 142.97C42.3234 135.899 45.2014 130.748 48.2937 125.228L48.5397 124.789C51.0698 120.271 53.6842 115.603 57.0682 109.453C56.3303 109.784 55.4412 110.034 54.4187 110.192C52.2189 110.53 50.1913 110.337 49.8083 110.294C47.2254 110.027 44.7727 109.049 42.5131 107.385C40.7069 106.052 39.4876 104.63 38.834 103.867L38.8094 103.839C37.8289 102.692 35.2356 99.6487 34.712 95.1984C34.6593 94.7445 34.5152 93.5625 34.6031 92.2784C34.5187 92.2291 34.4379 92.1799 34.3536 92.1271L34.2411 92.0567C32.3752 90.8712 30.3406 89.1016 28.8014 87.3144C27.6031 85.9248 23.9626 81.6926 23.6955 75.2159C23.6077 73.0523 23.8501 68.8025 26.4681 64.6547C26.8863 63.9933 28.0354 62.2906 29.6588 60.7391C30.6603 59.7752 31.6724 59.0258 32.6739 58.5157C32.4701 56.6054 32.7898 54.7444 32.9655 53.7347C33.8686 48.5104 36.8099 44.7637 38.479 42.9941C39.8425 41.5552 41.4132 40.2817 43.1492 39.2157C44.8781 38.1462 46.7616 37.2913 48.74 36.6686C52.3981 35.5253 56.2424 35.2051 59.8513 35.7504C61.4994 35.9967 63.2459 36.44 64.7885 36.9993C65.8146 35.4197 67.2905 34.2588 69.42 33.3652C72.2804 32.1585 75.3341 31.4127 78.4897 31.1488C81.0023 30.9413 83.5886 31.0398 86.1819 31.4373C90.6166 32.1268 93.4559 33.4461 93.5754 33.5024C96.9665 35.089 101.218 37.9105 103.127 40.6722C103.453 40.6722 103.773 40.6722 104.068 40.6757C105.815 40.6898 109.902 40.7214 114.094 43.5957L114.129 43.6168C114.674 43.9862 116.325 45.1084 117.857 46.8428C119.787 49.0275 120.932 51.4444 121.255 54.0231C121.501 55.9933 121.284 58.2518 120.676 60.0953C122.415 60.9678 124.847 62.5509 126.829 65.2246C127.064 65.5377 128.28 67.2229 129.18 69.7558C130.343 73.0311 130.532 76.3205 129.738 79.536C128.484 84.6407 125.247 87.4692 123.315 89.1614L123.206 89.2564C122.348 90.0092 120.911 91.2722 119.288 92.2045C119.281 92.208 119.27 92.215 119.263 92.2186C119.815 97.0348 117.281 102.738 112.927 106.453C111.195 107.923 105.049 112.549 98.6321 110.382C97.8379 110.115 96.9032 109.745 96.1407 109.401C96.0247 109.351 95.9087 109.299 95.7928 109.246C95.466 109.095 95.1673 108.947 94.9037 108.803C94.7913 109.003 94.9424 109.151 94.8159 109.369L94.7667 109.833C94.7667 109.833 93.6984 107.944 93.6 107.684C93.6 107.684 93.4419 107.336 93.4349 107.195C93.4243 107.037 93.5192 106.85 93.6106 106.734C93.8741 106.386 94.4153 106.182 94.9916 106.562C95.0548 106.604 95.1075 106.646 95.1603 106.695C95.1884 106.72 95.2059 106.738 95.22 106.759C95.2411 106.78 95.2692 106.811 95.2973 106.85C96.1723 107.424 97.9363 108.162 99.24 108.599C101.626 109.408 104.283 109.176 107.133 107.913C109.283 106.959 110.924 105.689 111.715 105.021C113.792 103.248 115.485 100.873 116.487 98.3364C117.197 96.5352 117.531 94.7164 117.453 93.0629C116.097 93.5202 114.881 93.5273 113.834 93.084C112.527 92.5317 111.212 91.1315 111.346 89.6293C111.416 88.799 111.933 87.9828 112.762 87.3953C113.742 86.7023 114.983 86.4349 115.991 86.6952C117.854 87.1772 118.581 89.3056 118.862 90.2766C120.11 89.485 121.255 88.4824 121.951 87.8738L122.085 87.7542C123.856 86.2027 126.808 83.6169 127.914 79.0998C128.617 76.2502 128.445 73.3231 127.408 70.4032C126.632 68.2185 125.613 66.7585 125.321 66.3645C123.582 64.0214 121.449 62.6177 119.917 61.8367C119.277 62.9273 118.483 63.5957 117.618 63.7681C116.392 64.0109 114.712 63.2932 114.294 61.9704C113.865 60.5949 114.913 59.0469 116.104 58.6318C116.933 58.3433 117.878 58.5192 118.989 59.1736C119.432 57.6432 119.579 55.8279 119.386 54.2694C119.112 52.0742 118.124 50.002 116.448 48.1093C115.088 46.5684 113.679 45.6045 113.075 45.1929L113.033 45.1612C109.318 42.6212 105.629 42.5895 104.051 42.5754C104.205 43.1559 104.223 43.7118 104.1 44.2289C103.921 44.9994 103.141 46.3995 101.731 47.1102C101.359 47.3002 99.4263 48.1832 98.091 47.0645C96.9278 46.0935 96.9594 44.0671 97.722 42.7865C98.3194 41.7874 99.3525 41.1577 100.881 40.8762C100.53 40.4822 100.115 40.0741 99.6512 39.659C97.8415 38.0512 95.2727 36.3942 92.7813 35.2262C92.2823 35.0046 89.6573 33.8964 85.8481 33.3089C83.4164 32.936 80.9847 32.848 78.6197 33.045C75.6715 33.2913 72.8251 33.9879 70.158 35.1137C68.5204 35.8032 67.3713 36.644 66.5666 37.7522C68.7699 38.8252 69.9401 40.0811 70.0525 41.4919C70.1509 42.7091 69.4306 44.3591 68.0636 45.0064C66.8794 45.5658 65.3192 45.3301 64.3563 44.4435C62.6098 42.8287 63.513 39.8314 63.9381 38.7056C62.5677 38.2271 61.0285 37.8472 59.5808 37.6291C56.2424 37.1295 52.6862 37.425 49.3057 38.4839C45.6371 39.6343 42.3655 41.6467 39.8495 44.3098C38.3244 45.9211 35.6432 49.3301 34.8209 54.0654C34.6804 54.8956 34.4274 56.3697 34.5047 57.8543C35.218 57.689 35.9349 57.6503 36.6307 57.7312C37.0172 57.7734 40.4328 58.2237 40.8264 60.5069C41.0654 61.9071 39.9444 63.5359 38.4298 63.9933C37.2175 64.3556 35.8646 63.9405 34.6171 62.8183C33.9389 62.2061 33.4259 61.411 33.0885 60.4541C30.4635 62.0091 28.443 65.0698 28.0564 65.6784C25.7091 69.4005 25.4947 73.2106 25.5755 75.1525C25.6774 77.5976 26.324 79.9687 27.5047 82.1992C28.4992 84.0743 29.6483 85.4217 30.2 86.069L30.2281 86.1007C31.574 87.6662 33.3345 89.2212 34.9685 90.2977C35.2988 89.3303 35.833 88.6407 36.5604 88.2432C37.713 87.6099 39.5438 87.6838 40.4328 88.8061C40.8791 89.3689 41.0583 90.1922 40.9283 91.0647C40.7878 91.9688 40.3309 92.7603 39.7125 93.179C38.9183 93.7208 37.8219 93.7348 36.4585 93.2212C36.462 93.7665 36.5042 94.3646 36.5779 94.9978C37.0383 98.8958 39.2802 101.513 40.236 102.632C41.473 104.085 44.7305 107.898 49.998 108.444C52.3067 108.687 56.2073 108.475 57.4934 106.903L57.6621 106.977L57.5251 106.864L57.5567 106.829C57.887 106.417 58.3438 105.847 58.8709 105.594C59.2012 105.432 59.5456 105.418 59.8408 105.548L59.897 105.573C60.1008 105.672 60.266 105.826 60.3784 106.027C60.6139 106.312 60.6525 106.72 60.4768 107.044C56.1967 114.861 53.129 120.335 50.1667 125.626L49.6044 126.629C46.7089 131.797 43.7149 137.137 39.593 144.666C40.359 145.907 40.8334 147.016 40.967 147.871C41.0759 148.588 40.967 149.172 40.6331 149.608C39.9795 150.463 38.4158 150.674 37.5373 150.027C36.6799 149.397 36.5042 148.127 36.9926 146.14C37.1051 145.672 37.2702 145.211 37.4811 144.768C37.2702 144.469 37.0418 144.159 36.7993 143.849C35.2883 141.922 33.4118 140.127 31.5177 138.801C29.0931 137.109 26.9144 136.17 25.5123 135.677C21.6609 134.33 18.2523 134.386 15.3849 135.849C14.552 136.275 13.7754 136.813 13.0691 137.454L13.0234 137.496C12.9953 137.52 12.9672 137.549 12.9356 137.577C12.3944 138.083 11.8814 138.664 11.407 139.311C12.7212 139.705 13.9968 140.229 15.1951 140.87C19.2995 143.054 21.0354 145.756 23.439 149.496C24.5776 151.269 25.8637 153.274 27.6488 155.6C27.9545 155.997 27.8772 156.571 27.4801 156.877C27.322 156.996 27.1252 157.063 26.9284 157.063C26.6403 157.063 26.3767 156.933 26.2045 156.704C24.3913 154.34 23.0876 152.314 21.9385 150.527L21.9104 150.481C19.5771 146.843 18.038 144.44 14.3482 142.477C13.0691 141.798 11.6987 141.26 10.2649 140.884C9.99786 141.443 9.80108 142.031 9.67457 142.629C9.09125 145.376 10.1736 148.806 12.8091 152.542C15.2584 156.015 18.9692 159.607 23.2528 162.66C27.452 165.647 31.9429 167.93 35.8962 169.088C38.4474 169.834 40.6929 170.108 42.5834 169.901C42.0985 169.711 41.6065 169.489 41.0935 169.257C40.6366 169.049 40.1904 168.849 39.716 168.648C37.7938 167.839 35.1196 166.442 31.458 162.773C31.1066 162.418 31.1066 161.837 31.458 161.482C31.8129 161.13 32.3927 161.13 32.7477 161.482C36.1773 164.923 38.6512 166.221 40.4223 166.963C40.8686 167.153 41.2797 167.339 41.6803 167.519L41.8209 167.582C43.4057 168.303 44.5407 168.817 45.6652 168.528C48.3851 167.825 49.752 163.906 50.2018 162.618L50.251 162.474C52.8373 155.121 60.136 140.472 75.4501 111.916L75.7277 111.399C75.8437 111.181 76.0369 111.026 76.2724 110.956C76.5043 110.885 76.4797 111.343 76.6941 111.459C77.1333 111.691 77.5726 111.818 77.3371 112.261L76.6273 113.584C61.6435 141.542 54.4995 155.881 51.9694 163.076L51.9237 163.213C51.6391 164.025 51.126 165.482 50.2545 166.889L50.2335 166.921C49.5412 168.244 48.2937 169.499 46.7335 170.442C45.2716 171.329 43.4514 171.776 41.3184 171.776L41.3254 171.758ZM20.2764 133.218C18.2769 133.218 16.411 133.654 14.7242 134.52C13.7122 135.033 12.781 135.691 11.9517 136.476C9.96272 138.115 8.71876 140.071 8.24788 142.298C7.57319 145.454 8.73984 149.281 11.6178 153.366C14.1585 156.972 17.9923 160.687 22.4094 163.832C26.7281 166.907 31.3737 169.267 35.4886 170.474C40.092 171.825 43.9574 171.702 46.5613 170.126C48.0688 169.215 49.2671 168.008 49.9418 166.724L49.9699 166.678C50.8168 165.313 51.3228 163.878 51.5934 163.104L51.6461 162.942C54.1832 155.726 61.3343 141.373 76.3286 113.397L77.0384 112.074C77.1825 111.8 77.0806 111.462 76.81 111.318C76.68 111.248 76.5289 111.23 76.3848 111.272C76.2407 111.315 76.1213 111.413 76.051 111.543L75.7734 112.06C60.4663 140.599 53.1747 155.23 50.5954 162.565L50.5462 162.71C50.0823 164.043 48.6662 168.096 45.7636 168.845C44.5196 169.165 43.3389 168.627 41.7014 167.885L41.5433 167.814C41.1462 167.635 40.7386 167.448 40.2958 167.262C38.4931 166.506 35.9806 165.186 32.5087 161.703C32.2908 161.489 31.9359 161.489 31.7181 161.703C31.5037 161.922 31.5037 162.277 31.7181 162.495C35.334 166.119 37.9695 167.498 39.8636 168.293C40.3415 168.493 40.7913 168.694 41.2235 168.894C41.9895 169.243 42.6924 169.559 43.3741 169.777L44.0523 169.992L43.353 170.119C41.2692 170.495 38.7285 170.252 35.8049 169.397C31.8164 168.229 27.2869 165.929 23.056 162.921C18.7372 159.846 15.0018 156.222 12.528 152.718C9.83622 148.898 8.73281 145.376 9.33723 142.53C9.47779 141.858 9.70971 141.2 10.0189 140.574L10.0822 140.447L10.2192 140.483C11.7268 140.87 13.171 141.429 14.5169 142.143C18.2874 144.152 19.8477 146.583 22.2126 150.266L22.2407 150.312C23.3863 152.096 24.6865 154.115 26.4892 156.469C26.6684 156.704 27.0339 156.754 27.2728 156.574C27.5188 156.384 27.5645 156.032 27.3782 155.79C25.5861 153.454 24.2964 151.445 23.1579 149.668C20.7824 145.967 19.0676 143.297 15.0405 141.155C13.7895 140.49 12.4577 139.951 11.0837 139.554L10.8483 139.487L10.9923 139.287C11.5194 138.541 12.0957 137.872 12.7072 137.302C12.7353 137.274 12.7704 137.243 12.8021 137.214L12.8442 137.176C13.5716 136.514 14.3763 135.955 15.2373 135.515C18.1926 134.006 21.6925 133.943 25.6388 135.322C27.0585 135.818 29.2688 136.771 31.7286 138.488C33.6508 139.832 35.5554 141.651 37.0875 143.607C37.3545 143.951 37.604 144.293 37.836 144.623L37.8957 144.708L37.85 144.803C37.6286 145.253 37.46 145.721 37.344 146.199C36.8907 148.036 37.0277 149.186 37.7551 149.721C38.4861 150.256 39.8249 150.076 40.3661 149.373C40.6366 149.017 40.7245 148.521 40.6296 147.902C40.4996 147.072 40.0252 145.981 39.2521 144.743L39.1959 144.655L39.2451 144.564C43.3952 136.989 46.3996 131.624 49.3093 126.435L49.8715 125.432C52.8338 120.141 55.9016 114.667 60.1817 106.854C60.2906 106.65 60.266 106.396 60.1149 106.22L60.0938 106.189C60.02 106.048 59.9146 105.946 59.7775 105.876L59.7424 105.858C59.5351 105.756 59.2926 105.763 59.0431 105.886C58.5863 106.108 58.1576 106.643 57.8448 107.03L57.8167 107.061C57.7991 107.082 57.7851 107.096 57.771 107.11C56.4076 108.778 52.3629 109.017 49.9769 108.764C44.5688 108.205 41.2446 104.314 39.9936 102.847C39.0026 101.689 36.7115 99.0119 36.2406 95.0084C36.1528 94.259 36.1106 93.5589 36.1211 92.9327V92.6724L36.3636 92.7709C37.7235 93.3303 38.7918 93.3619 39.5297 92.8589C40.0709 92.493 40.4715 91.7894 40.598 90.9837C40.714 90.2098 40.5593 89.485 40.1728 88.9996C39.3927 88.018 37.7692 87.9617 36.7431 88.5281C36.0438 88.9116 35.5413 89.6082 35.2496 90.5967L35.1829 90.8219L34.9861 90.6952C33.2712 89.5976 31.3983 87.9582 29.9751 86.3083L29.947 86.2766C29.3847 85.6187 28.2181 84.2537 27.2096 82.3434C26.0042 80.0637 25.3401 77.6433 25.2382 75.149C25.1574 73.1684 25.3788 69.2739 27.7753 65.4709C28.1794 64.8341 30.33 61.5799 33.1166 60.0214L33.3064 59.9159L33.3696 60.1199C33.6824 61.112 34.1849 61.9247 34.8666 62.5368C36.0192 63.5711 37.2526 63.9616 38.342 63.6345C39.6984 63.2228 40.7034 61.7769 40.4926 60.5421C40.1341 58.477 36.7466 58.0724 36.6025 58.0548C35.8822 57.9704 35.1407 58.0232 34.3993 58.2202L34.1954 58.2729L34.1814 58.0619C34.0654 56.4647 34.3395 54.864 34.4836 54.0056C35.327 49.1542 38.0538 45.6819 39.607 44.0425C42.1652 41.3371 45.486 39.2896 49.2109 38.1251C52.6406 37.0486 56.2495 36.7495 59.6405 37.2561C61.1726 37.4883 62.8031 37.8999 64.2333 38.4101L64.4055 38.4734L64.3387 38.6423C63.9768 39.5429 62.9226 42.6071 64.6023 44.1621C65.4667 44.9571 66.8618 45.1682 67.923 44.6651C69.153 44.0812 69.7995 42.5965 69.7152 41.4954C69.6133 40.1796 68.4431 38.9905 66.2433 37.9562L66.0571 37.8683L66.1731 37.6959C67.027 36.4435 68.2534 35.5112 70.0385 34.7618C72.7373 33.6185 75.6188 32.9149 78.6057 32.6651C80.9987 32.4646 83.4585 32.5525 85.9184 32.9289C89.7733 33.5235 92.4369 34.6458 92.9324 34.8674C95.4695 36.0565 98.0699 37.7346 99.9042 39.3635C100.473 39.8701 100.969 40.3731 101.373 40.8516L101.577 41.0943L101.264 41.1401C99.6758 41.3758 98.6216 41.9633 98.0453 42.9343C97.3565 44.0917 97.3108 45.9035 98.3369 46.7619C99.5036 47.7399 101.254 46.9343 101.591 46.7619C102.895 46.1075 103.611 44.8199 103.777 44.1128C103.9 43.5921 103.865 43.0222 103.664 42.4171L103.59 42.1849H104.072C105.681 42.2025 109.448 42.2342 113.254 44.841L113.296 44.8727C113.904 45.2878 115.341 46.2694 116.729 47.8419C118.451 49.7874 119.47 51.9229 119.751 54.192C119.962 55.8701 119.783 57.8402 119.277 59.4585L119.21 59.6766L119.017 59.557C117.917 58.8675 117.007 58.6634 116.237 58.9308C115.197 59.2932 114.273 60.6406 114.646 61.8332C115.007 62.9836 116.49 63.6063 117.566 63.3917C118.367 63.2299 119.105 62.572 119.709 61.4884L119.79 61.3407L119.941 61.4146C121.519 62.1956 123.782 63.645 125.62 66.1217C125.919 66.5263 126.962 68.0215 127.756 70.2519C128.814 73.2422 128.99 76.2361 128.269 79.1525C127.134 83.7788 124.13 86.4103 122.334 87.9828L122.215 88.0884C121.449 88.7603 120.205 89.8474 118.855 90.6706L118.659 90.7902L118.595 90.5651C118.23 89.2388 117.552 87.4305 115.914 87.0048C115 86.7691 113.872 87.0154 112.973 87.6486C112.228 88.1763 111.768 88.8975 111.704 89.6258C111.585 90.9661 112.787 92.2221 113.981 92.7287C115 93.1614 116.206 93.1262 117.562 92.6231L117.78 92.5422L117.798 92.7779C117.924 94.544 117.587 96.5035 116.824 98.4385C115.802 101.031 114.073 103.455 111.954 105.263C111.149 105.946 109.476 107.237 107.287 108.212C104.353 109.513 101.612 109.749 99.1417 108.912C97.845 108.475 96.0247 107.726 95.09 107.103L95.0443 107.061C95.0232 107.03 94.9986 106.998 94.9705 106.97L95.0619 106.811L94.9424 106.942C94.8897 106.889 94.851 106.861 94.8089 106.833C94.4223 106.576 94.0744 106.695 93.9022 106.928C93.853 106.991 93.8179 107.061 93.7968 107.146L93.9444 107.547C94.0393 107.807 94.1342 108.067 94.229 108.324C94.2993 108.521 94.3696 108.718 94.4434 108.915C94.5312 108.76 94.6156 108.609 94.6929 108.465L94.7772 108.307L94.9318 108.395C95.2235 108.56 95.5644 108.732 95.9509 108.912C96.0634 108.964 96.1758 109.017 96.2918 109.063C97.0508 109.404 97.9715 109.767 98.7551 110.034C104.996 112.141 111.016 107.606 112.713 106.168C117.017 102.498 119.509 96.8589 118.915 92.1271L118.901 92.004L119.013 91.9477C119.052 91.9266 119.091 91.9055 119.129 91.8808C120.725 90.9661 122.144 89.7172 122.991 88.9749L123.1 88.8799C125.001 87.2159 128.185 84.4331 129.411 79.4375C130.188 76.2924 130.002 73.0698 128.86 69.8614C127.978 67.3777 126.786 65.7277 126.558 65.4216C124.566 62.7338 122.106 61.1683 120.394 60.331L120.254 60.2642L120.303 60.1164C120.932 58.2941 121.161 56.0284 120.918 54.0548C120.602 51.5464 119.488 49.1964 117.604 47.0645C116.1 45.3617 114.48 44.2606 113.946 43.8982L113.911 43.8771C109.803 41.0627 105.79 41.031 104.075 41.0169C103.752 41.0134 103.404 41.0099 103.046 41.0134H102.951L102.898 40.936C101.053 38.206 96.8154 35.3881 93.4349 33.8085C93.3189 33.7522 90.5217 32.454 86.1362 31.7715C83.571 31.374 81.0128 31.279 78.5284 31.483C75.4079 31.7434 72.3929 32.4786 69.5641 33.6713C67.4522 34.5613 66.0079 35.7117 65.0169 37.2913L64.9396 37.4109L64.8061 37.3617C63.2529 36.7882 61.4748 36.3344 59.8057 36.0846C56.2459 35.5464 52.4578 35.8595 48.8489 36.9888C46.8951 37.6009 45.0432 38.4488 43.3354 39.5007C41.6241 40.5526 40.0779 41.805 38.7356 43.2227C37.091 44.9642 34.199 48.6476 33.3134 53.7734C33.1377 54.7936 32.8109 56.6793 33.0358 58.5825L33.0499 58.7057L32.9374 58.762C31.9324 59.258 30.9133 60.0038 29.9013 60.9783C28.3059 62.5052 27.1779 64.1797 26.7668 64.8306C24.2016 68.8974 23.9626 73.0663 24.0504 75.1877C24.3105 81.5413 27.8948 85.7031 29.072 87.0681C30.59 88.8272 32.593 90.5756 34.4309 91.7401L34.5433 91.8105C34.6558 91.8808 34.7647 91.9477 34.8772 92.011L34.9756 92.0673L34.965 92.1799C34.8631 93.4745 35.0072 94.6847 35.0634 95.1421C35.5729 99.4868 38.1171 102.47 39.0764 103.592L38.9675 103.74L39.101 103.624C39.7441 104.377 40.9459 105.781 42.7205 107.089C44.9273 108.715 47.3238 109.672 49.8469 109.932C50.2229 109.974 52.2118 110.164 54.3659 109.83C55.3604 109.675 56.2213 109.436 56.9312 109.116C57.0963 109.042 57.258 108.957 57.4126 108.869L57.9573 108.553L57.6551 109.105C54.1375 115.508 51.4493 120.303 48.8489 124.943L48.6029 125.383C45.4755 130.963 42.5694 136.166 38.6196 143.36L38.4896 143.6L38.2577 143.294C38.1628 143.167 38.0644 143.037 37.9625 142.91C36.3671 140.87 34.3817 138.97 32.3646 137.559C29.7994 135.768 27.4907 134.776 26.0042 134.256C24.1278 133.598 22.3075 133.246 20.5962 133.211C20.4907 133.211 20.3853 133.207 20.2799 133.207L20.2764 133.218ZM38.8058 148.912C38.6477 148.912 38.5001 148.884 38.4088 148.817C38.3174 148.732 37.9765 148.289 38.4228 146.463L38.4369 146.404C38.4509 146.351 38.465 146.294 38.479 146.238L38.5985 145.82L38.8023 146.203C39.1889 146.924 39.4384 147.571 39.5157 148.075C39.5578 148.356 39.5438 148.585 39.47 148.687H39.4665C39.3611 148.831 39.0659 148.912 38.7988 148.912H38.8058ZM38.6372 148.542C38.7426 148.585 39.0834 148.55 39.1854 148.483C39.1924 148.44 39.2064 148.331 39.1748 148.127C39.1151 147.761 38.9569 147.304 38.711 146.787C38.4334 148.05 38.595 148.462 38.6372 148.542ZM38.2682 92.0356C37.7868 92.0356 37.1332 91.8492 36.3741 91.4868L36.2476 91.427L36.2757 91.2898C36.4655 90.4173 36.8099 89.8368 37.3018 89.566C37.9238 89.2247 38.9042 89.3127 39.2416 89.7383C39.4208 89.9635 39.4911 90.3751 39.4208 90.8114C39.3505 91.2793 39.1291 91.7049 38.8621 91.8879C38.7145 91.9864 38.5107 92.0356 38.2647 92.0356H38.2682ZM36.6517 91.2265C37.7727 91.7401 38.4369 91.7507 38.6653 91.5959C38.8199 91.4903 39.0132 91.1632 39.0729 90.7551C39.1326 90.3716 39.0624 90.0761 38.964 89.9565C38.7496 89.6891 37.973 89.5976 37.467 89.8755C37.098 90.0796 36.8169 90.5475 36.6482 91.23L36.6517 91.2265ZM115.506 91.8668C115.113 91.8668 114.754 91.7964 114.428 91.6592C113.433 91.237 112.818 90.3294 112.867 89.7454C112.906 89.3654 113.198 88.9503 113.648 88.6302C114.111 88.303 114.688 88.1095 115.19 88.1095C115.327 88.1095 115.468 88.1271 115.608 88.1587C116.793 88.4648 117.295 90.3083 117.509 91.0963C117.52 91.142 117.527 91.1702 117.538 91.1983L117.583 91.3496L117.443 91.42C116.736 91.719 116.09 91.8668 115.513 91.8668H115.506ZM114.565 91.3355C115.25 91.6275 116.121 91.5642 117.158 91.1526C116.954 90.4068 116.487 88.7498 115.521 88.5C115.412 88.4718 115.299 88.4613 115.19 88.4613C114.758 88.4613 114.255 88.6337 113.851 88.9186C113.486 89.1755 113.247 89.5026 113.219 89.777C113.187 90.1746 113.683 90.9591 114.568 91.3355H114.565ZM37.5584 62.5685C36.975 62.5685 36.3109 62.2554 35.6467 61.6608C35.0915 61.1613 34.6839 60.4752 34.4379 59.6239L34.3887 59.455L34.5574 59.4058C35.2004 59.2193 35.84 59.163 36.4585 59.2299C37.5619 59.3565 39.1783 59.9124 39.3224 60.7461C39.4208 61.3266 38.8234 62.2554 37.9906 62.5052C37.85 62.5474 37.7059 62.5685 37.5548 62.5685H37.5584ZM34.828 59.6942C35.0599 60.4049 35.4113 60.9748 35.8787 61.397C36.6201 62.0619 37.3335 62.3363 37.8887 62.1674C38.5809 61.9563 39.0413 61.1929 38.9745 60.8024C38.8867 60.2958 37.6884 59.7224 36.4163 59.5746C35.9033 59.5148 35.3691 59.557 34.828 59.6907V59.6942ZM117.102 62.2659C116.543 62.2659 115.897 61.9106 115.763 61.492C115.612 61.0135 116.065 60.2501 116.613 60.0601C117.07 59.8948 117.703 60.1164 118.599 60.7145L118.732 60.8059L118.652 60.9467C118.356 61.4779 117.885 62.1322 117.32 62.2483C117.249 62.2624 117.176 62.2694 117.098 62.2694L117.102 62.2659ZM116.919 60.3627C116.852 60.3627 116.786 60.3732 116.729 60.3943C116.339 60.5315 116.009 61.119 116.097 61.3899C116.185 61.6714 116.81 61.9915 117.256 61.9036C117.566 61.8402 117.928 61.4849 118.268 60.9185C117.692 60.5491 117.239 60.3627 116.923 60.3627H116.919ZM99.732 46.0688C99.4895 46.0688 99.2576 46.0161 99.0819 45.8683C98.6075 45.4708 98.5899 44.3204 99.0468 43.5464C99.5036 42.7795 100.533 42.3538 102.188 42.2377L102.308 42.2307L102.36 42.3397C102.638 42.9202 102.726 43.4303 102.624 43.8595C102.568 44.1023 102.118 45.1893 101.06 45.7241C101.05 45.7276 100.357 46.0688 99.739 46.0688H99.732ZM102.086 42.5965C100.628 42.7162 99.7285 43.0855 99.3455 43.7258C98.9484 44.4013 98.9905 45.3336 99.3033 45.5974C99.6406 45.8789 100.537 45.5834 100.892 45.4075C101.833 44.929 102.23 43.951 102.273 43.7786C102.35 43.4549 102.287 43.0609 102.086 42.6001V42.5965ZM66.6756 43.7575C66.2047 43.7575 65.7162 43.5957 65.3965 43.3001C64.4898 42.4629 64.8448 40.5139 65.4246 39.0926L65.4949 38.9237L65.66 39.0011C67.4451 39.8278 68.4642 40.7496 68.531 41.5974C68.5767 42.1955 68.2147 43.2263 67.4135 43.6062C67.1956 43.7118 66.9391 43.761 66.6756 43.761V43.7575ZM65.6811 39.3951C65.1681 40.739 64.9432 42.3995 65.6354 43.0363C66.029 43.4022 66.774 43.5147 67.2624 43.2826C67.8914 42.987 68.2217 42.1146 68.1831 41.6185C68.1304 40.9501 67.2027 40.1234 65.6846 39.3951H65.6811Z" fill="#383838"/>
<path d="M99.1348 117.573L96.1092 109.056C95.9792 108.708 95.8703 108.381 95.7403 108.029C95.5927 107.624 95.1886 107.22 95.041 106.808C94.9988 106.769 94.9531 106.731 94.9004 106.695C94.4225 106.379 93.9692 106.541 93.7513 106.829C93.6389 106.98 93.6143 107.181 93.6811 107.357C93.8076 107.702 93.9833 108.032 94.1098 108.374C94.2257 108.687 94.6017 109.404 94.7177 109.717" fill="#383838"/>
<path d="M12.9644 137.309C12.9151 137.348 12.8693 137.386 12.8201 137.428C12.8658 137.383 12.9116 137.344 12.9573 137.302L12.9644 137.309Z" fill="#383838"/>
<path d="M12.8846 137.492L12.7615 137.365C12.7931 137.334 12.8248 137.305 12.86 137.274L12.9655 137.179L13.0922 137.309L13.0218 137.376C12.9761 137.414 12.9303 137.45 12.8846 137.492Z" fill="#383838"/>
<path d="M79.2971 115.597C77.3082 114.263 77.7509 112.941 76.3383 113.25C74.6129 113.63 73.9101 115.213 73.8047 115.417C74.5813 113.88 75.263 112.673 75.7901 111.259C76.0537 110.552 76.76 110.626 77.1676 111.259L79.2936 115.597H79.2971Z" fill="#383838"/>
<path d="M93.1647 75.0564C92.3073 74.1086 91.0228 73.5566 89.7351 73.5853C88.5493 73.6108 87.4943 74.1086 86.7644 74.9894C85.7636 76.1988 85.4958 77.8294 86.0504 79.3515C86.0568 79.3706 86.0632 79.3866 86.0696 79.4026C81.0526 83.5732 72.3064 83.6339 67.468 79.2558C67.4744 79.2398 67.4808 79.2239 67.4903 79.2047C68.115 77.7209 67.9142 76.0488 66.9548 74.7373C66.2249 73.7417 65.0775 73.1354 63.8057 73.0652C62.5052 72.995 61.2749 73.4896 60.4207 74.4214C60.1402 74.7277 60.239 75.1234 60.4749 75.3404C60.6916 75.5414 61.0454 75.5925 61.3068 75.3117C61.9028 74.6607 62.7539 74.2937 63.6431 74.3065C64.5069 74.3192 65.2815 74.6798 65.8297 75.3244C66.5437 76.1605 66.7827 77.3029 66.4672 78.375C66.3365 78.8218 66.1197 79.2239 65.8233 79.5749C65.6161 79.8206 65.3739 80.0312 65.103 80.2035C64.9053 80.3311 64.8002 80.5322 64.8097 80.7587C64.8193 80.9981 64.9563 81.2214 65.1603 81.3267C65.2368 81.365 65.3165 81.3874 65.3994 81.3906C65.5109 81.3906 65.6289 81.3587 65.7341 81.2916C66.1102 81.0491 66.448 80.7619 66.7349 80.4269C66.7349 80.4269 66.7349 80.4237 66.7381 80.4205C72.0355 85.0283 81.2152 84.9677 86.7262 80.5992C86.7262 80.5992 86.7262 80.6024 86.7262 80.6056C87.0608 81.0555 87.4656 81.4384 87.931 81.748C88.033 81.815 88.1477 81.8533 88.2593 81.8533C88.3454 81.8533 88.4314 81.8373 88.5143 81.7958C88.7183 81.6937 88.8617 81.4735 88.8777 81.2374C88.8904 81.014 88.7916 80.813 88.5972 80.6822C88.2402 80.446 87.9342 80.1524 87.6824 79.8046C87.4115 79.4313 87.217 79.0164 87.1087 78.5729C86.8855 77.6411 87.064 76.6998 87.6186 75.9275C88.084 75.2734 88.798 74.8872 89.6267 74.8394C89.7032 74.8362 89.7797 74.833 89.8562 74.8362C90.7518 74.8521 91.6539 75.2574 92.2531 75.9211C92.5176 76.2115 92.881 76.1605 93.1073 75.9562C93.34 75.7456 93.4356 75.3627 93.1647 75.0596V75.0564Z" fill="#383838"/>
<path d="M95.659 64.3406C94.8079 62.8535 93.4342 61.925 91.6907 61.6569C89.4149 61.3123 86.6642 62.1451 84.6338 63.7566C85.9948 60.6773 88.0475 59.8029 89.1949 59.5572C89.5742 59.4742 89.7113 59.1328 89.6476 58.8392C89.5806 58.5329 89.2969 58.2521 88.8953 58.3351C87.2411 58.6893 85.7589 59.7136 84.6051 61.2963C83.617 62.6525 82.9031 64.3852 82.5843 66.1754C82.5206 66.5392 82.7692 66.8391 83.0337 66.9349C83.0975 66.9572 83.1612 66.97 83.2218 66.97C83.429 66.9732 83.617 66.8615 83.7286 66.6541C84.8984 64.5512 87.9837 62.828 90.607 62.8121C90.6548 62.8121 90.7058 62.8121 90.7536 62.8121C91.9807 62.8344 93.5872 63.2397 94.5657 64.9532C94.7665 65.3043 95.1458 65.3298 95.4199 65.1734C95.6876 65.0203 95.8566 64.6852 95.659 64.3374V64.3406Z" fill="#383838"/>
</svg>
