<svg width="34" height="14" viewBox="0 0 34 14" fill="none" xmlns="http://www.w3.org/2000/svg">
<path d="M28.7297 13.9819C31.6336 13.9819 34 10.8469 34 6.99095C34 3.13504 31.6373 0 28.7297 0C25.8221 0 23.4594 3.13504 23.4594 6.99095C23.4594 10.8469 25.8221 13.9819 28.7297 13.9819ZM28.7297 1.15265C31.0065 1.15265 32.8541 3.77331 32.8541 6.99095C32.8541 10.2086 31.0028 12.8293 28.7297 12.8293C26.4566 12.8293 24.6053 10.2086 24.6053 6.99095C24.6053 3.77331 26.4566 1.15265 28.7297 1.15265Z" fill="#383838"/>
<path d="M28.6007 7.73C26.5784 7.73 24.9391 6.1146 24.9391 4.12189C24.9391 2.12919 26.5784 0.513784 28.6007 0.513784C30.6229 0.513784 32.2623 2.12919 32.2623 4.12189C32.2623 6.1146 30.6229 7.73 28.6007 7.73Z" fill="#383838"/>
<path d="M5.2702 13.9819C8.17409 13.9819 10.5405 10.8469 10.5405 6.99095C10.5405 3.13504 8.17783 0 5.2702 0C2.36257 0 -0.000106548 3.13504 -0.000106548 6.99095C-0.000106548 10.8469 2.36257 13.9819 5.2702 13.9819ZM5.2702 1.15265C7.54703 1.15265 9.39463 3.77331 9.39463 6.99095C9.39463 10.2086 7.5433 12.8293 5.2702 12.8293C2.9971 12.8293 1.14577 10.2086 1.14577 6.99095C1.14577 3.77331 2.9971 1.15265 5.2702 1.15265Z" fill="#383838"/>
<path d="M5.1372 7.73C3.11496 7.73 1.47561 6.1146 1.47561 4.12189C1.47561 2.12919 3.11496 0.513784 5.1372 0.513784C7.15945 0.513784 8.7988 2.12919 8.7988 4.12189C8.7988 6.1146 7.15945 7.73 5.1372 7.73Z" fill="#383838"/>
</svg>
