<svg width="116" height="139" viewBox="0 0 116 139" fill="none" xmlns="http://www.w3.org/2000/svg">
<path d="M48.476 73.8613C42.319 85.1339 36.1654 96.4033 30.0084 107.676L29.4543 108.69L28.8187 107.725C27.3357 105.474 25.1096 103.187 22.8574 101.609C20.553 99.9961 18.4768 99.0963 17.1404 98.6284C13.4541 97.3359 10.1882 97.3915 7.43732 98.8018C6.72677 99.165 6.05535 99.6199 5.43281 100.156L4.9765 99.79C4.50389 100.166 5.26658 101.59 4.81679 102.064C5.19487 101.609 4.87872 100.716 5.38718 100.271C6.01623 99.718 6.27046 98.6186 7.12116 98.1834C14.0864 94.6167 22.1077 100.242 23.255 101.04C25.7973 102.82 28.0202 105.248 29.3989 107.342C35.5559 96.0695 41.7095 84.8002 47.8665 73.5275C48.2348 72.8502 48.6063 72.1728 48.9746 71.4988C49.092 71.2828 49.2093 71.0668 49.3267 70.8509C49.3332 70.8509 49.3364 70.8542 49.343 70.8574C49.6004 70.9818 49.7373 71.1879 49.809 71.417L49.1115 72.6964L48.6129 73.6093L48.4727 73.8646L48.476 73.8613Z" fill="white"/>
<path d="M64.8211 77.3044C51.6793 101.996 43.4364 118.331 41.2852 124.473C41.1874 124.751 41.0473 125.167 40.8517 125.661C40.6073 126.282 40.2781 127.022 39.8478 127.748C39.4078 128.488 38.8635 129.211 38.1921 129.777L39.2742 127.352C39.9456 126.214 40.3596 125.023 40.5845 124.371L40.6301 124.241C42.6998 118.337 50.1898 103.318 64.2083 76.9739C64.2996 76.8005 64.3909 76.6304 64.4821 76.4569L64.8048 77.2652L64.8178 77.3012L64.8211 77.3044Z" fill="white"/>
<path d="M65.7061 75.7666L65.6768 75.6979C65.6768 75.6979 65.6703 75.7077 65.667 75.7143C65.6572 75.7339 65.6442 75.7568 65.6344 75.7765C65.667 75.8059 65.6963 75.8353 65.7289 75.8648C65.7354 75.8713 65.7452 75.8779 65.7517 75.8877L65.7029 75.7666H65.7061ZM65.9669 76.4211C65.9669 76.4211 65.9571 76.4145 65.9506 76.4145L66.0092 76.5552L66.0158 76.5421L66.0549 76.4702C66.0255 76.4538 65.9962 76.4374 65.9669 76.4211Z" fill="#383838"/>
<path d="M65.7556 75.8861L65.7067 75.765L65.6774 75.6963C65.6774 75.6963 65.6709 75.7061 65.6676 75.7127C65.6578 75.7323 65.6448 75.7552 65.635 75.7748C65.4786 75.6309 65.3188 75.4967 65.1494 75.3724C65.1298 75.356 65.107 75.3429 65.0874 75.3298C65.0842 75.3396 65.0777 75.3462 65.0744 75.356L64.7648 75.9352C64.7452 75.9744 64.7224 76.0137 64.7028 76.053C64.6735 76.1086 64.6442 76.1642 64.6148 76.2198C64.5725 76.2984 64.5301 76.3802 64.4877 76.4587C64.3965 76.6321 64.3052 76.8023 64.2139 76.9757C50.1954 103.32 42.7021 118.339 40.6357 124.242L40.5901 124.373C40.2837 125.378 39.9806 126.382 39.6742 127.39C39.5079 127.806 39.0549 128.853 38.1977 129.779C37.5295 130.499 36.7994 130.95 36.7082 131.006C36.6267 131.055 36.555 131.094 36.5093 131.12C36.5093 131.12 36.0563 131.376 35.5609 131.562C35.2447 131.683 24.2998 133.905 12.5172 124.357C10.2617 122.528 -0.71912 113.634 1.28213 105.188C1.46791 104.403 1.72866 103.778 1.93074 103.356C2.77818 101.605 4.03955 100.467 4.98477 99.7828C5.18359 99.6715 5.37915 99.5635 5.57797 99.4523C6.00169 99.2756 6.64378 99.0269 7.44559 98.7946C8.71674 98.4248 12.7192 97.0669 17.1487 98.6212C18.4851 99.0891 20.5613 99.9889 22.8656 101.602C25.1179 103.179 27.344 105.467 28.827 107.718L29.4626 108.683L30.0167 107.669C36.1736 96.3961 42.3273 85.1267 48.4842 73.8541L48.6244 73.5988L49.1231 72.6859L49.8206 71.4065C49.7489 71.1774 49.612 70.9713 49.3545 70.8469C49.348 70.8469 49.3447 70.8404 49.3382 70.8404C49.2143 70.7815 49.0937 70.7586 48.9764 70.7586C48.8265 70.7586 48.6765 70.7979 48.5331 70.8699C48.0703 71.0924 47.6564 71.6094 47.3435 72.002C47.3206 72.0282 47.3043 72.0511 47.2881 72.0707C46.0299 73.6087 42.2751 73.8246 40.0555 73.5923C35.0068 73.0655 31.8973 69.4137 30.7272 68.0361L30.7174 68.0263C29.8016 66.9498 27.6602 64.4335 27.2201 60.6967C27.1354 59.9833 27.0996 59.3322 27.1061 58.7497C28.4489 59.306 29.5017 59.3289 30.2546 58.8184C30.8054 58.4421 31.2096 57.7353 31.3335 56.9238C31.4508 56.1483 31.2944 55.4154 30.8967 54.9147C30.1112 53.92 28.4783 53.8578 27.445 54.4272C26.741 54.8133 26.2423 55.5037 25.9523 56.4886C24.3356 55.4481 22.5853 53.9102 21.2523 52.3559C20.7242 51.7374 19.6193 50.4547 18.6578 48.6289C17.5333 46.4954 16.914 44.2245 16.8163 41.8817C16.7413 40.0198 16.9466 36.3648 19.1891 32.8046C19.4857 32.3302 21.5391 29.1725 24.1759 27.6968C24.4529 28.5835 24.9125 29.4081 25.6394 30.0593C26.7736 31.0802 27.9959 31.463 29.0812 31.1358C30.4404 30.7235 31.4443 29.2674 31.2324 28.0207C30.8837 25.9854 27.7645 25.5666 27.4125 25.524C26.7084 25.4422 25.9914 25.4946 25.271 25.6844C25.1602 24.1792 25.421 22.6576 25.5611 21.8592C26.3434 17.3273 28.8987 14.0649 30.3557 12.5237C32.7545 9.98122 35.8705 8.05718 39.3678 6.95773C42.5913 5.94663 45.9745 5.66195 49.1524 6.14296C50.5996 6.36219 52.1347 6.75158 53.4645 7.22932C52.829 8.80651 52.3172 11.313 53.7546 12.6448C54.6151 13.4432 56.0134 13.6559 57.0759 13.152C58.3047 12.5695 58.9501 11.0839 58.8621 9.98449C58.7578 8.67562 57.6235 7.50418 55.4854 6.49635C56.2774 5.33146 57.4116 4.47088 59.0641 3.7739C61.6032 2.69736 64.3117 2.03311 67.1148 1.80078C69.3605 1.61099 71.6746 1.69607 73.9888 2.05274C77.9424 2.66136 80.5629 3.87207 80.589 3.88188C82.9618 4.99442 85.4031 6.57488 87.124 8.10953C87.6618 8.59054 88.1214 9.05846 88.4962 9.50348C87.2218 9.69327 85.9995 10.1612 85.3346 11.2835C84.6501 12.4386 84.611 14.258 85.6442 15.1284C86.8241 16.1198 88.5679 15.3214 88.9036 15.1513C90.1845 14.5034 90.8918 13.2305 91.0548 12.5335C91.1819 11.9871 91.1363 11.4144 90.9472 10.8353C91.0255 10.8353 91.1004 10.8353 91.1721 10.8353C92.6812 10.8516 96.2111 10.8876 99.7573 13.3188L99.7931 13.345C100.367 13.7377 101.713 14.6604 103.013 16.1362C104.62 17.9588 105.569 19.9548 105.829 22.0654C106.025 23.636 105.859 25.4717 105.386 26.9867C104.659 26.5286 103.61 26.028 102.616 26.3781C101.56 26.7478 100.631 28.1189 101.012 29.3361C101.38 30.5108 102.87 31.1424 103.959 30.9231C104.819 30.7497 105.543 30.0429 106.097 29.0351C107.717 29.84 109.744 31.2013 111.406 33.446C111.687 33.8256 112.658 35.2195 113.401 37.3202C114.392 40.1212 114.555 42.9287 113.887 45.661C112.821 50.0032 110.005 52.4737 108.32 53.9527L108.215 54.0443C107.498 54.6726 106.338 55.6935 105.064 56.4788C104.773 55.4317 104.131 53.4324 102.41 52.9874C101.501 52.7518 100.383 52.9972 99.4965 53.6255C98.7534 54.1523 98.2906 54.8787 98.2254 55.6215C98.108 56.9696 99.2977 58.2327 100.478 58.7333C101.485 59.162 102.661 59.1293 103.988 58.6352C104.105 60.2745 103.796 62.1037 103.079 63.9263C102.12 66.3608 100.5 68.6349 98.5187 70.3299C97.7658 70.9746 96.1981 72.1885 94.1479 73.0982C91.4166 74.3122 88.8678 74.5347 86.5666 73.7559C85.2499 73.3109 83.5908 72.6041 82.7793 72.0609C82.7434 72.0053 82.701 71.9562 82.6489 71.9104C82.6098 71.8711 82.5641 71.8384 82.5153 71.8057C82.0622 71.5047 81.6352 71.6584 81.4299 71.9333C81.3614 72.0217 81.3158 72.1329 81.293 72.2507C81.4332 72.6401 81.5733 73.0295 81.7167 73.4156C81.8243 73.7134 81.9351 74.0111 82.0427 74.3056C82.3327 75.0942 82.6261 75.8763 82.9194 76.6485C86.0712 84.9566 89.3469 92.2993 92.8148 98.8371L93.0039 99.1905C93.9947 101.052 95.3506 103.605 96.2567 106.605C97.3291 110.159 97.5116 113.431 96.8108 116.605C95.7646 121.34 93.1734 124.409 91.2797 126.651C86.948 131.778 82.0003 134.422 78.6105 135.737C76.4789 136.565 74.3766 137.099 72.3623 137.324C70.4654 137.537 68.7184 137.459 67.3038 137.099C66.6356 136.929 65.0679 136.526 63.8391 135.181C61.9226 133.08 62.1442 130.155 62.242 128.905C62.4017 126.834 63.1677 124.671 64.403 122.812C65.723 120.826 67.5189 119.242 69.5984 118.225C71.7105 117.194 74.0246 116.782 76.4822 116.998C78.3368 117.161 79.7937 117.652 80.4977 117.927C82.3001 118.637 83.9331 119.714 85.3542 121.127C85.628 121.399 86.0647 121.395 86.3352 121.124C86.6058 120.849 86.6025 120.411 86.332 120.139C84.7773 118.591 82.9846 117.41 81.0029 116.631C80.351 116.376 79.1092 115.954 77.5219 115.718C77.4926 115.339 77.5317 114.854 77.7827 114.148C78.0076 113.516 78.3856 112.943 78.8224 112.482C79.0473 112.845 79.3765 113.202 79.8621 113.434C80.5629 113.771 81.4527 113.781 82.1861 113.46C82.6913 113.238 83.0433 112.881 83.1704 112.456C83.4572 111.514 82.5772 110.398 81.6287 110.071C80.9508 109.835 80.2011 109.946 79.484 110.286L68.1219 81.8055L67.2777 79.6884L67.2614 79.6491L66.0261 76.5536L66.0652 76.4816" fill="white"/>
<path d="M66.5304 76.7505C66.3609 76.6491 66.2044 76.5542 66.0545 76.4691C66.0252 76.4527 65.9958 76.4364 65.9665 76.42C65.96 76.42 65.9567 76.4135 65.9502 76.4135L65.7285 75.867C65.7285 75.867 65.7448 75.8801 65.7514 75.8899C66.0284 76.1583 66.2826 76.4495 66.5271 76.7505H66.5304Z" fill="white"/>
<path d="M66.5304 76.7505C66.3609 76.6491 66.2044 76.5542 66.0545 76.4691C66.0252 76.4527 65.9958 76.4364 65.9665 76.42C65.96 76.42 65.9567 76.4135 65.9502 76.4135L65.7285 75.867C65.7285 75.867 65.7448 75.8801 65.7514 75.8899C66.0284 76.1583 66.2826 76.4495 66.5271 76.7505H66.5304Z" fill="white"/>
<path d="M66.0563 76.4684L66.0173 76.54L65.9684 76.4196C65.9977 76.4358 66.027 76.4521 66.0563 76.4684Z" fill="white"/>
<path d="M65.7559 75.8877C65.7559 75.8877 65.7395 75.8713 65.733 75.8648C65.7003 75.8353 65.6708 75.8059 65.6381 75.7765C65.6479 75.7568 65.661 75.7339 65.6708 75.7143C65.6741 75.7077 65.6774 75.7045 65.6806 75.6979L65.7101 75.7666L65.7592 75.8877H65.7559Z" fill="white"/>
<path d="M114.575 45.8324C113.453 50.397 110.533 52.9592 108.783 54.4971C107.899 55.2693 106.296 56.7091 104.568 57.5762C105.36 61.9413 102.997 67.4385 98.972 70.8776C97.8606 71.8265 92.1762 76.4206 86.3224 74.4377C85.3218 74.0974 84.0213 73.5771 83.0565 73.0667C82.7143 72.8834 82.4144 72.7035 82.1863 72.5333C82.1863 72.5398 82.183 72.5497 82.1765 72.5595C82.0233 72.8245 81.8701 73.1092 81.7039 73.407C81.5637 73.0209 81.4236 72.6315 81.2802 72.2421C81.2997 72.1243 81.3486 72.013 81.4171 71.9247C81.6224 71.6531 82.0494 71.4993 82.5024 71.7971C82.5513 71.8298 82.597 71.8658 82.6361 71.9018C82.685 71.9476 82.7306 71.9999 82.7664 72.0523C83.578 72.5955 85.237 73.299 86.5538 73.7473C88.8517 74.5261 91.4038 74.3036 94.1351 73.0896C96.182 72.1799 97.753 70.9627 98.5059 70.3213C100.488 68.6296 102.108 66.3554 103.066 63.9177C103.783 62.0918 104.092 60.2659 103.975 58.6266C102.649 59.1174 101.472 59.1534 100.465 58.7247C99.2849 58.2241 98.0952 56.9643 98.2126 55.6129C98.2778 54.8734 98.7406 54.147 99.4837 53.6169C100.374 52.9853 101.488 52.7399 102.398 52.9788C104.119 53.4271 104.764 55.4264 105.051 56.4702C106.325 55.6881 107.485 54.6672 108.203 54.0357L108.307 53.9441C109.992 52.4651 112.808 49.9946 113.874 45.6524C114.545 42.9201 114.382 40.1159 113.388 37.3116C112.645 35.2141 111.674 33.8169 111.393 33.4374C109.731 31.1926 107.704 29.8314 106.084 29.0265C105.527 30.0343 104.806 30.7411 103.946 30.9145C102.857 31.1337 101.368 30.4989 100.999 29.3275C100.618 28.1103 101.55 26.7392 102.603 26.3695C103.597 26.0226 104.647 26.5233 105.373 26.9781C105.846 25.4631 106.012 23.6274 105.817 22.0567C105.553 19.9429 104.604 17.9469 103.001 16.1276C101.7 14.6518 100.354 13.729 99.7803 13.3364L99.7445 13.3102C96.1983 10.8757 92.6684 10.8397 91.1593 10.8266C91.0876 10.8266 91.0126 10.8266 90.9344 10.8266C91.1235 11.4058 91.1723 11.9784 91.042 12.5249C90.879 13.2251 90.1685 14.498 88.8908 15.1426C88.5551 15.3128 86.8113 16.1112 85.6314 15.1197C84.5982 14.2493 84.6373 12.43 85.3218 11.2749C85.9867 10.1526 87.209 9.68464 88.4834 9.49485C88.1085 9.04984 87.649 8.58192 87.1112 8.10091C85.3902 6.56626 82.949 4.9858 80.5761 3.87326C80.5501 3.86017 77.9295 2.65274 73.9759 2.04411C71.6618 1.68745 69.3509 1.60237 67.1019 1.79216C64.3021 2.02775 61.5936 2.692 59.0513 3.76528C57.3988 4.46552 56.2646 5.32283 55.4725 6.48773C57.6107 7.49556 58.7449 8.66699 58.8492 9.97586C58.9372 11.0753 58.2919 12.5609 57.0631 13.1433C56.0005 13.6472 54.6023 13.4346 53.7418 12.6361C52.3044 11.3076 52.8161 8.79788 53.4517 7.22069C52.1219 6.74296 50.5835 6.3503 49.1396 6.13433C45.9617 5.65659 42.5817 5.938 39.355 6.9491C35.8609 8.04528 32.745 9.97259 30.3428 12.5151C28.8892 14.0563 26.3306 17.3186 25.5483 21.8506C25.4114 22.649 25.1474 24.1706 25.2582 25.6758C25.9818 25.486 26.6956 25.4336 27.3996 25.5154C27.7549 25.558 30.8708 25.9768 31.2196 28.0121C31.4347 29.2621 30.4308 30.7182 29.0684 31.1272C27.983 31.4544 26.7608 31.0748 25.6265 30.0507C24.8997 29.3962 24.4401 28.5716 24.1631 27.6881C21.5262 29.1639 19.4728 32.3215 19.1762 32.796C16.9338 36.3561 16.7285 40.0112 16.8034 41.873C16.9012 44.2192 17.5205 46.4868 18.645 48.6202C19.6097 50.4461 20.7114 51.7321 21.2394 52.3473C22.5725 53.9015 24.3228 55.4395 25.9394 56.48C26.2295 55.4951 26.7282 54.8047 27.4322 54.4185C28.4622 53.8525 30.0951 53.9114 30.8839 54.9061C31.2783 55.4067 31.438 56.1397 31.3206 56.9152C31.1968 57.7267 30.7926 58.4335 30.2418 58.8098C29.4889 59.3203 28.4361 59.2974 27.0932 58.7411C27.0867 59.3235 27.1226 59.9747 27.2073 60.688C27.6441 64.4216 29.7887 66.9412 30.7046 68.0177L30.7144 68.0275C31.8845 69.4018 34.9939 73.0569 40.0427 73.5837C42.2623 73.816 46.0171 73.6 47.2752 72.0621C47.2883 72.0457 47.3078 72.0228 47.3306 71.9934C47.6435 71.604 48.0575 71.0837 48.5203 70.8612C48.6637 70.7925 48.8136 70.75 48.9636 70.75C49.0842 70.75 49.2048 70.7761 49.3254 70.8318C49.3319 70.8318 49.3351 70.835 49.3417 70.8383C49.5992 70.9627 49.7361 71.1688 49.8078 71.3979L49.1102 72.6773C49.1005 72.566 49.1005 72.4548 49.1102 72.3468C49.1298 72.1832 49.2308 71.5909 49.0255 71.4928C49.0092 71.4862 48.9897 71.4797 48.9701 71.4797C48.6507 71.4568 48.0021 72.3108 47.8326 72.5202C47.6957 72.6904 47.536 72.8442 47.3567 72.9881C45.538 74.441 41.8582 74.5032 39.9645 74.3036C34.6159 73.7473 31.3206 69.8599 30.1505 68.4889C29.1792 67.3502 26.9433 64.6801 26.487 60.7731C26.4316 60.3019 26.2719 58.9276 26.4414 57.6187C24.5021 56.5651 22.2661 54.6541 20.6919 52.8184C19.4403 51.3591 16.3145 47.6157 16.0799 41.8992C16.0212 40.4333 16.0473 36.3987 18.5635 32.4034C18.9188 31.8405 21.4187 27.9663 24.652 26.6411C24.3065 24.753 24.6618 22.7079 24.8312 21.7197C25.7048 16.6478 28.6806 13.2088 29.8116 12.0079C35.0982 6.40592 42.9012 4.45243 49.2374 5.40791C50.7986 5.64351 52.7477 6.12779 54.423 6.81167C55.2053 5.31302 56.4634 4.0565 58.7612 3.08467C70.2505 -1.77451 80.8695 3.20246 80.8695 3.20246C84.3635 4.84182 88.3432 7.63299 89.8034 10.0969C90.2825 10.0773 90.7454 10.0838 91.156 10.0871C92.7988 10.1035 96.4395 10.1558 100.142 12.6983C101.221 13.4378 105.856 16.5627 106.527 21.9553C106.788 24.0429 106.446 26.3956 105.735 28.0546C107.244 28.7189 109.858 30.1488 111.964 32.9923C112.404 33.5846 116.247 38.9608 114.565 45.8127L114.575 45.8324Z" fill="white"/>
<path d="M114.748 36.8337C113.936 34.5465 112.861 33.002 112.551 32.5799C110.703 30.0832 108.448 28.5813 106.661 27.7044C107.261 25.9668 107.486 23.7974 107.248 21.8864C106.948 19.4781 105.882 17.217 104.08 15.1719C102.659 13.562 101.156 12.5313 100.593 12.1419L100.557 12.1157C96.6487 9.43253 92.8092 9.39326 91.1697 9.3769C90.8666 9.37363 90.5374 9.37036 90.1952 9.3769C88.3764 6.67736 84.2208 3.98763 81.183 2.56096C81.0722 2.5086 78.3865 1.26518 74.2406 0.62056C71.8091 0.240987 69.3776 0.149368 67.0081 0.345698C64.042 0.591111 61.1771 1.29463 58.4848 2.43334C56.4705 3.28411 55.0625 4.40647 54.1108 5.92803C52.6506 5.38812 50.9459 4.94638 49.3488 4.70751C45.9558 4.19705 42.351 4.49481 38.9189 5.57463C37.0545 6.16035 35.2912 6.96858 33.6713 7.96987C32.0514 8.97115 30.5749 10.1655 29.2907 11.5267C27.7229 13.1857 24.9688 16.7066 24.1213 21.6148C23.9584 22.5605 23.6422 24.3896 23.8573 26.2188C22.8926 26.6965 21.9213 27.4066 20.9435 28.349C19.3659 29.8705 18.2577 31.5524 17.9546 32.0334C15.5036 35.9273 15.2787 39.9161 15.3602 41.9481C15.6079 48.0278 19.0237 52.0035 20.1449 53.3124C21.5888 54.9943 23.4955 56.6631 25.2458 57.7756C25.3892 57.8673 25.5326 57.9556 25.6728 58.0374C25.5783 59.2678 25.7152 60.4294 25.7673 60.8777C26.2562 65.053 28.6845 67.9063 29.6003 68.9796L29.6101 68.9894C30.2261 69.7125 31.3702 71.0574 33.0748 72.3139C35.1869 73.8747 37.4815 74.7942 39.8901 75.0429C40.4051 75.0985 42.2369 75.249 44.2023 74.9447C45.1605 74.7975 45.9852 74.5652 46.6729 74.2543C47.1292 74.0482 47.5268 73.806 47.8593 73.5279C48.0581 73.3643 48.2341 73.1876 48.3873 72.9978C48.3938 72.988 48.4003 72.9814 48.4101 72.9683C48.4492 73.1778 48.5112 73.3905 48.6057 73.6064L49.1044 72.6935L49.8019 71.4141C49.7302 71.185 49.5933 70.9789 49.3358 70.8545C49.3293 70.8545 49.326 70.848 49.3195 70.848C49.1956 70.7891 49.075 70.7662 48.9577 70.7662C48.8078 70.7662 48.6578 70.8054 48.5144 70.8774C48.0516 71.0999 47.6377 71.6169 47.3248 72.0096C47.3019 72.0358 47.2856 72.0587 47.2693 72.0783C46.0112 73.6162 42.2565 73.8322 40.0368 73.5999C34.9881 73.0731 31.8786 69.4213 30.7085 68.0437L30.6987 68.0339C29.7829 66.9574 27.6415 64.4411 27.2014 60.7042C27.1167 59.9909 27.0808 59.3397 27.0874 58.7573C28.4302 59.3136 29.483 59.3365 30.2359 58.826C30.7867 58.4497 31.1909 57.7429 31.3148 56.9314C31.4321 56.1559 31.2756 55.4229 30.878 54.9223C30.0925 53.9276 28.4596 53.8654 27.4263 54.4347C26.7223 54.8209 26.2236 55.5113 25.9336 56.4962C24.3169 55.4557 22.5666 53.9177 21.2335 52.3635C20.7055 51.745 19.6006 50.4623 18.6391 48.6365C17.5146 46.503 16.8953 44.2321 16.7976 41.8892C16.7226 40.0274 16.9279 36.3723 19.1704 32.8122C19.467 32.3378 21.5204 29.1801 24.1572 27.7044C24.4342 28.5911 24.8938 29.4157 25.6207 30.0669C26.7549 31.0878 27.9772 31.4706 29.0625 31.1434C30.4217 30.7311 31.4256 29.275 31.2137 28.0283C30.865 25.993 27.7458 25.5742 27.3937 25.5316C26.6897 25.4498 25.9727 25.5022 25.2523 25.692C25.1415 24.1868 25.4023 22.6652 25.5424 21.8668C26.3247 17.3348 28.88 14.0725 30.337 12.5313C32.7358 9.9888 35.8518 8.06476 39.3491 6.96531C42.5726 5.9542 45.9558 5.66953 49.1337 6.15054C50.5809 6.36977 52.116 6.75916 53.4458 7.2369C52.8103 8.81409 52.2985 11.3206 53.7359 12.6523C54.5964 13.4508 55.9947 13.6634 57.0572 13.1595C58.286 12.5771 58.9314 11.0915 58.8434 9.99207C58.739 8.6832 57.6048 7.51176 55.4667 6.50393C56.2587 5.33904 57.3929 4.47845 59.0454 3.78148C61.5845 2.70494 64.293 2.04069 67.0961 1.80836C69.3418 1.61857 71.6559 1.70365 73.9701 2.06032C77.9237 2.66894 80.5442 3.87965 80.5703 3.88946C82.9431 5.002 85.3844 6.58246 87.1053 8.11711C87.6431 8.59812 88.1027 9.06604 88.4775 9.51106C87.2031 9.70085 85.9808 10.1688 85.3159 11.2911C84.6314 12.4462 84.5923 14.2655 85.6255 15.1359C86.8054 16.1274 88.5492 15.329 88.8849 15.1588C90.1658 14.5109 90.8731 13.2381 91.0361 12.5411C91.1632 11.9946 91.1176 11.422 90.9285 10.8428C91.0068 10.8428 91.0817 10.8428 91.1534 10.8428C92.6625 10.8592 96.1924 10.8952 99.7386 13.3264L99.7745 13.3526C100.348 13.7453 101.694 14.668 102.995 16.1438C104.602 17.9664 105.55 19.9624 105.811 22.0729C106.006 23.6436 105.84 25.4793 105.368 26.9943C104.641 26.5362 103.591 26.0355 102.597 26.3857C101.541 26.7554 100.612 28.1265 100.993 29.3437C101.362 30.5184 102.851 31.15 103.94 30.9307C104.8 30.7573 105.524 30.0505 106.078 29.0427C107.698 29.8476 109.725 31.2088 111.388 33.4536C111.668 33.8331 112.639 35.2271 113.382 37.3278C114.373 40.1288 114.536 42.9363 113.868 45.6686C112.802 50.0108 109.986 52.4813 108.301 53.9603L108.197 54.0519C107.48 54.6802 106.319 55.7011 105.045 56.4864C104.755 55.4393 104.113 53.44 102.392 52.995C101.482 52.7594 100.364 53.0048 99.4778 53.6331C98.7347 54.1599 98.2719 54.8863 98.2067 55.6291C98.0894 56.9772 99.279 58.2403 100.459 58.7409C101.466 59.1696 102.643 59.1369 103.969 58.6428C104.087 60.2821 103.777 62.1113 103.06 63.9339C102.102 66.3684 100.482 68.6425 98.5 70.3375C97.7471 70.9821 96.1794 72.1961 94.1292 73.1058C91.3979 74.3198 88.849 74.5423 86.5479 73.7635C85.2312 73.3185 83.5721 72.6117 82.7606 72.0685C82.7247 72.0129 82.6823 71.9638 82.6302 71.918C82.5911 71.8787 82.5454 71.846 82.4966 71.8133C82.0435 71.5122 81.6165 71.666 81.4112 71.9409C81.3427 72.0292 81.2971 72.1405 81.2743 72.2583C81.4144 72.6477 81.5546 73.0371 81.698 73.4232C81.8056 73.7209 81.9164 74.0187 82.024 74.3132C82.1739 74.0547 82.314 73.8093 82.4412 73.5737C82.741 73.7439 83.0735 73.9107 83.4157 74.0711C84.3609 74.5161 85.3941 74.9055 86.0851 75.1411C92.0791 77.1731 97.8188 72.8244 99.4355 71.4468C103.572 67.9161 105.915 62.4614 105.358 57.9949C105.397 57.972 105.439 57.9491 105.478 57.9262C106.987 57.0558 108.343 55.8647 109.155 55.1546L109.259 55.063C111.071 53.4727 114.103 50.8125 115.279 46.0253C116.019 43.0116 115.843 39.9259 114.751 36.8533L114.748 36.8337ZM28.1336 55.7043C28.6519 55.4197 29.4863 55.4786 29.7568 55.8221C29.8969 55.9988 29.9491 56.3457 29.8937 56.7089C29.8317 57.1081 29.646 57.4746 29.4341 57.6186C29.144 57.8149 28.4204 57.7887 27.2471 57.2259C27.4133 56.457 27.7099 55.9334 28.1336 55.7011V55.7043ZM27.234 26.9681C28.3813 27.1023 29.6883 27.6389 29.7959 28.2704C29.8774 28.7449 29.3559 29.5368 28.6519 29.7495C28.0684 29.9262 27.3383 29.6546 26.5919 28.9838C26.0476 28.4962 25.7054 27.8451 25.5001 27.1284C26.0639 26.9648 26.6441 26.8994 27.2308 26.9681H27.234ZM103.66 29.4975C103.187 29.5924 102.489 29.2684 102.375 28.8987C102.261 28.5322 102.646 27.8974 103.076 27.7469C103.148 27.7207 103.229 27.7109 103.311 27.7109C103.78 27.7109 104.386 28.0708 104.804 28.349C104.445 29.0034 104.034 29.4222 103.656 29.4975H103.66ZM101.02 57.3895C100.156 57.023 99.6017 56.2279 99.6441 55.7436C99.6702 55.436 99.9211 55.0859 100.309 54.8078C100.723 54.5133 101.235 54.3464 101.671 54.3464C101.799 54.3464 101.916 54.3595 102.027 54.3889C103.053 54.6573 103.51 56.3424 103.705 57.0623C103.715 57.095 103.725 57.131 103.731 57.1637C102.649 57.6218 101.74 57.6971 101.02 57.3928V57.3895ZM57.406 10.1001C57.4451 10.6072 57.1257 11.5169 56.4412 11.8408C55.9164 12.0895 55.144 11.9717 54.7203 11.5791C53.9445 10.8625 54.2542 9.08895 54.7887 7.77681C56.3988 8.52286 57.3473 9.36381 57.406 10.0968V10.1001ZM89.6313 12.1942C89.5824 12.4069 89.175 13.3755 88.2363 13.85C87.9332 14.0038 86.9717 14.3637 86.5545 14.0103C86.1666 13.6831 86.1699 12.6818 86.5577 12.0241C87.0368 11.2159 88.207 10.9475 89.3934 10.8625C89.6346 11.3697 89.7193 11.8212 89.6313 12.1942ZM67.2655 79.6763L67.2492 79.637L66.014 76.5416L65.9651 76.4205C65.9651 76.4205 65.9553 76.4139 65.9488 76.4139L66.0074 76.5546L65.9879 76.5939C65.9357 76.6954 65.8803 76.7935 65.8282 76.895C66.2225 78.3314 66.5941 81.7803 67.8588 81.7803C67.9565 81.7803 68.0413 81.7869 68.1097 81.7934L67.2655 79.6763Z" fill="#383838" stroke="#383838" stroke-width="0.487526" stroke-miterlimit="10"/>
<path d="M66.5321 76.7505C66.3626 76.6491 66.2061 76.5542 66.0562 76.4691C66.0269 76.4528 65.9975 76.4364 65.9682 76.4201L65.7563 75.8867C66.0334 76.155 66.2876 76.4462 66.5321 76.7473V76.7505Z" fill="white"/>
<path d="M98.1471 116.901C97.0291 121.972 94.1934 125.326 92.3193 127.545C87.7986 132.898 82.6292 135.657 79.0896 137.028C76.0258 138.216 72.9815 138.831 70.3219 138.831C69.1029 138.831 67.9653 138.703 66.9419 138.441C66.2216 138.255 64.3051 137.764 62.796 136.112C60.4721 133.566 60.7361 130.094 60.8371 128.788C61.0164 126.449 61.841 124.113 63.2295 122.028C64.6864 119.839 66.6714 118.085 68.9725 116.963C71.1758 115.886 73.5747 115.418 76.1105 115.566C76.1007 115.062 76.1822 114.45 76.4592 113.668C76.8015 112.702 77.4762 111.757 78.2878 111.057L65.159 78.1483L64.8233 77.304C65.0058 76.9605 65.1916 76.6136 65.3774 76.2635C65.423 76.27 65.4654 76.2733 65.511 76.2798C65.6284 76.2962 65.7294 76.5285 65.8305 76.895C65.8826 76.7936 65.938 76.6954 65.9902 76.594L66.0097 76.5547L67.2515 79.6371L67.2678 79.6764L68.112 81.7935L79.4742 110.274C80.1945 109.934 80.9409 109.823 81.6188 110.059C82.5673 110.389 83.4473 111.502 83.1605 112.444C83.0301 112.869 82.6814 113.226 82.1762 113.448C81.4428 113.772 80.553 113.763 79.8522 113.422C79.3666 113.19 79.0374 112.833 78.8125 112.47C78.3758 112.931 77.9977 113.504 77.7728 114.136C77.5218 114.846 77.4794 115.33 77.512 115.706C79.0993 115.939 80.3411 116.361 80.993 116.619C82.9747 117.398 84.7641 118.579 86.3221 120.127C86.5926 120.399 86.5959 120.84 86.3253 121.112C86.0548 121.384 85.6148 121.387 85.3443 121.115C83.9232 119.702 82.2903 118.625 80.4878 117.915C79.7838 117.637 78.3269 117.149 76.4723 116.986C74.0147 116.77 71.6973 117.182 69.5885 118.213C67.509 119.227 65.7131 120.814 64.3931 122.8C63.1578 124.659 62.3886 126.822 62.2321 128.893C62.1376 130.143 61.9127 133.068 63.8292 135.169C65.058 136.514 66.6257 136.917 67.2939 137.087C68.7085 137.45 70.4555 137.528 72.3524 137.312C74.3667 137.087 76.469 136.55 78.6006 135.725C81.9904 134.41 86.9381 131.769 91.2698 126.639C93.1635 124.397 95.7547 121.328 96.8009 116.593C97.5017 113.419 97.3192 110.147 96.2468 106.593C95.3407 103.593 93.9848 101.04 92.994 99.1785L92.805 98.8251C89.337 92.2841 86.0613 84.9446 82.9095 76.6365C82.6162 75.8643 82.3261 75.0855 82.0328 74.2936C81.9252 73.9991 81.8144 73.7014 81.7068 73.4036C81.5667 73.0175 81.4265 72.6281 81.2831 72.2387C81.3027 72.1209 81.3516 72.0097 81.42 71.9213C81.6253 71.6497 82.0523 71.4959 82.5054 71.7937C82.5543 71.8264 82.5999 71.8624 82.639 71.8984C82.7791 72.2878 82.9193 72.6739 83.0595 73.06C83.1801 73.3938 83.3039 73.7243 83.4245 74.0515C86.7947 83.1678 90.3018 91.1355 94.0305 98.1674L94.2195 98.5208C95.2364 100.435 96.6315 103.056 97.5767 106.191C98.7044 109.928 98.9 113.53 98.1568 116.897L98.1471 116.901Z" fill="white"/>
<path d="M97.5688 106.193C96.6236 103.062 95.2286 100.437 94.2117 98.5231L94.0226 98.1697C90.2939 91.1378 86.7868 83.1701 83.4166 74.0538C83.296 73.7266 83.1722 73.3961 83.0516 73.0623C82.9114 72.6762 82.7713 72.2901 82.6311 71.9007C82.592 71.8615 82.5464 71.8287 82.4975 71.796C82.0444 71.495 81.6175 71.6488 81.4121 71.9236C81.3437 72.012 81.298 72.1232 81.2752 72.241C81.4154 72.6304 81.5555 73.0198 81.699 73.4059C81.8065 73.7037 81.9173 74.0015 82.0249 74.296C82.315 75.0845 82.6083 75.8666 82.9017 76.6388C86.0535 84.9469 89.3291 92.2896 92.7971 98.8275L92.9861 99.1809C93.977 101.043 95.3329 103.595 96.239 106.596C97.3113 110.149 97.4938 113.421 96.7931 116.595C95.7468 121.33 93.1556 124.399 91.2619 126.641C86.9302 131.768 81.9825 134.412 78.5928 135.728C76.4612 136.556 74.3589 137.089 72.3446 137.315C70.4476 137.527 68.7006 137.449 67.286 137.089C66.6179 136.919 65.0501 136.516 63.8213 135.172C61.9048 133.071 62.1265 130.145 62.2243 128.895C62.384 126.824 63.1499 124.661 64.3852 122.803C65.7053 120.816 67.5012 119.233 69.5806 118.215C71.6927 117.184 74.0069 116.772 76.4644 116.988C78.319 117.152 79.7759 117.642 80.48 117.917C82.2824 118.627 83.9153 119.704 85.3364 121.118C85.6102 121.389 86.0469 121.386 86.3175 121.114C86.588 120.839 86.5847 120.401 86.3142 120.129C84.7595 118.582 82.9668 117.4 80.9852 116.622C80.3333 116.366 79.0915 115.944 77.5042 115.709C77.4748 115.329 77.5139 114.845 77.7649 114.138C77.9898 113.506 78.3679 112.934 78.8046 112.472C79.0295 112.836 79.3587 113.192 79.8444 113.425C80.5451 113.762 81.435 113.771 82.1683 113.451C82.6735 113.228 83.0255 112.872 83.1526 112.446C83.4395 111.504 82.5594 110.388 81.611 110.061C80.933 109.825 80.1834 109.936 79.4663 110.277L68.1042 81.7958L67.26 79.6787L67.2437 79.6394L66.0019 76.557L65.9432 76.4163L65.7216 75.8699C65.689 75.8404 65.6596 75.811 65.627 75.7815C65.4706 75.6375 65.3109 75.5034 65.1414 75.3791C65.1218 75.3627 65.099 75.3496 65.0795 75.3365C65.0762 75.3463 65.0697 75.3529 65.0664 75.3627L64.7568 75.9419C64.7372 75.9811 64.7144 76.0204 64.6949 76.0597C64.6655 76.1153 64.6362 76.1709 64.6069 76.2265C64.5645 76.3051 64.5221 76.3869 64.4797 76.4654L64.8024 77.2736L64.8155 77.3096L65.1512 78.1539L78.2799 111.062C77.4683 111.762 76.7936 112.708 76.4514 113.673C76.1743 114.455 76.0928 115.067 76.1026 115.571C73.5668 115.424 71.1679 115.892 68.9646 116.968C66.6635 118.091 64.6786 119.845 63.2216 122.034C61.8364 124.118 61.0085 126.454 60.8292 128.794C60.7282 130.103 60.4642 133.575 62.7881 136.117C64.2972 137.77 66.2137 138.26 66.934 138.447C67.9575 138.709 69.095 138.836 70.314 138.836C72.9736 138.836 76.0211 138.221 79.0817 137.033C82.6214 135.662 87.7907 132.901 92.3114 127.551C94.1856 125.332 97.018 121.978 98.1392 116.906C98.8823 113.539 98.6868 109.936 97.559 106.2L97.5688 106.193ZM81.1644 111.373C81.1644 111.373 81.1872 111.383 81.2003 111.386C81.2101 111.389 81.2198 111.396 81.2329 111.399C81.2426 111.402 81.2557 111.409 81.2655 111.416C81.2883 111.425 81.3078 111.438 81.3274 111.448C81.3437 111.458 81.3567 111.468 81.373 111.478C81.3893 111.487 81.4023 111.497 81.4186 111.507C81.4317 111.517 81.4415 111.527 81.4545 111.533C81.461 111.537 81.4675 111.543 81.4708 111.546C81.4773 111.55 81.4838 111.556 81.4871 111.559C81.5099 111.579 81.5295 111.599 81.5523 111.618L81.5653 111.631L81.5784 111.645C81.6142 111.681 81.6468 111.72 81.6761 111.756C81.6827 111.766 81.6892 111.775 81.6957 111.782C81.7022 111.792 81.7087 111.802 81.7153 111.811C81.7218 111.821 81.7283 111.831 81.7348 111.838C81.7413 111.847 81.7478 111.854 81.7511 111.864C81.7576 111.874 81.7609 111.88 81.7674 111.89C81.7707 111.897 81.7739 111.903 81.7804 111.913C81.787 111.926 81.7935 111.939 81.8 111.952C81.8033 111.962 81.8065 111.969 81.8098 111.975C81.8098 111.982 81.813 111.985 81.8163 111.991C81.8163 112.001 81.8228 112.008 81.8228 112.018C81.8228 112.024 81.8261 112.034 81.8293 112.04C81.8196 112.054 81.8065 112.063 81.7935 112.076C81.7772 112.09 81.7576 112.103 81.7348 112.116C81.7218 112.122 81.712 112.129 81.6957 112.139C81.6827 112.145 81.6696 112.152 81.6533 112.158C81.6468 112.162 81.6403 112.165 81.6305 112.168C81.6142 112.175 81.5979 112.181 81.5816 112.188C81.5751 112.191 81.5653 112.194 81.5555 112.198C81.5295 112.207 81.5034 112.217 81.4741 112.224C81.4643 112.224 81.4545 112.23 81.4447 112.23C81.4284 112.237 81.4121 112.24 81.3926 112.243C81.3893 112.243 81.3828 112.243 81.3795 112.243C81.36 112.247 81.3437 112.25 81.3241 112.256C81.3241 112.256 81.3176 112.256 81.3144 112.256C81.285 112.263 81.2557 112.266 81.2263 112.27C81.2035 112.27 81.184 112.276 81.1612 112.276C81.1481 112.276 81.1383 112.276 81.1253 112.276C81.1253 112.276 81.122 112.276 81.1188 112.276C81.0992 112.276 81.0797 112.276 81.0601 112.276C81.0373 112.276 81.0145 112.276 80.9884 112.276C80.9656 112.276 80.9395 112.276 80.9167 112.276C80.8939 112.276 80.8711 112.273 80.845 112.27C80.7961 112.263 80.7505 112.256 80.7016 112.243C80.6788 112.237 80.6527 112.23 80.6299 112.224C80.6168 112.224 80.6071 112.217 80.594 112.214C80.5712 112.207 80.5451 112.198 80.5223 112.188C80.5093 112.184 80.4995 112.178 80.4865 112.175C80.4734 112.171 80.4637 112.165 80.4506 112.158C80.418 112.142 80.3887 112.126 80.3594 112.106C80.3431 112.096 80.33 112.086 80.317 112.076C80.3072 112.07 80.2974 112.063 80.2876 112.054C80.2811 112.05 80.2746 112.044 80.2714 112.04C80.2714 112.04 80.2714 112.041 80.2681 112.037C80.2616 112.034 80.2551 112.027 80.2485 112.021C80.2485 112.021 80.2453 112.018 80.242 112.014C80.229 112.005 80.2159 111.991 80.2029 111.982C80.1834 111.965 80.1671 111.946 80.1475 111.926C80.1377 111.913 80.1247 111.903 80.1149 111.893C80.1019 111.877 80.0888 111.861 80.0758 111.847C80.066 111.834 80.0562 111.825 80.0497 111.811C80.0399 111.798 80.0302 111.789 80.0236 111.775C80.0171 111.762 80.0073 111.753 80.0008 111.739C79.9911 111.726 79.9845 111.713 79.9748 111.7C79.9682 111.694 79.965 111.684 79.9585 111.674C79.9552 111.667 79.9487 111.658 79.9454 111.648C79.9356 111.631 79.9259 111.615 79.9193 111.599C80.3887 111.347 80.8385 111.252 81.1677 111.366L81.1644 111.373Z" fill="#383838" stroke="#383838" stroke-width="0.325017" stroke-miterlimit="10"/>
<path d="M31.8577 133.301C30.1856 133.301 28.318 133.003 26.2907 132.408C22.386 131.259 17.9761 129.015 13.8758 126.089C9.68425 123.098 6.0468 119.558 3.63487 116.125C0.887226 112.219 -0.220957 108.547 0.424397 105.504C0.897005 103.276 2.16164 101.332 4.18896 99.7188L5.05269 100.812C3.28938 102.215 2.18771 103.891 1.78355 105.792C1.22294 108.442 2.25616 111.738 4.77239 115.317C7.09631 118.625 10.6164 122.045 14.6841 124.947C18.6605 127.788 22.9238 129.96 26.6851 131.063C30.7234 132.251 34.0024 132.179 36.1731 130.86C37.441 130.088 38.4644 129.047 38.9827 128L40.2277 128.619C39.5889 129.914 38.4058 131.135 36.8934 132.054C35.5343 132.882 33.8361 133.295 31.8642 133.295L31.8577 133.301Z" fill="#383838" stroke="#383838" stroke-width="0.487526" stroke-miterlimit="10"/>
<path d="M18.2491 119.348C18.0405 119.348 17.8352 119.254 17.6983 119.077C15.9774 116.822 14.7388 114.892 13.6469 113.187C11.4208 109.715 9.95407 107.421 6.43395 105.543C5.06176 104.813 3.58527 104.257 2.04359 103.891L1.11467 103.671L1.6101 102.853C2.92036 100.681 4.61197 99.0544 6.63278 98.0204C8.33416 97.15 10.2279 96.7279 12.2617 96.7737C13.8979 96.8097 15.6384 97.1467 17.4278 97.775C18.8489 98.2723 21.0489 99.2245 23.4804 100.929C25.4002 102.274 27.2906 104.087 28.8062 106.034C28.9236 106.188 29.0409 106.338 29.1517 106.489C33.0271 99.4045 35.853 94.3457 38.5908 89.4506C41.4591 84.3133 44.4284 79.0058 48.6036 71.362C48.7894 71.0249 49.2098 70.9006 49.5456 71.0871C49.8813 71.2736 50.0051 71.6957 49.8193 72.0328C45.6408 79.6831 42.6716 84.9971 39.8001 90.1344C36.9872 95.1703 34.0799 100.373 30.0317 107.781C30.7651 108.956 31.2312 110.019 31.3583 110.841C31.4561 111.472 31.3583 111.983 31.0747 112.359C30.5076 113.102 29.1485 113.288 28.3793 112.722C27.6296 112.173 27.4829 111.024 27.9262 109.211C28.0403 108.743 28.2065 108.288 28.4184 107.853C28.2032 107.539 27.9653 107.222 27.7143 106.898C26.2802 105.059 24.4941 103.347 22.6851 102.078C20.384 100.465 18.3078 99.5681 16.9682 99.0969C13.2786 97.8011 10.016 97.8601 7.26509 99.2671C5.72993 100.052 4.40337 101.237 3.31148 102.791C4.62827 103.171 5.8929 103.685 7.08257 104.319C10.9221 106.368 12.555 108.913 14.8138 112.441C15.8894 114.123 17.1116 116.027 18.7967 118.236C19.0314 118.54 18.9727 118.979 18.6696 119.214C18.5425 119.312 18.3958 119.358 18.2491 119.358V119.348ZM29.331 109.326C29.3114 109.394 29.2919 109.463 29.2756 109.535C28.8584 111.247 29.1974 111.587 29.2006 111.59C29.3636 111.711 29.8753 111.636 29.9731 111.505C29.9926 111.482 30.035 111.345 29.9861 111.047C29.9144 110.589 29.6863 109.997 29.331 109.329V109.326Z" fill="#383838" stroke="#383838" stroke-width="0.325017" stroke-miterlimit="10"/>
<path d="M35.3418 132.025C34.1326 132.025 32.982 131.498 31.6881 130.909C31.2806 130.723 30.8569 130.53 30.4071 130.34C28.6047 129.581 26.095 128.265 22.6564 124.81C22.3858 124.538 22.3858 124.097 22.6564 123.825C22.9269 123.553 23.3669 123.553 23.6374 123.825C26.9066 127.11 29.2598 128.347 30.9449 129.057C31.4175 129.257 31.8478 129.453 32.265 129.643C33.7871 130.337 34.8855 130.84 36.0067 130.549C38.6664 129.862 39.9799 126.083 40.4134 124.843L40.4623 124.708C42.91 117.719 49.8851 103.701 64.5359 76.3195C64.7185 75.9792 65.1389 75.8549 65.4746 76.0348C65.8136 76.2181 65.9407 76.6402 65.7582 76.9772C51.1432 104.287 44.1942 118.249 41.7725 125.167L41.7269 125.301C41.4694 126.04 40.9903 127.421 40.1657 128.75C39.1064 130.458 37.8254 131.518 36.3555 131.897C36.0132 131.986 35.6743 132.025 35.3451 132.025H35.3418Z" fill="#383838" stroke="#383838" stroke-width="0.487526" stroke-miterlimit="10"/>
</svg>
