<?xml version="1.0" encoding="UTF-8"?>
<svg id="Layer_15" xmlns="http://www.w3.org/2000/svg" version="1.1" viewBox="0 0 457.15 559.97">
  <!-- Generator: Adobe Illustrator 29.5.1, SVG Export Plug-In . SVG Version: 2.1.0 Build 141)  -->
  <defs>
    <style>
      .st0 {
        fill: none;
      }

      .st1 {
        stroke-width: 1.5px;
      }

      .st1, .st2, .st3 {
        fill: #383838;
      }

      .st1, .st3 {
        stroke: #383838;
        stroke-miterlimit: 10;
      }

      .st4 {
        fill: #fff;
      }
    </style>
  </defs>
  <g>
    <g>
      <g>
        <path class="st4" d="M196.49,302.78c-18.89,34.45-37.77,68.89-56.66,103.34l-1.7,3.1-1.95-2.95c-4.55-6.88-11.38-13.87-18.29-18.69-7.07-4.93-13.44-7.68-17.54-9.11-11.31-3.95-21.33-3.78-29.77.53-2.18,1.11-4.24,2.5-6.15,4.14l-1.4-1.12c-1.45,1.15.89,5.5-.49,6.95,1.16-1.39.19-4.12,1.75-5.48,1.93-1.69,2.71-5.05,5.32-6.38,21.37-10.9,45.98,6.29,49.5,8.73,7.8,5.44,14.62,12.86,18.85,19.26,18.89-34.45,37.77-68.89,56.66-103.34,1.13-2.07,2.27-4.14,3.4-6.2.36-.66.72-1.32,1.08-1.98.02,0,.03.01.05.02.79.38,1.21,1.01,1.43,1.71l-2.14,3.91-1.53,2.79-.43.78Z"/>
        <path class="st4" d="M246.64,313.3c-40.32,75.46-65.61,125.38-72.21,144.15-.3.85-.73,2.12-1.33,3.63-.75,1.9-1.76,4.16-3.08,6.38-1.35,2.26-3.02,4.47-5.08,6.2l3.32-7.41c2.06-3.48,3.33-7.12,4.02-9.11l.14-.4c6.35-18.04,29.33-63.94,72.34-144.45.28-.53.56-1.05.84-1.58l.99,2.47.04.11Z"/>
        <path class="st2" d="M249.35,308.6l-.09-.21s-.02.03-.03.05c-.03.06-.07.13-.1.19.1.09.19.18.29.27.02.02.05.04.07.07l-.15-.37ZM250.15,310.6s-.03-.02-.05-.02l.18.43.02-.04.12-.22c-.09-.05-.18-.1-.27-.15Z"/>
      </g>
      <g>
        <path class="st4" d="M249.5,308.97l-.15-.37-.09-.21s-.02.03-.03.05c-.03.06-.07.13-.1.19-.48-.44-.97-.85-1.49-1.23-.06-.05-.13-.09-.19-.13-.01.03-.03.05-.04.08l-.95,1.77c-.06.12-.13.24-.19.36-.09.17-.18.34-.27.51-.13.24-.26.49-.39.73-.28.53-.56,1.05-.84,1.58-43.01,80.51-66,126.41-72.34,144.45l-.14.4c-.94,3.07-1.87,6.14-2.81,9.22-.51,1.27-1.9,4.47-4.53,7.3-2.05,2.2-4.29,3.58-4.57,3.75-.25.15-.47.27-.61.35,0,0-1.39.78-2.91,1.35-.97.37-34.55,7.16-70.7-22.02-6.92-5.59-40.61-32.77-34.47-58.58.57-2.4,1.37-4.31,1.99-5.6,2.6-5.35,6.47-8.83,9.37-10.92.61-.34,1.21-.67,1.82-1.01,1.3-.54,3.27-1.3,5.73-2.01,3.9-1.13,16.18-5.28,29.77-.53,4.1,1.43,10.47,4.18,17.54,9.11,6.91,4.82,13.74,11.81,18.29,18.69l1.95,2.95,1.7-3.1c18.89-34.45,37.77-68.89,56.66-103.34l.43-.78,1.53-2.79,2.14-3.91c-.22-.7-.64-1.33-1.43-1.71-.02,0-.03-.02-.05-.02-.38-.18-.75-.25-1.11-.25-.46,0-.92.12-1.36.34-1.42.68-2.69,2.26-3.65,3.46-.07.08-.12.15-.17.21-3.86,4.7-15.38,5.36-22.19,4.65-15.49-1.61-25.03-12.77-28.62-16.98l-.03-.03c-2.81-3.29-9.38-10.98-10.73-22.4-.26-2.18-.37-4.17-.35-5.95,4.12,1.7,7.35,1.77,9.66.21,1.69-1.15,2.93-3.31,3.31-5.79.36-2.37-.12-4.61-1.34-6.14-2.41-3.04-7.42-3.23-10.59-1.49-2.16,1.18-3.69,3.29-4.58,6.3-4.96-3.18-10.33-7.88-14.42-12.63-1.62-1.89-5.01-5.81-7.96-11.39-3.45-6.52-5.35-13.46-5.65-20.62-.23-5.69.4-16.86,7.28-27.74.91-1.45,7.21-11.1,15.3-15.61.85,2.71,2.26,5.23,4.49,7.22,3.48,3.12,7.23,4.29,10.56,3.29,4.17-1.26,7.25-5.71,6.6-9.52-1.07-6.22-10.64-7.5-11.72-7.63-2.16-.25-4.36-.09-6.57.49-.34-4.6.46-9.25.89-11.69,2.4-13.85,10.24-23.82,14.71-28.53,7.36-7.77,16.92-13.65,27.65-17.01,9.89-3.09,20.27-3.96,30.02-2.49,4.44.67,9.15,1.86,13.23,3.32-1.95,4.82-3.52,12.48.89,16.55,2.64,2.44,6.93,3.09,10.19,1.55,3.77-1.78,5.75-6.32,5.48-9.68-.32-4-3.8-7.58-10.36-10.66,2.43-3.56,5.91-6.19,10.98-8.32,7.79-3.29,16.1-5.32,24.7-6.03,6.89-.58,13.99-.32,21.09.77,12.13,1.86,20.17,5.56,20.25,5.59,7.28,3.4,14.77,8.23,20.05,12.92,1.65,1.47,3.06,2.9,4.21,4.26-3.91.58-7.66,2.01-9.7,5.44-2.1,3.53-2.22,9.09.95,11.75,3.62,3.03,8.97.59,10,.07,3.93-1.98,6.1-5.87,6.6-8,.39-1.67.25-3.42-.33-5.19.24,0,.47,0,.69,0,4.63.05,15.46.16,26.34,7.59l.11.08c1.76,1.2,5.89,4.02,9.88,8.53,4.93,5.57,7.84,11.67,8.64,18.12.6,4.8.09,10.41-1.36,15.04-2.23-1.4-5.45-2.93-8.5-1.86-3.24,1.13-6.09,5.32-4.92,9.04,1.13,3.59,5.7,5.52,9.04,4.85,2.64-.53,4.86-2.69,6.56-5.77,4.97,2.46,11.19,6.62,16.29,13.48.86,1.16,3.84,5.42,6.12,11.84,3.04,8.56,3.54,17.14,1.49,25.49-3.27,13.27-11.91,20.82-17.08,25.34l-.32.28c-2.2,1.92-5.76,5.04-9.67,7.44-.89-3.2-2.86-9.31-8.14-10.67-2.79-.72-6.22.03-8.94,1.95-2.28,1.61-3.7,3.83-3.9,6.1-.36,4.12,3.29,7.98,6.91,9.51,3.09,1.31,6.7,1.21,10.77-.3.36,5.01-.59,10.6-2.79,16.17-2.94,7.44-7.91,14.39-13.99,19.57-2.31,1.97-7.12,5.68-13.41,8.46-8.38,3.71-16.2,4.39-23.26,2.01-4.04-1.36-9.13-3.52-11.62-5.18-.11-.17-.24-.32-.4-.46-.12-.12-.26-.22-.41-.32-1.39-.92-2.7-.45-3.33.39-.21.27-.35.61-.42.97.43,1.19.86,2.38,1.3,3.56.33.91.67,1.82,1,2.72.89,2.41,1.79,4.8,2.69,7.16,9.67,25.39,19.72,47.83,30.36,67.81l.58,1.08c3.04,5.69,7.2,13.49,9.98,22.66,3.29,10.86,3.85,20.86,1.7,30.56-3.21,14.47-11.16,23.85-16.97,30.7-13.29,15.67-28.47,23.75-38.87,27.77-6.54,2.53-12.99,4.16-19.17,4.85-5.82.65-11.18.41-15.52-.69-2.05-.52-6.86-1.75-10.63-5.86-5.88-6.42-5.2-15.36-4.9-19.18.49-6.33,2.84-12.94,6.63-18.62,4.05-6.07,9.56-10.91,15.94-14.02,6.48-3.15,13.58-4.41,21.12-3.75,5.69.5,10.16,2,12.32,2.84,5.53,2.17,10.54,5.46,14.9,9.78.84.83,2.18.82,3.01-.01.83-.84.82-2.18-.01-3.01-4.77-4.73-10.27-8.34-16.35-10.72-2-.78-5.81-2.07-10.68-2.79-.09-1.16.03-2.64.8-4.8.69-1.93,1.85-3.68,3.19-5.09.69,1.11,1.7,2.2,3.19,2.91,2.15,1.03,4.88,1.06,7.13.08,1.55-.68,2.63-1.77,3.02-3.07.88-2.88-1.82-6.29-4.73-7.29-2.08-.72-4.38-.38-6.58.66l-34.86-87.04-2.59-6.47-.05-.12-3.79-9.46.12-.22"/>
        <g>
          <path class="st4" d="M251.88,311.61c-.52-.31-1-.6-1.46-.86-.09-.05-.18-.1-.27-.15-.02,0-.03-.02-.05-.02l-.68-1.67s.05.04.07.07c.85.82,1.63,1.71,2.38,2.63Z"/>
          <path class="st4" d="M251.88,311.61c-.52-.31-1-.6-1.46-.86-.09-.05-.18-.1-.27-.15-.02,0-.03-.02-.05-.02l-.68-1.67s.05.04.07.07c.85.82,1.63,1.71,2.38,2.63Z"/>
        </g>
        <path class="st4" d="M250.42,310.75l-.12.22-.15-.37c.09.05.18.1.27.15Z"/>
        <path class="st4" d="M249.5,308.97s-.05-.05-.07-.07c-.1-.09-.19-.18-.29-.27.03-.06.07-.13.1-.19.01-.02.02-.03.03-.05l.09.21.15.37Z"/>
        <path class="st4" d="M399.28,217.12c-3.44,13.95-12.4,21.78-17.77,26.48-2.71,2.36-7.63,6.76-12.93,9.41,2.43,13.34-4.82,30.14-17.17,40.65-3.41,2.9-20.85,16.94-38.81,10.88-3.07-1.04-7.06-2.63-10.02-4.19-1.05-.56-1.97-1.11-2.67-1.63,0,.02-.01.05-.03.08-.47.81-.94,1.68-1.45,2.59-.43-1.18-.86-2.37-1.3-3.56.06-.36.21-.7.42-.97.63-.83,1.94-1.3,3.33-.39.15.1.29.21.41.32.15.14.29.3.4.46,2.49,1.66,7.58,3.81,11.62,5.18,7.05,2.38,14.88,1.7,23.26-2.01,6.28-2.78,11.1-6.5,13.41-8.46,6.08-5.17,11.05-12.12,13.99-19.57,2.2-5.58,3.15-11.16,2.79-16.17-4.07,1.5-7.68,1.61-10.77.3-3.62-1.53-7.27-5.38-6.91-9.51.2-2.26,1.62-4.48,3.9-6.1,2.73-1.93,6.15-2.68,8.94-1.95,5.28,1.37,7.26,7.48,8.14,10.67,3.91-2.39,7.47-5.51,9.67-7.44l.32-.28c5.17-4.52,13.81-12.07,17.08-25.34,2.06-8.35,1.56-16.92-1.49-25.49-2.28-6.41-5.26-10.68-6.12-11.84-5.1-6.86-11.32-11.02-16.29-13.48-1.71,3.08-3.92,5.24-6.56,5.77-3.34.67-7.91-1.27-9.04-4.85-1.17-3.72,1.69-7.91,4.92-9.04,3.05-1.06,6.27.47,8.5,1.86,1.45-4.63,1.96-10.24,1.36-15.04-.81-6.46-3.72-12.56-8.64-18.12-3.99-4.51-8.12-7.33-9.88-8.53l-.11-.08c-10.88-7.44-21.71-7.55-26.34-7.59-.22,0-.45,0-.69,0,.58,1.77.73,3.52.33,5.19-.5,2.14-2.68,6.03-6.6,8-1.03.52-6.38,2.96-10-.07-3.17-2.66-3.05-8.22-.95-11.75,2.04-3.43,5.79-4.86,9.7-5.44-1.15-1.36-2.56-2.79-4.21-4.26-5.28-4.69-12.77-9.52-20.05-12.92-.08-.04-8.12-3.73-20.25-5.59-7.1-1.09-14.19-1.35-21.09-.77-8.59.72-16.9,2.75-24.7,6.03-5.07,2.14-8.55,4.76-10.98,8.32,6.56,3.08,10.04,6.66,10.36,10.66.27,3.36-1.71,7.9-5.48,9.68-3.26,1.54-7.55.89-10.19-1.55-4.41-4.06-2.84-11.73-.89-16.55-4.08-1.46-8.8-2.66-13.23-3.32-9.75-1.46-20.12-.6-30.02,2.49-10.72,3.35-20.28,9.24-27.65,17.01-4.46,4.71-12.31,14.68-14.71,28.53-.42,2.44-1.23,7.09-.89,11.69,2.22-.58,4.41-.74,6.57-.49,1.09.13,10.65,1.41,11.72,7.63.66,3.82-2.42,8.27-6.6,9.52-3.33,1-7.08-.16-10.56-3.29-2.23-2-3.64-4.52-4.49-7.22-8.09,4.51-14.39,14.16-15.3,15.61-6.88,10.88-7.51,22.05-7.28,27.74.3,7.17,2.2,14.1,5.65,20.62,2.96,5.58,6.34,9.51,7.96,11.39,4.09,4.75,9.46,9.45,14.42,12.63.89-3.01,2.42-5.12,4.58-6.3,3.16-1.73,8.17-1.55,10.59,1.49,1.21,1.53,1.7,3.77,1.34,6.14-.38,2.48-1.62,4.64-3.31,5.79-2.31,1.56-5.54,1.49-9.66-.21-.02,1.78.09,3.77.35,5.95,1.34,11.41,7.92,19.11,10.73,22.4l.03.03c3.59,4.2,13.13,15.37,28.62,16.98,6.81.71,18.33.05,22.19-4.65.04-.05.1-.12.17-.21.96-1.19,2.23-2.78,3.65-3.46.44-.21.9-.34,1.36-.34.37,0,.74.08,1.11.25.02,0,.03.01.05.02.79.38,1.21,1.01,1.43,1.71l-2.14,3.91c-.03-.34-.03-.68,0-1.01.06-.5.37-2.31-.26-2.61-.05-.02-.11-.04-.17-.04-.98-.07-2.97,2.54-3.49,3.18-.42.52-.91.99-1.46,1.43-5.58,4.44-16.87,4.63-22.68,4.02-16.41-1.7-26.52-13.58-30.11-17.77-2.98-3.48-9.84-11.64-11.24-23.58-.17-1.44-.66-5.64-.14-9.64-5.95-3.22-12.81-9.06-17.64-14.67-3.84-4.46-13.43-15.9-14.15-33.37-.18-4.48-.1-16.81,7.62-29.02,1.09-1.72,8.76-13.56,18.68-17.61-1.06-5.77.03-12.02.55-15.04,2.68-15.5,11.81-26.01,15.28-29.68,16.22-17.12,40.16-23.09,59.6-20.17,4.79.72,10.77,2.2,15.91,4.29,2.4-4.58,6.26-8.42,13.31-11.39,35.25-14.85,67.83.36,67.83.36,10.72,5.01,22.93,13.54,27.41,21.07,1.47-.06,2.89-.04,4.15-.03,5.04.05,16.21.21,27.57,7.98,3.31,2.26,17.53,11.81,19.59,28.29.8,6.38-.25,13.57-2.43,18.64,4.63,2.03,12.65,6.4,19.11,15.09,1.35,1.81,13.14,18.24,7.98,39.18Z"/>
        <path class="st1" d="M399.82,189.62c-2.49-6.99-5.79-11.71-6.74-13-5.67-7.63-12.59-12.22-18.07-14.9,1.84-5.31,2.53-11.94,1.8-17.78-.92-7.36-4.19-14.27-9.72-20.52-4.36-4.92-8.97-8.07-10.7-9.26l-.11-.08c-11.99-8.2-23.77-8.32-28.8-8.37-.93-.01-1.94-.02-2.99,0-5.58-8.25-18.33-16.47-27.65-20.83-.34-.16-8.58-3.96-21.3-5.93-7.46-1.16-14.92-1.44-22.19-.84-9.1.75-17.89,2.9-26.15,6.38-6.18,2.6-10.5,6.03-13.42,10.68-4.48-1.65-9.71-3-14.61-3.73-10.41-1.56-21.47-.65-32,2.65-5.72,1.79-11.13,4.26-16.1,7.32-4.97,3.06-9.5,6.71-13.44,10.87-4.81,5.07-13.26,15.83-15.86,30.83-.5,2.89-1.47,8.48-.81,14.07-2.96,1.46-5.94,3.63-8.94,6.51-4.84,4.65-8.24,9.79-9.17,11.26-7.52,11.9-8.21,24.09-7.96,30.3.76,18.58,11.24,30.73,14.68,34.73,4.43,5.14,10.28,10.24,15.65,13.64.44.28.88.55,1.31.8-.29,3.76.13,7.31.29,8.68,1.5,12.76,8.95,21.48,11.76,24.76l.03.03c1.89,2.21,5.4,6.32,10.63,10.16,6.48,4.77,13.52,7.58,20.91,8.34,1.58.17,7.2.63,13.23-.3,2.94-.45,5.47-1.16,7.58-2.11,1.4-.63,2.62-1.37,3.64-2.22.61-.5,1.15-1.04,1.62-1.62.02-.03.04-.05.07-.09.12.64.31,1.29.6,1.95l1.53-2.79,2.14-3.91c-.22-.7-.64-1.33-1.43-1.71-.02,0-.03-.02-.05-.02-.38-.18-.75-.25-1.11-.25-.46,0-.92.12-1.36.34-1.42.68-2.69,2.26-3.65,3.46-.07.08-.12.15-.17.21-3.86,4.7-15.38,5.36-22.19,4.65-15.49-1.61-25.03-12.77-28.62-16.98l-.03-.03c-2.81-3.29-9.38-10.98-10.73-22.4-.26-2.18-.37-4.17-.35-5.95,4.12,1.7,7.35,1.77,9.66.21,1.69-1.15,2.93-3.31,3.31-5.79.36-2.37-.12-4.61-1.34-6.14-2.41-3.04-7.42-3.23-10.59-1.49-2.16,1.18-3.69,3.29-4.58,6.3-4.96-3.18-10.33-7.88-14.42-12.63-1.62-1.89-5.01-5.81-7.96-11.39-3.45-6.52-5.35-13.46-5.65-20.62-.23-5.69.4-16.86,7.28-27.74.91-1.45,7.21-11.1,15.3-15.61.85,2.71,2.26,5.23,4.49,7.22,3.48,3.12,7.23,4.29,10.56,3.29,4.17-1.26,7.25-5.71,6.6-9.52-1.07-6.22-10.64-7.5-11.72-7.63-2.16-.25-4.36-.09-6.57.49-.34-4.6.46-9.25.89-11.69,2.4-13.85,10.24-23.82,14.71-28.53,7.36-7.77,16.92-13.65,27.65-17.01,9.89-3.09,20.27-3.96,30.02-2.49,4.44.67,9.15,1.86,13.23,3.32-1.95,4.82-3.52,12.48.89,16.55,2.64,2.44,6.93,3.09,10.19,1.55,3.77-1.78,5.75-6.32,5.48-9.68-.32-4-3.8-7.58-10.36-10.66,2.43-3.56,5.91-6.19,10.98-8.32,7.79-3.29,16.1-5.32,24.7-6.03,6.89-.58,13.99-.32,21.09.77,12.13,1.86,20.17,5.56,20.25,5.59,7.28,3.4,14.77,8.23,20.05,12.92,1.65,1.47,3.06,2.9,4.21,4.26-3.91.58-7.66,2.01-9.7,5.44-2.1,3.53-2.22,9.09.95,11.75,3.62,3.03,8.97.59,10,.07,3.93-1.98,6.1-5.87,6.6-8,.39-1.67.25-3.42-.33-5.19.24,0,.47,0,.69,0,4.63.05,15.46.16,26.34,7.59l.11.08c1.76,1.2,5.89,4.02,9.88,8.53,4.93,5.57,7.84,11.67,8.64,18.12.6,4.8.09,10.41-1.36,15.04-2.23-1.4-5.45-2.93-8.5-1.86-3.24,1.13-6.09,5.32-4.92,9.04,1.13,3.59,5.7,5.52,9.04,4.85,2.64-.53,4.86-2.69,6.56-5.77,4.97,2.46,11.19,6.62,16.29,13.48.86,1.16,3.84,5.42,6.12,11.84,3.04,8.56,3.54,17.14,1.49,25.49-3.27,13.27-11.91,20.82-17.08,25.34l-.32.28c-2.2,1.92-5.76,5.04-9.67,7.44-.89-3.2-2.86-9.31-8.14-10.67-2.79-.72-6.22.03-8.94,1.95-2.28,1.61-3.7,3.83-3.9,6.1-.36,4.12,3.29,7.98,6.91,9.51,3.09,1.31,6.7,1.21,10.77-.3.36,5.01-.59,10.6-2.79,16.17-2.94,7.44-7.91,14.39-13.99,19.57-2.31,1.97-7.12,5.68-13.41,8.46-8.38,3.71-16.2,4.39-23.26,2.01-4.04-1.36-9.13-3.52-11.62-5.18-.11-.17-.24-.32-.4-.46-.12-.12-.26-.22-.41-.32-1.39-.92-2.7-.45-3.33.39-.21.27-.35.61-.42.97.43,1.19.86,2.38,1.3,3.56.33.91.67,1.82,1,2.72.46-.79.89-1.54,1.28-2.26.92.52,1.94,1.03,2.99,1.52,2.9,1.36,6.07,2.55,8.19,3.27,18.39,6.21,36-7.08,40.96-11.29,12.69-10.79,19.88-27.46,18.17-41.11.12-.07.25-.14.37-.21,4.63-2.66,8.79-6.3,11.28-8.47l.32-.28c5.56-4.86,14.86-12.99,18.47-27.62,2.27-9.21,1.73-18.64-1.62-28.03ZM134.08,247.29c1.59-.87,4.15-.69,4.98.36.43.54.59,1.6.42,2.71-.19,1.22-.76,2.34-1.41,2.78-.89.6-3.11.52-6.71-1.2.51-2.35,1.42-3.95,2.72-4.66ZM131.32,159.47c3.52.41,7.53,2.05,7.86,3.98.25,1.45-1.35,3.87-3.51,4.52-1.79.54-4.03-.29-6.32-2.34-1.67-1.49-2.72-3.48-3.35-5.67,1.73-.5,3.51-.7,5.31-.49ZM365.8,167.2c-1.45.29-3.59-.7-3.94-1.83-.35-1.12.83-3.06,2.15-3.52.22-.08.47-.11.72-.11,1.44,0,3.3,1.1,4.58,1.95-1.1,2-2.36,3.28-3.52,3.51ZM357.7,252.44c-2.65-1.12-4.35-3.55-4.22-5.03.08-.94.85-2.01,2.04-2.86,1.27-.9,2.84-1.41,4.18-1.41.39,0,.75.04,1.09.13,3.15.82,4.55,5.97,5.15,8.17.03.1.06.21.08.31-3.32,1.4-6.11,1.63-8.32.7ZM223.89,107.92c.12,1.55-.86,4.33-2.96,5.32-1.61.76-3.98.4-5.28-.8-2.38-2.19-1.43-7.61.21-11.62,4.94,2.28,7.85,4.85,8.03,7.09ZM322.76,114.32c-.15.65-1.4,3.61-4.28,5.06-.93.47-3.88,1.57-5.16.49-1.19-1-1.18-4.06.01-6.07,1.47-2.47,5.06-3.29,8.7-3.55.74,1.55,1,2.93.73,4.07ZM254.14,320.55l-.05-.12-3.79-9.46-.15-.37s-.03-.02-.05-.02l.18.43-.06.12c-.16.31-.33.61-.49.92,1.21,4.39,2.35,14.93,6.23,14.93.3,0,.56.02.77.04l-2.59-6.47Z"/>
      </g>
      <g>
        <path class="st4" d="M251.88,311.61c-.52-.31-1-.6-1.46-.86-.09-.05-.18-.1-.27-.15l-.65-1.63c.85.82,1.63,1.71,2.38,2.63Z"/>
        <path class="st4" d="M348.88,434.31c-3.43,15.5-12.13,25.75-17.88,32.53-13.87,16.36-29.73,24.79-40.59,28.98-9.4,3.63-18.74,5.51-26.9,5.51-3.74,0-7.23-.39-10.37-1.19-2.21-.57-8.09-2.07-12.72-7.12-7.13-7.78-6.32-18.39-6.01-22.38.55-7.15,3.08-14.29,7.34-20.66,4.47-6.69,10.56-12.05,17.62-15.48,6.76-3.29,14.12-4.72,21.9-4.27-.03-1.54.22-3.41,1.07-5.8,1.05-2.95,3.12-5.84,5.61-7.98l-40.28-100.57-1.03-2.58c.56-1.05,1.13-2.11,1.7-3.18.14.02.27.03.41.05.36.05.67.76.98,1.88.16-.31.33-.61.49-.92l.06-.12,3.81,9.42.05.12,2.59,6.47,34.86,87.04c2.21-1.04,4.5-1.38,6.58-.66,2.91,1.01,5.61,4.41,4.73,7.29-.4,1.3-1.47,2.39-3.02,3.07-2.25.99-4.98.96-7.13-.08-1.49-.71-2.5-1.8-3.19-2.91-1.34,1.41-2.5,3.16-3.19,5.09-.77,2.17-.9,3.65-.8,4.8,4.87.71,8.68,2,10.68,2.79,6.08,2.38,11.57,5.99,16.35,10.72.83.83.84,2.18.01,3.01-.83.83-2.18.84-3.01.01-4.36-4.32-9.37-7.61-14.9-9.78-2.16-.85-6.63-2.34-12.32-2.84-7.54-.66-14.65.6-21.12,3.75-6.38,3.1-11.89,7.95-15.94,14.02-3.79,5.68-6.15,12.29-6.63,18.62-.29,3.82-.98,12.76,4.9,19.18,3.77,4.11,8.58,5.34,10.63,5.86,4.34,1.11,9.7,1.35,15.52.69,6.18-.69,12.63-2.33,19.17-4.85,10.4-4.02,25.58-12.09,38.87-27.77,5.81-6.85,13.76-16.23,16.97-30.7,2.15-9.7,1.59-19.7-1.7-30.56-2.78-9.17-6.94-16.97-9.98-22.66l-.58-1.08c-10.64-19.99-20.69-42.42-30.36-67.81-.9-2.36-1.79-4.74-2.69-7.16-.33-.9-.67-1.81-1-2.72-.43-1.18-.86-2.37-1.3-3.56.06-.36.21-.7.42-.97.63-.83,1.94-1.3,3.33-.39.15.1.29.21.41.32.43,1.19.86,2.37,1.29,3.55.37,1.02.75,2.03,1.12,3.03,10.34,27.86,21.1,52.21,32.54,73.7l.58,1.08c3.12,5.85,7.4,13.86,10.3,23.44,3.46,11.42,4.06,22.43,1.78,32.72Z"/>
        <g>
          <path class="st0" d="M298.8,419.45c-.08-.48-.91-1.65-2.02-2.03-1.01-.35-2.39-.06-3.83.71.33.66.85,1.33,1.64,1.71,1.67.8,3.78.15,4.22-.38Z"/>
          <path class="st3" d="M347.1,401.59c-2.9-9.57-7.18-17.59-10.3-23.44l-.58-1.08c-11.44-21.49-22.2-45.84-32.54-73.7-.37-1-.75-2.01-1.12-3.03-.43-1.18-.86-2.36-1.29-3.55-.12-.12-.26-.22-.41-.32-1.39-.92-2.7-.45-3.33.39-.21.27-.35.61-.42.97.43,1.19.86,2.38,1.3,3.56.33.91.67,1.82,1,2.72.89,2.41,1.79,4.8,2.69,7.16,9.67,25.39,19.72,47.83,30.36,67.81l.58,1.08c3.04,5.69,7.2,13.49,9.98,22.66,3.29,10.86,3.85,20.86,1.7,30.56-3.21,14.47-11.16,23.85-16.97,30.7-13.29,15.67-28.47,23.75-38.87,27.77-6.54,2.53-12.99,4.16-19.17,4.85-5.82.65-11.18.41-15.52-.69-2.05-.52-6.86-1.75-10.63-5.86-5.88-6.42-5.2-15.36-4.9-19.18.49-6.33,2.84-12.94,6.63-18.62,4.05-6.07,9.56-10.91,15.94-14.02,6.48-3.15,13.58-4.41,21.12-3.75,5.69.5,10.16,2,12.32,2.84,5.53,2.17,10.54,5.46,14.9,9.78.84.83,2.18.82,3.01-.01.83-.84.82-2.18-.01-3.01-4.77-4.73-10.27-8.34-16.35-10.72-2-.78-5.81-2.07-10.68-2.79-.09-1.16.03-2.64.8-4.8.69-1.93,1.85-3.68,3.19-5.09.69,1.11,1.7,2.2,3.19,2.91,2.15,1.03,4.88,1.06,7.13.08,1.55-.68,2.63-1.77,3.02-3.07.88-2.88-1.82-6.29-4.73-7.29-2.08-.72-4.38-.38-6.58.66l-34.86-87.04-2.59-6.47-.05-.12-3.81-9.42-.18-.43-.68-1.67c-.1-.09-.19-.18-.29-.27-.48-.44-.97-.85-1.49-1.23-.06-.05-.13-.09-.19-.13-.01.03-.03.05-.04.08l-.95,1.77c-.06.12-.13.24-.19.36-.09.17-.18.34-.27.51-.13.24-.26.49-.39.73l.99,2.47.04.11,1.03,2.58,40.28,100.57c-2.49,2.14-4.56,5.03-5.61,7.98-.85,2.39-1.1,4.26-1.07,5.8-7.78-.45-15.14.98-21.9,4.27-7.06,3.43-13.15,8.79-17.62,15.48-4.25,6.37-6.79,13.51-7.34,20.66-.31,4-1.12,14.61,6.01,22.38,4.63,5.05,10.51,6.55,12.72,7.12,3.14.8,6.63,1.19,10.37,1.19,8.16,0,17.51-1.88,26.9-5.51,10.86-4.19,26.72-12.63,40.59-28.98,5.75-6.78,14.44-17.03,17.88-32.53,2.28-10.29,1.68-21.3-1.78-32.72ZM296.77,417.42s.07.03.11.04c.03.01.06.03.1.04.03.01.07.03.1.05.07.03.13.07.19.1.05.03.09.06.14.09s.09.06.14.09c.04.03.07.06.11.08.02.01.04.03.05.04.02.01.04.03.05.04.07.06.13.12.2.18l.04.04.04.04c.11.11.21.23.3.34.02.03.04.06.06.08.02.03.04.06.06.09.02.03.04.06.06.08.02.03.04.05.05.08.02.03.03.05.05.08.01.02.02.04.04.07.02.04.04.08.06.12.01.03.02.05.03.07,0,.02.01.03.02.05,0,.03.02.05.02.08,0,.02.01.05.02.07-.03.04-.07.07-.11.11-.05.04-.11.08-.18.12-.04.02-.07.04-.12.07-.04.02-.08.04-.13.06-.02.01-.04.02-.07.03-.05.02-.1.04-.15.06-.02.01-.05.02-.08.03-.08.03-.16.06-.25.08-.03,0-.06.02-.09.02-.05.02-.1.03-.16.04-.01,0-.03,0-.04,0-.06.01-.11.02-.17.04,0,0-.02,0-.03,0-.09.02-.18.03-.27.04-.07,0-.13.02-.2.02-.04,0-.07,0-.11,0,0,0-.01,0-.02,0-.06,0-.12,0-.18,0-.07,0-.14,0-.22,0-.07,0-.15,0-.22,0,0,0,0,0,0,0-.07,0-.14-.01-.22-.02,0,0,0,0,0,0-.15-.02-.29-.04-.44-.08t0,0c-.07-.02-.15-.04-.22-.06-.04,0-.07-.02-.11-.03h0c-.07-.02-.15-.05-.22-.08-.04-.01-.07-.03-.11-.04-.04-.01-.07-.03-.11-.05-.1-.05-.19-.1-.28-.16-.05-.03-.09-.06-.13-.09-.03-.02-.06-.04-.09-.07,0,0,0,0,0,0-.02-.01-.04-.03-.05-.04,0,0,0,0-.01-.01,0,0,0,0,0,0-.02-.01-.04-.03-.06-.05,0,0-.01-.01-.02-.02-.04-.03-.08-.07-.12-.1-.06-.05-.11-.11-.17-.17-.03-.04-.07-.07-.1-.1-.04-.05-.08-.1-.12-.14-.03-.04-.06-.07-.08-.11-.03-.04-.06-.07-.08-.11-.02-.04-.05-.07-.07-.11-.03-.04-.05-.08-.08-.12-.02-.02-.03-.05-.05-.08-.01-.02-.03-.05-.04-.08-.03-.05-.06-.1-.08-.15,1.44-.77,2.82-1.06,3.83-.71Z"/>
        </g>
      </g>
      <g>
        <path class="st1" d="M145.5,484.43c-5.13,0-10.86-.91-17.08-2.73-11.98-3.51-25.51-10.37-38.09-19.31-12.86-9.14-24.02-19.96-31.42-30.45-8.43-11.94-11.83-23.16-9.85-32.46,1.45-6.81,5.33-12.75,11.55-17.68l2.65,3.34c-5.41,4.29-8.79,9.41-10.03,15.22-1.72,8.1,1.45,18.17,9.17,29.11,7.13,10.11,17.93,20.56,30.41,29.43,12.2,8.68,25.28,15.32,36.82,18.69,12.39,3.63,22.45,3.41,29.11-.62,3.89-2.36,7.03-5.54,8.62-8.74l3.82,1.89c-1.96,3.96-5.59,7.69-10.23,10.5-4.17,2.53-9.38,3.79-15.43,3.79Z"/>
        <path class="st3" d="M103.75,441.79c-.64,0-1.27-.29-1.69-.83-5.28-6.89-9.08-12.79-12.43-18-6.83-10.61-11.33-17.62-22.13-23.36-4.21-2.23-8.74-3.93-13.47-5.05l-2.85-.67,1.52-2.5c4.02-6.64,9.21-11.61,15.41-14.77,5.22-2.66,11.03-3.95,17.27-3.81,5.02.11,10.36,1.14,15.85,3.06,4.36,1.52,11.11,4.43,18.57,9.64,5.89,4.11,11.69,9.65,16.34,15.6.36.47.72.93,1.06,1.39,11.89-21.65,20.56-37.11,28.96-52.07,8.8-15.7,17.91-31.92,30.72-55.28.57-1.03,1.86-1.41,2.89-.84,1.03.57,1.41,1.86.84,2.89-12.82,23.38-21.93,39.62-30.74,55.32-8.63,15.39-17.55,31.29-29.97,53.93,2.25,3.59,3.68,6.84,4.07,9.35.3,1.93,0,3.49-.87,4.64-1.74,2.27-5.91,2.84-8.27,1.11-2.3-1.68-2.75-5.19-1.39-10.73.35-1.43.86-2.82,1.51-4.15-.66-.96-1.39-1.93-2.16-2.92-4.4-5.62-9.88-10.85-15.43-14.73-7.06-4.93-13.43-7.67-17.54-9.11-11.32-3.96-21.33-3.78-29.77.52-4.71,2.4-8.78,6.02-12.13,10.77,4.04,1.16,7.92,2.73,11.57,4.67,11.78,6.26,16.79,14.04,23.72,24.82,3.3,5.14,7.05,10.96,12.22,17.71.72.93.54,2.27-.39,2.99-.39.3-.84.44-1.29.44ZM137.75,411.16c-.06.21-.12.42-.17.64-1.28,5.23-.24,6.27-.23,6.28.5.37,2.07.14,2.37-.26.06-.07.19-.49.04-1.4-.22-1.4-.92-3.21-2.01-5.25Z"/>
        <path class="st1" d="M156.18,480.53c-3.71,0-7.24-1.61-11.21-3.41-1.25-.57-2.55-1.16-3.93-1.74-5.53-2.32-13.23-6.34-23.78-16.9-.83-.83-.83-2.18,0-3.01.83-.83,2.18-.83,3.01,0,10.03,10.04,17.25,13.82,22.42,15.99,1.45.61,2.77,1.21,4.05,1.79,4.67,2.12,8.04,3.66,11.48,2.77,8.16-2.1,12.19-13.65,13.52-17.44l.15-.41c7.51-21.36,28.91-64.2,73.86-147.88.56-1.04,1.85-1.42,2.88-.87,1.04.56,1.43,1.85.87,2.88-44.84,83.46-66.16,126.13-73.59,147.27l-.14.41c-.79,2.26-2.26,6.48-4.79,10.54-3.25,5.22-7.18,8.46-11.69,9.62-1.05.27-2.09.39-3.1.39Z"/>
      </g>
    </g>
    <path class="st2" d="M254.57,321.8c-5.77-3.86-3.28-6.39-7.37-5.49-5,1.1-6.55,3.46-6.85,4.05,2.25-4.45,3.56-8.12,5.1-12.22.76-2.05,3.13-1.96,4.32-.12l4.81,13.78Z"/>
  </g>
  <g>
    <g>
      <path class="st2" d="M211.65,192.63c-8.63,0-15.65-9.26-15.65-20.64s7.02-20.64,15.65-20.64,15.65,9.26,15.65,20.64-7.02,20.64-15.65,20.64ZM211.65,154.74c-6.76,0-12.26,7.74-12.26,17.25s5.5,17.25,12.26,17.25,12.26-7.74,12.26-17.25-5.5-17.25-12.26-17.25Z"/>
      <ellipse class="st2" cx="207.39" cy="171.42" rx="9.84" ry="13.25"/>
      <ellipse class="st2" cx="276.68" cy="171.42" rx="9.84" ry="13.25"/>
      <path class="st2" d="M281.08,192.63c-8.63,0-15.65-9.26-15.65-20.64s7.02-20.64,15.65-20.64,15.65,9.26,15.65,20.64-7.02,20.64-15.65,20.64ZM281.08,154.74c-6.76,0-12.26,7.74-12.26,17.25s5.5,17.25,12.26,17.25,12.26-7.74,12.26-17.25-5.5-17.25-12.26-17.25Z"/>
    </g>
    <path class="st2" d="M293.43,209.99c-.34.31-.78.51-1.24.51-.42,0-.85-.17-1.22-.56-1.93-2.04-4.84-3.18-7.63-2.97-2.39.18-4.42,1.33-5.73,3.23-1.55,2.26-2.02,4.98-1.33,7.65.34,1.27.91,2.46,1.71,3.52.74.99,1.65,1.82,2.68,2.48.56.36.87.93.84,1.58-.03.69-.43,1.33-1.02,1.63-.23.12-.48.18-.73.18-.32,0-.64-.1-.95-.29-1.35-.87-2.54-1.95-3.52-3.22-15.64,12.87-42.12,13.53-57.63.54-.81.97-1.77,1.82-2.84,2.54-.3.2-.63.31-.96.31-.24,0-.47-.06-.69-.17-.58-.29-.99-.93-1.04-1.61-.04-.66.26-1.25.81-1.62.77-.51,1.47-1.13,2.05-1.85.83-1.02,1.44-2.2,1.79-3.49.85-3.1.11-6.37-2-8.74-1.61-1.82-3.87-2.82-6.35-2.82-2.57,0-5,1.11-6.68,3.01-.73.83-1.76.69-2.39.13-.69-.61-.99-1.74-.2-2.64,2.41-2.73,5.93-4.21,9.68-4.09,3.67.13,7,1.82,9.16,4.65,2.84,3.73,3.51,8.52,1.78,12.83-.02.05-.04.11-.07.16,14.17,12.34,39.38,11.7,53.62-.57-.02-.05-.04-.11-.07-.16-1.68-4.36-1-9.06,1.82-12.59,2.06-2.57,5.07-4.06,8.49-4.2,3.71-.15,7.44,1.36,9.97,4.05.8.85.53,1.97-.12,2.58Z"/>
  </g>
</svg>