<svg width="33" height="27" viewBox="0 0 33 27" fill="none" xmlns="http://www.w3.org/2000/svg">
<path d="M5.11097 13.5342C2.29259 13.5342 0 10.4982 0 6.7671C0 3.03602 2.29259 0 5.11097 0C7.92936 0 10.222 3.03602 10.222 6.7671C10.222 10.4982 7.92936 13.5342 5.11097 13.5342ZM5.11097 1.11146C2.90329 1.11146 1.10711 3.64912 1.10711 6.7671C1.10711 9.88508 2.90329 12.4227 5.11097 12.4227C7.31865 12.4227 9.11484 9.88508 9.11484 6.7671C9.11484 3.64912 7.31865 1.11146 5.11097 1.11146Z" fill="#383838"/>
<path d="M3.71792 10.9236C5.49272 10.9236 6.93147 8.97864 6.93147 6.57941C6.93147 4.18018 5.49272 2.23522 3.71792 2.23522C1.94313 2.23522 0.504378 4.18018 0.504378 6.57941C0.504378 8.97864 1.94313 10.9236 3.71792 10.9236Z" fill="#383838"/>
<path d="M26.348 10.9236C28.1228 10.9236 29.5615 8.97864 29.5615 6.57941C29.5615 4.18018 28.1228 2.23522 26.348 2.23522C24.5732 2.23522 23.1344 4.18018 23.1344 6.57941C23.1344 8.97864 24.5732 10.9236 26.348 10.9236Z" fill="#383838"/>
<path d="M27.7844 13.5342C24.966 13.5342 22.6734 10.4982 22.6734 6.7671C22.6734 3.03602 24.966 0 27.7844 0C30.6027 0 32.8953 3.03602 32.8953 6.7671C32.8953 10.4982 30.6027 13.5342 27.7844 13.5342ZM27.7844 1.11146C25.5767 1.11146 23.7805 3.64912 23.7805 6.7671C23.7805 9.88508 25.5767 12.4227 27.7844 12.4227C29.992 12.4227 31.7882 9.88508 31.7882 6.7671C31.7882 3.64912 29.992 1.11146 27.7844 1.11146Z" fill="#383838"/>
<path d="M31.819 19.2256C31.708 19.3272 31.5643 19.3928 31.4141 19.3928C31.2769 19.3928 31.1365 19.3371 31.0157 19.2092C30.3854 18.5403 29.435 18.1666 28.5238 18.2354C27.7433 18.2945 27.0804 18.6715 26.6525 19.2944C26.1463 20.0354 25.9929 20.9272 26.2182 21.8026C26.3292 22.219 26.5154 22.6091 26.7766 22.9567C27.0183 23.2813 27.3155 23.5534 27.6519 23.7698C27.8348 23.8878 27.936 24.0747 27.9262 24.2878C27.9164 24.514 27.7858 24.7239 27.5931 24.8222C27.518 24.8616 27.4363 24.8812 27.3547 24.8812C27.2502 24.8812 27.1457 24.8484 27.0444 24.7861C26.6036 24.5009 26.2149 24.1468 25.8949 23.7304C20.7872 27.95 12.1393 28.1664 7.07409 23.9075C6.80956 24.2255 6.49604 24.5042 6.1466 24.7402C6.04863 24.8058 5.94085 24.8419 5.83308 24.8419C5.7547 24.8419 5.67959 24.8222 5.60774 24.7861C5.41832 24.6911 5.28443 24.4812 5.2681 24.2583C5.25504 24.0419 5.35301 23.8485 5.53263 23.7271C5.78409 23.5599 6.0127 23.3567 6.20212 23.1206C6.47318 22.7862 6.67239 22.3993 6.78669 21.9764C7.06429 20.96 6.82262 19.8879 6.13353 19.1108C5.60774 18.5141 4.86967 18.1863 4.05975 18.1863C3.22044 18.1863 2.42685 18.5502 1.8782 19.1731C1.63979 19.4453 1.30342 19.3994 1.09767 19.2157C0.872332 19.0158 0.774359 18.6453 1.03236 18.3502C1.81941 17.4551 2.96897 16.9699 4.19365 17.0092C5.3922 17.0518 6.47971 17.6059 7.18512 18.5338C8.11261 19.7567 8.33142 21.3272 7.76643 22.7403C7.7599 22.7567 7.75337 22.7763 7.74357 22.7927C12.3712 26.8386 20.6043 26.6287 25.2548 22.6059C25.2482 22.5895 25.2417 22.5698 25.2319 22.5534C24.6833 21.1239 24.9053 19.583 25.8263 18.4256C26.499 17.583 27.4821 17.0945 28.599 17.0486C29.8106 16.9994 31.0287 17.4945 31.855 18.3764C32.1162 18.6551 32.0281 19.0223 31.8158 19.2223L31.819 19.2256Z" fill="#383838"/>
</svg>
