<svg width="61" height="59" viewBox="0 0 61 59" fill="none" xmlns="http://www.w3.org/2000/svg">
<path d="M43.4898 2.99863C37.3569 14.2272 31.2273 25.4524 25.0945 36.681L24.5426 37.6914L23.9095 36.7299C22.4323 34.4874 20.2148 32.2091 17.9714 30.6381C15.6761 29.0312 13.608 28.1349 12.2769 27.6688C8.60496 26.3814 5.35186 26.4368 2.61172 27.8416C1.90396 28.2033 1.23516 28.6564 0.615056 29.1909L0.16053 28.8259C-0.310229 29.2007 0.449479 30.6185 0.00144654 31.0911C0.378053 30.6381 0.0631322 29.7483 0.569603 29.305C1.1962 28.7542 1.44943 27.659 2.2968 27.2255C9.23481 23.6728 17.2247 29.2757 18.3675 30.071C20.8999 31.8441 23.1141 34.2625 24.4874 36.3485C30.6202 25.12 36.7498 13.8947 42.8827 2.66617C43.2495 1.99148 43.6197 1.31679 43.9865 0.645359C44.1034 0.430241 44.2203 0.215119 44.3372 0C44.3436 0 44.3469 0.00326574 44.3534 0.00652511C44.6099 0.130381 44.7462 0.335719 44.8177 0.563875L44.1229 1.83829L43.6261 2.74766L43.4865 3.00189L43.4898 2.99863Z" fill="white"/>
<path d="M59.771 6.42829C46.6806 31.0235 38.4699 47.2943 36.3272 53.4121C36.2298 53.6892 36.0902 54.1031 35.8954 54.5953C35.6519 55.2146 35.324 55.9512 34.8954 56.6748C34.4571 57.4114 33.915 58.1317 33.2462 58.6956L34.324 56.2804C34.9928 55.1461 35.4051 53.9597 35.6292 53.3111L35.6746 53.1807C37.7362 47.3008 45.1969 32.3403 59.1606 6.0991C59.2515 5.92636 59.3424 5.75686 59.4333 5.58412L59.7547 6.38918L59.7677 6.42504L59.771 6.42829Z" fill="white"/>
<path d="M60.6525 4.89652L60.6233 4.82808C60.6233 4.82808 60.6168 4.83785 60.6136 4.84437C60.6038 4.86393 60.5908 4.88674 60.5811 4.9063C60.6136 4.93563 60.6428 4.96496 60.6752 4.9943C60.6817 5.00082 60.6915 5.00734 60.698 5.01712L60.6493 4.89652H60.6525ZM60.9122 5.54839C60.9122 5.54839 60.9025 5.54187 60.896 5.54187L60.9545 5.68203L60.9609 5.66899L60.9999 5.59728C60.9707 5.58099 60.9415 5.56469 60.9122 5.54839Z" fill="#383838"/>
</svg>
