<svg width="36" height="26" viewBox="0 0 36 26" fill="none" xmlns="http://www.w3.org/2000/svg">
<path d="M33.3829 16.9741C32.5133 16.0129 31.2105 15.453 29.9044 15.4821C28.7019 15.508 27.6318 16.0129 26.8916 16.9061C25.8765 18.1328 25.6049 19.7866 26.1674 21.3303C26.1739 21.3498 26.1804 21.3659 26.1868 21.3821C21.0985 25.6121 12.2279 25.6736 7.32067 21.2332C7.32713 21.2171 7.3336 21.2009 7.3433 21.1815C7.97691 19.6765 7.77325 17.9806 6.8002 16.6505C6.05991 15.6407 4.89613 15.0258 3.60627 14.9546C2.28733 14.8834 1.03949 15.385 0.173123 16.3301C-0.111356 16.6408 -0.0111375 17.0421 0.228084 17.2622C0.447909 17.466 0.806741 17.5178 1.07182 17.233C1.67634 16.5728 2.53947 16.2006 3.4414 16.2136C4.31747 16.2265 5.10302 16.5922 5.65905 17.246C6.38318 18.0939 6.62563 19.2526 6.30559 20.34C6.17305 20.7931 5.95323 21.2009 5.65259 21.5569C5.44246 21.8061 5.19677 22.0197 4.92199 22.1945C4.72156 22.3239 4.61488 22.5278 4.62458 22.7576C4.63428 23.0003 4.77329 23.2269 4.98018 23.3337C5.05777 23.3725 5.13858 23.3952 5.22263 23.3984C5.33578 23.3984 5.45539 23.366 5.56207 23.2981C5.94353 23.0521 6.2862 22.7608 6.57715 22.421C6.57715 22.421 6.57714 22.4178 6.58038 22.4145C11.9532 27.0879 21.2634 27.0264 26.8528 22.5958C26.8528 22.5958 26.8528 22.599 26.8528 22.6022C27.1922 23.0586 27.6028 23.4469 28.0747 23.7609C28.1782 23.8288 28.2946 23.8677 28.4077 23.8677C28.495 23.8677 28.5823 23.8515 28.6663 23.8094C28.8732 23.7059 29.0187 23.4826 29.0349 23.2431C29.0478 23.0165 28.9476 22.8126 28.7504 22.6799C28.3883 22.4404 28.078 22.1427 27.8226 21.7899C27.5478 21.4112 27.3506 20.9905 27.2407 20.5406C27.0144 19.5956 27.1954 18.6409 27.7579 17.8577C28.2299 17.1942 28.954 16.8026 29.7945 16.754C29.8721 16.7508 29.9497 16.7476 30.0273 16.7508C30.9357 16.767 31.8505 17.178 32.4583 17.8512C32.7266 18.1457 33.0951 18.0939 33.3247 17.8868C33.5607 17.6732 33.6576 17.2848 33.3829 16.9773V16.9741Z" fill="#383838"/>
<path d="M35.9126 6.10589C35.0495 4.59771 33.6562 3.65592 31.8879 3.38406C29.5797 3.03453 26.7899 3.87923 24.7306 5.51363C26.111 2.39048 28.1929 1.5037 29.3567 1.2545C29.7414 1.17035 29.8804 0.824053 29.8157 0.526302C29.7478 0.215606 29.4601 -0.0691993 29.0528 0.0149476C27.375 0.37419 25.8718 1.41308 24.7015 3.01834C23.6994 4.39382 22.9753 6.1512 22.652 7.96683C22.5873 8.33578 22.8395 8.64 23.1078 8.7371C23.1725 8.75975 23.2371 8.7727 23.2985 8.7727C23.5087 8.77593 23.6994 8.66266 23.8125 8.45229C24.999 6.31949 28.1282 4.57183 30.7888 4.55564C30.8372 4.55564 30.889 4.55564 30.9375 4.55564C32.1821 4.5783 33.8113 4.98933 34.8038 6.72728C35.0075 7.08329 35.3922 7.10918 35.6702 6.95059C35.9417 6.79524 36.113 6.45542 35.9126 6.10265V6.10589Z" fill="#383838"/>
</svg>
