<svg width="38" height="29" viewBox="0 0 38 29" fill="none" xmlns="http://www.w3.org/2000/svg">
<path d="M0.0827625 6.1092C0.931702 4.62596 2.30518 3.69807 4.04792 3.43247C6.32211 3.08753 9.06909 3.91883 11.1017 5.52625C9.74202 2.45629 7.69214 1.58014 6.54642 1.33868C6.16682 1.25589 6.03223 0.917855 6.09435 0.624656C6.15991 0.317659 6.44634 0.0382588 6.84666 0.124494C8.49967 0.476333 9.98014 1.5008 11.1328 3.07718C12.1197 4.42935 12.8341 6.1575 13.1516 7.94429C13.2137 8.30993 12.9687 8.60658 12.703 8.69971C12.6408 8.72041 12.5753 8.7342 12.5132 8.7342C12.3061 8.73765 12.1197 8.62382 12.0059 8.4203C10.836 6.32307 7.75427 4.60526 5.13153 4.58802C5.08322 4.58802 5.0349 4.58802 4.98659 4.58802C3.76149 4.60871 2.15334 5.01229 1.17671 6.7232C0.976558 7.07504 0.596951 7.09918 0.324324 6.94396C0.0551486 6.79219 -0.110499 6.45414 0.0862065 6.1092H0.0827625Z" fill="#383838"/>
<path d="M32.6834 4.42269C30.0641 4.53307 27.0479 6.36471 25.954 8.50333C25.847 8.71375 25.6641 8.83103 25.457 8.83448C25.3949 8.83448 25.3328 8.82413 25.2672 8.80688C24.998 8.72065 24.7392 8.43435 24.791 8.06526C25.0395 6.26812 25.6951 4.51582 26.6303 3.12916C27.7209 1.50795 29.1668 0.435183 30.806 0.0212543C31.2029 -0.0787784 31.4997 0.190273 31.5756 0.493821C31.6481 0.783571 31.5273 1.12851 31.1477 1.22509C30.0089 1.51139 27.9935 2.45998 26.7477 5.57824C28.7147 3.89838 31.4341 2.96359 33.7186 3.22575C35.4717 3.42926 36.8763 4.30196 37.7804 5.75416C37.9909 6.09565 37.8357 6.43369 37.5734 6.59926C37.4698 6.6648 37.3525 6.70275 37.2283 6.70275C37.035 6.7062 36.8418 6.61996 36.7106 6.40955C35.627 4.6676 33.9188 4.3675 32.6799 4.41924L32.6834 4.42269Z" fill="#383838"/>
<path d="M6.0071 15.3302C7.19079 15.3543 8.24677 15.8511 8.97493 16.7307C9.97571 17.9345 10.2414 19.5626 9.68583 21.0838C9.67893 21.1045 9.67203 21.1217 9.66512 21.139C14.6794 25.299 23.4207 25.3576 28.2555 20.9941C28.2486 20.9769 28.2417 20.9562 28.2313 20.9389C27.6067 19.4591 27.8069 17.7931 28.7662 16.4823C29.4944 15.4889 30.6436 14.8818 31.9135 14.8162C33.2111 14.7472 34.4431 15.2405 35.2955 16.1718C35.575 16.4788 35.4749 16.8721 35.2403 17.0859C35.0263 17.286 34.6674 17.3377 34.4086 17.0549C33.815 16.4064 32.9626 16.0373 32.0757 16.0546C31.213 16.0684 30.44 16.4271 29.8913 17.0687C29.1769 17.9034 28.9388 19.0417 29.2528 20.1111C29.3805 20.556 29.6014 20.9562 29.8947 21.308C30.1018 21.5529 30.3433 21.7633 30.616 21.9358C30.8127 22.06 30.9197 22.2635 30.9093 22.4912C30.8989 22.7292 30.7609 22.9534 30.5608 23.0569C30.4848 23.0948 30.4055 23.1189 30.3226 23.1189C30.2088 23.1189 30.0949 23.0879 29.9879 23.0189C29.6117 22.7775 29.277 22.4877 28.9871 22.1566C27.4169 23.5191 25.5051 24.4711 23.4518 25.0265C23.5898 25.4025 23.6623 25.7991 23.6519 26.1993C23.6519 26.3165 23.6243 26.6373 23.4587 26.9892C23.7554 27.1685 23.9832 27.3721 24.1488 27.5445C24.3214 27.7239 24.3145 28.0067 24.135 28.1792C23.9556 28.3482 23.6726 28.3413 23.5001 28.1654C23.3551 28.0137 23.1481 27.8343 22.872 27.686C22.7201 27.6066 22.5476 27.5376 22.3543 27.4859C21.5813 27.2927 20.9601 27.5583 20.6944 27.6722C20.6151 27.7066 20.5391 27.7446 20.4667 27.7825C20.2078 27.9205 19.9939 28.0895 19.8179 28.2586C19.5522 28.5138 19.3796 28.7725 19.2761 28.9519C19.2657 28.9691 19.2554 28.9829 19.245 29.0002C19.2381 28.9898 19.2312 28.9829 19.2243 28.9726C19.1104 28.7932 18.9206 28.5345 18.6411 28.2827C18.4685 28.1309 18.2615 27.9861 18.0199 27.8619C17.9371 27.817 17.8508 27.7791 17.7611 27.7446C17.4919 27.6411 16.8604 27.3962 16.0977 27.617C15.9355 27.6618 15.7906 27.7239 15.6629 27.7929C15.3523 27.9585 15.128 28.1654 14.9762 28.3344C14.8105 28.5207 14.5275 28.538 14.3412 28.3724C14.1583 28.2068 14.141 27.924 14.3032 27.7411C14.4758 27.5445 14.7242 27.31 15.059 27.1065C14.8933 26.7753 14.8623 26.4718 14.8554 26.3579C14.8312 25.9509 14.8933 25.537 15.0245 25.1506C12.8159 24.6401 10.7384 23.695 9.01979 22.3325C8.68505 22.7809 8.27784 23.1638 7.81541 23.4708C7.71188 23.5398 7.60144 23.5743 7.48756 23.5777C7.40129 23.5777 7.31502 23.5605 7.23219 23.5191C7.02859 23.419 6.88365 23.1983 6.86985 22.9603C6.85604 22.7361 6.95612 22.536 7.14937 22.4084C7.50482 22.1738 7.81196 21.8772 8.06388 21.5322C8.33651 21.1597 8.52631 20.7458 8.63674 20.3042C8.86105 19.3729 8.6816 18.4347 8.12945 17.6654C7.66357 17.0135 6.94921 16.6272 6.12098 16.5789C6.04506 16.5754 5.96914 16.572 5.89322 16.5754C4.99941 16.5927 4.09871 16.9963 3.49824 17.6585C3.23597 17.9483 2.87016 17.8965 2.64585 17.693C2.41464 17.4826 2.31456 17.0997 2.59063 16.7962C3.44993 15.8511 4.73024 15.3026 6.01746 15.3302H6.0071ZM22.5718 26.6132C22.5925 26.6166 22.6166 26.6235 22.6373 26.6304C22.7512 26.4166 22.7581 26.2096 22.7581 26.1786C22.765 25.8578 22.6994 25.5335 22.5718 25.2369C21.7194 25.4162 20.8463 25.5266 19.9697 25.5749C19.9697 25.737 19.987 25.9164 20.056 26.1096C20.0905 26.2062 20.2182 26.5201 20.5219 26.7684C20.9222 26.6097 21.6676 26.3821 22.5718 26.6097V26.6132ZM19.6867 27.2065C19.4624 26.9547 19.3278 26.6994 19.2554 26.527C19.1829 26.7167 19.0449 26.9995 18.7998 27.2789C18.9517 27.379 19.0897 27.4859 19.214 27.5928C19.352 27.4583 19.5107 27.3272 19.6902 27.203L19.6867 27.2065ZM15.7457 26.3062C15.7457 26.3338 15.763 26.5373 15.8803 26.7443C16.7983 26.489 17.5644 26.7167 17.9509 26.8581C18.2822 26.589 18.4099 26.2441 18.4444 26.1406C18.51 25.9406 18.5203 25.7577 18.51 25.5956C17.6369 25.5715 16.7638 25.4818 15.9079 25.33C15.7871 25.6405 15.7285 25.9751 15.7457 26.3062Z" fill="#383838"/>
</svg>
