<svg width="66" height="63" viewBox="0 0 66 63" fill="none" xmlns="http://www.w3.org/2000/svg">
<path d="M31.8157 62.3821C30.1458 62.3821 28.2807 62.0848 26.256 61.49C22.3565 60.343 17.9524 58.1012 13.8575 55.1798C9.67148 52.1929 6.03882 48.6571 3.63008 45.2291C0.886056 41.3273 -0.220666 37.6608 0.423837 34.6217C0.895822 32.3963 2.15879 30.4551 4.18344 28.8441L5.04603 29.9356C3.28504 31.3375 2.18483 33.0106 1.7812 34.9092C1.22133 37.5562 2.25318 40.8469 4.76609 44.422C7.08696 47.7258 10.6024 51.1407 14.6647 54.0393C18.6359 56.8758 22.8936 59.0456 26.6499 60.1469C30.6829 61.3331 33.9575 61.2613 36.1254 59.9443C37.3916 59.1731 38.4137 58.1339 38.9313 57.0882L40.1747 57.7058C39.5367 58.9999 38.3551 60.2188 36.8448 61.1371C35.4874 61.9638 33.7915 62.3756 31.8222 62.3756L31.8157 62.3821Z" fill="#383838" stroke="#383838" stroke-width="0.487526" stroke-miterlimit="10"/>
<path d="M18.2251 48.4478C18.0168 48.4478 17.8117 48.353 17.675 48.1766C15.9563 45.925 14.7194 43.997 13.6289 42.2944C11.4057 38.8272 9.94094 36.5365 6.42547 34.6607C5.05509 33.932 3.58054 33.3764 2.0409 33.0104L1.1132 32.7915L1.60797 31.9745C2.91651 29.8047 4.60589 28.1805 6.62403 27.1479C8.32317 26.2787 10.2144 25.8571 12.2455 25.9029C13.8796 25.9388 15.6178 26.2754 17.4048 26.9028C18.824 27.3995 21.0212 28.3505 23.4495 30.053C25.3667 31.3961 27.2546 33.2065 28.7682 35.1509C28.8854 35.3045 29.0026 35.4548 29.1133 35.6051C32.9835 28.5302 35.8057 23.4781 38.5399 18.5894C41.4044 13.4589 44.3698 8.15838 48.5395 0.524665C48.725 0.188075 49.1449 0.063888 49.4802 0.250156C49.8155 0.436424 49.9392 0.857983 49.7536 1.19457C45.5806 8.83483 42.6153 14.1418 39.7476 19.2724C36.9384 24.3016 34.0349 29.4975 29.9921 36.8959C30.7245 38.0691 31.19 39.1312 31.317 39.9514C31.4146 40.5821 31.317 41.0919 31.0338 41.4677C30.4674 42.2095 29.11 42.3957 28.3418 41.8304C27.5932 41.2814 27.4467 40.1344 27.8894 38.324C28.0033 37.8567 28.1693 37.4025 28.3809 36.9678C28.166 36.6541 27.9284 36.3371 27.6778 36.0136C26.2456 34.1771 24.4618 32.468 22.6552 31.2001C20.3571 29.589 18.2837 28.6936 16.9458 28.223C13.2611 26.929 10.0028 26.9878 7.25551 28.393C5.72238 29.1773 4.39756 30.3602 3.30712 31.9125C4.62216 32.2915 5.88513 32.8046 7.07323 33.4385C10.9077 35.4842 12.5385 38.0266 14.7942 41.5494C15.8684 43.229 17.0891 45.1309 18.7719 47.3368C19.0063 47.6407 18.9477 48.0786 18.645 48.3138C18.518 48.4119 18.3716 48.4576 18.2251 48.4576V48.4478ZM29.2923 38.4384C29.2728 38.507 29.2532 38.5756 29.237 38.6475C28.8203 40.3566 29.1588 40.6965 29.1621 40.6997C29.3249 40.8206 29.8359 40.7455 29.9336 40.6148C29.9531 40.5919 29.9954 40.4546 29.9466 40.1573C29.875 39.6998 29.6471 39.1083 29.2923 38.4416V38.4384Z" fill="#383838" stroke="#383838" stroke-width="0.325017" stroke-miterlimit="10"/>
<path d="M35.2952 61.1077C34.0876 61.1077 32.9385 60.5816 31.6463 59.9933C31.2394 59.8071 30.8162 59.6143 30.367 59.4247C28.567 58.6666 26.0606 57.3529 22.6265 53.9021C22.3563 53.6308 22.3563 53.1897 22.6265 52.9184C22.8966 52.6472 23.3361 52.6472 23.6062 52.9184C26.8711 56.1994 29.2212 57.4346 30.9041 58.1437C31.3761 58.3431 31.8058 58.5391 32.2224 58.7287C33.7425 59.4215 34.8395 59.9247 35.9592 59.6339C38.6154 58.9476 39.9271 55.1733 40.3601 53.9347L40.4089 53.8008C42.8534 46.8206 49.8193 32.8211 64.4508 5.47566C64.6331 5.1358 65.053 5.01162 65.3883 5.19136C65.7268 5.37436 65.8537 5.7959 65.6715 6.13249C51.0757 33.406 44.1359 47.35 41.7174 54.2583L41.6719 54.3922C41.4147 55.1308 40.9362 56.5098 40.1127 57.8366C39.0548 59.5424 37.7755 60.6012 36.3075 60.9802C35.9657 61.0685 35.6272 61.1077 35.2984 61.1077H35.2952Z" fill="#383838" stroke="#383838" stroke-width="0.487526" stroke-miterlimit="10"/>
</svg>
