<svg width="168" height="207" viewBox="0 0 168 207" fill="none" xmlns="http://www.w3.org/2000/svg">
<path d="M42.9856 164.326C46.995 168.193 56.921 165.291 61.4816 161.321C62.0034 160.866 63.705 159.387 65.0831 157.136C65.2264 156.903 65.366 156.663 65.4983 156.411C65.6269 156.171 65.7519 155.927 65.8695 155.672C66.1378 155.092 66.3766 154.474 66.5604 153.828C66.7294 153.232 66.8507 152.634 66.994 151.939C67.2439 150.708 67.4607 149.628 67.56 148.604C69.7282 150.027 71.731 151.266 73.5722 152.342C73.7927 152.471 74.0095 152.597 74.2263 152.722C74.4468 152.852 74.6636 152.974 74.8805 153.096C83.3585 157.916 87.9302 159.103 87.9302 159.103C89.8963 159.487 93.7476 159.92 97.5255 157.979C97.5255 157.979 100.289 156.559 102.494 153.543C105.893 148.896 109.785 133.625 111.906 116.595C112.023 115.638 112.137 114.677 112.244 113.712C112.273 113.457 112.299 113.198 112.328 112.939C112.211 112.891 112.089 112.865 111.964 112.865C111.839 112.865 111.725 112.891 111.608 112.943C111.487 114.078 111.354 115.213 111.215 116.344C111.159 116.791 111.104 117.242 111.046 117.689C110.145 124.624 108.929 131.433 107.518 137.378C105.688 145.096 103.699 150.682 101.921 153.114C99.837 155.961 97.2278 157.325 97.2021 157.336C93.902 159.032 90.4328 158.851 88.0919 158.397C87.8861 158.341 85.9604 157.794 82.528 156.227C80.7457 155.413 78.3569 154.23 75.4207 152.567C77.7984 150.179 81.0617 145.806 84.5051 140.228C85.615 140.656 86.5888 140.904 87.3716 140.904C87.5406 140.904 87.7023 140.893 87.853 140.867C90.1829 140.498 91.6602 137.171 92.5055 130.402C92.7297 128.62 92.9061 126.58 93.0384 124.292C94.1372 121.907 95.1919 119.456 96.1731 116.968C96.3237 116.588 96.4707 116.207 96.6177 115.826C96.8015 115.346 96.9852 114.861 97.1616 114.377L97.3895 113.76L96.9485 113.549C96.6104 113.501 96.2576 113.494 95.8975 113.542C95.7358 113.564 95.71 113.59 95.7652 113.616C95.7064 113.608 95.6476 113.601 95.5851 113.593C95.5006 113.582 95.4124 113.579 95.3242 113.579C94.942 113.575 94.512 113.653 94.0416 113.793C94.5414 114.011 95.0596 114.248 95.5924 114.495C95.4601 114.847 95.3242 115.202 95.1882 115.556C94.9934 116.059 94.795 116.566 94.5928 117.072C94.1519 118.17 93.6925 119.275 93.2147 120.384C92.9612 120.976 92.7003 121.567 92.4357 122.159C92.4063 122.82 92.3769 123.471 92.3401 124.107C92.3034 124.776 92.2593 125.43 92.2115 126.066C91.6088 134.32 90.2564 139.758 87.7464 140.157C87.0445 140.268 86.0486 140.047 84.891 139.607C84.6705 139.525 84.4463 139.433 84.2148 139.337C83.998 139.244 83.7775 139.148 83.5533 139.045C80.5729 137.681 76.9494 135.374 74.4027 133.755C74.3513 133.725 74.2778 133.677 74.1638 133.603C73.4362 133.145 71.7237 132.095 69.346 130.886C69.1365 130.779 68.9234 130.672 68.7065 130.565C68.4971 130.461 68.2803 130.358 68.0634 130.25C67.9752 130.21 67.8907 130.165 67.8025 130.125C67.7547 130.103 67.3652 129.921 67.0528 129.785C64.9397 128.853 59.2583 126.343 55.598 127.552C55.0321 127.74 54.5213 128.014 54.0619 128.354C53.8708 128.495 53.687 128.65 53.5107 128.816C53.3379 128.975 53.1689 129.149 53.0109 129.33C51.7283 130.779 50.9014 132.772 50.1922 134.561C48.8251 138.01 47.5903 141.122 46.5136 143.921C46.418 144.168 46.3225 144.412 46.2306 144.656C46.135 144.904 46.0432 145.148 45.9513 145.388C41.9199 156.023 40.4242 161.846 42.993 164.322L42.9856 164.326Z" fill="white"/>
<path d="M14.1143 147.943C14.7206 148.941 15.7423 149.743 17.1498 150.324C18.4617 150.867 20.1118 151.204 21.9199 151.3C25.4 151.485 29.1999 150.793 31.8312 149.496C33.6686 148.59 35.0578 147.566 36.1088 146.575C37.1599 145.581 37.8654 144.616 38.3358 143.825C38.6372 143.319 38.8981 142.783 39.2068 142.158C39.6882 141.178 40.0924 140.336 40.4085 139.548C40.1218 139.227 39.8315 138.898 39.5375 138.565C39.0635 138.025 37.95 136.761 38.2623 135.279C38.4498 134.384 39.1296 133.475 39.9528 133.02C40.4857 132.724 41.0296 132.658 41.4853 132.824C42.6502 133.256 42.6282 135.038 42.6098 136.099V136.125C42.5951 137.23 42.3856 138.24 42.0549 139.227C43.4293 140.746 44.7302 142.121 45.9466 143.359C46.1341 143.548 46.3178 143.736 46.5016 143.921C46.689 144.11 46.8727 144.295 47.0565 144.476C49.8237 147.222 52.1095 149.226 53.7853 150.601C56.7105 152.993 58.4341 154.013 58.6215 154.12C60.2311 154.897 62.4986 155.688 65.0563 155.699C65.3209 155.699 65.5929 155.691 65.8612 155.677C66.1331 155.662 66.405 155.636 66.6807 155.599C67.0151 155.555 67.3568 155.495 67.6986 155.421C67.7243 155.414 70.3483 154.823 72.9722 152.826C73.0934 152.734 73.211 152.642 73.3323 152.545C73.4095 152.483 73.4903 152.416 73.5712 152.346C73.7513 152.191 73.935 152.021 74.1298 151.836C76.4707 149.588 79.8002 145.115 83.1701 139.666C83.2951 139.463 83.4237 139.26 83.5487 139.053C83.6589 138.875 83.7655 138.694 83.8757 138.513C83.8904 138.487 83.9088 138.458 83.9235 138.432C86.7091 133.822 89.3293 128.88 91.6225 123.934C91.8944 123.346 92.1627 122.758 92.4273 122.167C92.6919 121.575 92.9528 120.984 93.2064 120.392C93.6841 119.283 94.1472 118.178 94.5845 117.08C94.7866 116.574 94.9851 116.067 95.1798 115.564C95.3158 115.21 95.4518 114.855 95.5841 114.503C95.0512 114.252 94.5367 114.019 94.0333 113.801C94.5037 113.661 94.9336 113.583 95.3158 113.587C95.404 113.587 95.4922 113.594 95.5767 113.601C95.6392 113.609 95.7936 113.723 95.8524 113.731C95.7972 113.705 95.7274 113.568 95.8891 113.55C96.2529 113.502 96.602 113.505 96.9401 113.557L97.3811 113.768L97.1533 114.385C96.9732 114.869 96.7931 115.354 96.6094 115.834C96.4624 116.215 96.3154 116.599 96.1647 116.977C95.1835 119.464 94.1288 121.915 93.03 124.3C92.8977 126.588 92.7213 128.625 92.4971 130.41C91.6519 137.179 90.1746 140.506 87.8447 140.875C87.694 140.901 87.5323 140.912 87.3632 140.912C86.5805 140.912 85.6066 140.664 84.4968 140.236C81.0534 145.818 77.79 150.187 75.4123 152.575C78.3449 154.235 80.7373 155.421 82.5197 156.235C85.9521 157.802 87.8777 158.345 88.0835 158.405C90.4208 158.856 93.8936 159.037 97.1937 157.344C97.2194 157.329 99.8286 155.969 101.912 153.122C103.691 150.69 105.679 145.1 107.509 137.386C108.92 131.445 110.137 124.632 111.037 117.697C111.096 117.25 111.155 116.803 111.206 116.352C111.346 115.221 111.478 114.086 111.599 112.951C111.721 112.895 111.838 112.873 111.956 112.873C112.074 112.873 112.202 112.899 112.32 112.947C112.555 113.04 112.779 113.21 112.989 113.413C113.253 113.668 113.499 113.971 113.713 114.241C113.738 114.271 113.757 114.296 113.775 114.319C115.216 116.086 119.49 116.337 122.014 116.071C127.744 115.472 131.268 111.324 132.594 109.764L132.605 109.753C133.642 108.533 136.071 105.672 136.571 101.425C136.674 100.556 136.714 99.765 136.696 99.0663C135.156 99.7354 133.95 99.7835 133.109 99.2105C132.51 98.8039 132.069 98.0276 131.937 97.1404C131.808 96.2902 131.977 95.4917 132.407 94.9483C133.263 93.8652 135.042 93.8023 136.17 94.4234C136.968 94.8633 137.526 95.6655 137.842 96.8188C137.85 96.8151 137.857 96.8114 137.864 96.804C139.716 95.6248 141.738 93.8541 143.274 92.0612C143.873 91.3626 145.119 89.9061 146.21 87.8323C147.485 85.411 148.187 82.8345 148.297 80.1692C148.386 78.0547 148.15 73.9034 145.607 69.8593C145.266 69.3159 142.892 65.6562 139.845 64.0001C139.54 65.0278 139.022 65.9889 138.191 66.7393C136.938 67.8705 135.597 68.2919 134.406 67.9334C132.918 67.4824 131.819 65.8891 132.051 64.5251C132.433 62.2997 135.88 61.8339 136.269 61.7896C137.126 61.6897 137.96 61.7785 138.761 62.004C138.912 60.2518 138.603 58.4626 138.445 57.5347C137.559 52.3927 134.663 48.6887 133.017 46.9402C130.301 44.0568 126.773 41.8721 122.819 40.6301C119.174 39.4804 115.344 39.1625 111.75 39.7059C110.078 39.9573 108.299 40.4157 106.774 40.9739C107.498 42.7224 108.119 45.5798 106.513 47.0733C105.573 47.9494 104.044 48.1823 102.879 47.6278C101.534 46.9883 100.825 45.3544 100.92 44.1493C101.049 42.5006 102.699 41.203 104.771 40.2419C103.867 38.8594 102.559 37.8539 100.633 37.0369C97.7596 35.8171 94.6947 35.0666 91.5233 34.8005C88.9802 34.5861 86.3673 34.6822 83.7508 35.0888C79.2857 35.7801 76.3274 37.1478 76.298 37.1626C73.619 38.4232 70.8554 40.2123 68.9077 41.9535C68.2425 42.5486 67.6839 43.1253 67.2393 43.6761C68.7129 43.872 70.1461 44.3747 70.9069 45.6612C71.6565 46.9291 71.7043 48.9253 70.5798 49.8716C69.2972 50.951 67.3826 50.0713 67.0114 49.8827C65.4312 49.0843 64.7623 47.5243 64.6374 46.992C64.4867 46.3524 64.5565 45.6797 64.7991 44.9958C64.6668 44.9958 64.5345 44.9958 64.4095 44.9958C62.7007 45.0143 58.6987 45.0549 54.6783 47.82L54.6379 47.8496C53.9874 48.2969 52.466 49.343 50.9887 51.0176C49.1659 53.0914 48.0891 55.3611 47.7878 57.7676C47.5379 59.7823 47.8098 61.8783 48.3354 63.49C49.1402 62.9688 50.3492 62.3477 51.4774 62.7433C52.0507 62.9429 52.5799 63.4013 52.929 63.9964C53.3075 64.6397 53.4141 65.3531 53.223 65.9594C52.8225 67.2347 51.2018 67.9223 50.0148 67.6857C49.0961 67.5009 48.2766 66.7467 47.6261 65.5232C45.7776 66.4288 43.4366 67.9888 41.522 70.5764C41.206 71.0052 40.1035 72.5948 39.2619 74.9754C38.1374 78.1582 37.9536 81.3447 38.7143 84.4499C39.9234 89.3812 43.1133 92.1869 45.0206 93.8652L45.1382 93.9687C45.9613 94.6932 47.3284 95.8946 48.8168 96.7966C49.1218 95.6765 49.8164 93.3033 51.7714 92.7932C52.7673 92.5344 53.9948 92.8043 54.976 93.4992C55.7918 94.0796 56.299 94.8744 56.3688 95.6802C56.4974 97.1552 55.1891 98.5414 53.8919 99.0922C52.749 99.5765 51.4076 99.5247 49.8862 98.9333C49.7245 100.837 50.0736 102.963 50.9078 105.088C51.9919 107.853 53.8294 110.433 56.0748 112.356C56.9274 113.084 58.706 114.463 61.0249 115.498C64.1266 116.88 67.0224 117.132 69.639 116.245C71.1384 115.734 73.031 114.929 73.9497 114.308C74.0048 114.223 74.0746 114.149 74.1592 114.082C74.1812 114.064 74.2033 114.049 74.229 114.03C74.4936 113.853 74.7472 113.831 74.9566 113.897C75.1073 113.945 75.2323 114.038 75.3204 114.152C75.4638 114.341 75.5189 114.625 75.4086 114.881C75.4086 114.888 75.416 114.892 75.4197 114.895C75.3241 115.221 75.2286 115.542 75.1367 115.86C75.0412 116.178 74.9456 116.492 74.8501 116.806C73.4352 121.442 71.9469 125.468 70.4438 128.702C70.1902 129.249 69.9367 129.771 69.6831 130.266C69.5728 130.484 69.4626 130.695 69.3523 130.905C69.2384 131.12 69.1245 131.334 69.0069 131.538C68.2425 132.909 67.4928 134.033 66.7578 134.901C65.4055 136.502 64.0862 137.249 62.8293 137.119C60.6317 136.898 57.1515 133.678 53.506 129.863C53.3406 129.689 53.1752 129.515 53.0099 129.342C52.8445 129.168 52.6791 128.994 52.5138 128.817C52.0397 128.314 51.5619 127.8 51.0916 127.29L51.0548 127.249C51.0181 127.209 50.9666 127.157 50.9005 127.083C50.0295 126.152 48.1994 124.277 45.6857 122.148C45.6526 122.119 45.3292 121.852 45.061 121.638C43.297 120.23 38.6078 116.489 35.0357 116.707C32.4081 116.866 30.4788 119.209 28.5678 121.808C17.859 136.376 11.9608 144.402 14.1216 147.951L14.1143 147.943Z" fill="white"/>
<path d="M42.8528 164.053C46.8622 167.919 56.7882 165.017 61.3488 161.047C61.8706 160.593 63.5721 159.114 64.9502 156.863C65.0936 156.63 65.2332 156.389 65.3655 156.138C65.4941 155.898 65.6191 155.654 65.7367 155.399C66.005 154.818 66.2438 154.201 66.4276 153.554C66.5966 152.959 66.7179 152.36 66.8612 151.665C67.1111 150.434 67.3279 149.355 67.4272 148.331C69.5954 149.754 71.5982 150.992 73.4394 152.068C73.6599 152.197 73.8767 152.323 74.0935 152.449C74.314 152.578 74.5308 152.7 74.7476 152.822C83.2257 157.643 87.7974 158.829 87.7974 158.829C89.7635 159.214 93.6148 159.646 97.3926 157.705C97.3926 157.705 100.156 156.286 102.361 153.269C105.76 148.623 109.652 133.352 111.773 116.322C111.89 115.364 112.004 114.403 112.111 113.438C112.14 113.183 112.166 112.924 112.195 112.666C112.078 112.618 111.956 112.592 111.831 112.592C111.707 112.592 111.593 112.618 111.475 112.669C111.354 113.804 111.221 114.939 111.082 116.07C111.027 116.518 110.972 116.969 110.913 117.416C110.012 124.351 108.796 131.16 107.385 137.104C105.555 144.823 103.567 150.408 101.788 152.841C99.7042 155.687 97.095 157.051 97.0692 157.062C93.7691 158.759 90.3 158.578 87.9591 158.123C87.7533 158.068 85.8276 157.521 82.3952 155.953C80.6129 155.14 78.2241 153.957 75.2879 152.294C77.6656 149.906 80.9289 145.532 84.3723 139.954C85.4821 140.383 86.456 140.631 87.2388 140.631C87.4078 140.631 87.5695 140.62 87.7202 140.594C90.0501 140.224 91.5274 136.897 92.3727 130.129C92.5968 128.347 92.7732 126.306 92.9055 124.018C94.0043 121.634 95.059 119.183 96.0403 116.695C96.1909 116.314 96.3379 115.934 96.4849 115.553C96.6687 115.072 96.8524 114.588 97.0288 114.104L97.2567 113.486L96.8157 113.276C96.4776 113.228 96.1248 113.22 95.7646 113.268C95.6029 113.29 95.5772 113.316 95.6323 113.342C95.5735 113.335 95.5147 113.327 95.4523 113.32C95.3677 113.309 95.2795 113.305 95.1913 113.305C94.8092 113.302 94.3792 113.379 93.9088 113.52C94.4086 113.738 94.9268 113.974 95.4596 114.222C95.3273 114.573 95.1914 114.928 95.0554 115.283C94.8606 115.786 94.6622 116.292 94.46 116.799C94.019 117.896 93.5597 119.002 93.0819 120.111C92.8284 120.702 92.5674 121.294 92.3028 121.885C92.2734 122.547 92.244 123.197 92.2073 123.833C92.1705 124.502 92.1264 125.157 92.0787 125.792C91.476 134.047 90.1236 139.485 87.6136 139.884C86.9117 139.995 85.9158 139.773 84.7582 139.333C84.5377 139.252 84.3135 139.159 84.082 139.063C83.8652 138.971 83.6447 138.875 83.4205 138.771C80.4401 137.407 76.8166 135.101 74.2699 133.481C74.2185 133.452 74.1449 133.404 74.031 133.33C73.3034 132.871 71.5909 131.822 69.2132 130.613C69.0037 130.506 68.7906 130.398 68.5737 130.291C68.3643 130.188 68.1474 130.084 67.9306 129.977C67.8424 129.936 67.7579 129.892 67.6697 129.851C67.6219 129.829 67.2324 129.648 66.92 129.511C64.8069 128.58 59.1255 126.07 55.4652 127.278C54.8993 127.467 54.3885 127.741 53.9291 128.081C53.738 128.221 53.5542 128.376 53.3778 128.543C53.2051 128.702 53.0361 128.875 52.8781 129.057C51.5955 130.506 50.7686 132.498 50.0594 134.287C48.6923 137.736 47.4575 140.849 46.3808 143.647C46.2852 143.895 46.1897 144.139 46.0978 144.383C46.0022 144.63 45.9104 144.874 45.8185 145.115C41.7871 155.75 40.2914 161.572 42.8602 164.049L42.8528 164.053Z" fill="white"/>
<path d="M83.4125 138.771C83.5228 138.594 83.6293 138.413 83.7396 138.232C83.7543 138.206 83.7727 138.176 83.7874 138.15C84.0226 138.258 84.2431 138.354 84.4489 138.439C84.6914 138.539 84.9156 138.627 85.125 138.705C86.3782 139.167 87.0875 139.234 87.488 139.171C88.3663 139.03 89.9833 137.648 90.9425 129.948C91.0344 129.201 91.1189 128.41 91.1961 127.574C91.2549 126.942 91.3063 126.284 91.3578 125.597C91.4018 124.968 91.4459 124.318 91.4827 123.645C91.7546 123.057 92.0229 122.469 92.2875 121.878C92.5521 121.286 92.813 120.695 93.0666 120.103C93.0445 120.773 93.0188 121.427 92.9931 122.059C92.9637 122.728 92.9306 123.379 92.8939 124.011C92.7616 126.299 92.5852 128.336 92.361 130.121C91.5158 136.89 90.0384 140.217 87.7085 140.586C87.5579 140.612 87.3962 140.623 87.2271 140.623C86.4444 140.623 85.4705 140.376 84.3607 139.947C84.1402 139.862 83.916 139.77 83.6881 139.67C83.4713 139.577 83.2508 139.477 83.0267 139.374C83.1516 139.171 83.2802 138.967 83.4052 138.76L83.4125 138.771ZM41.8783 154.404C42.6317 151.687 43.7709 148.453 45.2556 144.557C45.3475 144.313 45.4393 144.069 45.5349 143.821C45.6268 143.577 45.7223 143.333 45.8179 143.082C46.8615 140.376 48.0559 137.37 49.3862 134.014C49.9669 132.554 50.6026 131.016 51.4736 129.704C51.7603 129.267 52.0616 128.876 52.3776 128.524C52.5393 128.343 52.7084 128.17 52.8774 128.011C53.0575 127.844 53.2413 127.689 53.4287 127.545C53.9909 127.12 54.59 126.802 55.2367 126.587C59.1542 125.294 65.0011 127.874 67.2024 128.846C67.5184 128.986 67.9153 129.168 67.9741 129.197C68.0696 129.245 68.1689 129.29 68.2607 129.334C68.4776 129.437 68.6944 129.545 68.9039 129.648C69.1207 129.755 69.3375 129.863 69.5433 129.97C71.7997 131.119 73.5049 132.147 74.4089 132.716C74.5045 132.776 74.5743 132.82 74.6221 132.853L74.6515 132.872C76.6212 134.125 79.3186 135.84 81.7992 137.16C82.5526 137.559 83.2104 137.884 83.7947 138.15C84.0299 138.258 84.2504 138.354 84.4562 138.439C84.6988 138.539 84.9229 138.627 85.1324 138.705C86.3856 139.167 87.0948 139.234 87.4954 139.171C88.3737 139.03 89.9907 137.648 90.9498 129.948C91.0417 129.201 91.1262 128.41 91.2034 127.574C91.2622 126.942 91.3137 126.284 91.3651 125.597C91.4092 124.968 91.4533 124.318 91.49 123.645C91.762 123.057 92.0303 122.469 92.2949 121.878C92.5595 121.286 92.8204 120.695 93.0739 120.103C93.0519 120.773 93.0262 121.427 93.0005 122.059C92.9711 122.728 92.938 123.379 92.9012 124.011C92.7689 126.299 92.5925 128.336 92.3684 130.121C91.5231 136.89 90.0458 140.217 87.7159 140.586C87.5652 140.612 87.4035 140.623 87.2345 140.623C86.4517 140.623 85.4778 140.376 84.368 139.947C84.1475 139.862 83.9233 139.77 83.6955 139.67C83.4787 139.577 83.2582 139.477 83.034 139.374C80.355 138.136 77.1026 136.128 73.8797 134.08L73.8503 134.062C73.8025 134.032 73.7364 133.992 73.6445 133.929C72.7589 133.371 71.0831 132.361 68.8634 131.234C68.654 131.127 68.4408 131.02 68.224 130.912C68.0145 130.809 67.7977 130.702 67.5809 130.598C67.5074 130.561 67.4302 130.528 67.3567 130.491C67.3163 130.473 66.9341 130.295 66.6254 130.158C64.5638 129.249 59.0807 126.828 55.6851 127.951C55.2257 128.103 54.8068 128.321 54.4246 128.591C54.2298 128.728 54.0424 128.879 53.866 129.046C53.6933 129.205 53.5279 129.378 53.3699 129.559C52.26 130.835 51.4736 132.639 50.7202 134.539C49.3127 138.088 48.0375 141.3 46.9314 144.187C46.8358 144.435 46.744 144.679 46.6521 144.923C46.5565 145.17 46.4647 145.414 46.3728 145.655C42.6317 155.562 41.1029 161.35 43.352 163.52C44.1935 164.33 45.3842 164.844 46.891 165.047C48.2985 165.236 49.9779 165.139 51.7529 164.77C55.1669 164.06 58.6655 162.419 60.8815 160.489C62.322 159.236 63.3657 157.983 64.1191 156.822C64.1742 156.737 64.2257 156.652 64.2808 156.571C64.3727 156.419 64.4645 156.271 64.549 156.123C64.6887 155.879 64.8173 155.639 64.9312 155.406C65.3134 154.637 65.5707 153.935 65.7434 153.336C65.9051 152.771 66.0264 152.183 66.1623 151.503C66.3792 150.434 66.5592 149.514 66.6658 148.671C66.3057 148.434 65.9418 148.19 65.5744 147.943C64.979 147.544 63.5825 146.605 63.509 145.089C63.4649 144.172 63.8912 143.122 64.5711 142.472C65.0121 142.05 65.5192 141.843 66.0043 141.891C67.2428 142.013 67.6691 143.74 67.9226 144.771L67.93 144.797C68.1946 145.869 68.246 146.9 68.1762 147.939C70.282 149.314 72.2297 150.505 73.9973 151.536C74.2141 151.662 74.431 151.787 74.6441 151.909C74.8609 152.035 75.0778 152.157 75.2909 152.279C78.2235 153.939 80.6159 155.125 82.3982 155.939C85.8306 157.506 87.7563 158.049 87.9621 158.108C90.2994 158.559 93.7722 158.741 97.0723 157.048C97.098 157.033 99.7072 155.672 101.791 152.826C103.57 150.394 105.558 144.804 107.388 137.089C108.799 131.149 110.015 124.336 110.916 117.401C110.975 116.954 111.033 116.507 111.085 116.056C111.224 114.925 111.357 113.79 111.478 112.655C111.599 112.599 111.717 112.577 111.835 112.577C111.952 112.577 112.081 112.603 112.198 112.651C112.434 112.743 112.658 112.914 112.867 113.117C112.834 113.435 112.797 113.749 112.761 114.063C112.724 114.392 112.683 114.725 112.647 115.054C110.574 132.572 106.561 148.734 102.937 153.684C100.655 156.804 97.8367 158.275 97.7154 158.334C94.8085 159.827 91.332 160.238 87.6608 159.524L87.6167 159.513C87.5358 159.491 85.5697 158.974 81.858 157.284C79.9544 156.419 77.3672 155.133 74.1774 153.31C73.9569 153.185 73.7364 153.055 73.5086 152.926C73.2881 152.796 73.0676 152.667 72.8397 152.534C71.3367 151.65 69.716 150.656 67.9851 149.54C67.8675 150.268 67.7168 151.015 67.5588 151.795C67.4155 152.504 67.2906 153.118 67.1105 153.739C66.9745 154.209 66.7944 154.737 66.5482 155.31C66.4416 155.558 66.324 155.813 66.1917 156.075C66.0705 156.319 65.9345 156.571 65.7912 156.826C64.9496 158.301 63.6891 159.946 61.8112 161.58C59.4188 163.661 55.6741 165.424 52.0322 166.182C50.7349 166.452 49.5112 166.585 48.383 166.585C45.8215 166.585 43.7415 165.897 42.3524 164.559C40.5296 162.8 40.3863 159.761 41.8747 154.393L41.8783 154.404ZM66.5335 145.163L66.5262 145.137C66.4416 144.801 66.3277 144.339 66.1771 143.947C66.0117 143.525 65.883 143.385 65.839 143.348C65.7949 143.359 65.692 143.403 65.5486 143.536C65.1738 143.899 64.9092 144.546 64.9312 145.037C64.968 145.825 65.9088 146.457 66.3608 146.764C66.4968 146.856 66.6291 146.945 66.765 147.033C66.7577 146.405 66.6842 145.795 66.5298 145.163H66.5335Z" fill="#383838" stroke="#383838" stroke-width="0.554494" stroke-miterlimit="10"/>
<path d="M13.3679 148.042C16.2674 152.807 26.6014 152.538 32.0146 149.865C32.9002 149.429 36.6487 147.577 38.8206 143.917C39.1366 143.385 39.4049 142.838 39.7173 142.202C40.2722 141.074 40.7499 140.087 41.1064 139.122C42.6719 140.864 44.1529 142.427 45.5347 143.825C45.7221 144.013 45.9059 144.198 46.0896 144.383C46.277 144.571 46.4644 144.756 46.6482 144.937C53.8768 152.079 58.1618 154.486 58.1618 154.486C59.4848 155.125 61.7816 156.053 64.5488 156.142C64.8171 156.149 65.089 156.149 65.3683 156.142C65.644 156.134 65.9196 156.116 66.2026 156.09C66.7023 156.042 67.2095 155.964 67.7277 155.85C67.7277 155.85 70.6603 155.207 73.5157 152.94C73.5635 152.904 73.6076 152.867 73.6553 152.83C73.7987 152.715 73.9457 152.589 74.0963 152.449C74.2727 152.29 74.4565 152.12 74.6439 151.931C76.9775 149.636 80.2408 145.281 83.699 139.684C83.8239 139.481 83.9525 139.274 84.0775 139.067C84.2024 138.86 84.3274 138.653 84.456 138.446C86.7712 134.609 89.1452 130.251 91.3686 125.608C91.6479 125.024 91.9272 124.432 92.2028 123.841C92.4747 123.257 92.7393 122.669 93.0039 122.074C93.9153 120.033 94.7899 117.948 95.6094 115.841C95.6682 115.69 95.727 115.534 95.7858 115.383C95.9806 114.876 96.1717 114.37 96.3591 113.86C95.9622 113.668 95.5727 113.486 95.1905 113.313C94.8083 113.309 94.3783 113.387 93.9079 113.527C94.4077 113.745 94.9259 113.982 95.4588 114.229C95.3265 114.581 95.1905 114.935 95.0545 115.29C94.8598 115.793 94.6613 116.3 94.4592 116.806C94.0182 117.904 93.5588 119.009 93.0811 120.118C92.8275 120.71 92.5666 121.301 92.302 121.892C92.0374 122.48 91.7691 123.068 91.4972 123.659C89.204 128.606 86.5838 133.552 83.7982 138.158C83.7835 138.184 83.7651 138.213 83.7504 138.239C83.6402 138.42 83.5336 138.598 83.4233 138.779C83.2984 138.986 83.1698 139.189 83.0448 139.392C79.6712 144.841 76.3454 149.314 74.0045 151.562C73.8097 151.746 73.6259 151.917 73.4459 152.072C73.365 152.142 73.2878 152.209 73.207 152.271C73.0857 152.367 72.9681 152.464 72.8469 152.552C70.2266 154.549 67.6027 155.144 67.5733 155.147C67.2315 155.221 66.8898 155.28 66.5554 155.325C66.2797 155.362 66.0078 155.388 65.7358 155.402C65.4639 155.421 65.1956 155.428 64.931 155.425C62.3733 155.414 60.1058 154.622 58.4962 153.846C58.3125 153.739 56.5852 152.719 53.66 150.327C51.9842 148.956 49.6984 146.952 46.9312 144.202C46.7474 144.021 46.5637 143.836 46.3762 143.647C46.1925 143.462 46.0088 143.277 45.8213 143.085C44.6012 141.847 43.304 140.472 41.9296 138.952C42.2566 137.965 42.4661 136.956 42.4845 135.851V135.825C42.4992 134.764 42.5249 132.982 41.36 132.55C40.9043 132.38 40.3604 132.45 39.8275 132.746C39.008 133.2 38.3281 134.11 38.137 135.004C37.8247 136.487 38.9382 137.751 39.4122 138.291C39.7062 138.623 39.9965 138.952 40.2832 139.274C39.9671 140.061 39.5592 140.904 39.0815 141.884C38.7765 142.505 38.5119 143.045 38.2105 143.551C37.7401 144.342 37.0309 145.311 35.9835 146.301C34.9325 147.296 33.5433 148.316 31.7059 149.222C29.0709 150.523 25.2747 151.214 21.7946 151.026C19.9865 150.93 18.3364 150.589 17.0245 150.05C15.617 149.469 14.5953 148.667 13.989 147.669C11.8281 144.12 17.7264 136.095 28.4352 121.527C30.3461 118.928 32.2755 116.584 34.9031 116.425C38.4751 116.207 43.1643 119.948 44.9283 121.356C45.1966 121.571 45.5163 121.837 45.5531 121.867C48.0667 123.992 49.9005 125.87 50.7678 126.802C50.8376 126.876 50.8854 126.927 50.9221 126.968L50.9589 127.009C51.433 127.519 51.907 128.033 52.3811 128.535C52.5465 128.713 52.7118 128.887 52.8772 129.06C53.0426 129.234 53.208 129.408 53.3733 129.581C57.0189 133.393 60.4991 136.616 62.6967 136.838C63.9535 136.967 65.2728 136.217 66.6252 134.62C67.3565 133.755 68.1099 132.628 68.8742 131.256C68.9882 131.049 69.1021 130.838 69.2197 130.624C69.3299 130.417 69.4402 130.203 69.5504 129.984C69.804 129.489 70.0576 128.968 70.3111 128.421C71.8105 125.186 73.3025 121.161 74.7174 116.525C74.8129 116.211 74.9085 115.897 75.004 115.579C75.0996 115.261 75.1951 114.939 75.287 114.614C75.287 114.606 75.2797 114.603 75.276 114.599C75.3862 114.34 75.3311 114.059 75.1878 113.871C75.1033 113.756 74.9746 113.664 74.824 113.616C74.7211 113.982 74.6145 114.344 74.5079 114.703C74.4124 115.028 74.3168 115.346 74.2213 115.667C72.5124 121.345 70.697 126.144 68.9036 129.67C68.7934 129.888 68.6831 130.099 68.5729 130.31C68.459 130.528 68.3414 130.739 68.2274 130.942C66.2981 134.398 64.4202 136.295 62.7628 136.128C60.7048 135.921 56.9527 132.313 53.8658 129.075C53.7004 128.901 53.535 128.728 53.3733 128.558C53.208 128.38 53.0426 128.206 52.8809 128.033C52.3848 127.5 51.9144 126.994 51.4807 126.528C51.4403 126.484 51.3815 126.421 51.286 126.321C50.5804 125.563 48.7025 123.608 46.0124 121.331C45.972 121.297 45.6413 121.024 45.373 120.809C43.5649 119.368 38.703 115.49 34.859 115.723C31.7831 115.908 29.6222 118.717 27.8582 121.116C16.5945 136.439 10.9645 144.102 13.3753 148.065L13.3679 148.042Z" fill="white"/>
<path d="M13.9776 147.666C14.5839 148.664 15.6056 149.466 17.0131 150.046C18.325 150.59 19.9751 150.926 21.7831 151.022C25.2633 151.207 29.0632 150.516 31.6945 149.218C33.5319 148.313 34.9211 147.289 35.9721 146.298C37.0231 145.304 37.7287 144.339 38.1991 143.548C38.5005 143.041 38.7614 142.505 39.0701 141.881C39.5515 140.901 39.9557 140.058 40.2718 139.271C39.9851 138.949 39.6948 138.62 39.4008 138.287C38.9268 137.748 37.8132 136.484 38.1256 135.001C38.313 134.107 38.9929 133.197 39.8161 132.743C40.349 132.447 40.8928 132.38 41.3485 132.547C42.5135 132.979 42.4914 134.761 42.4731 135.822V135.848C42.4584 136.953 42.2489 137.962 41.9182 138.949C43.2926 140.468 44.5935 141.844 45.8099 143.082C45.9973 143.271 46.1811 143.459 46.3648 143.644C46.5523 143.832 46.736 144.017 46.9197 144.198C49.687 146.945 51.9728 148.949 53.6486 150.324C56.5738 152.715 58.2974 153.736 58.4848 153.843C60.0944 154.619 62.3619 155.41 64.9196 155.421C65.1842 155.421 65.4562 155.414 65.7244 155.399C65.9964 155.384 66.2683 155.359 66.544 155.322C66.8784 155.277 67.2201 155.218 67.5619 155.144C67.5876 155.137 70.2115 154.545 72.8354 152.549C72.9567 152.457 73.0743 152.364 73.1956 152.268C73.2728 152.205 73.3536 152.139 73.4345 152.068C73.6145 151.913 73.7983 151.743 73.9931 151.558C76.334 149.311 79.6635 144.838 83.0334 139.389C83.1584 139.186 83.287 138.982 83.4119 138.775C83.5222 138.598 83.6288 138.417 83.739 138.236C83.7537 138.21 83.7721 138.18 83.7868 138.154C86.5724 133.545 89.1926 128.602 91.4858 123.656C91.7577 123.068 92.026 122.481 92.2906 121.889C92.5552 121.298 92.8161 120.706 93.0697 120.115C93.5474 119.006 94.0105 117.901 94.4478 116.803C94.6499 116.296 94.8484 115.79 95.0431 115.287C95.1791 114.932 95.3151 114.577 95.4474 114.226C94.9145 113.975 94.4 113.742 93.8965 113.524C94.3669 113.383 94.7969 113.306 95.1791 113.309C95.2673 113.309 95.3555 113.317 95.44 113.324C95.5025 113.332 95.6568 113.446 95.7156 113.454C95.6605 113.428 95.5907 113.291 95.7524 113.272C96.1162 113.224 96.4653 113.228 96.8034 113.28L97.2444 113.49L97.0166 114.108C96.8365 114.592 96.6564 115.076 96.4727 115.557C96.3257 115.938 96.1787 116.322 96.028 116.699C95.0468 119.187 93.9921 121.638 92.8933 124.022C92.761 126.31 92.5846 128.347 92.3604 130.133C91.5152 136.901 90.0379 140.228 87.7079 140.598C87.5573 140.624 87.3956 140.635 87.2265 140.635C86.4438 140.635 85.4699 140.387 84.3601 139.958C80.9166 145.54 77.6533 149.91 75.2756 152.298C78.2082 153.957 80.6006 155.144 82.3829 155.957C85.8153 157.525 87.741 158.068 87.9468 158.127C90.2841 158.578 93.7569 158.759 97.057 157.066C97.0827 157.052 99.6919 155.691 101.776 152.845C103.554 150.412 105.542 144.823 107.373 137.108C108.784 131.168 110 124.355 110.901 117.42C110.959 116.973 111.018 116.525 111.07 116.074C111.209 114.943 111.341 113.808 111.463 112.674C111.584 112.618 111.702 112.596 111.819 112.596C111.937 112.596 112.065 112.622 112.183 112.67C112.418 112.762 112.642 112.932 112.852 113.136C113.116 113.391 113.363 113.694 113.576 113.964C113.602 113.993 113.62 114.019 113.638 114.041C115.079 115.808 119.353 116.06 121.878 115.793C127.607 115.195 131.131 111.047 132.458 109.487L132.469 109.476C133.505 108.256 135.934 105.395 136.434 101.147C136.537 100.279 136.577 99.4877 136.559 98.789C135.019 99.4581 133.814 99.5061 132.972 98.9332C132.373 98.5265 131.932 97.7503 131.8 96.8631C131.671 96.0128 131.84 95.2144 132.27 94.671C133.127 93.5879 134.905 93.525 136.033 94.146C136.831 94.5859 137.389 95.3881 137.706 96.5415C137.713 96.5378 137.72 96.5341 137.728 96.5267C139.58 95.3474 141.601 93.5768 143.137 91.7839C143.736 91.0852 144.982 89.6288 146.073 87.555C147.349 85.1337 148.05 82.5571 148.161 79.8918C148.249 77.7774 148.014 73.6261 145.471 69.582C145.129 69.0385 142.755 65.3789 139.708 63.7228C139.403 64.7505 138.885 65.7116 138.055 66.462C136.801 67.5932 135.46 68.0146 134.269 67.656C132.781 67.205 131.682 65.6118 131.914 64.2477C132.296 62.0224 135.743 61.5566 136.133 61.5122C136.989 61.4124 137.823 61.5011 138.624 61.7266C138.775 59.9744 138.466 58.1853 138.308 57.2574C137.423 52.1154 134.527 48.4114 132.88 46.6629C130.165 43.7795 126.637 41.5948 122.682 40.3527C119.037 39.2031 115.208 38.8852 111.613 39.4286C109.941 39.6799 108.163 40.1383 106.638 40.6965C107.362 42.445 107.983 45.3025 106.377 46.7959C105.436 47.672 103.907 47.9049 102.742 47.3504C101.397 46.7109 100.688 45.077 100.783 43.8719C100.912 42.2232 102.562 40.9257 104.635 39.9646C103.731 38.582 102.422 37.5766 100.497 36.7596C97.6229 35.5397 94.558 34.7893 91.3866 34.5231C88.8435 34.3087 86.2306 34.4048 83.6141 34.8115C79.149 35.5027 76.1907 36.8705 76.1613 36.8853C73.4822 38.1458 70.7187 39.935 68.771 41.6761C68.1058 42.2713 67.5472 42.8479 67.1025 43.3987C68.5762 43.5947 70.0094 44.0974 70.7701 45.3838C71.5198 46.6518 71.5676 48.648 70.4431 49.5943C69.1605 50.6737 67.2459 49.7939 66.8747 49.6054C65.2945 48.8069 64.6256 47.2469 64.5007 46.7146C64.35 46.0751 64.4198 45.4023 64.6624 44.7184C64.5301 44.7184 64.3978 44.7184 64.2728 44.7184C62.564 44.7369 58.562 44.7776 54.5416 47.5427L54.5012 47.5722C53.8507 48.0195 52.3293 49.0657 50.8519 50.7402C49.0292 52.8141 47.9524 55.0838 47.6511 57.4903C47.4012 59.5049 47.6731 61.6009 48.1986 63.2127C49.0034 62.6914 50.2125 62.0704 51.3407 62.4659C51.914 62.6656 52.4432 63.1239 52.7923 63.7191C53.1708 64.3623 53.2774 65.0758 53.0863 65.682C52.6857 66.9573 51.0651 67.6449 49.8781 67.4083C48.9593 67.2235 48.1398 66.4694 47.4894 65.2458C45.6409 66.1515 43.2999 67.7115 41.3853 70.2991C41.0692 70.7279 39.9668 72.3175 39.1252 74.6981C38.0007 77.8809 37.8169 81.0674 38.5776 84.1725C39.7867 89.1038 42.9765 91.9096 44.8838 93.5878L45.0014 93.6914C45.8246 94.4159 47.1917 95.6173 48.68 96.5193C48.9851 95.3992 49.6796 93.026 51.6347 92.5158C52.6306 92.2571 53.858 92.5269 54.8393 93.2219C55.6551 93.8023 56.1622 94.597 56.2321 95.4029C56.3607 96.8778 55.0524 98.2641 53.7551 98.8149C52.6122 99.2991 51.2709 99.2474 49.7495 98.6559C49.5878 100.56 49.9369 102.685 50.7711 104.811C51.8552 107.576 53.6927 110.156 55.9381 112.078C56.7906 112.807 58.5693 114.185 60.8882 115.221C63.9899 116.603 66.8857 116.854 69.5023 115.967C71.0017 115.457 72.8942 114.651 73.813 114.03C73.8681 113.945 73.9379 113.871 74.0225 113.805C74.0445 113.786 74.0666 113.771 74.0923 113.753C74.3569 113.576 74.6105 113.553 74.8199 113.62C74.9706 113.668 75.0955 113.76 75.1837 113.875C75.3271 114.063 75.3822 114.348 75.2719 114.603C75.2719 114.611 75.2793 114.614 75.283 114.618C75.1874 114.943 75.0919 115.265 75 115.583C74.9044 115.901 74.8089 116.215 74.7133 116.529C73.2985 121.165 71.8101 125.19 70.3071 128.425C70.0535 128.972 69.7999 129.493 69.5464 129.989C69.4361 130.207 69.3259 130.417 69.2156 130.628C69.1017 130.842 68.9878 131.057 68.8702 131.26C68.1058 132.632 67.3561 133.755 66.6211 134.624C65.2687 136.225 63.9494 136.971 62.6926 136.842C60.495 136.62 57.0148 133.401 53.3693 129.586C53.2039 129.412 53.0385 129.238 52.8732 129.064C52.7078 128.891 52.5424 128.717 52.377 128.539C51.903 128.037 51.4252 127.523 50.9548 127.013L50.9181 126.972C50.8813 126.931 50.8299 126.88 50.7637 126.806C49.8928 125.874 48.0627 124 45.549 121.871C45.5159 121.841 45.1925 121.575 44.9243 121.361C43.1603 119.952 38.4711 116.211 34.899 116.429C32.2714 116.588 30.3421 118.932 28.4311 121.531C17.7223 136.099 11.8241 144.124 13.9849 147.673L13.9776 147.666Z" fill="white"/>
<path d="M95.8777 113.161C96.2452 113.113 96.6164 113.116 96.9802 113.168L97.4763 113.383L97.2374 114.24C97.1566 114.466 97.0794 114.699 97.0059 114.935C96.9214 115.205 96.8295 115.486 96.7303 115.745C96.6605 115.922 96.609 116.092 96.5539 116.259C96.4914 116.447 96.4326 116.636 96.3518 116.839C95.4037 119.242 94.3489 121.707 93.2134 124.173C92.9378 124.768 92.6621 125.36 92.3828 125.947C92.0962 126.546 91.8059 127.145 91.5156 127.737C89.623 131.574 87.5797 135.322 85.4372 138.882L85.0587 139.507C84.9301 139.717 84.8051 139.924 84.6765 140.128C81.358 145.51 78.0359 150.02 75.5663 152.504C75.3789 152.693 75.1951 152.87 75.0187 153.033C74.8166 153.217 74.6255 153.387 74.4455 153.535C74.4161 153.561 74.3903 153.583 74.3646 153.606C71.3401 156.06 68.198 156.777 68.0658 156.807C67.3785 156.958 66.6693 157.055 65.9563 157.099C65.6844 157.114 65.4051 157.125 65.0964 157.125C64.8208 157.125 64.5378 157.114 64.2548 157.099C62.1491 156.97 60.014 156.393 57.9119 155.373L57.8678 155.35C57.8678 155.35 56.045 154.326 52.8331 151.702C50.7935 150.035 48.6253 148.075 46.3873 145.876C46.2035 145.695 46.0161 145.51 45.8287 145.321L45.7882 145.284C45.6192 145.114 45.4465 144.941 45.2701 144.767C44.0463 143.532 42.7932 142.22 41.54 140.856C41.2754 141.444 40.9851 142.035 40.6691 142.678C40.5074 143.004 40.3604 143.307 40.2097 143.599C40.0517 143.906 39.8973 144.187 39.7393 144.456C38.6883 146.231 36.5862 148.767 32.5585 150.755C30.0191 152.009 26.4654 152.759 23.055 152.759C22.6581 152.759 22.2502 152.748 21.846 152.726C17.4544 152.489 14.2242 151.022 12.7468 148.593C11.3871 146.36 12.0155 143.325 14.8489 138.449C17.3883 134.084 21.5299 128.446 27.2702 120.635C28.2073 119.364 29.2179 118.029 30.4013 116.972C31.8676 115.66 33.3522 114.976 34.9361 114.88C39.1146 114.628 44.1896 118.669 46.0639 120.162C46.3358 120.38 46.6776 120.661 46.7254 120.702C49.3015 122.883 51.1831 124.813 52.0761 125.766L52.3701 126.084C52.778 126.524 53.2263 127.005 53.6967 127.507L54.1928 128.036C54.3582 128.21 54.5236 128.384 54.689 128.561C55.9825 129.918 57.0961 131.023 58.0883 131.943C61.1091 134.738 62.4541 135.244 62.987 135.3C63.5419 135.355 65.1001 135.008 67.5586 130.609C67.6725 130.409 67.7865 130.199 67.9004 129.98C68.0069 129.777 68.1172 129.566 68.2311 129.345C68.47 128.879 68.7199 128.361 68.9735 127.814C70.4618 124.609 71.9355 120.613 73.3577 115.941C73.4532 115.623 73.5524 115.297 73.648 114.972C73.7582 114.595 73.8722 114.214 73.9824 113.83L73.9971 113.774L74.0412 113.737C74.0669 113.715 74.0963 113.697 74.1257 113.675C74.4087 113.486 74.7247 113.427 75.0077 113.516C75.1878 113.571 75.3495 113.686 75.4634 113.834C75.6398 114.066 75.6913 114.381 75.6031 114.662L75.6104 114.673L75.5884 114.743C75.4928 115.068 75.4009 115.39 75.3054 115.711C75.2098 116.029 75.1143 116.347 75.0187 116.658C73.8207 120.573 72.3324 124.436 70.4581 128.472C70.1972 129.03 69.9436 129.559 69.6974 130.043C69.5872 130.261 69.4769 130.476 69.363 130.683C69.2491 130.901 69.1315 131.112 69.0176 131.319C68.8632 131.592 68.7162 131.862 68.5766 132.125C67.9959 133.189 67.4925 134.11 66.8971 134.819C65.5043 136.468 64.1262 137.237 62.8106 137.104C60.4255 136.864 56.7028 133.274 53.3733 129.792C53.208 129.618 53.0426 129.444 52.8772 129.271L52.3811 128.746C51.907 128.239 51.4293 127.729 50.9552 127.219L50.7641 127.012C49.8968 126.084 48.0704 124.21 45.5641 122.092C45.531 122.062 45.2076 121.8 44.943 121.585C43.1937 120.188 38.5413 116.477 35.0427 116.695C32.496 116.85 30.596 119.16 28.7145 121.722C18.0535 136.228 12.1809 144.216 14.2756 147.661C14.8636 148.626 15.8558 149.403 17.2229 149.968C18.5165 150.5 20.1482 150.833 21.9342 150.929C25.385 151.114 29.1481 150.43 31.7573 149.144C33.3927 148.338 34.8149 147.366 35.9908 146.253C36.8802 145.41 37.6189 144.501 38.1885 143.543C38.4861 143.041 38.7471 142.505 39.0521 141.891C39.4967 140.982 39.8936 140.165 40.206 139.399C39.9451 139.107 39.6768 138.808 39.4085 138.501C38.9161 137.939 37.7585 136.627 38.0929 135.056C38.2914 134.11 39.008 133.152 39.8716 132.672C40.4486 132.35 41.0476 132.276 41.5547 132.465C42.8446 132.941 42.8152 134.805 42.8005 135.943C42.7858 136.941 42.6131 137.939 42.2713 138.997C43.5465 140.405 44.8291 141.765 46.0859 143.044L47.1921 144.157C49.5293 146.475 51.7894 148.534 53.9099 150.268C56.8278 152.656 58.5366 153.665 58.7094 153.765C60.172 154.471 62.4651 155.313 65.067 155.325C65.3316 155.325 65.5962 155.317 65.8608 155.302C66.1291 155.288 66.401 155.262 66.6656 155.225C66.9963 155.18 67.3344 155.125 67.6652 155.051C67.7718 155.025 70.3222 154.426 72.8652 152.489C72.9828 152.4 73.1004 152.304 73.218 152.208C73.2952 152.145 73.3724 152.083 73.4495 152.012C73.6259 151.861 73.8097 151.691 74.0008 151.51C76.3528 149.251 79.6381 144.83 83.0117 139.377L83.3903 138.764C83.5005 138.586 83.6071 138.405 83.7173 138.228L83.7651 138.146C86.5434 133.548 89.1305 128.676 91.4531 123.663C91.725 123.075 91.9933 122.487 92.2579 121.9C92.5225 121.308 92.7834 120.717 93.037 120.129C93.5074 119.038 93.9704 117.926 94.4151 116.82C94.6172 116.314 94.8157 115.811 95.0104 115.309C95.1464 114.954 95.2824 114.602 95.4073 114.277M40.7573 137.285L40.8418 137.381C40.9447 136.886 40.9961 136.394 41.0035 135.869C41.0072 135.529 41.0145 135.06 40.9704 134.66C40.941 134.416 40.9043 134.269 40.8749 134.18C40.8381 134.191 40.794 134.213 40.7425 134.243C40.3383 134.468 39.9488 134.986 39.8569 135.414C39.7136 136.095 40.4228 136.901 40.7609 137.289L40.7573 137.285Z" fill="#383838"/>
<path d="M37.8836 84.3361C39.1441 89.4892 42.4368 92.3837 44.414 94.1211C45.4062 94.9935 47.2179 96.6163 49.1657 97.5996C48.2727 102.531 50.9333 108.734 55.4719 112.619C56.7214 113.691 63.1304 118.881 69.7306 116.641C70.9581 116.227 72.5824 115.565 73.6849 114.94C73.9568 114.785 74.1957 114.634 74.3905 114.49C74.3905 114.501 74.3941 114.508 74.4015 114.519C74.4346 114.578 74.4677 114.634 74.5007 114.693C74.6551 114.97 74.8168 115.266 74.9895 115.573C75.085 115.255 75.1806 114.933 75.2725 114.608C75.2725 114.6 75.2651 114.597 75.2614 114.593C75.3717 114.334 75.3166 114.053 75.1732 113.865C75.0887 113.75 74.9601 113.658 74.8094 113.61C74.5999 113.543 74.3464 113.569 74.0818 113.743C74.0561 113.758 74.034 113.776 74.012 113.795C73.9274 113.861 73.8576 113.939 73.8025 114.02C72.8838 114.641 70.9911 115.447 69.4918 115.957C66.8752 116.844 63.9757 116.593 60.8777 115.21C58.5588 114.175 56.7802 112.8 55.9276 112.068C53.6822 110.146 51.8447 107.566 50.7606 104.801C49.9264 102.679 49.5809 100.55 49.739 98.6458C51.2604 99.2372 52.6017 99.289 53.7446 98.8047C55.0419 98.2539 56.3502 96.8714 56.2215 95.3927C56.1517 94.5869 55.6446 93.7921 54.8288 93.2117C53.8512 92.5168 52.6238 92.2469 51.6242 92.5057C49.6655 93.0158 48.9709 95.389 48.6695 96.5091C47.1812 95.6071 45.8141 94.4057 44.9909 93.6812L44.8733 93.5777C42.966 91.9031 39.7762 89.0974 38.5671 84.1624C37.8064 81.0572 37.9902 77.8707 39.1147 74.6879C39.9563 72.3073 41.0587 70.7177 41.3748 70.2889C43.2894 67.7013 45.6304 66.145 47.4789 65.2356C48.1293 66.4629 48.9488 67.217 49.8676 67.3982C51.0546 67.6385 52.6752 66.9509 53.0758 65.6718C53.2632 65.0656 53.1566 64.3521 52.7818 63.7089C52.4327 63.1138 51.9035 62.6554 51.3302 62.4558C50.1983 62.0602 48.9929 62.6776 48.1881 63.2025C47.6626 61.5945 47.3907 59.4985 47.6406 57.4801C47.9382 55.0736 49.015 52.8002 50.8414 50.7301C52.3151 49.0555 53.8402 48.0094 54.4907 47.5621L54.5311 47.5325C58.5515 44.7674 62.5535 44.7268 64.2623 44.7083C64.3873 44.7083 64.5159 44.7083 64.6519 44.7083C64.4093 45.3921 64.3432 46.0612 64.4902 46.7044C64.6151 47.2368 65.284 48.7967 66.8642 49.5952C67.2354 49.7837 69.1463 50.6635 70.4326 49.5841C71.5571 48.6378 71.513 46.6416 70.7596 45.3737C69.9989 44.0872 68.5657 43.5808 67.092 43.3886C67.5367 42.8378 68.0953 42.2611 68.7605 41.6659C70.7045 39.9248 73.4681 38.1357 76.1508 36.8751C76.1802 36.8603 79.1385 35.4926 83.6036 34.8013C86.2201 34.3947 88.8367 34.2986 91.3761 34.513C94.5439 34.7791 97.6124 35.5332 100.486 36.7494C102.412 37.5664 103.72 38.5719 104.624 39.9544C102.552 40.9192 100.902 42.2167 100.773 43.8617C100.677 45.0705 101.383 46.7007 102.732 47.3403C103.893 47.8948 105.422 47.6619 106.366 46.7858C107.976 45.2923 107.355 42.4348 106.627 40.6863C108.156 40.1281 109.935 39.6698 111.603 39.4184C115.197 38.875 119.026 39.1966 122.672 40.3426C126.626 41.5883 130.154 43.7693 132.87 46.6527C134.516 48.4012 137.412 52.1015 138.298 57.2472C138.459 58.1751 138.764 59.9642 138.614 61.7164C137.813 61.491 136.978 61.4022 136.122 61.502C135.729 61.5464 132.286 62.0122 131.903 64.2376C131.668 65.6016 132.771 67.1912 134.259 67.6458C135.45 68.0044 136.791 67.583 138.044 66.4518C138.878 65.6977 139.393 64.7403 139.698 63.7126C142.744 65.3687 145.118 69.0284 145.46 69.5718C148 73.6159 148.235 77.7672 148.15 79.8817C148.04 82.5432 147.338 85.1235 146.063 87.5448C144.971 89.6186 143.726 91.0714 143.127 91.7737C141.594 93.5629 139.569 95.3373 137.717 96.5165C137.71 96.5202 137.702 96.5276 137.695 96.5313C137.383 95.3779 136.824 94.5758 136.023 94.1359C134.895 93.5148 133.116 93.5777 132.26 94.6608C131.83 95.2042 131.661 96.0027 131.789 96.8529C131.925 97.7401 132.363 98.5164 132.962 98.923C133.807 99.4997 135.009 99.4479 136.548 98.7788C136.567 99.4775 136.526 100.269 136.424 101.137C135.927 105.385 133.498 108.246 132.458 109.466L132.447 109.477C131.121 111.037 127.596 115.184 121.867 115.783C119.346 116.046 115.068 115.798 113.628 114.031C113.609 114.009 113.591 113.983 113.565 113.953C113.352 113.684 113.106 113.381 112.841 113.125C112.628 112.922 112.404 112.752 112.173 112.66C112.055 112.612 111.934 112.586 111.809 112.586C111.684 112.586 111.57 112.612 111.452 112.663C111.331 113.798 111.199 114.933 111.059 116.064C111.467 115.469 111.706 114.863 111.636 114.29C111.614 114.105 111.5 113.436 111.732 113.325C111.823 113.281 111.948 113.329 112.088 113.429C112.298 113.576 112.54 113.839 112.735 114.068C112.885 114.246 113.01 114.404 113.073 114.482C114.83 116.634 119.596 116.741 121.937 116.497C127.964 115.868 131.679 111.48 132.995 109.928C134.09 108.641 136.611 105.625 137.125 101.215C137.188 100.683 137.368 99.1337 137.177 97.6551C139.363 96.4648 141.881 94.3059 143.656 92.2358C145.067 90.5908 148.588 86.3619 148.852 79.9039C148.918 78.2478 148.889 73.6935 146.052 69.1799C145.651 68.5441 142.836 64.1673 139.191 62.6739C139.58 60.5446 139.18 58.2342 138.989 57.1178C138.004 51.3918 134.652 47.5066 133.373 46.1536C127.413 39.8287 118.622 37.6218 111.478 38.7012C109.718 38.9674 107.52 39.5145 105.635 40.2871C104.753 38.5977 103.334 37.1745 100.747 36.0766C87.7967 30.5872 75.8311 36.2097 75.8311 36.2097C71.8915 38.0617 67.4081 41.215 65.7617 43.9948C65.2215 43.9763 64.6997 43.98 64.2366 43.9837C62.3844 44.0022 58.2832 44.0614 54.1085 46.9336C52.8921 47.7691 47.67 51.2957 46.9129 57.3877C46.6189 59.7425 47.0048 62.404 47.8023 64.2782C46.1008 65.0286 43.1535 66.6441 40.7831 69.8527C40.287 70.5218 35.9579 76.5917 37.8505 84.3287L37.8836 84.3361Z" fill="white"/>
<path d="M102.029 43.9648C102.106 42.9926 103.216 41.9871 105.237 41.063L105.406 40.9854L105.48 41.1591C106.196 42.8632 106.487 44.9777 105.528 45.8686C105.167 46.205 104.627 46.3861 104.105 46.3861C103.815 46.3861 103.525 46.3307 103.275 46.2087C102.433 45.8094 102.025 44.7707 102.025 44.0905C102.025 44.0462 102.025 44.0055 102.025 43.9648H102.029ZM105.278 45.595C106.071 44.8631 105.807 42.9852 105.215 41.4807C104.348 41.891 103.657 42.3235 103.176 42.7523C102.694 43.1775 102.422 43.6026 102.393 43.9944C102.349 44.5526 102.724 45.5396 103.433 45.876C103.995 46.1421 104.822 46.0165 105.278 45.595ZM66.0403 44.6635L66.0917 44.5526L66.2167 44.5637C68.0505 44.682 69.1897 45.1588 69.6969 46.0165C70.1636 46.8038 70.2444 48.1161 69.6417 48.6226C69.4433 48.7889 69.175 48.8518 68.8884 48.8518C68.3298 48.8518 67.7087 48.6152 67.4368 48.4747C66.8598 48.1827 66.4445 47.7354 66.1689 47.3288C65.8896 46.9184 65.7463 46.5525 65.7169 46.4194C65.5993 45.924 65.7095 45.3326 66.0403 44.6635ZM66.0734 46.3344C66.1211 46.5266 66.5658 47.6208 67.6021 48.1457C67.999 48.3453 69.006 48.6743 69.4065 48.3379C69.8512 47.9646 69.7667 46.8519 69.3808 46.205C68.9508 45.4768 67.9476 45.0627 66.3159 44.9407C66.1321 45.3437 66.0403 45.7022 66.0403 46.0165C66.0403 46.1274 66.0513 46.2346 66.0734 46.3344ZM48.6578 64.4109C49.6794 63.7122 50.4181 63.4682 50.9326 63.6494C51.572 63.8712 52.0755 64.7362 51.8991 65.3018C51.7484 65.786 51.0134 66.1963 50.3814 66.1963C50.2932 66.1963 50.2086 66.189 50.1278 66.1705C49.5949 66.067 49.0657 65.5383 48.599 64.6512L48.5218 64.5033L48.6578 64.4109ZM51.55 65.1909C51.6639 64.8212 51.2523 64.1521 50.8113 63.9969C50.7452 63.971 50.6643 63.9599 50.5761 63.9599C50.2013 63.9599 49.6721 64.1817 49.0033 64.6216C49.1943 64.9654 49.4001 65.2463 49.5986 65.4459C49.8044 65.6455 50.0028 65.7712 50.1976 65.8082C50.7194 65.9154 51.4397 65.5383 51.55 65.1909ZM133.145 64.4589C133.233 63.9599 133.733 63.568 134.357 63.2834C134.979 62.9988 135.717 62.8213 136.279 62.7548C136.974 62.6735 137.702 62.7474 138.437 62.9729L138.609 63.0283L138.562 63.1984C138.297 64.178 137.845 64.9617 137.22 65.5236C136.496 66.1779 135.769 66.5216 135.122 66.5216C134.949 66.5216 134.787 66.4958 134.629 66.4477C133.755 66.1816 133.02 65.1983 133.145 64.4589ZM136.974 65.25C137.507 64.7657 137.904 64.1041 138.157 63.276C137.705 63.154 137.261 63.0912 136.827 63.0912C136.658 63.0912 136.489 63.1023 136.324 63.1208C135.052 63.2686 133.619 63.8675 133.509 64.5218C133.413 65.0763 134.045 65.8858 134.736 66.0965C135.364 66.2851 136.158 65.9856 136.974 65.25ZM49.8044 97.1519C49.8191 97.0817 49.8375 97.0114 49.8558 96.9412C50.0874 96.0799 50.6312 94.0652 51.9469 93.7251C52.5679 93.5625 53.4609 93.7732 54.1188 94.239C54.6259 94.6012 54.9493 95.0744 54.9861 95.5032C54.9861 95.5365 54.9861 95.566 54.9861 95.5993C54.9861 96.4163 54.1151 97.2887 53.2625 97.6509C52.8987 97.8062 52.5018 97.8801 52.0681 97.8801C51.4214 97.8801 50.6974 97.7101 49.9036 97.3663L49.7603 97.3035L49.8007 97.1519H49.8044ZM53.1229 97.3109C53.8762 96.9892 54.6774 96.1797 54.6222 95.5365C54.5928 95.2149 54.3209 94.8341 53.9056 94.5421C53.336 94.1355 52.5569 93.9469 52.0388 94.08C50.9289 94.372 50.4255 96.2388 50.2123 97.0373C50.205 97.0558 50.2013 97.0706 50.1976 97.0854C51.3626 97.5659 52.3438 97.6399 53.1229 97.3109ZM133.251 95.4441C133.483 95.152 133.95 94.9968 134.438 94.9968C134.787 94.9968 135.144 95.0744 135.438 95.237C135.996 95.5439 136.386 96.2166 136.592 97.2295L136.618 97.37L136.493 97.4328C135.644 97.8469 134.912 98.0613 134.365 98.0613C134.082 98.0613 133.85 98.0021 133.678 97.8838C133.365 97.6731 133.119 97.2036 133.038 96.6639C132.961 96.1649 133.042 95.7102 133.251 95.4441ZM133.402 96.6085C133.464 97.0373 133.659 97.4254 133.883 97.5807C134.17 97.7729 134.927 97.7618 136.199 97.163C136.015 96.3497 135.691 95.7989 135.262 95.5624C134.677 95.237 133.795 95.3516 133.538 95.6732C133.395 95.8544 133.343 96.2203 133.402 96.6085ZM48.6578 64.4109C49.6794 63.7122 50.4181 63.4682 50.9326 63.6494C51.572 63.8712 52.0755 64.7362 51.8991 65.3018C51.7484 65.786 51.0134 66.1963 50.3814 66.1963C50.2932 66.1963 50.2086 66.189 50.1278 66.1705C49.5949 66.067 49.0657 65.5383 48.599 64.6512L48.5218 64.5033L48.6578 64.4109ZM51.55 65.1909C51.6639 64.8212 51.2523 64.1521 50.8113 63.9969C50.7452 63.971 50.6643 63.9599 50.5761 63.9599C50.2013 63.9599 49.6721 64.1817 49.0033 64.6216C49.1943 64.9654 49.4001 65.2463 49.5986 65.4459C49.8044 65.6455 50.0028 65.7712 50.1976 65.8082C50.7194 65.9154 51.4397 65.5383 51.55 65.1909ZM49.8558 96.9412C50.0874 96.0799 50.6312 94.0652 51.9469 93.7251C52.5679 93.5625 53.4609 93.7732 54.1188 94.239C54.6259 94.6012 54.9493 95.0744 54.9861 95.5032C54.9861 95.5365 54.9861 95.566 54.9861 95.5993C54.9861 96.4163 54.1151 97.2887 53.2625 97.6509C52.8987 97.8062 52.5018 97.8801 52.0681 97.8801C51.4214 97.8801 50.6974 97.7101 49.9036 97.3663L49.7603 97.3035L49.8007 97.1519C49.8154 97.0817 49.8338 97.0114 49.8522 96.9412H49.8558ZM53.1229 97.3109C53.8762 96.9892 54.6774 96.1797 54.6222 95.5365C54.5928 95.2149 54.3209 94.8341 53.9056 94.5421C53.336 94.1355 52.5569 93.9469 52.0388 94.08C50.9289 94.372 50.4255 96.2388 50.2123 97.0373C50.205 97.0558 50.2013 97.0706 50.1976 97.0854C51.3626 97.5659 52.3438 97.6399 53.1229 97.3109ZM66.0917 44.5526L66.2167 44.5637C68.0505 44.682 69.1897 45.1588 69.6969 46.0165C70.1636 46.8038 70.2444 48.1161 69.6417 48.6226C69.4433 48.7889 69.175 48.8518 68.8884 48.8518C68.3298 48.8518 67.7087 48.6152 67.4368 48.4747C66.8598 48.1827 66.4445 47.7354 66.1689 47.3288C65.8896 46.9184 65.7463 46.5525 65.7169 46.4194C65.5993 45.924 65.7095 45.3326 66.0403 44.6635L66.0917 44.5526ZM66.0734 46.3344C66.1211 46.5266 66.5658 47.6208 67.6021 48.1457C67.999 48.3453 69.006 48.6743 69.4065 48.3379C69.8512 47.9646 69.7667 46.8519 69.3808 46.205C68.9508 45.4768 67.9476 45.0627 66.3159 44.9407C66.1321 45.3437 66.0403 45.7022 66.0403 46.0165C66.0403 46.1274 66.0513 46.2346 66.0734 46.3344ZM105.237 41.063L105.406 40.9854L105.48 41.1591C106.196 42.8632 106.487 44.9777 105.528 45.8686C105.167 46.205 104.627 46.3861 104.105 46.3861C103.815 46.3861 103.525 46.3307 103.275 46.2087C102.433 45.8094 102.025 44.7707 102.025 44.0905C102.025 44.0462 102.025 44.0055 102.025 43.9648C102.102 42.9926 103.212 41.9871 105.234 41.063H105.237ZM105.278 45.595C106.071 44.8631 105.807 42.9852 105.215 41.4807C104.348 41.891 103.657 42.3235 103.176 42.7523C102.694 43.1775 102.422 43.6026 102.393 43.9944C102.349 44.5526 102.724 45.5396 103.433 45.876C103.995 46.1421 104.822 46.0165 105.278 45.595ZM134.438 94.9968C134.787 94.9968 135.144 95.0744 135.438 95.237C135.996 95.5439 136.386 96.2166 136.592 97.2295L136.618 97.37L136.493 97.4328C135.644 97.8469 134.912 98.0613 134.365 98.0613C134.082 98.0613 133.85 98.0021 133.678 97.8838C133.365 97.6731 133.119 97.2036 133.038 96.6639C132.961 96.1649 133.042 95.7102 133.251 95.4441C133.483 95.152 133.95 94.9968 134.438 94.9968ZM133.402 96.6085C133.464 97.0373 133.659 97.4254 133.883 97.5807C134.17 97.7729 134.927 97.7618 136.199 97.163C136.015 96.3497 135.691 95.7989 135.262 95.5624C134.677 95.237 133.795 95.3516 133.538 95.6732C133.395 95.8544 133.343 96.2203 133.402 96.6085ZM134.629 66.4477C133.755 66.1816 133.02 65.1983 133.145 64.4589C133.233 63.9599 133.733 63.568 134.357 63.2834C134.979 62.9988 135.717 62.8213 136.279 62.7548C136.974 62.6735 137.702 62.7474 138.437 62.9729L138.609 63.0283L138.562 63.1984C138.297 64.178 137.845 64.9617 137.22 65.5236C136.496 66.1779 135.769 66.5216 135.122 66.5216C134.949 66.5216 134.787 66.4958 134.629 66.4477ZM136.974 65.25C137.507 64.7657 137.904 64.1041 138.157 63.276C137.705 63.154 137.261 63.0912 136.827 63.0912C136.658 63.0912 136.489 63.1023 136.324 63.1208C135.052 63.2686 133.619 63.8675 133.509 64.5218C133.413 65.0763 134.045 65.8858 134.736 66.0965C135.364 66.2851 136.158 65.9856 136.974 65.25ZM48.6578 64.4109C49.6794 63.7122 50.4181 63.4682 50.9326 63.6494C51.572 63.8712 52.0755 64.7362 51.8991 65.3018C51.7484 65.786 51.0134 66.1963 50.3814 66.1963C50.2932 66.1963 50.2086 66.189 50.1278 66.1705C49.5949 66.067 49.0657 65.5383 48.599 64.6512L48.5218 64.5033L48.6578 64.4109ZM51.55 65.1909C51.6639 64.8212 51.2523 64.1521 50.8113 63.9969C50.7452 63.971 50.6643 63.9599 50.5761 63.9599C50.2013 63.9599 49.6721 64.1817 49.0033 64.6216C49.1943 64.9654 49.4001 65.2463 49.5986 65.4459C49.8044 65.6455 50.0028 65.7712 50.1976 65.8082C50.7194 65.9154 51.4397 65.5383 51.55 65.1909ZM49.8558 96.9412C50.0874 96.0799 50.6312 94.0652 51.9469 93.7251C52.5679 93.5625 53.4609 93.7732 54.1188 94.239C54.6259 94.6012 54.9493 95.0744 54.9861 95.5032C54.9861 95.5365 54.9861 95.566 54.9861 95.5993C54.9861 96.4163 54.1151 97.2887 53.2625 97.6509C52.8987 97.8062 52.5018 97.8801 52.0681 97.8801C51.4214 97.8801 50.6974 97.7101 49.9036 97.3663L49.7603 97.3035L49.8007 97.1519C49.8154 97.0817 49.8338 97.0114 49.8522 96.9412H49.8558ZM53.1229 97.3109C53.8762 96.9892 54.6774 96.1797 54.6222 95.5365C54.5928 95.2149 54.3209 94.8341 53.9056 94.5421C53.336 94.1355 52.5569 93.9469 52.0388 94.08C50.9289 94.372 50.4255 96.2388 50.2123 97.0373C50.205 97.0558 50.2013 97.0706 50.1976 97.0854C51.3626 97.5659 52.3438 97.6399 53.1229 97.3109ZM66.0917 44.5526L66.2167 44.5637C68.0505 44.682 69.1897 45.1588 69.6969 46.0165C70.1636 46.8038 70.2444 48.1161 69.6417 48.6226C69.4433 48.7889 69.175 48.8518 68.8884 48.8518C68.3298 48.8518 67.7087 48.6152 67.4368 48.4747C66.8598 48.1827 66.4445 47.7354 66.1689 47.3288C65.8896 46.9184 65.7463 46.5525 65.7169 46.4194C65.5993 45.924 65.7095 45.3326 66.0403 44.6635L66.0917 44.5526ZM66.0734 46.3344C66.1211 46.5266 66.5658 47.6208 67.6021 48.1457C67.999 48.3453 69.006 48.6743 69.4065 48.3379C69.8512 47.9646 69.7667 46.8519 69.3808 46.205C68.9508 45.4768 67.9476 45.0627 66.3159 44.9407C66.1321 45.3437 66.0403 45.7022 66.0403 46.0165C66.0403 46.1274 66.0513 46.2346 66.0734 46.3344ZM105.237 41.063L105.406 40.9854L105.48 41.1591C106.196 42.8632 106.487 44.9777 105.528 45.8686C105.167 46.205 104.627 46.3861 104.105 46.3861C103.815 46.3861 103.525 46.3307 103.275 46.2087C102.433 45.8094 102.025 44.7707 102.025 44.0905C102.025 44.0462 102.025 44.0055 102.025 43.9648C102.102 42.9926 103.212 41.9871 105.234 41.063H105.237ZM105.278 45.595C106.071 44.8631 105.807 42.9852 105.215 41.4807C104.348 41.891 103.657 42.3235 103.176 42.7523C102.694 43.1775 102.422 43.6026 102.393 43.9944C102.349 44.5526 102.724 45.5396 103.433 45.876C103.995 46.1421 104.822 46.0165 105.278 45.595ZM134.438 94.9968C134.787 94.9968 135.144 95.0744 135.438 95.237C135.996 95.5439 136.386 96.2166 136.592 97.2295L136.618 97.37L136.493 97.4328C135.644 97.8469 134.912 98.0613 134.365 98.0613C134.082 98.0613 133.85 98.0021 133.678 97.8838C133.365 97.6731 133.119 97.2036 133.038 96.6639C132.961 96.1649 133.042 95.7102 133.251 95.4441C133.483 95.152 133.95 94.9968 134.438 94.9968ZM133.402 96.6085C133.464 97.0373 133.659 97.4254 133.883 97.5807C134.17 97.7729 134.927 97.7618 136.199 97.163C136.015 96.3497 135.691 95.7989 135.262 95.5624C134.677 95.237 133.795 95.3516 133.538 95.6732C133.395 95.8544 133.343 96.2203 133.402 96.6085ZM134.629 66.4477C133.755 66.1816 133.02 65.1983 133.145 64.4589C133.233 63.9599 133.733 63.568 134.357 63.2834C134.979 62.9988 135.717 62.8213 136.279 62.7548C136.974 62.6735 137.702 62.7474 138.437 62.9729L138.609 63.0283L138.562 63.1984C138.297 64.178 137.845 64.9617 137.22 65.5236C136.496 66.1779 135.769 66.5216 135.122 66.5216C134.949 66.5216 134.787 66.4958 134.629 66.4477ZM136.974 65.25C137.507 64.7657 137.904 64.1041 138.157 63.276C137.705 63.154 137.261 63.0912 136.827 63.0912C136.658 63.0912 136.489 63.1023 136.324 63.1208C135.052 63.2686 133.619 63.8675 133.509 64.5218C133.413 65.0763 134.045 65.8858 134.736 66.0965C135.364 66.2851 136.158 65.9856 136.974 65.25Z" fill="#383838"/>
<path d="M37.604 74.147C38.5227 71.552 39.7428 69.7998 40.0919 69.3229C42.2197 66.4432 44.8326 64.7502 46.6958 63.8223C46.6811 63.7706 46.6627 63.7151 46.648 63.6634C46.0196 61.7079 45.7991 59.3235 46.0527 57.283C46.3908 54.5475 47.5998 51.982 49.6431 49.6569C51.2527 47.8307 52.9506 46.6626 53.5937 46.2227L53.6304 46.1968C58.0587 43.1508 62.4025 43.1064 64.2584 43.0879C64.5854 43.0843 64.9382 43.0806 65.302 43.0879C67.3012 40.1417 71.8398 37.1105 75.478 35.399C75.6029 35.3398 78.6274 33.9314 83.3387 33.1958C86.0838 32.7707 88.8327 32.6672 91.5044 32.889C94.8486 33.1699 98.0862 33.9647 101.125 35.2511C103.4 36.2159 104.969 37.4654 106.057 39.1695C108.361 38.323 110.537 37.9422 111.375 37.8129C115.211 37.2362 119.291 37.5763 123.168 38.7962C125.266 39.4579 127.262 40.3709 129.103 41.5095C130.94 42.6481 132.609 44.0047 134.057 45.5388C135.828 47.4241 138.944 51.4128 139.903 56.9725C140.08 57.989 140.44 60.0813 140.208 62.1478C143.611 63.863 146.14 67.5966 146.838 68.7093C149.616 73.1267 149.87 77.6477 149.778 79.9507C149.495 86.8449 145.633 91.3548 144.361 92.8372C142.729 94.7409 140.572 96.6299 138.595 97.8904C138.444 97.9866 138.301 98.0753 138.154 98.1603C138.257 99.5465 138.103 100.837 138.044 101.332C137.489 106.071 134.74 109.306 133.696 110.537C133.002 111.354 131.708 112.877 129.775 114.307C127.383 116.078 124.785 117.12 122.054 117.405C121.47 117.464 119.394 117.638 117.17 117.29C115.009 116.954 113.44 116.248 112.507 115.191C112.499 115.183 112.492 115.172 112.485 115.165C112.385 115.571 112.198 115.989 111.926 116.422C111.695 116.784 111.397 117.161 111.04 117.542L110.805 118.233L110.89 117.394C110.949 116.947 111 116.462 111.055 116.011C111.184 114.973 111.147 113.971 111.261 112.932C111.29 112.633 111.536 112.407 111.83 112.407C111.97 112.407 112.113 112.437 112.26 112.492C112.496 112.585 112.735 112.747 112.992 112.995C113.267 113.257 113.514 113.568 113.73 113.841L113.793 113.919C115.186 115.631 119.386 115.863 121.87 115.605C127.522 115.013 131.014 110.91 132.337 109.35C133.362 108.141 135.769 105.313 136.258 101.118C136.346 100.378 136.386 99.6833 136.386 99.0549C134.902 99.65 133.722 99.6537 132.873 99.0771C132.234 98.6409 131.763 97.8202 131.624 96.8813C131.484 95.983 131.672 95.1291 132.131 94.5487C133.042 93.3916 134.935 93.3177 136.126 93.972C136.912 94.4045 137.478 95.1697 137.816 96.2417C139.602 95.0736 141.524 93.3732 143.001 91.6542C143.597 90.9593 144.831 89.5139 145.912 87.4586C147.176 85.0631 147.871 82.5125 147.977 79.8768C148.065 77.7845 147.834 73.6775 145.317 69.6741C145.059 69.2638 142.755 65.6854 139.819 63.9887C139.466 65.0533 138.915 65.9257 138.176 66.5948C136.875 67.7703 135.471 68.2065 134.218 67.8258C132.645 67.3489 131.484 65.6632 131.734 64.2105C132.138 61.852 135.71 61.3715 136.115 61.3234C136.879 61.2347 137.669 61.2901 138.463 61.4861C138.569 59.83 138.286 58.185 138.132 57.283C137.254 52.189 134.384 48.5183 132.748 46.7846C130.055 43.9234 126.556 41.7572 122.631 40.5225C119.011 39.3839 115.211 39.066 111.643 39.6057C110.055 39.846 108.372 40.2674 106.88 40.7997C107.696 42.8772 108.012 45.524 106.498 46.925C105.506 47.8492 103.893 48.0932 102.662 47.5091C101.247 46.8363 100.501 45.1211 100.6 43.8495C100.717 42.3597 101.985 41.0252 104.363 39.8793C103.492 38.6298 102.235 37.6872 100.427 36.9183C97.568 35.7095 94.5215 34.9591 91.3721 34.6966C88.8437 34.4822 86.2419 34.5783 83.64 34.9812C79.3109 35.654 76.3636 36.9811 76.2387 37.0403C73.5743 38.2934 70.8255 40.0715 68.8961 41.8015C68.3412 42.2969 67.8598 42.7811 67.4556 43.2506C69.1534 43.5315 70.2889 44.1969 70.9284 45.2764C71.7185 46.6108 71.7589 48.7179 70.5609 49.7271C69.1865 50.8804 67.1799 49.9563 66.7941 49.7604C65.1514 48.9323 64.4531 47.3058 64.3245 46.7476C64.1885 46.1709 64.2179 45.5499 64.409 44.8956H64.2731C62.5826 44.9141 58.621 44.9547 54.6484 47.6902L54.6043 47.7198C53.9612 48.1634 52.4508 49.1985 50.9918 50.8583C49.1911 52.9025 48.1327 55.139 47.8387 57.5085C47.6182 59.2644 47.7909 61.2236 48.3054 62.924C49.5108 62.1884 50.5251 61.9777 51.4034 62.2882C52.0171 62.5026 52.5831 62.9906 52.9542 63.6227C53.3585 64.3066 53.4724 65.0792 53.2666 65.7335C52.8366 67.1012 51.1094 67.8369 49.8452 67.5855C48.9192 67.397 48.0813 66.6724 47.4161 65.4821C45.7477 66.3249 43.4288 67.8443 41.5362 70.4023C41.2238 70.8274 40.1324 72.3985 39.3018 74.7533C38.1883 77.8991 38.0046 81.0523 38.7579 84.1205C39.9523 88.9964 43.1127 91.7762 45.0053 93.4397L45.1229 93.5432C45.8984 94.2271 47.1699 95.3472 48.5664 96.227C48.8787 95.1143 49.6247 92.8408 51.5908 92.327C52.6382 92.0572 53.9244 92.3381 54.9461 93.0626C55.8023 93.6726 56.3389 94.5191 56.4124 95.3767C56.5483 96.9404 55.1813 98.4006 53.8252 98.9772C52.697 99.4541 51.385 99.4319 49.9151 98.907C49.8048 100.726 50.1576 102.737 50.9404 104.733C52.0135 107.468 53.8289 110.026 56.0559 111.93C56.9011 112.651 58.6614 114.019 60.9583 115.043C64.0158 116.407 66.8712 116.655 69.44 115.782C70.8255 115.313 72.7548 114.51 73.725 113.856C73.8095 113.812 73.861 113.775 73.9345 113.716C73.9529 113.701 73.9933 113.675 74.0337 113.657L74.0668 113.634C74.3534 113.442 74.5886 113.342 74.8716 113.431C75.0517 113.487 75.2134 113.601 75.3236 113.749C75.5 113.978 75.5515 114.292 75.4669 114.573L75.4743 114.581L75.4522 114.658C75.3567 114.984 75.2611 115.305 75.1656 115.627C75.07 115.945 74.9745 116.259 74.879 116.573L74.7577 116.972L74.5445 116.614C74.3755 116.322 74.2175 116.037 74.0631 115.764C73.8867 115.863 73.6919 115.963 73.4751 116.07C72.0456 116.788 70.4653 117.342 70.017 117.497C68.8337 117.897 67.5915 118.1 66.3163 118.1C60.9105 118.1 56.2029 114.433 54.8909 113.309C50.2458 109.335 47.5594 103.239 48.1805 98.0975L48.0923 98.0457C46.3908 97.0624 44.8583 95.7168 43.9359 94.9073L43.822 94.8038C41.7714 92.9998 38.3427 89.9834 37.0087 84.553C36.1708 81.1336 36.3729 77.6329 37.604 74.147ZM66.2171 44.5629L66.0922 44.5518L66.0407 44.6627C65.71 45.3318 65.5997 45.9233 65.7173 46.4186C65.7467 46.5517 65.89 46.9177 66.1693 47.328C66.445 47.7346 66.8602 48.1819 67.4372 48.4739C67.7091 48.6144 68.3302 48.851 68.8888 48.851C69.1754 48.851 69.4437 48.7881 69.6422 48.6218C70.2448 48.1154 70.164 46.8031 69.6973 46.0157C69.1901 45.1581 68.0509 44.6812 66.2171 44.5629ZM104.106 46.3853C104.628 46.3853 105.168 46.2042 105.528 45.8678C106.487 44.9769 106.197 42.8625 105.48 41.1583L105.407 40.9846L105.238 41.0622C103.216 41.9864 102.107 42.9918 102.029 43.964C102.029 44.0047 102.029 44.0454 102.029 44.0897C102.029 44.7699 102.437 45.8087 103.279 46.2079C103.529 46.3299 103.819 46.3853 104.109 46.3853H104.106ZM135.438 95.2363C135.144 95.0736 134.788 94.996 134.439 94.996C133.95 94.996 133.483 95.1512 133.252 95.4433C133.042 95.7094 132.961 96.1641 133.039 96.6632C133.119 97.2029 133.366 97.6723 133.678 97.883C133.851 98.0013 134.082 98.0605 134.365 98.0605C134.913 98.0605 135.644 97.8461 136.493 97.4321L136.618 97.3692L136.592 97.2287C136.386 96.2159 135.997 95.5431 135.438 95.2363ZM138.61 63.0276L138.437 62.9721C137.702 62.7466 136.974 62.6727 136.28 62.754C135.718 62.8205 134.979 62.998 134.358 63.2826C133.733 63.5673 133.233 63.9591 133.145 64.4581C133.02 65.1975 133.755 66.1808 134.63 66.4469C134.788 66.495 134.95 66.5209 135.122 66.5209C135.769 66.5209 136.497 66.1771 137.221 65.5228C137.845 64.9609 138.297 64.1772 138.562 63.1976L138.61 63.0276ZM51.8995 65.301C52.0759 64.7354 51.5725 63.8704 50.933 63.6486C50.4185 63.4674 49.6799 63.7114 48.6582 64.4101L48.5223 64.5025L48.5994 64.6504C49.0661 65.5376 49.5953 66.0662 50.1282 66.1697C50.2091 66.1882 50.2936 66.1956 50.3818 66.1956C51.0139 66.1956 51.7489 65.7852 51.8995 65.301ZM54.1192 94.2382C53.4614 93.7724 52.5684 93.5617 51.9473 93.7243C50.6317 94.0644 50.0878 96.0791 49.8563 96.9404C49.8379 97.0106 49.8195 97.0809 49.8048 97.1511L49.7644 97.3027L49.9077 97.3655C50.7015 97.7093 51.4255 97.8793 52.0723 97.8793C52.5059 97.8793 52.9028 97.8054 53.2666 97.6502C54.1192 97.2879 54.9902 96.4155 54.9902 95.5985C54.9902 95.5653 54.9902 95.5357 54.9902 95.5024C54.9534 95.0736 54.63 94.6004 54.1229 94.2382H54.1192Z" fill="#383838"/>
<path d="M94.3138 120.373C94.6629 120.373 94.99 120.159 95.1223 119.811L97.5183 113.416C97.6874 112.969 97.4595 112.466 97.0149 112.296C96.5702 112.126 96.0704 112.351 95.9014 112.802L93.5053 119.198C93.3362 119.645 93.5641 120.148 94.0088 120.318C94.108 120.355 94.2109 120.373 94.3138 120.373Z" fill="#383838"/>
<path d="M76.4844 81.4773C76.6093 81.5956 76.7747 81.6695 76.9437 81.6695C77.0981 81.6695 77.2561 81.6066 77.3958 81.4588C78.1124 80.6973 79.1928 80.2722 80.2291 80.3498C81.1148 80.4163 81.8718 80.8451 82.3569 81.5549C82.9339 82.3977 83.1066 83.4143 82.8494 84.4087C82.7244 84.8819 82.5113 85.3255 82.2136 85.721C81.938 86.087 81.5999 86.3975 81.2177 86.6488C81.0082 86.7819 80.8943 86.9963 80.9053 87.2366C80.9163 87.4917 81.0633 87.732 81.2838 87.8466C81.372 87.8909 81.4639 87.9131 81.5558 87.9131C81.6734 87.9131 81.7947 87.8761 81.9086 87.8059C82.4084 87.4806 82.8494 87.0777 83.2169 86.6008C89.0233 91.4064 98.8501 91.6504 104.609 86.8041C104.91 87.1664 105.263 87.4843 105.663 87.7504C105.774 87.8244 105.899 87.865 106.02 87.865C106.108 87.865 106.196 87.8429 106.277 87.8022C106.494 87.695 106.645 87.4547 106.663 87.1996C106.678 86.9557 106.567 86.7339 106.362 86.5934C106.075 86.4012 105.818 86.172 105.601 85.9058C105.292 85.5251 105.068 85.0852 104.936 84.6046C104.62 83.4476 104.895 82.2277 105.678 81.3405C106.277 80.6603 107.115 80.287 108.034 80.2906C108.986 80.2906 109.89 80.7047 110.514 81.4144C110.786 81.7249 111.168 81.6732 111.404 81.4625C111.657 81.237 111.771 80.8156 111.481 80.4755C110.588 79.4552 109.28 78.9044 107.887 78.9488C106.523 78.9968 105.289 79.6289 104.484 80.6825C103.429 82.0761 103.183 83.8653 103.822 85.4733C103.83 85.4918 103.837 85.514 103.848 85.5325C98.5891 90.1385 89.2291 89.9019 83.9445 85.3218C83.9519 85.3033 83.9592 85.2811 83.9702 85.2626C84.595 83.6361 84.3414 81.8802 83.294 80.5605C82.526 79.6031 81.4125 79.0449 80.1446 78.9931C78.7665 78.9377 77.3811 79.5033 76.4439 80.5051C76.1463 80.823 76.2455 81.2407 76.488 81.4699L76.4844 81.4773Z" fill="#383838"/>
<path d="M105.502 74.5348C108.361 74.5348 110.691 71.4481 110.691 67.6517C110.691 63.8552 108.365 60.7686 105.502 60.7686C102.64 60.7686 100.313 63.8552 100.313 67.6517C100.313 71.4481 102.64 74.5348 105.502 74.5348ZM105.502 61.9034C107.744 61.9034 109.563 64.4837 109.563 67.6517C109.563 70.8197 107.74 73.3999 105.502 73.3999C103.264 73.3999 101.442 70.8197 101.442 67.6517C101.442 64.4837 103.264 61.9034 105.502 61.9034Z" fill="#383838"/>
<path d="M105.375 68.3793C103.384 68.3793 101.77 66.7888 101.77 64.8269C101.77 62.8649 103.384 61.2744 105.375 61.2744C107.366 61.2744 108.98 62.8649 108.98 64.8269C108.98 66.7888 107.366 68.3793 105.375 68.3793Z" fill="#383838"/>
<path d="M82.4047 74.5348C85.2638 74.5348 87.5938 71.4481 87.5938 67.6517C87.5938 63.8552 85.2675 60.7686 82.4047 60.7686C79.542 60.7686 77.2157 63.8552 77.2157 67.6517C77.2157 71.4481 79.542 74.5348 82.4047 74.5348ZM82.4047 61.9034C84.6464 61.9034 86.4655 64.4837 86.4655 67.6517C86.4655 70.8197 84.6428 73.3999 82.4047 73.3999C80.1667 73.3999 78.3439 70.8197 78.3439 67.6517C78.3439 64.4837 80.1667 61.9034 82.4047 61.9034Z" fill="#383838"/>
<path d="M82.2738 68.3793C80.2827 68.3793 78.6687 66.7888 78.6687 64.8269C78.6687 62.8649 80.2827 61.2744 82.2738 61.2744C84.2648 61.2744 85.8789 62.8649 85.8789 64.8269C85.8789 66.7888 84.2648 68.3793 82.2738 68.3793Z" fill="#383838"/>
</svg>
