<svg width="34" height="34" viewBox="0 0 34 34" fill="none" xmlns="http://www.w3.org/2000/svg">
<g clip-path="url(#clip0_0_66)">
<path d="M23.0356 9.68169L5.32731 16.0567C5.149 16.1209 4.99256 16.2343 4.87615 16.3839C4.75975 16.5334 4.68815 16.713 4.66969 16.9016C4.65122 17.0902 4.68663 17.2802 4.77182 17.4495C4.857 17.6188 4.98847 17.7604 5.15094 17.858L12.0196 21.9798L16.1414 28.8485C16.2385 29.0116 16.38 29.1438 16.5494 29.2295C16.7188 29.3152 16.9091 29.3509 17.0981 29.3324C17.287 29.3139 17.4668 29.242 17.6164 29.125C17.766 29.0081 17.8792 28.851 17.9427 28.6721L24.3177 10.9638C24.3822 10.7849 24.3944 10.5913 24.353 10.4057C24.3115 10.2202 24.2181 10.0502 24.0837 9.91573C23.9492 9.78127 23.7792 9.68785 23.5937 9.64641C23.4081 9.60497 23.2145 9.6172 23.0356 9.68169ZM16.7718 26.0066L14.4556 22.1462L17.7083 16.2911L11.8532 19.5438L7.99277 17.2276L21.711 12.2884L16.7718 26.0066Z" fill="white"/>
</g>
<defs>
<clipPath id="clip0_0_66">
<rect width="24" height="24" fill="white" transform="translate(0 16.9999) scale(1.00173) rotate(-45)"/>
</clipPath>
</defs>
</svg>
