<svg width="196" height="40" viewBox="0 0 196 40" fill="none" xmlns="http://www.w3.org/2000/svg">
<rect x="156" width="40" height="40" rx="8" fill="white"/>
<path d="M181.273 11.75H184.084L177.942 18.7392L185.167 28.25H179.51L175.079 22.4818L170.009 28.25H167.196L173.765 20.7742L166.834 11.75H172.635L176.64 17.0224L181.273 11.75ZM180.286 26.5746H181.844L171.788 13.3374H170.117L180.286 26.5746Z" fill="#383838"/>
<rect width="40" height="40" rx="8" fill="white"/>
<path d="M21.397 28.9969V20.8009H24.162L24.573 17.5919H21.397V15.5479C21.397 14.6219 21.655 13.9879 22.984 13.9879H24.668V11.1269C23.8487 11.0391 23.0251 10.9967 22.201 10.9999C19.757 10.9999 18.079 12.4919 18.079 15.2309V17.5859H15.332V20.7949H18.085V28.9969H21.397Z" fill="#383838"/>
<rect x="104" width="40" height="40" rx="8" fill="white"/>
<path d="M116.983 15.1963C118.191 15.1963 119.171 14.2167 119.171 13.0083C119.171 11.7999 118.191 10.8203 116.983 10.8203C115.775 10.8203 114.795 11.7999 114.795 13.0083C114.795 14.2167 115.775 15.1963 116.983 15.1963Z" fill="#383838"/>
<path d="M121.238 16.8547V28.9937H125.007V22.9907C125.007 21.4067 125.305 19.8727 127.269 19.8727C129.206 19.8727 129.23 21.6837 129.23 23.0907V28.9947H133.001V22.3377C133.001 19.0677 132.297 16.5547 128.475 16.5547C126.64 16.5547 125.41 17.5617 124.907 18.5147H124.856V16.8547H121.238ZM115.096 16.8547H118.871V28.9937H115.096V16.8547Z" fill="#383838"/>
<rect x="52" width="40" height="40" rx="8" fill="white"/>
<g clip-path="url(#clip0_0_39)">
<path d="M64.666 16.3307C64.666 15.3583 65.0523 14.4256 65.74 13.738C66.4276 13.0504 67.3602 12.6641 68.3327 12.6641H75.666C76.6385 12.6641 77.5711 13.0504 78.2587 13.738C78.9464 14.4256 79.3327 15.3583 79.3327 16.3307V23.6641C79.3327 24.6365 78.9464 25.5692 78.2587 26.2568C77.5711 26.9444 76.6385 27.3307 75.666 27.3307H68.3327C67.3602 27.3307 66.4276 26.9444 65.74 26.2568C65.0523 25.5692 64.666 24.6365 64.666 23.6641V16.3307Z" stroke="#383838" stroke-width="2" stroke-linecap="round" stroke-linejoin="round"/>
<path d="M69.25 20C69.25 20.7293 69.5397 21.4288 70.0555 21.9445C70.5712 22.4603 71.2707 22.75 72 22.75C72.7293 22.75 73.4288 22.4603 73.9445 21.9445C74.4603 21.4288 74.75 20.7293 74.75 20C74.75 19.2707 74.4603 18.5712 73.9445 18.0555C73.4288 17.5397 72.7293 17.25 72 17.25C71.2707 17.25 70.5712 17.5397 70.0555 18.0555C69.5397 18.5712 69.25 19.2707 69.25 20Z" stroke="#383838" stroke-width="2" stroke-linecap="round" stroke-linejoin="round"/>
<path d="M76.125 15.875V15.885" stroke="#383838" stroke-width="2" stroke-linecap="round" stroke-linejoin="round"/>
</g>
<defs>
<clipPath id="clip0_0_39">
<rect width="22" height="22" fill="white" transform="translate(61 9)"/>
</clipPath>
</defs>
</svg>
