<svg width="52" height="48" viewBox="0 0 52 48" fill="none" xmlns="http://www.w3.org/2000/svg">
<g clip-path="url(#clip0_1_691)">
<path d="M33.4543 46.243C41.2911 41.1455 42.6421 40.5486 47.1017 29.4803C48.0112 27.2205 54.2497 11.7374 46.2554 4.57084C40.7634 -0.353077 29.9733 -0.0765598 25.2988 5.17346C23.3358 7.37797 22.3821 10.9021 22.6776 14.2509C22.8963 16.7224 24.8191 20.4563 27.9086 18.391C29.9023 17.058 28.7241 12.1951 26.763 9.3136C23.4355 4.42591 16.9899 4.096 16.0208 4.06167C15.6984 4.05023 7.95174 3.89385 3.67061 9.7503C3.67061 9.7503 1.3065 12.9827 1.12036 17.2525C0.613764 28.7938 15.0345 45.8673 35.3866 45.6461L33.4562 46.243H33.4543Z" fill="#FCA917"/>
<path d="M34.0051 47.7025C33.6079 47.7025 33.2529 47.6281 32.9842 47.5709C22.8696 45.4293 13.511 40.0229 6.63162 32.3472C4.15429 29.582 2.42534 26.9713 1.35074 24.3625C-0.808051 19.1334 -0.36286 13.8128 2.56926 9.76615C5.44573 5.79574 9.90915 3.23271 14.5088 2.91042C17.8036 2.67586 21.1099 3.65607 23.8367 5.45057C24.6427 4.31589 25.6463 3.31471 26.8168 2.52139C29.1061 0.96717 32.0056 0.122361 35.4289 0.011754C40.1092 -0.140807 44.2061 1.19601 46.9617 3.7743C49.3603 6.01695 50.8916 9.35042 51.2697 13.1606C51.5594 16.0669 51.237 19.162 50.2277 23.1935C48.138 31.5405 43.1104 39.9352 36.0699 46.829C35.6803 47.2124 35.2006 47.4851 34.6806 47.6205C34.4484 47.6815 34.2181 47.7044 34.0032 47.7044L34.0051 47.7025ZM15.4894 5.03675C15.2131 5.03675 14.9387 5.04628 14.6623 5.06535C10.6997 5.34378 6.83887 7.57308 4.33467 11.0286C1.84966 14.4574 1.49658 19.0171 3.36177 23.5424C4.34235 25.9186 5.94273 28.3291 8.25503 30.9093C14.8274 38.2417 23.7695 43.4079 33.4352 45.456C33.6482 45.5018 33.9706 45.5685 34.1317 45.5285C34.2795 45.4903 34.4253 45.4045 34.5424 45.2901C41.3008 38.6689 46.1212 30.6366 48.1169 22.6709C49.0648 18.8893 49.368 16.0231 49.1051 13.3723C48.7789 10.0827 47.4875 7.23363 45.4707 5.34759C42.3236 2.40506 37.8698 2.09803 35.498 2.1705C32.493 2.26776 29.9849 2.9848 28.0411 4.30445C27.072 4.96237 26.2411 5.80718 25.5733 6.77213C27.5153 8.47701 29.0063 10.6434 29.7508 13.0748C30.2325 14.6462 30.2939 15.9754 29.9389 17.1387C29.4381 18.7825 28.0104 19.982 26.4656 20.0564C26.4138 20.0583 26.3563 20.0602 26.2968 20.0602C24.0516 20.0602 22.5971 17.9492 22.031 16.1375C21.1195 13.214 21.4419 10.0274 22.7448 7.30038C20.6206 5.87583 18.0723 5.03484 15.4875 5.03484L15.4894 5.03675ZM24.516 8.71729C23.6237 10.8627 23.4261 13.2999 24.1111 15.4986C24.4719 16.6562 25.3104 17.8996 26.3006 17.8996H26.3563C26.9818 17.8691 27.6247 17.2722 27.8569 16.5113C28.0833 15.7714 28.0219 14.8522 27.6707 13.7041C27.0893 11.8086 25.9725 10.1037 24.5141 8.71539L24.516 8.71729Z" fill="#383838"/>
</g>
<defs>
<clipPath id="clip0_1_691">
<rect width="51.3716" height="48" fill="white"/>
</clipPath>
</defs>
</svg>
