<svg width="367" height="450" viewBox="0 0 367 450" fill="none" xmlns="http://www.w3.org/2000/svg">
<path d="M303.001 169.217C300.167 180.724 292.869 187.113 288.502 190.93L288.253 191.155C286.126 193.02 282.874 195.864 279.23 197.93C280.506 208.658 274.862 221.685 264.94 230.131C261.046 233.45 247.198 243.897 232.731 239.003C230.829 238.368 227.85 237.227 225.338 235.965C225.217 272.023 225.089 308.073 224.96 344.131C242.1 338.763 262.363 345.859 272.43 360.75C274.397 363.667 276.01 366.906 276.853 370.305C277.343 372.258 277.568 374.259 277.471 376.276C277.199 381.805 274.019 387.398 268.865 389.431C266.016 390.556 262.861 390.532 259.794 390.5C239.772 390.283 219.75 390.058 199.728 389.841C196.276 389.801 192.616 389.704 189.717 387.832C186.683 385.863 185.077 382.311 184.066 378.839C184.042 378.767 184.026 378.687 184.001 378.614C182.934 382.753 180.967 386.418 177.226 388.234C174.609 389.503 171.598 389.56 168.692 389.592C148.991 389.833 129.291 390.074 109.59 390.307C106.178 390.355 102.678 390.379 99.4747 389.198C90.4592 385.871 89.2149 375.617 92.2093 367.742C95.6774 358.612 103.36 350.793 111.99 346.454C121.503 341.68 132.863 340.748 143.019 343.914C142.882 307.599 142.754 271.284 142.617 234.968C142.505 234.671 142.408 234.382 142.336 234.084C142.272 234.149 142.208 234.221 142.143 234.293C140.136 236.439 136.845 237.877 132.365 238.577C127.621 239.308 123.205 238.938 121.969 238.81C108.402 237.403 99.9564 227.511 97.1787 224.264C94.9549 221.652 89.0945 214.798 87.9144 204.752C87.6173 202.229 87.537 199.995 87.6735 198.042C87.3684 197.857 87.0634 197.673 86.7583 197.472C82.5436 194.804 77.9436 190.802 74.4755 186.768C71.77 183.625 63.5494 174.07 62.9473 159.469C62.7466 154.583 63.2925 145.004 69.2011 135.642C70.5096 133.56 75.9767 125.436 83.3143 121.747C82.8246 117.383 83.5712 113.044 83.9646 110.794C86.0037 99.0048 92.6348 90.5508 96.408 86.5649C99.5068 83.2942 103.055 80.4252 106.957 78.0224C110.858 75.6196 115.105 73.6829 119.593 72.2766C127.854 69.689 136.532 68.9657 144.704 70.1952C147.795 70.6613 152.026 71.6096 156.008 73.0722C158.32 69.4639 161.7 66.7959 166.508 64.7708C194.462 52.9738 220.039 64.578 221.107 65.0762C227.104 67.8808 233.301 71.8828 237.677 75.7804C239.86 77.7251 241.562 79.5895 242.783 81.3574C243.553 81.3494 244.3 81.3574 244.99 81.3655C248.94 81.4057 258.196 81.4941 267.613 87.9471L267.709 88.0114C274.252 92.4875 282.352 100.186 283.757 111.453C284.327 115.993 283.798 121.128 282.385 125.291C286.664 127.413 292.034 131.005 296.442 136.943C298.256 139.386 307.127 152.461 303.001 169.217Z" fill="white"/>
<path d="M187.101 251.95C187.109 252.601 187.117 253.252 187.125 253.903C186.876 253.903 186.635 253.903 186.394 253.903C185.985 253.903 185.584 253.903 185.19 253.903C184.941 253.903 184.701 253.895 184.468 253.887C184.05 253.871 183.649 253.855 183.264 253.839C183.015 253.823 182.774 253.807 182.541 253.799C182.549 253.148 182.565 252.497 182.581 251.846C182.694 246.116 182.814 240.209 182.942 234.126C182.942 234.005 182.942 233.893 182.942 233.772C182.942 233.74 182.942 233.716 182.942 233.684C182.942 233.588 182.95 233.491 182.966 233.395C183.063 232.398 183.898 231.635 184.925 231.651C185.969 231.675 186.796 232.519 186.812 233.547C186.812 233.572 186.812 233.596 186.812 233.62C186.812 233.788 186.812 233.949 186.804 234.118C186.932 240.209 187.029 246.156 187.109 251.95H187.101Z" fill="white"/>
<path d="M301.13 168.752C298.44 179.665 291.432 185.796 287.233 189.477C285.122 191.325 281.26 194.765 277.118 196.846C279.02 207.293 273.353 220.432 263.695 228.661C261.03 230.927 247.398 241.921 233.349 237.179C230.716 236.287 227.216 234.873 224.864 233.539C224.31 233.226 223.828 232.92 223.427 232.623C223.427 232.639 223.419 232.663 223.403 232.679C223.25 232.944 223.089 233.226 222.937 233.507C222.359 234.551 221.733 235.693 220.994 236.89L221.01 233.001V232.936C221.01 232.792 221.026 232.647 221.058 232.51C220.978 231.972 221.131 231.425 221.428 231.032C221.974 230.308 223.105 229.899 224.294 230.686C224.567 230.863 224.783 231.08 224.96 231.321C226.895 232.607 230.836 234.27 233.967 235.331C246.523 239.574 258.942 230.156 262.451 227.174C270.888 219.99 276.034 208.82 275.512 199.642C272.735 200.623 269.869 200.888 267.203 199.763C264.241 198.509 261.391 195.48 261.68 192.129C261.841 190.272 262.956 188.528 264.811 187.219C266.987 185.676 269.732 185.081 271.964 185.66C276.034 186.72 277.648 191.253 278.386 193.856C280.401 192.587 282.818 190.779 285.716 188.239L285.965 188.022C289.987 184.502 296.714 178.612 299.259 168.285C303.048 152.896 294.346 140.593 293.342 139.235C289.433 133.971 284.672 130.741 280.827 128.82C279.478 131.199 277.736 132.862 275.665 133.272C272.967 133.81 269.283 132.243 268.367 129.342C267.42 126.329 269.724 122.937 272.341 122.029C274.709 121.202 277.166 122.295 278.932 123.363C279.92 120.069 280.417 115.882 279.928 111.92C278.699 102.092 271.418 95.2208 265.525 91.1947L265.437 91.1304C256.984 85.3444 248.554 85.256 244.95 85.2238C244.869 85.2238 244.781 85.2238 244.693 85.2238C245.094 86.598 245.15 87.8999 244.861 89.1294C244.46 90.8331 242.726 93.9431 239.595 95.5182C238.768 95.936 234.489 97.8969 231.559 95.4378C229.504 93.7181 228.621 89.6196 230.772 85.9953C232.346 83.3514 235.155 82.2023 238.118 81.704C234.296 77.3163 227.296 72.2294 219.477 68.5649C219.228 68.4524 194.397 57.1777 168.001 68.3078C164.156 69.923 161.499 71.908 159.628 74.576C163.955 76.6573 167.359 79.4459 167.64 82.9737C167.857 85.6658 166.267 89.3142 163.241 90.7447C160.624 91.9822 157.18 91.4599 155.06 89.4991C151.6 86.3087 152.732 80.37 154.233 76.5368C151.078 75.4117 147.514 74.5117 144.118 73.9974C127.885 71.5624 110.256 77.5252 99.2013 89.2017C95.7252 92.8743 89.6159 100.637 87.7534 111.43C87.4323 113.294 86.8222 116.806 87.0469 120.318C88.6525 119.916 90.3224 119.779 92.0323 119.972C92.8994 120.077 100.502 121.097 101.369 126.104C101.899 129.182 99.4261 132.766 96.0704 133.778C93.3971 134.582 90.4026 133.658 87.625 131.166C85.915 129.632 84.8152 127.711 84.1328 125.654C77.9592 129.206 73.1505 136.575 72.444 137.692C67.0974 146.162 66.5996 154.865 66.7843 159.293C67.3302 172.553 74.8925 181.344 77.3812 184.229C80.8172 188.215 84.8473 191.622 88.3876 193.921C89.1021 191.663 90.3063 190.063 91.9922 189.139C94.5371 187.741 98.5671 187.902 100.518 190.361C101.497 191.598 101.891 193.406 101.602 195.319C101.297 197.312 100.301 199.056 98.9284 199.98C97.1221 201.21 94.6173 201.193 91.4623 199.948C91.4623 201.266 91.5426 202.72 91.7273 204.295C92.7709 213.175 97.8847 219.162 100.068 221.718C102.886 225.013 110.312 233.716 122.346 234.961C127.628 235.508 136.556 235.018 139.526 231.393L139.654 231.233C140.658 229.979 142.095 228.187 143.717 228.187C144.046 228.187 144.375 228.259 144.72 228.42C146.422 229.248 146.133 231.401 146.013 232.325L145.997 232.43C145.98 232.542 145.98 232.655 145.997 232.776H145.98L145.997 236.85C144.889 235.492 144.11 234.069 144.062 232.727C144.062 232.551 144.062 232.366 144.086 232.197C144.118 231.948 144.222 231.313 144.174 230.807C144.15 230.501 144.07 230.244 143.885 230.156C143.179 229.818 141.453 232.084 141.027 232.607C137.294 237.163 127.139 237.388 122.153 236.874C109.325 235.54 101.417 226.242 98.6153 222.963C96.2872 220.239 90.9164 213.85 89.8246 204.512C89.6882 203.387 89.3028 200.101 89.7203 196.974C85.0721 194.451 79.7094 189.879 75.9282 185.499C72.9257 182.011 65.4275 173.059 64.8656 159.381C64.7211 155.87 64.7933 146.226 70.8224 136.671C71.6733 135.321 77.6702 126.055 85.4253 122.889C84.5984 118.381 85.4413 113.479 85.8508 111.116C87.9461 98.9898 95.083 90.7527 97.8045 87.8838C110.489 74.4876 129.202 69.8105 144.407 72.1008C148.156 72.6634 152.828 73.8206 156.85 75.4599C158.729 71.8758 161.747 68.8703 167.255 66.5398C194.823 54.9115 220.296 66.8211 220.296 66.8211C228.677 70.7427 238.222 77.4207 241.73 83.3112C242.878 83.2711 243.986 83.2791 244.974 83.2871C248.915 83.3273 257.65 83.4559 266.529 89.5312C269.122 91.3072 280.233 98.7728 281.846 111.679C282.464 116.669 281.646 122.303 279.952 126.272C283.572 127.864 289.842 131.279 294.892 138.086C295.943 139.5 305.168 152.366 301.13 168.743V168.752Z" fill="white"/>
<path d="M165.127 124.584C164.645 124.439 164.131 124.496 163.682 124.737C163.24 124.978 162.911 125.38 162.775 125.87C162.269 127.614 160.639 131.929 156.593 134.452C155.325 135.24 151.463 137.651 147.538 135.795C144.415 134.316 142.215 130.708 141.79 126.376C141.685 125.331 140.762 124.576 139.718 124.672C138.675 124.777 137.912 125.701 138.016 126.746C138.57 132.403 141.597 137.185 145.924 139.226C147.417 139.933 148.991 140.287 150.62 140.287C151.704 140.287 152.836 140.126 153.96 139.813C156.16 139.202 157.813 138.173 158.6 137.675C163.762 134.461 165.785 129.092 166.419 126.939C166.564 126.448 166.508 125.934 166.267 125.492C166.026 125.05 165.625 124.721 165.135 124.584H165.127Z" fill="#383838"/>
<path d="M223.168 124.841C222.125 124.729 221.194 125.484 221.073 126.521C220.599 130.844 218.36 134.42 215.221 135.851C211.271 137.651 207.442 135.192 206.173 134.38C202.151 131.792 200.578 127.453 200.088 125.701C199.951 125.211 199.63 124.809 199.189 124.56C198.747 124.311 198.233 124.246 197.744 124.383C196.74 124.664 196.146 125.717 196.427 126.722C197.029 128.891 198.996 134.284 204.118 137.57C204.905 138.077 206.55 139.129 208.734 139.772C209.914 140.118 211.094 140.295 212.234 140.295C213.808 140.295 215.333 139.957 216.786 139.298C221.137 137.313 224.22 132.572 224.838 126.922C224.951 125.878 224.196 124.946 223.16 124.825L223.168 124.841Z" fill="#383838"/>
<path d="M210.221 176.714L209.932 176.987L210.221 176.706C210.18 176.658 209.233 175.613 208.695 173.853L208.599 173.508C208.535 173.275 208.487 173.042 208.446 172.809C208.414 172.584 208.382 172.359 208.366 172.134C208.334 171.676 208.334 171.193 208.366 170.671C208.551 168.341 209.482 166.364 209.498 166.331C209.916 165.464 209.627 164.403 208.832 163.921C208.438 163.68 207.981 163.615 207.547 163.744C207.098 163.872 206.712 164.202 206.496 164.652C206.319 165.006 204.826 168.204 204.97 171.941C204.858 172.053 204.729 172.174 204.593 172.31C199.399 177.293 191.788 180.162 183.632 180.178C175.467 180.178 167.801 177.277 162.598 172.214C162.438 172.061 162.309 171.925 162.189 171.804C162.285 168.18 160.824 165.006 160.648 164.652C160.431 164.21 160.046 163.88 159.596 163.744C159.162 163.615 158.705 163.68 158.312 163.921C157.517 164.403 157.228 165.464 157.653 166.331C157.653 166.348 158.368 167.834 158.673 169.811L158.737 170.446C158.801 171.041 158.809 171.627 158.769 172.19C158.753 172.375 158.737 172.56 158.705 172.744C158.673 172.945 158.633 173.146 158.584 173.355C158.111 175.38 156.963 176.666 156.923 176.714C156.28 177.381 156.248 178.506 156.842 179.213C157.453 179.945 158.641 179.985 159.267 179.318C159.275 179.31 160.302 178.241 161.137 176.377C166.974 181.464 175.138 184.365 183.624 184.365H183.712C192.117 184.349 200.218 181.472 206.03 176.465C206.833 178.241 207.804 179.262 207.844 179.302C208.511 180.001 209.675 179.945 210.277 179.221C210.879 178.514 210.847 177.397 210.213 176.722L210.221 176.714Z" fill="#383838"/>
<path d="M296.442 136.944C292.034 131.005 286.664 127.413 282.385 125.292C283.798 121.129 284.327 115.994 283.757 111.453C282.352 100.187 274.252 92.488 267.709 88.0119L267.613 87.9476C258.196 81.4945 248.94 81.4061 244.99 81.366C244.3 81.3579 243.553 81.3499 242.783 81.3579C241.562 79.59 239.86 77.7256 237.677 75.7808C233.301 71.8833 227.104 67.8813 221.107 65.0767C220.039 64.5785 194.462 52.9743 166.508 64.7713C161.7 66.7964 158.32 69.4644 156.008 73.0727C152.026 71.6101 147.795 70.6618 144.704 70.1957C136.532 68.9662 127.854 69.6895 119.593 72.2771C115.105 73.6834 110.858 75.6201 106.957 78.0229C103.055 80.4257 99.5068 83.2946 96.408 86.5654C92.6348 90.5513 86.0037 99.0053 83.9646 110.794C83.5712 113.044 82.8246 117.384 83.3143 121.748C75.9767 125.436 70.5096 133.561 69.2011 135.642C63.2925 145.004 62.7466 154.583 62.9473 159.469C63.5494 174.071 71.77 183.626 74.4755 186.768C77.9436 190.802 82.5436 194.804 86.7583 197.472C87.0634 197.673 87.3684 197.858 87.6735 198.043C87.537 199.996 87.6173 202.23 87.9144 204.753C89.0945 214.798 94.9549 221.653 97.1787 224.265C99.9564 227.511 108.402 237.404 121.969 238.81C123.205 238.939 127.621 239.308 132.365 238.577C136.845 237.878 140.136 236.439 142.143 234.294C142.208 234.221 142.272 234.149 142.336 234.085C142.408 234.382 142.505 234.672 142.617 234.961C142.954 235.845 143.468 236.705 144.078 237.548C144.239 237.757 144.399 237.966 144.568 238.175C145.018 238.714 145.507 239.252 146.021 239.766V236.881L145.997 232.799H146.013C145.997 232.671 146.013 232.566 146.013 232.454L146.029 232.341C146.053 232.188 146.069 232.004 146.093 231.803V231.779C146.19 230.726 146.149 229.127 144.737 228.435C144.399 228.275 144.062 228.202 143.733 228.202C142.111 228.202 140.682 229.986 139.671 231.248L139.542 231.401C136.58 235.025 127.645 235.523 122.362 234.969C110.329 233.723 102.911 225.028 100.093 221.725C97.9092 219.17 92.7954 213.175 91.7517 204.303C91.5671 202.728 91.4788 201.273 91.4788 199.955C94.6338 201.201 97.1385 201.217 98.9448 199.988C100.31 199.063 101.313 197.32 101.618 195.327C101.907 193.414 101.514 191.606 100.534 190.368C98.5836 187.917 94.5535 187.757 92.0086 189.155C90.3228 190.079 89.1186 191.678 88.4041 193.936C84.8637 191.638 80.8256 188.231 77.3977 184.245C74.909 181.36 67.3466 172.568 66.8007 159.309C66.6161 154.873 67.1138 146.177 72.4605 137.707C73.1669 136.59 77.9677 129.213 84.1492 125.669C84.8316 127.726 85.9314 129.647 87.6414 131.182C90.4111 133.673 93.4135 134.605 96.0869 133.794C99.4345 132.789 101.907 129.197 101.377 126.119C100.51 121.121 92.9078 120.092 92.0407 119.988C90.3308 119.795 88.661 119.939 87.0554 120.333C86.8306 116.829 87.4407 113.31 87.7618 111.453C89.6323 100.661 95.7336 92.8898 99.2097 89.2253C110.264 77.5408 127.894 71.5779 144.126 74.0129C147.522 74.5272 151.095 75.4273 154.242 76.5523C152.74 80.3856 151.609 86.3243 155.069 89.5227C157.188 91.4754 160.632 92.0058 163.249 90.7602C166.276 89.3298 167.857 85.6894 167.648 82.9893C167.367 79.4694 163.964 76.6809 159.637 74.5915C161.507 71.9235 164.164 69.9466 168.01 68.3313C194.406 57.1932 219.236 68.468 219.485 68.5805C227.304 72.2369 234.305 77.3318 238.126 81.7196C235.164 82.2178 232.354 83.367 230.781 86.0109C228.629 89.6271 229.512 93.7336 231.567 95.4533C234.498 97.9044 238.777 95.9435 239.603 95.5257C242.726 93.9506 244.46 90.8406 244.87 89.1369C245.159 87.8994 245.103 86.5975 244.701 85.2314H244.958C248.555 85.2635 256.984 85.3519 265.438 91.1379L265.526 91.2022C271.418 95.2283 278.7 102.099 279.928 111.927C280.426 115.889 279.92 120.076 278.933 123.371C277.174 122.294 274.71 121.209 272.35 122.037C269.732 122.945 267.428 126.336 268.376 129.35C269.283 132.251 272.976 133.818 275.673 133.279C277.736 132.87 279.478 131.206 280.827 128.827C284.665 130.748 289.433 133.979 293.343 139.242C294.346 140.6 303.049 152.904 299.259 168.293C296.715 178.619 289.987 184.51 285.965 188.03L285.708 188.247C282.818 190.786 280.402 192.586 278.387 193.864C277.64 191.26 276.034 186.728 271.956 185.667C269.724 185.088 266.979 185.683 264.803 187.226C262.949 188.544 261.833 190.288 261.672 192.144C261.383 195.495 264.225 198.517 267.196 199.779C269.861 200.904 272.727 200.646 275.505 199.658C276.026 208.827 270.88 220.006 262.443 227.19C258.935 230.171 246.516 239.59 233.96 235.347C230.829 234.286 226.887 232.622 224.952 231.337C224.784 231.095 224.559 230.878 224.286 230.702C223.098 229.914 221.974 230.324 221.42 231.047C221.123 231.441 220.97 231.979 221.051 232.518C221.067 232.614 221.091 232.711 221.115 232.807C221.091 232.847 221.284 235.122 221.372 236.247C221.388 236.375 221.396 236.488 221.404 236.584V236.624C221.42 236.777 221.428 236.865 221.428 236.865L221.468 238.995L221.492 240.417C222.231 239.405 222.351 238.376 222.913 237.436C223.082 237.155 223.25 236.881 223.403 236.608C223.66 236.174 223.901 235.748 224.125 235.339C224.358 235.467 224.599 235.596 224.848 235.724C225.008 235.805 225.169 235.893 225.338 235.965C227.85 237.227 230.829 238.368 232.731 239.003C247.198 243.897 261.046 233.45 264.94 230.131C274.862 221.685 280.506 208.659 279.23 197.93C282.874 195.865 286.126 193.02 288.253 191.156L288.502 190.931C292.869 187.114 300.167 180.725 303.001 169.217C307.127 152.462 298.256 139.387 296.442 136.944ZM93.8631 192.546C95.1074 191.863 96.9699 192.096 97.5078 192.771C97.8129 193.157 97.9253 193.928 97.8048 194.74C97.6684 195.632 97.2429 196.476 96.7773 196.789C95.9424 197.36 94.1521 196.998 91.8802 195.913C92.2655 194.218 92.9399 193.052 93.8631 192.546ZM91.5992 123.829C94.2886 124.142 97.3392 125.404 97.572 126.778C97.7567 127.839 96.5685 129.615 94.971 130.097C93.6383 130.499 91.9524 129.864 90.2184 128.305C88.9901 127.204 88.1953 125.758 87.7056 124.15C88.9821 123.805 90.2826 123.676 91.5992 123.829ZM274.911 129.494C273.875 129.703 272.301 128.98 272.053 128.193C271.812 127.429 272.703 125.999 273.618 125.677C273.771 125.629 273.931 125.605 274.116 125.605C275.127 125.605 276.492 126.384 277.455 127.003C276.669 128.41 275.786 129.318 274.911 129.494ZM268.697 196.219C266.899 195.455 265.413 193.703 265.518 192.474C265.574 191.791 266.144 191.011 267.035 190.384C267.998 189.701 269.179 189.316 270.182 189.316C270.471 189.316 270.744 189.34 270.993 189.412C273.345 190.023 274.421 193.976 274.878 195.664C274.878 195.688 274.878 195.712 274.895 195.736C271.258 197.303 269.556 196.58 268.697 196.219ZM163.803 83.2946C163.891 84.476 163.105 86.5573 161.595 87.2725C160.407 87.8351 158.649 87.5699 157.686 86.6779C156.088 85.2072 156.49 81.3338 157.806 78.0069C161.258 79.6302 163.659 81.5106 163.803 83.2946ZM241.113 88.2449C240.992 88.7431 240.053 90.9772 237.861 92.0782C236.778 92.6246 234.811 93.1309 234.04 92.488C233.189 91.7728 233.221 89.4584 234.096 87.9878C235.188 86.1555 237.853 85.5207 240.599 85.3197C241.113 86.4207 241.305 87.4172 241.113 88.2449Z" fill="#383838"/>
<path d="M184.098 357.27C183.881 361.634 183.681 368.569 183.536 370.426C183.456 371.454 183.327 373.094 182.99 374.974C182.428 378.028 181.304 381.716 178.872 384.433C178.751 384.561 178.631 384.69 178.519 384.818C176.712 386.675 174.456 387.615 172.16 387.639C149.69 387.896 127.228 388.145 104.757 388.394C100.39 388.443 92.5227 383.902 92.4183 378.197C92.3701 375.85 92.5869 373.286 93.2612 370.634C93.7991 368.513 96.8738 360.742 103.24 354.803C107.647 350.689 115.105 346.968 119.673 345.449C119.673 345.449 132.55 341.174 144.954 346.799C144.833 310.379 144.705 273.952 144.584 237.532C144.584 235.933 144.576 234.341 144.568 232.742H144.576L146.495 232.79L146.511 236.865V239.75L146.88 345.578C147.836 346.06 148.783 346.598 149.73 347.193C150.348 347.587 152.227 348.784 152.869 351.083C153.327 352.714 153.238 355.125 151.48 356.555C149.738 357.978 147.25 357.64 145.668 356.732C143.219 355.31 142.128 351.902 142.754 347.973C131.643 343.657 120.412 347.241 120.283 347.281C115.587 348.84 108.442 352.601 104.565 356.21C100.366 360.123 96.2075 366.874 95.1398 371.101C94.5778 373.327 94.3129 375.697 94.3611 378.148C94.4494 382.745 101.45 386.45 104.701 386.45H104.749L172.152 385.694C174.015 385.67 175.749 384.899 177.154 383.452C177.25 383.348 177.355 383.243 177.451 383.131C180.943 379.217 181.449 372.708 181.633 370.257C181.77 368.449 181.971 361.513 182.187 357.11C181.898 339.936 182.091 304.553 183.006 255.677C183.022 255.043 183.03 254.4 183.046 253.765C183.054 253.114 183.07 252.463 183.087 251.812C183.199 246.082 183.319 240.176 183.448 234.092C183.448 233.972 183.448 233.859 183.448 233.739C183.448 233.707 183.448 233.683 183.448 233.65H183.464L185.375 233.699C185.375 233.827 185.375 233.956 185.383 234.084C185.511 240.176 185.607 246.13 185.688 251.925C185.696 252.575 185.704 253.226 185.712 253.877C185.72 254.52 185.728 255.155 185.736 255.79C186.25 303.348 185.013 339.824 184.13 357.254L184.098 357.27Z" fill="white"/>
<path d="M187.606 255.814C187.55 249.088 187.478 242.361 187.397 235.635C187.389 235.008 187.269 234.293 187.036 233.642C187.028 233.61 187.02 233.586 187.012 233.554H187.004C186.908 233.289 186.795 233.039 186.659 232.814C186.651 232.79 186.643 232.774 186.627 232.758C186.466 232.485 186.282 232.252 186.073 232.067C186.009 232.011 185.936 231.963 185.864 231.914C185.792 231.866 185.712 231.826 185.631 231.794C185.551 231.754 185.471 231.73 185.39 231.713C185.133 231.665 184.853 231.689 184.555 231.818C183.841 232.115 183.544 232.863 183.44 233.674C183.432 233.731 183.424 233.795 183.416 233.851C183.383 234.189 183.383 234.526 183.391 234.848C183.391 234.968 183.399 235.097 183.399 235.217C183.552 241.429 183.672 247.641 183.761 253.853C184.234 288.208 183.705 322.586 182.171 356.909C182.075 359.03 181.97 361.152 181.874 363.265C181.754 365.684 181.633 368.095 181.505 370.506C181.449 371.583 181.368 372.692 181.224 373.809C180.766 377.73 179.666 381.652 176.752 383.846C176.407 384.111 176.03 384.352 175.62 384.561C173.477 385.67 170.964 385.726 168.556 385.75C157.581 385.879 146.615 385.999 135.641 386.128C126.256 386.232 116.863 386.345 107.479 386.449C107.093 386.457 106.7 386.457 106.307 386.457H106.226C105.247 386.457 104.267 386.425 103.304 386.305C103.296 386.305 103.288 386.297 103.28 386.297C102.228 386.168 101.201 385.919 100.229 385.493C98.9529 384.931 97.8691 384.063 97.0021 383.01C95.4607 381.17 94.5536 378.751 94.3609 376.316C94.3288 375.946 94.3127 375.585 94.3208 375.215C94.3609 371.028 96.2314 367.058 98.5676 363.587C98.8726 363.137 99.1857 362.687 99.5149 362.253C109.173 349.154 127.42 342.315 142.665 347.996C142.449 349.403 142.449 350.881 142.762 352.264C142.778 352.36 142.802 352.456 142.826 352.553C143.107 353.63 143.581 354.634 144.295 355.486C145.435 356.844 147.306 357.64 149.032 357.511C149.136 357.503 149.248 357.495 149.353 357.479C149.473 357.463 149.602 357.439 149.722 357.407H149.738C149.971 357.351 150.196 357.278 150.412 357.19C150.525 357.142 150.629 357.093 150.734 357.037C150.846 356.981 150.942 356.925 151.047 356.86C151.151 356.788 151.247 356.724 151.344 356.643C153.238 355.149 153.471 352.183 152.355 350.046C151.938 349.242 151.376 348.543 150.717 347.932C150.709 347.932 150.709 347.924 150.709 347.924C149.61 346.92 148.253 346.156 146.864 345.594C146.744 309.037 146.23 269.443 146.101 232.798C146.109 232.469 146.101 232.139 146.101 231.81V231.103C146.093 229.584 145.973 230.669 144.456 230.749C144.367 230.757 144.279 230.765 144.191 230.781C142.978 231.063 142.617 232.814 142.625 234.156V234.976C142.762 271.291 142.89 307.607 143.027 343.922C132.871 340.756 121.512 341.688 111.998 346.462C103.368 350.801 95.6855 358.62 92.2174 367.749C89.223 375.625 90.4673 385.879 99.4828 389.206C102.686 390.387 106.186 390.363 109.598 390.315C129.299 390.082 148.999 389.841 168.7 389.6C171.606 389.567 174.617 389.511 177.234 388.241C180.975 386.425 182.942 382.761 184.01 378.622C184.379 377.208 184.644 375.737 184.836 374.267C185.013 372.917 185.133 371.566 185.222 370.257C185.423 367.275 185.607 364.294 185.776 361.312C187.791 326.194 187.911 291.004 187.614 255.822L187.606 255.814ZM146.431 349.74C146.832 349.973 147.233 350.214 147.635 350.464C148.012 350.705 148.887 351.267 149.128 352.143C149.288 352.698 149.232 353.405 149.024 353.582C148.799 353.758 148.044 353.67 147.579 353.405C146.848 352.979 146.342 351.605 146.431 349.74Z" fill="#383838"/>
<path d="M275.561 378.396C275.448 384.102 267.589 388.642 263.221 388.594C240.751 388.337 218.289 388.088 195.818 387.839C193.522 387.814 191.267 386.866 189.46 385.01C189.34 384.889 189.219 384.761 189.107 384.624C186.626 381.844 185.502 378.059 184.957 374.973C184.635 373.173 184.523 371.614 184.443 370.617C184.298 368.737 184.186 361.737 184.114 357.269C183.817 339.71 184.049 303.186 184.932 255.789C184.94 255.154 184.957 254.519 184.965 253.876C184.973 253.225 184.989 252.574 185.005 251.923C185.117 246.137 185.237 240.191 185.366 234.099C185.366 233.922 185.366 233.746 185.374 233.569L187.277 233.537H187.301C187.301 233.537 187.301 233.585 187.301 233.609C187.301 233.778 190.528 236.028 190.528 236.197C190.656 242.288 187.525 246.145 187.598 251.939C187.606 252.59 187.614 253.241 187.622 253.892C187.622 254.535 187.638 255.17 187.646 255.805C188.16 303.258 199.84 339.983 186.04 357.261C186.113 361.721 186.225 368.664 186.369 370.473C186.554 372.924 187.06 379.433 190.552 383.346C190.648 383.459 190.753 383.563 190.849 383.668C192.254 385.114 193.98 385.886 195.851 385.91L263.254 386.665C263.254 386.665 263.286 386.665 263.302 386.665C266.553 386.665 273.553 382.953 273.642 378.364C273.69 375.913 273.425 373.542 272.863 371.316C271.787 367.089 268.287 360.138 264.088 356.232C260.211 352.616 252.408 349.056 247.711 347.497C247.583 347.457 236.352 343.865 225.241 348.188C225.875 352.118 224.783 355.533 222.327 356.948C220.753 357.864 218.265 358.193 216.523 356.771C214.764 355.34 214.676 352.93 215.134 351.298C215.776 349 217.655 347.803 218.273 347.409C219.212 346.806 220.167 346.268 221.123 345.793L221.484 240.391L221.5 236.904L221.516 233.014V232.99H221.532L223.451 232.958C223.451 233.143 223.451 233.328 223.451 233.521C223.451 234.83 223.443 236.14 223.435 237.45C223.314 273.974 223.186 310.499 223.065 347.023C235.461 341.406 248.346 345.673 248.346 345.673C252.906 347.184 261.022 350.712 265.437 354.826C271.811 360.765 274.228 368.737 274.766 370.85C275.44 373.494 275.649 376.066 275.609 378.412L275.561 378.396Z" fill="white"/>
<path d="M276.853 370.304C276.01 366.905 274.397 363.666 272.43 360.749C262.363 345.858 242.1 338.762 224.96 344.131C225.089 308.072 225.217 272.022 225.338 235.964C225.346 235.418 225.346 234.863 225.346 234.317C225.346 234.148 225.346 233.979 225.33 233.802C225.249 232.492 224.8 231.038 223.563 230.941C222.03 230.829 221.42 231.777 221.412 233.32C221.412 234.276 221.404 235.233 221.404 236.197V236.623C221.316 265.127 221.259 294.258 221.187 322.987C221.171 325.937 221.163 328.886 221.155 331.819C221.147 336.488 221.131 341.149 221.115 345.786C221.115 345.786 221.075 345.81 221.051 345.818C219.846 346.34 218.666 346.991 217.655 347.827C217.639 347.835 217.623 347.851 217.607 347.859C216.884 348.462 216.258 349.153 215.776 349.957C215.062 351.154 214.757 352.649 214.981 354.007C215.006 354.152 215.038 354.296 215.07 354.441C215.078 354.473 215.086 354.505 215.094 354.537C215.126 354.65 215.166 354.762 215.198 354.867C215.246 355.003 215.303 355.14 215.359 355.269H215.367C215.431 355.413 215.503 355.542 215.576 355.67C215.728 355.92 215.905 356.161 216.113 356.378C218.008 358.371 221.588 357.929 223.475 355.92C224.085 355.277 224.535 354.529 224.864 353.718C224.896 353.629 224.928 353.533 224.96 353.436C225.538 351.789 225.594 349.917 225.257 348.181V348.165C225.362 348.133 225.458 348.092 225.562 348.068C241.241 342.805 260.043 349.298 269.267 362.991C269.572 363.425 269.861 363.875 270.134 364.325C272.261 367.821 273.851 371.799 273.674 375.889C273.674 376.138 273.642 376.388 273.618 376.637V376.661C273.345 379.2 272.293 381.708 270.575 383.548C270.575 383.556 270.567 383.564 270.559 383.572C269.7 384.496 268.673 385.251 267.501 385.75C266.658 386.111 265.775 386.328 264.867 386.457C264.041 386.585 263.19 386.642 262.347 386.658H262.282C261.632 386.674 260.974 386.666 260.332 386.658C239.924 386.417 219.509 386.184 199.102 385.951C198.974 385.943 198.853 385.943 198.725 385.943C198.564 385.943 198.396 385.935 198.235 385.935C196.3 385.902 194.277 385.782 192.551 385.01C192.102 384.809 191.668 384.56 191.259 384.255C189.838 383.194 188.987 381.611 188.393 379.915C188.112 379.08 187.887 378.22 187.694 377.376C187.036 374.499 186.586 371.582 186.281 368.649C186.016 366.206 185.864 363.763 185.776 361.304C185.599 356.739 185.655 352.151 185.711 347.586C186.089 316.374 186.538 285.121 186.94 253.901C186.972 251.426 187.004 248.95 187.036 246.483C187.084 242.682 187.132 238.889 187.18 235.096C187.189 234.662 187.148 234.14 187.044 233.642C187.036 233.609 187.028 233.585 187.02 233.553C186.771 232.46 186.193 231.472 185.013 231.649C184.836 231.673 184.636 231.729 184.427 231.817C182.998 232.404 183.215 233.931 183.199 235.241C183.142 240.352 183.078 245.463 183.022 250.574C183.006 251.651 182.998 252.735 182.982 253.812C182.958 256.006 182.934 258.208 182.91 260.402C182.829 267.361 182.749 274.32 182.669 281.28C182.468 298.758 182.267 316.245 182.067 333.724C182.026 336.713 181.994 339.695 181.962 342.684C181.922 346.164 181.882 349.643 181.842 353.131C181.802 356.498 181.77 359.889 181.882 363.265C181.882 363.449 181.89 363.634 181.906 363.819C182.043 367.451 182.364 371.068 183.062 374.612C183.319 375.962 183.632 377.296 184.009 378.614C184.034 378.686 184.05 378.766 184.074 378.839C185.085 382.31 186.691 385.862 189.725 387.831C192.623 389.703 196.284 389.8 199.736 389.84C219.758 390.057 239.78 390.282 259.802 390.499C262.868 390.531 266.023 390.555 268.873 389.43C274.027 387.397 277.206 381.804 277.479 376.275C277.576 374.258 277.351 372.257 276.861 370.304H276.853ZM220.384 353.605C219.927 353.87 219.172 353.959 218.947 353.774C218.739 353.605 218.682 352.89 218.835 352.335C219.084 351.459 219.959 350.905 220.336 350.664C220.729 350.407 221.131 350.166 221.54 349.941C221.621 351.797 221.123 353.171 220.384 353.605Z" fill="#383838"/>
</svg>
