<svg width="430" height="248" viewBox="0 0 430 248" fill="none" xmlns="http://www.w3.org/2000/svg">
<path d="M171.319 185.088C171.405 185.714 171.319 186.325 171.261 186.706V186.807C171.24 186.9 171.232 186.994 171.24 187.095H171.232L171.218 188.792V190.59C170.844 190.13 170.52 189.669 170.261 189.202C169.859 188.475 169.6 187.742 169.593 187.044C169.585 186.893 169.593 186.735 169.614 186.591C169.636 186.454 169.672 186.196 169.693 185.908C170.297 185.649 170.844 185.376 171.326 185.088H171.319Z" fill="white"/>
<path d="M238.826 186.361C238.725 186.814 238.517 187.296 238.215 187.793C238.085 187.771 237.963 187.742 237.833 187.713C237.733 187.692 237.632 187.677 237.531 187.649C236.834 187.498 236.158 187.311 235.546 187.066C234.381 186.599 233.432 185.937 232.986 184.973C232.382 183.65 232.561 181.708 233.338 181.19C234.043 180.715 235.654 181.319 236.517 181.873C238.251 182.995 238.84 184.952 238.898 185.369C238.934 185.678 238.912 186.016 238.819 186.354L238.826 186.361Z" fill="white"/>
<path d="M235.548 187.074C236.152 187.319 236.835 187.506 237.533 187.657C237.411 187.873 237.296 188.081 237.166 188.304C236.655 189.189 236.116 190.167 235.469 191.188V190.498L235.519 187.858V187.801C235.519 187.671 235.533 187.556 235.562 187.441C235.548 187.312 235.548 187.196 235.562 187.081L235.548 187.074Z" fill="white"/>
<path d="M304.68 133.461C302.293 142.783 296.237 147.975 292.612 151.097C290.785 152.672 287.448 155.578 283.887 157.326C285.434 166.28 280.471 177.486 272.128 184.455C269.833 186.376 258.06 195.69 246.063 191.511C244.754 191.058 243.193 190.454 241.718 189.792C240.668 189.317 239.654 188.821 238.82 188.332C238.762 188.303 238.712 188.274 238.669 188.238C238.36 188.066 238.079 187.886 237.842 187.713C237.971 187.742 238.094 187.771 238.223 187.792C238.525 187.296 238.734 186.814 238.834 186.361C238.87 186.39 238.899 186.426 238.913 186.455C239.438 186.807 240.129 187.195 240.92 187.591C241.179 187.721 241.46 187.85 241.74 187.987C242.948 188.555 244.301 189.109 245.574 189.583C245.926 189.713 246.271 189.835 246.602 189.957C257.326 193.676 268.043 185.721 271.071 183.189C278.364 177.105 282.859 167.582 282.485 159.721C280.09 160.541 277.637 160.749 275.357 159.757C272.825 158.663 270.409 156.045 270.689 153.176C270.84 151.586 271.804 150.104 273.408 148.997C275.292 147.688 277.644 147.199 279.558 147.717C283.046 148.644 284.384 152.543 284.995 154.787C286.736 153.701 288.821 152.176 291.317 150.032L291.54 149.845C295.007 146.861 300.825 141.876 303.084 133.051C306.443 119.911 299.085 109.309 298.229 108.137C294.92 103.591 290.871 100.801 287.584 99.1249C286.412 101.146 284.901 102.563 283.132 102.901C280.823 103.34 277.673 101.973 276.911 99.4773C276.127 96.8953 278.133 94.0039 280.37 93.2416C282.413 92.5511 284.506 93.5077 286.009 94.4355C286.887 91.6233 287.347 88.0343 286.951 84.6467C285.973 76.2244 279.788 70.2835 274.775 66.788L274.695 66.7305C267.496 61.7102 260.268 61.5808 257.189 61.516H256.973C257.297 62.6884 257.34 63.8032 257.081 64.8533C256.722 66.3133 255.219 68.9673 252.521 70.2907C251.809 70.6503 248.127 72.283 245.638 70.1684C243.891 68.6796 243.157 65.1626 245.041 62.0842C246.408 59.833 248.817 58.8692 251.363 58.4665C248.12 54.6761 242.164 50.2672 235.483 47.0737C235.274 46.9731 214.078 37.1267 191.372 46.4624C188.063 47.8218 185.769 49.4976 184.151 51.7632C187.84 53.5828 190.732 55.9995 190.948 59.0131C191.106 61.3218 189.718 64.4289 187.121 65.6373C184.863 66.6801 181.921 66.1983 180.116 64.5152C177.181 61.7462 178.195 56.6828 179.519 53.403C176.822 52.4177 173.772 51.6193 170.866 51.1518C156.971 48.9366 141.816 53.9065 132.258 63.8248C129.251 66.9391 123.951 73.5345 122.275 82.7623C121.987 84.3518 121.433 87.3582 121.599 90.3646C122.98 90.0338 124.411 89.9259 125.878 90.1057C126.612 90.2064 133.121 91.1342 133.826 95.4352C134.257 98.0748 132.114 101.124 129.23 101.959C126.935 102.628 124.375 101.815 122.016 99.6571C120.563 98.3266 119.635 96.6795 119.074 94.903C113.752 97.895 109.573 104.181 108.962 105.123C104.323 112.337 103.826 119.774 103.949 123.572C104.315 134.921 110.731 142.509 112.838 145.005C115.751 148.443 119.182 151.392 122.196 153.377C122.829 151.449 123.872 150.097 125.332 149.313C127.518 148.141 130.97 148.314 132.625 150.421C133.459 151.493 133.783 153.039 133.524 154.679C133.243 156.376 132.38 157.865 131.193 158.642C129.64 159.677 127.496 159.656 124.799 158.555C124.778 159.685 124.85 160.929 124.994 162.281C125.821 169.891 130.165 175.055 132.013 177.263C134.401 180.111 140.694 187.613 150.994 188.771C152.245 188.907 153.741 188.986 155.302 188.965C155.755 188.95 156.208 188.929 156.662 188.907C157.115 188.886 157.568 188.842 158.021 188.792C158.215 188.778 158.402 188.749 158.596 188.727C159.272 188.641 159.941 188.54 160.581 188.404C160.812 188.353 161.034 188.296 161.265 188.238C161.905 188.08 162.502 187.886 163.07 187.656C163.286 187.569 163.509 187.469 163.717 187.368C163.818 187.318 163.919 187.26 164.019 187.21C164.156 187.138 164.285 187.066 164.401 186.987C164.53 186.915 164.645 186.836 164.767 186.757C164.969 186.613 165.163 186.462 165.336 186.296C165.479 186.16 165.616 186.016 165.745 185.865L165.853 185.728C166.184 185.325 166.558 184.865 166.983 184.441C167.09 184.333 167.206 184.225 167.321 184.124C167.328 184.117 167.342 184.103 167.349 184.096C167.385 184.052 167.421 184.016 167.472 183.988H167.479C167.508 183.952 167.536 183.93 167.572 183.909C167.637 184.556 167.752 185.225 167.91 185.879C167.515 186.304 167.177 186.735 167.019 186.915C166.99 186.951 166.961 186.98 166.925 187.016C164.782 189.483 160.358 190.389 156.381 190.583C154.266 190.684 152.274 190.59 150.807 190.425C139.824 189.188 133.121 181.168 130.74 178.342C128.762 175.983 124.217 170.473 123.346 162.468C123.246 161.504 122.937 158.685 123.311 156.009C119.348 153.816 114.788 149.86 111.58 146.069C109.034 143.07 102.676 135.338 102.302 123.622C102.208 120.616 102.338 112.352 107.581 104.224C108.329 103.081 113.536 95.1907 120.203 92.5439C119.527 88.6672 120.297 84.4884 120.657 82.4674C122.555 72.096 128.726 65.105 131.085 62.6668C142.054 51.2957 158.136 47.4406 171.147 49.5192C174.355 50.0298 178.354 51.0511 181.777 52.4824C183.41 49.4257 186.021 46.8796 190.761 44.9304C214.474 35.192 236.216 45.5849 236.216 45.5849C243.366 49.0085 251.493 54.7912 254.456 59.869C255.449 59.8402 256.391 59.8618 257.232 59.869C260.613 59.9337 268.1 60.1135 275.659 65.3855C277.867 66.9247 287.332 73.405 288.62 84.4597C289.116 88.7391 288.368 93.558 286.879 96.9384C289.972 98.3266 295.309 101.311 299.588 107.166C300.487 108.389 308.284 119.472 304.709 133.468L304.68 133.461Z" fill="white"/>
<path d="M303.075 133.044C300.817 141.869 294.998 146.854 291.532 149.839L291.309 150.026C288.813 152.176 286.727 153.701 284.986 154.78C284.368 152.543 283.037 148.645 279.549 147.71C277.636 147.192 275.284 147.681 273.4 148.99C271.803 150.105 270.832 151.579 270.681 153.169C270.4 156.038 272.817 158.656 275.349 159.75C277.629 160.742 280.081 160.534 282.476 159.714C282.85 167.568 278.355 177.098 271.062 183.182C268.034 185.714 257.325 193.676 246.594 189.95C246.256 189.828 245.918 189.706 245.565 189.576C244.292 189.102 242.94 188.548 241.732 187.98C242.12 186.951 242.257 185.944 242.134 184.959C241.947 183.499 240.775 180.723 238.279 179.133C237.618 178.709 234.208 176.68 231.533 178.486C229.648 179.737 228.541 183.11 230.03 186.333C231.065 188.577 233.165 189.785 235.474 190.483V190.893C234.28 191.95 232.835 193.029 231.195 194.086C227.778 196.287 223.499 198.394 218.996 199.941C218.781 200.012 196.923 207.262 175.749 195.568C174.325 194.784 173.124 193.956 172.109 193.065C171.786 192.777 171.491 192.489 171.21 192.194V190.576L171.225 188.778C174.116 187.462 176.303 185.656 176.749 183.233C177.159 181.068 176.223 177.989 173.979 176.472C173.908 176.414 173.836 176.371 173.757 176.328C171.779 175.127 169.046 175.177 167.104 176.414C166.996 176.486 166.888 176.558 166.773 176.637C163.802 178.853 163.968 183.412 164.752 186.735C164.629 186.814 164.514 186.894 164.385 186.966C164.255 187.045 164.126 187.117 164.004 187.188C163.903 187.239 163.802 187.296 163.702 187.347C163.493 187.455 163.27 187.541 163.054 187.634C162.486 187.865 161.889 188.059 161.249 188.217C161.033 188.282 160.803 188.332 160.566 188.382C159.926 188.519 159.257 188.627 158.581 188.706C158.386 188.735 158.199 188.756 158.005 188.771C157.099 188.871 156.178 188.915 155.279 188.943C153.719 188.965 152.223 188.886 150.971 188.749C140.664 187.584 134.378 180.082 131.99 177.241C130.142 175.033 125.798 169.869 124.971 162.26C124.827 160.908 124.755 159.663 124.776 158.534C127.474 159.627 129.617 159.656 131.171 158.62C132.357 157.844 133.228 156.348 133.501 154.657C133.76 153.018 133.436 151.471 132.602 150.4C130.948 148.285 127.502 148.12 125.309 149.292C123.849 150.076 122.813 151.428 122.173 153.356C119.159 151.37 115.728 148.422 112.816 144.984C110.715 142.488 104.3 134.9 103.926 123.55C103.804 119.753 104.3 112.316 108.939 105.102C109.557 104.153 113.736 97.8737 119.051 94.8816C119.62 96.6582 120.547 98.3124 121.993 99.6358C124.352 101.794 126.913 102.606 129.207 101.937C132.091 101.103 134.234 98.0535 133.803 95.4139C133.098 91.1128 126.589 90.185 125.855 90.0843C124.388 89.9045 122.957 90.0124 121.576 90.3433C121.41 87.3368 121.964 84.3304 122.252 82.7409C123.935 73.5131 129.229 66.9177 132.235 63.8034C141.794 53.8851 156.948 48.9152 170.844 51.1305C173.742 51.5908 176.799 52.3891 179.496 53.3817C178.18 56.6542 177.158 61.7248 180.093 64.4939C181.905 66.1841 184.84 66.6588 187.098 65.6159C189.695 64.4148 191.09 61.3005 190.925 58.9917C190.709 55.9781 187.81 53.5615 184.128 51.7418C185.746 49.4762 188.041 47.8004 191.349 46.441C214.055 37.1125 235.251 46.9517 235.46 47.0524C242.142 50.2458 248.097 54.6547 251.341 58.4451C248.794 58.8479 246.378 59.8188 245.018 62.0629C243.141 65.1412 243.868 68.6655 245.615 70.1471C248.104 72.2688 251.786 70.629 252.499 70.2694C255.196 68.9532 256.699 66.292 257.058 64.8319C257.325 63.7818 257.274 62.667 256.951 61.4875H257.166C260.245 61.5522 267.473 61.6817 274.673 66.7019L274.752 66.7595C279.772 70.255 285.95 76.1959 286.928 84.6181C287.324 88.0057 286.864 91.5875 285.986 94.4069C284.49 93.4791 282.39 92.5225 280.347 93.213C278.111 93.9754 276.104 96.8595 276.888 99.4488C277.657 101.945 280.801 103.318 283.109 102.872C284.886 102.534 286.396 101.125 287.561 99.0964C290.841 100.772 294.89 103.563 298.206 108.108C299.055 109.281 306.42 119.875 303.061 133.023L303.075 133.044Z" fill="white"/>
<path d="M171.203 192.201C171.483 192.496 171.778 192.791 172.102 193.071L171.195 193.057V192.201H171.203Z" fill="white"/>
<path d="M176.744 183.246C176.298 185.663 174.111 187.468 171.22 188.792L171.234 187.094H171.241C171.234 186.994 171.241 186.893 171.256 186.807V186.706C171.321 186.325 171.414 185.721 171.328 185.088C172.579 184.34 173.385 183.52 173.55 182.649C173.73 181.671 173.248 179.852 172.054 179.125C171.098 178.543 169.602 178.615 168.71 179.276C167.674 180.039 167.372 181.873 167.545 183.894C167.509 183.923 167.48 183.937 167.451 183.973H167.444C167.401 184.009 167.365 184.045 167.322 184.088C167.314 184.095 167.3 184.102 167.293 184.117C167.171 184.203 167.055 184.325 166.955 184.433C166.53 184.858 166.156 185.318 165.826 185.721L165.718 185.857C165.588 186.008 165.452 186.152 165.308 186.289C165.135 186.454 164.941 186.605 164.74 186.749C163.963 183.426 163.79 178.866 166.761 176.651C166.868 176.572 166.976 176.5 167.091 176.428C169.033 175.191 171.766 175.148 173.744 176.342C173.824 176.385 173.895 176.435 173.967 176.486C176.211 178.003 177.146 181.082 176.736 183.246H176.744Z" fill="white"/>
<path d="M231.188 194.093C232.835 193.036 234.273 191.957 235.467 190.899V191.18L235.431 194.165L231.195 194.093H231.188Z" fill="white"/>
<path d="M241.736 187.987C241.455 187.85 241.175 187.721 240.916 187.591C240.132 187.196 239.434 186.807 238.909 186.455C238.895 186.426 238.866 186.39 238.83 186.361C238.923 186.016 238.945 185.678 238.909 185.376C238.851 184.959 238.262 183.002 236.528 181.88C235.665 181.327 234.054 180.722 233.349 181.197C232.572 181.715 232.393 183.657 232.997 184.98C233.443 185.944 234.392 186.606 235.557 187.073C235.55 187.188 235.543 187.311 235.557 187.433C235.529 187.548 235.521 187.67 235.521 187.792V187.85L235.478 190.49C233.169 189.785 231.062 188.576 230.034 186.34C228.545 183.11 229.66 179.744 231.537 178.493C234.212 176.695 237.629 178.723 238.283 179.14C240.772 180.73 241.951 183.506 242.138 184.966C242.268 185.944 242.131 186.951 241.736 187.987Z" fill="white"/>
<path d="M126.857 152.226C127.929 151.651 129.525 151.867 129.986 152.449C130.245 152.78 130.331 153.442 130.223 154.139C130.101 154.902 129.734 155.621 129.331 155.887C128.605 156.369 127.08 156.045 125.138 155.096C125.483 153.643 126.066 152.651 126.864 152.226H126.857ZM125.447 93.3784C127.756 93.6661 130.352 94.7665 130.547 95.9532C130.698 96.8595 129.662 98.3699 128.288 98.7726C127.145 99.1035 125.699 98.5497 124.232 97.2047C123.189 96.2553 122.52 95.0038 122.117 93.6229C123.21 93.3352 124.325 93.2345 125.447 93.3784ZM282.507 99.6429C281.615 99.8083 280.277 99.1826 280.069 98.5065C279.867 97.852 280.644 96.6365 281.428 96.3704C281.558 96.3272 281.701 96.3057 281.86 96.3057C282.73 96.3129 283.895 96.9889 284.708 97.5356C284.025 98.7295 283.262 99.5063 282.514 99.6429H282.507ZM276.674 156.722C275.135 156.053 273.876 154.542 273.977 153.492C274.034 152.91 274.523 152.241 275.293 151.708C276.127 151.133 277.134 150.809 278.005 150.817C278.249 150.817 278.486 150.845 278.695 150.903C280.709 151.442 281.594 154.837 281.975 156.29C281.975 156.312 281.982 156.333 281.989 156.355C278.86 157.664 277.408 157.038 276.674 156.722ZM187.64 59.2362C187.712 60.2503 187.014 62.0196 185.727 62.6238C184.698 63.0985 183.195 62.8612 182.375 62.0844C181.016 60.8113 181.39 57.5028 182.548 54.6619C185.489 56.0788 187.532 57.7042 187.64 59.2362ZM253.86 64.0695C253.759 64.4938 252.932 66.3998 251.048 67.3204C250.113 67.7807 248.422 68.1979 247.768 67.6441C247.041 67.0255 247.085 65.0476 247.847 63.789C248.796 62.2282 251.091 61.7104 253.435 61.5521C253.874 62.5015 254.025 63.3574 253.853 64.0695H253.86ZM300.905 106.188C297.172 101.067 292.598 97.9527 288.944 96.1043C290.181 92.5584 290.678 88.1567 290.232 84.2656C289.11 74.6135 282.227 67.9605 276.645 64.0695L276.573 64.0263C268.539 58.4235 260.621 58.2796 257.233 58.2149C256.643 58.2005 256.01 58.1861 255.334 58.1861C254.313 56.6613 252.867 55.0502 251.012 53.3744C247.286 50.0012 242.014 46.5273 236.893 44.0891C235.972 43.6575 214.144 33.5235 190.107 43.3986C185.957 45.1032 183.044 47.3544 181.037 50.4327C177.635 49.1525 174.017 48.2966 171.371 47.8795C164.38 46.7718 156.928 47.3113 149.837 49.469C145.974 50.6413 142.321 52.274 138.962 54.3022C135.603 56.3233 132.532 58.7543 129.856 61.5306C126.591 64.9182 120.837 72.0962 119.003 82.1799C118.651 84.1002 117.974 87.8115 118.363 91.5515C112.041 94.6514 107.308 101.563 106.157 103.333C101.029 111.302 100.483 119.508 100.619 123.687C101.022 136.195 107.999 144.437 110.286 147.141C113.235 150.63 117.14 154.096 120.736 156.405C120.995 156.578 121.261 156.743 121.52 156.901C121.391 158.57 121.434 160.49 121.671 162.648C122.614 171.257 127.576 177.162 129.468 179.413C131.82 182.218 138.983 190.756 150.599 192.072C151.663 192.187 155.447 192.532 159.51 191.943C160.74 191.77 161.855 191.525 162.876 191.209C165.056 190.554 166.739 189.591 167.925 188.346C167.983 188.289 168.033 188.231 168.091 188.167L166.904 187.009L165.725 185.851C165.595 186.002 165.458 186.146 165.315 186.282C165.142 186.448 164.948 186.599 164.746 186.742C164.624 186.822 164.509 186.901 164.38 186.973C164.257 187.052 164.135 187.124 163.998 187.196C163.898 187.246 163.797 187.303 163.696 187.354C163.488 187.455 163.265 187.548 163.049 187.642C162.481 187.872 161.884 188.066 161.244 188.224C161.014 188.289 160.791 188.339 160.56 188.39C159.92 188.526 159.251 188.634 158.575 188.713C158.381 188.742 158.194 188.764 158 188.778C157.094 188.879 156.173 188.936 155.274 188.951C153.713 188.972 152.217 188.893 150.966 188.756C140.659 187.591 134.373 180.09 131.985 177.249C130.137 175.041 125.793 169.876 124.965 162.267C124.822 160.915 124.75 159.67 124.771 158.541C127.468 159.634 129.612 159.663 131.165 158.628C132.352 157.851 133.222 156.355 133.496 154.665C133.754 153.025 133.431 151.478 132.597 150.407C130.942 148.292 127.497 148.127 125.303 149.299C123.843 150.083 122.808 151.435 122.168 153.363C119.154 151.378 115.723 148.429 112.81 144.991C110.71 142.495 104.295 134.907 103.921 123.558C103.798 119.76 104.295 112.323 108.934 105.109C109.552 104.16 113.731 97.8808 119.046 94.8888C119.614 96.6653 120.542 98.3195 121.988 99.6429C124.347 101.801 126.907 102.613 129.202 101.944C132.086 101.11 134.229 98.0606 133.798 95.421C133.093 91.12 126.584 90.1922 125.85 90.0915C124.383 89.9117 122.952 90.0195 121.571 90.3504C121.405 87.344 121.959 84.3376 122.247 82.7481C123.93 73.5202 129.223 66.9248 132.23 63.8105C141.788 53.8923 156.943 48.9223 170.838 51.1376C173.737 51.5979 176.794 52.3963 179.491 53.3888C178.175 56.6613 177.153 61.732 180.088 64.501C181.9 66.1912 184.835 66.6659 187.093 65.623C189.69 64.4219 191.085 61.3076 190.919 58.9989C190.704 55.9852 187.805 53.5686 184.123 51.7489C185.741 49.4833 188.035 47.8075 191.344 46.4482C214.05 37.1197 235.246 46.9588 235.455 47.0595C242.136 50.2529 248.092 54.6619 251.335 58.4522C248.789 58.855 246.373 59.826 245.013 62.07C243.136 65.1483 243.862 68.6726 245.61 70.1542C248.099 72.276 251.781 70.6361 252.493 70.2765C255.19 68.9603 256.694 66.2991 257.053 64.8391C257.319 63.789 257.269 62.6742 256.945 61.4946H257.161C260.239 61.5593 267.468 61.6888 274.667 66.7091L274.746 66.7666C279.767 70.2621 285.945 76.203 286.923 84.6253C287.319 88.0129 286.858 91.5947 285.981 94.4141C284.485 93.4863 282.385 92.5297 280.342 93.2201C278.105 93.9825 276.099 96.8667 276.883 99.4559C277.652 101.952 280.795 103.325 283.104 102.879C284.88 102.541 286.391 101.132 287.556 99.1035C290.836 100.779 294.885 103.57 298.201 108.116C299.049 109.288 306.414 119.882 303.056 133.03C300.797 141.855 294.979 146.839 291.512 149.824L291.289 150.011C288.793 152.162 286.707 153.686 284.967 154.765C284.348 152.528 283.018 148.63 279.529 147.695C277.616 147.177 275.264 147.666 273.38 148.975C271.783 150.09 270.812 151.565 270.661 153.154C270.381 156.024 272.797 158.642 275.329 159.735C277.609 160.728 280.062 160.519 282.457 159.699C282.831 167.553 278.335 177.083 271.042 183.168C268.014 185.7 257.305 193.662 246.574 189.936C246.236 189.814 245.898 189.691 245.545 189.562C244.244 189.087 242.891 188.555 241.698 188.001C240.683 187.548 239.792 187.073 239.13 186.627L238.634 188.224L238.137 189.857C238.339 189.965 238.547 190.08 238.763 190.195C239.137 190.396 239.533 190.59 239.928 190.777C240.007 190.821 240.101 190.864 240.187 190.9C240.36 190.986 240.504 191.058 240.64 191.123C240.748 191.166 240.863 191.216 240.978 191.274C241.093 191.331 241.216 191.374 241.331 191.425C242.856 192.101 244.38 192.683 245.481 193.072C257.852 197.366 269.791 188.533 273.157 185.721C281.73 178.565 286.664 167.46 285.65 158.261C288.786 156.52 291.598 154.111 293.439 152.528L293.648 152.341C297.417 149.105 303.732 143.696 306.242 133.857C309.91 119.544 302.401 108.288 300.869 106.181L300.905 106.188Z" fill="#383838"/>
<path d="M241.724 188.023C241.724 188.023 241.732 187.994 241.732 187.987C242.12 186.958 242.257 185.951 242.134 184.966C241.947 183.506 240.775 180.73 238.279 179.14C237.617 178.716 234.208 176.688 231.533 178.493C229.648 179.744 228.541 183.118 230.03 186.34C231.065 188.584 233.165 189.792 235.474 190.49C235.582 190.526 235.697 190.554 235.819 190.59C235.712 190.698 235.589 190.799 235.474 190.892C234.287 191.95 232.842 193.029 231.195 194.086C227.778 196.287 223.499 198.394 218.996 199.94C218.781 200.012 196.923 207.262 175.749 195.568C174.325 194.784 173.124 193.956 172.109 193.065C171.786 192.777 171.491 192.489 171.21 192.194C170.434 191.389 169.793 190.511 169.276 189.569C169.614 189.454 169.952 189.317 170.268 189.188C170.599 189.066 170.915 188.922 171.225 188.778C174.116 187.462 176.303 185.656 176.748 183.233C177.158 181.068 176.223 177.989 173.979 176.472C173.908 176.414 173.836 176.371 173.756 176.328C171.779 175.127 169.045 175.177 167.104 176.414C166.996 176.486 166.888 176.558 166.773 176.637C163.802 178.852 163.968 183.412 164.752 186.735C164.802 186.98 164.867 187.217 164.924 187.447C162.184 188.116 159.271 188.85 156.373 188.979L156.344 191.928C158.171 191.856 160.479 191.619 162.882 191.195C163.946 191.015 165.025 190.785 166.104 190.526C167.715 193.755 170.319 196.294 174.188 198.423C196.614 210.808 219.112 203.35 220.061 203.026C225.355 201.206 230.907 198.401 234.928 195.524C236.941 194.093 238.79 192.173 239.969 190.785H239.977C240.07 190.821 240.149 190.857 240.228 190.907C240.401 190.993 240.545 191.065 240.681 191.13C240.789 191.173 240.904 191.223 241.019 191.281C241.135 191.338 241.257 191.382 241.372 191.432C241.437 191.453 241.501 191.468 241.559 191.497L241.732 189.792L241.883 188.253C241.811 188.246 241.739 188.246 241.667 188.231C241.696 188.159 241.724 188.095 241.739 188.023H241.724ZM168.7 179.27C169.585 178.608 171.088 178.536 172.045 179.119C173.239 179.845 173.721 181.665 173.541 182.643C173.375 183.513 172.57 184.333 171.318 185.081C170.836 185.369 170.29 185.642 169.686 185.901C169.175 186.124 168.621 186.34 168.039 186.541C167.974 186.325 167.916 186.095 167.873 185.865C167.715 185.211 167.607 184.534 167.535 183.894C167.362 181.859 167.672 180.025 168.7 179.262V179.27ZM237.531 187.649C236.834 187.498 236.157 187.311 235.546 187.066C234.381 186.599 233.432 185.937 232.986 184.973C232.381 183.65 232.561 181.708 233.338 181.19C234.043 180.715 235.654 181.319 236.517 181.873C238.25 182.995 238.84 184.952 238.898 185.369C238.934 185.678 238.912 186.016 238.819 186.354C238.718 186.807 238.509 187.289 238.207 187.785C238.078 187.764 237.956 187.735 237.826 187.706C237.725 187.685 237.625 187.67 237.524 187.642L237.531 187.649Z" fill="#383838"/>
<path d="M173.543 182.642C173.377 183.512 172.572 184.332 171.32 185.08C170.839 185.368 170.292 185.641 169.688 185.9C169.177 186.123 168.623 186.339 168.041 186.54C167.976 186.325 167.918 186.094 167.875 185.864C167.717 185.21 167.609 184.534 167.537 183.894C167.365 181.858 167.674 180.024 168.702 179.262C169.587 178.6 171.09 178.528 172.047 179.111C173.241 179.837 173.723 181.657 173.543 182.635V182.642Z" fill="white"/>
<path d="M180.356 133.418C180.342 133.267 180.335 133.116 180.313 132.965L180.277 132.699H180.292L180.321 132.915C180.335 133.08 180.356 133.239 180.349 133.411L180.356 133.418Z" fill="#383838"/>
<path d="M180.017 133.454L179.895 132.354H180.585L180.664 132.879C180.686 133.058 180.7 133.238 180.7 133.418L180.024 133.454H180.017Z" fill="#383838"/>
<path d="M180.361 133.728C180.376 133.994 180.361 134.253 180.347 134.519C180.347 134.54 180.347 134.547 180.34 134.562C180.361 134.289 180.376 134.008 180.369 133.728H180.361Z" fill="#383838"/>
<path d="M179.871 136.18L179.993 134.533C180.015 134.274 180.022 134.001 180.015 133.735L180.698 133.706C180.713 133.951 180.705 134.21 180.684 134.54L180.633 134.72L179.871 136.18Z" fill="#383838"/>
<path d="M228.651 136.215C228.529 135.805 228.45 135.388 228.414 134.964C228.457 135.381 228.536 135.813 228.651 136.215Z" fill="#383838"/>
<path d="M228.327 136.317C228.197 135.885 228.111 135.439 228.082 134.986L228.758 134.929C228.801 135.339 228.873 135.741 228.981 136.123L228.327 136.31V136.317Z" fill="#383838"/>
<path d="M228.692 136.353H228.685C228.685 136.353 228.671 136.296 228.656 136.26L228.692 136.353Z" fill="#383838"/>
<path d="M228.533 136.993L228.361 136.475C228.361 136.475 228.339 136.404 228.332 136.36L228.591 136.274L228.447 136.123L228.605 136.267L228.979 136.137L229.094 136.44L228.533 136.986V136.993Z" fill="#383838"/>
<path d="M181.017 135.871C180.579 136.914 179.974 137.899 179.205 138.777C178.529 139.553 177.73 140.251 176.81 140.841C175.587 141.618 174.501 139.654 175.717 138.885C176.443 138.424 177.076 137.863 177.608 137.237C178.392 136.317 178.96 135.238 179.291 134.102C180.075 131.448 179.586 128.434 177.622 126.132C174.508 122.5 168.891 122.644 165.741 126.089C164.763 127.154 163.216 125.535 164.187 124.478C168.359 119.911 176.033 120.177 179.737 125.219C182.125 128.47 182.449 132.498 181.017 135.871Z" fill="#383838"/>
<path d="M180.082 124.961C178.27 122.494 175.414 120.983 172.257 120.818C169.027 120.645 165.971 121.868 163.856 124.184C163.158 124.946 163.41 125.924 163.993 126.457C164.525 126.953 165.41 127.082 166.057 126.385C167.531 124.766 169.646 123.86 171.854 123.896C173.997 123.925 175.918 124.824 177.284 126.421C179.061 128.499 179.651 131.326 178.867 133.987C178.543 135.095 178.004 136.094 177.27 136.965C176.752 137.569 176.155 138.094 175.479 138.525C174.99 138.842 174.724 139.338 174.753 139.906C174.781 140.503 175.119 141.057 175.623 141.316C175.81 141.417 176.011 141.467 176.213 141.474C176.493 141.474 176.781 141.395 177.04 141.223C177.975 140.626 178.809 139.906 179.528 139.079C180.284 138.216 180.895 137.245 181.348 136.195C181.37 136.152 181.384 136.102 181.406 136.058C182.959 132.376 182.463 128.233 180.075 124.982L180.082 124.961ZM180.614 135.706C180.19 136.72 179.607 137.655 178.881 138.482H178.874C178.212 139.252 177.443 139.914 176.579 140.467C176.385 140.59 176.198 140.611 176.026 140.525C175.803 140.41 175.637 140.137 175.623 139.856C175.623 139.676 175.666 139.432 175.947 139.252C176.687 138.784 177.342 138.209 177.91 137.547C177.917 137.54 177.924 137.526 177.939 137.519C178.701 136.619 179.262 135.598 179.636 134.476C179.665 134.397 179.687 134.311 179.715 134.224C180.586 131.276 179.924 128.147 177.96 125.845C176.436 124.062 174.285 123.062 171.904 123.019H171.883C169.423 122.976 167.071 123.99 165.424 125.788C165.057 126.183 164.69 125.903 164.583 125.809C164.388 125.63 164.122 125.184 164.503 124.766C166.438 122.645 169.25 121.516 172.214 121.681C175.105 121.839 177.723 123.22 179.377 125.471C180.773 127.377 181.47 129.607 181.434 131.851C181.413 133.095 181.161 134.339 180.672 135.541C180.658 135.591 180.636 135.649 180.614 135.699V135.706Z" fill="#383838"/>
<path d="M243.234 127.593C240.084 124.112 234.007 123.508 231.043 127.65C229.526 129.772 229.159 132.268 229.713 134.569C229.993 135.713 230.497 136.806 231.202 137.777C231.842 138.655 232.64 139.439 233.589 140.064C234.791 140.863 233.633 142.783 232.424 141.978C231.288 141.222 230.317 140.287 229.533 139.237C228.85 138.317 228.303 137.31 227.915 136.252C226.67 132.85 227.059 128.931 229.612 125.859C233.546 121.12 240.89 121.674 244.846 126.039C245.816 127.111 244.205 128.665 243.234 127.593Z" fill="#383838"/>
<path d="M245.166 125.745C243.037 123.393 239.851 122.026 236.65 122.098C233.709 122.163 231.091 123.393 229.271 125.58C226.782 128.579 226.121 132.621 227.502 136.397C227.523 136.447 227.538 136.49 227.559 136.541C227.955 137.598 228.501 138.591 229.178 139.497C229.178 139.497 229.185 139.504 229.185 139.511C230.019 140.626 231.026 141.583 232.177 142.345C232.436 142.518 232.716 142.604 232.99 142.604C233.205 142.604 233.421 142.561 233.622 142.46C234.133 142.208 234.486 141.662 234.521 141.072C234.557 140.518 234.306 140.015 233.824 139.698C232.939 139.116 232.177 138.382 231.551 137.519C230.875 136.591 230.4 135.57 230.127 134.462C229.573 132.146 230.019 129.816 231.393 127.895C232.551 126.277 234.327 125.313 236.384 125.198C236.571 125.191 236.766 125.184 236.953 125.191C239.175 125.234 241.412 126.234 242.908 127.881C243.562 128.6 244.469 128.471 245.03 127.967C245.605 127.442 245.849 126.493 245.166 125.745ZM244.44 127.327C244.389 127.37 244.202 127.529 243.979 127.521C243.85 127.521 243.699 127.464 243.555 127.306C241.764 125.328 238.995 124.184 236.334 124.342C234.011 124.479 231.997 125.565 230.688 127.399C229.17 129.528 228.674 132.11 229.285 134.671C229.307 134.757 229.329 134.843 229.357 134.93C229.659 136.052 230.163 137.087 230.846 138.037C230.861 138.051 230.868 138.065 230.875 138.08C231.551 139.008 232.385 139.799 233.342 140.432C233.615 140.612 233.658 140.856 233.651 141.022C233.637 141.295 233.464 141.568 233.234 141.683C233.054 141.77 232.86 141.748 232.659 141.618C231.587 140.906 230.652 140.015 229.875 138.979C229.875 138.979 229.868 138.965 229.861 138.965C229.214 138.087 228.696 137.13 228.314 136.102C228.293 136.044 228.278 136.001 228.257 135.944C227.063 132.506 227.682 128.852 229.94 126.133C231.587 124.148 233.982 123.019 236.665 122.962C236.794 122.962 236.931 122.962 237.06 122.962C239.88 123.012 242.642 124.249 244.519 126.328C244.886 126.723 244.641 127.14 244.44 127.32V127.327Z" fill="#383838"/>
<path d="M231.199 137.777C230.66 138.28 230.099 138.777 229.523 139.237C215.771 150.435 192.418 150.594 179.205 138.777C178.652 138.288 178.119 137.77 177.602 137.237C178.386 136.317 178.954 135.238 179.285 134.102C179.831 134.72 180.407 135.31 181.011 135.871C193.058 147.134 215.39 146.976 227.905 136.245C228.531 135.713 229.128 135.152 229.703 134.562C229.984 135.705 230.487 136.799 231.192 137.77L231.199 137.777Z" fill="#383838"/>
<path d="M245.445 101.563C239.389 90.9834 222.465 97.363 217.776 105.778C217.114 106.972 215.539 106.044 215.74 104.879C217.186 96.6941 222.35 87.6533 231.067 85.7905C232.477 85.4884 233.038 87.6605 231.621 87.9626C225.479 89.2788 221.444 94.558 219.315 100.305C227.04 93.1195 241.575 90.2929 247.401 100.47C248.12 101.729 246.164 102.815 245.445 101.563Z" fill="#383838"/>
<path d="M247.777 100.255C245.662 96.565 242.253 94.2634 237.923 93.6017C232.27 92.7458 225.444 94.8172 220.395 98.809C223.776 91.1779 228.868 88.9986 231.716 88.3944C232.658 88.1859 232.996 87.3443 232.845 86.6179C232.68 85.8555 231.975 85.1651 230.975 85.3736C226.868 86.2511 223.186 88.79 220.323 92.717C217.871 96.0831 216.094 100.377 215.31 104.815C215.152 105.721 215.771 106.462 216.425 106.699C216.583 106.749 216.741 106.785 216.893 106.785C217.403 106.793 217.871 106.512 218.151 106.001C221.057 100.787 228.717 96.5146 235.233 96.4787C235.355 96.4787 235.478 96.4787 235.593 96.4787C238.642 96.5362 242.627 97.5359 245.058 101.787C245.561 102.657 246.503 102.722 247.18 102.333C247.848 101.952 248.266 101.118 247.769 100.255H247.777ZM246.755 101.571C246.69 101.607 246.137 101.902 245.82 101.348C243.08 96.5578 238.549 95.5796 235.226 95.594C228.314 95.63 220.481 100.017 217.389 105.57C217.187 105.937 216.907 105.929 216.713 105.865C216.389 105.75 216.094 105.376 216.166 104.958C218.266 93.0479 225.559 87.4163 231.155 86.2223C231.22 86.208 231.284 86.2008 231.342 86.2008C231.752 86.208 231.939 86.5604 231.989 86.7977C232.025 86.9416 232.083 87.4235 231.536 87.5385C228.314 88.229 222.395 90.7823 218.906 100.154L218.266 101.873L219.611 100.621C224.545 96.0327 231.853 93.5586 237.786 94.4576C241.85 95.069 245.043 97.2267 247.021 100.686C247.331 101.226 246.813 101.535 246.755 101.571Z" fill="#383838"/>
<path d="M156.374 98.6141C162.812 88.2643 179.498 95.2553 183.871 103.843C184.489 105.058 186.101 104.195 185.935 103.016C184.792 94.7806 179.958 85.56 171.313 83.3807C169.918 83.0282 169.278 85.1788 170.68 85.5312C176.772 87.0704 180.606 92.5006 182.533 98.312C175.075 90.8535 160.654 87.4947 154.461 97.4489C153.699 98.6788 155.612 99.844 156.374 98.6141Z" fill="#383838"/>
<path d="M186.367 102.959C185.749 98.4924 184.123 94.1339 181.793 90.6815C179.081 86.6538 175.492 83.9782 171.421 82.9497C170.436 82.7052 169.702 83.3741 169.508 84.1293C169.328 84.8557 169.631 85.7044 170.566 85.9489C173.392 86.661 178.405 89.0201 181.498 96.7735C176.607 92.5947 169.853 90.2787 164.172 90.9261C159.82 91.4295 156.325 93.6088 154.081 97.2194C153.556 98.0609 153.944 98.9096 154.598 99.3196C154.857 99.4778 155.152 99.5713 155.454 99.5785C155.936 99.5857 156.418 99.3699 156.742 98.8521C159.439 94.5222 163.682 93.7742 166.761 93.9037C173.27 94.177 180.772 98.7298 183.483 104.045C183.749 104.563 184.209 104.865 184.72 104.872C184.871 104.872 185.029 104.85 185.188 104.8C185.857 104.592 186.497 103.872 186.367 102.959ZM184.929 103.966C184.727 104.031 184.454 104.023 184.26 103.649C181.368 97.989 173.701 93.3211 166.797 93.0334C163.481 92.8968 158.921 93.7095 156.001 98.3917C155.663 98.9312 155.124 98.6219 155.059 98.5787C155.001 98.5428 154.498 98.2119 154.821 97.6797C156.929 94.2993 160.194 92.2638 164.279 91.7963C170.249 91.1131 177.449 93.8534 182.217 98.6219L183.519 99.9237L182.944 98.1832C179.801 88.6892 173.982 85.9202 170.789 85.1146C170.249 84.978 170.328 84.4961 170.364 84.3522C170.422 84.1149 170.623 83.7697 171.033 83.7769C171.091 83.7769 171.155 83.784 171.22 83.8056C176.773 85.2081 183.85 91.0987 185.511 103.081C185.569 103.506 185.267 103.872 184.936 103.973L184.929 103.966Z" fill="#383838"/>
<path d="M203.831 149.652C203.802 149.731 203.766 149.824 203.716 149.932C203.536 150.364 203.198 150.997 202.644 151.622C202.328 151.975 201.947 152.32 201.479 152.629C201.242 152.788 200.983 152.924 200.71 153.047C200.53 152.946 200.343 152.852 200.141 152.766C199.48 152.486 197.941 151.824 196.02 152.306C195.538 152.428 195.107 152.601 194.733 152.802C194.488 152.637 194.265 152.442 194.057 152.219C193.712 151.845 193.453 151.457 193.273 151.076C192.856 150.206 192.798 149.407 192.791 149.112C192.748 147.163 193.467 145.207 194.74 143.732L196.423 145.2C195.502 146.257 194.992 147.667 195.021 149.076C195.021 149.155 195.042 149.666 195.323 150.198C195.416 150.371 195.531 150.544 195.682 150.702C196.74 151.824 198.948 151.637 200.264 150.774C200.379 150.702 200.48 150.623 200.58 150.544C201.335 149.925 201.652 149.148 201.745 148.904C202.134 147.839 201.925 146.897 201.767 146.43L203.716 145.775L203.81 145.746L203.882 145.718C203.882 145.718 203.896 145.761 203.903 145.775C204.148 146.537 204.443 147.998 203.846 149.652H203.831Z" fill="#383838"/>
<path d="M214.669 149.507C214.655 149.795 214.576 150.55 214.166 151.37C213.964 151.766 213.684 152.183 213.295 152.564C213.101 152.758 212.885 152.924 212.67 153.075C212.346 152.902 211.986 152.751 211.584 152.636C209.685 152.082 208.117 152.694 207.448 152.953C207.225 153.039 207.009 153.14 206.808 153.24C206.47 153.089 206.161 152.902 205.866 152.701C205.463 152.42 205.139 152.111 204.859 151.802C204.247 151.111 203.902 150.407 203.722 149.932C203.679 149.817 203.643 149.723 203.622 149.637C203.082 147.968 203.435 146.515 203.708 145.76C203.708 145.746 203.722 145.717 203.73 145.703L203.802 145.731L203.895 145.767L205.815 146.494C205.636 146.954 205.398 147.889 205.743 148.968C205.83 149.227 206.153 150.083 206.973 150.752C207.031 150.795 207.088 150.845 207.153 150.888C208.441 151.802 210.641 152.061 211.735 150.982C211.9 150.816 212.03 150.644 212.123 150.471C212.411 149.953 212.447 149.45 212.454 149.378C212.533 147.976 212.073 146.544 211.188 145.458L212.921 144.056C214.151 145.573 214.784 147.558 214.676 149.507H214.669Z" fill="#383838"/>
<path d="M205.254 154.291C204.557 154.916 204.082 155.564 203.801 156.01C203.787 156.039 203.773 156.06 203.751 156.082C203.722 156.039 203.701 156.003 203.672 155.959C203.413 155.513 202.981 154.866 202.32 154.233C201.881 153.809 201.349 153.399 200.709 153.046C200.529 152.946 200.342 152.852 200.14 152.766C199.479 152.485 197.94 151.824 196.019 152.306C195.537 152.428 195.106 152.601 194.732 152.802C194.041 153.169 193.531 153.615 193.171 153.996C192.747 154.435 192.042 154.456 191.596 154.032C191.157 153.607 191.136 152.903 191.56 152.457C191.97 152.025 192.538 151.522 193.272 151.076C193.847 150.723 194.53 150.407 195.322 150.198C195.372 150.184 195.429 150.162 195.48 150.155C197.724 149.587 199.572 150.155 200.572 150.544C200.752 150.615 200.903 150.68 201.025 150.731C201.629 150.989 202.169 151.299 202.651 151.637C203.097 151.946 203.485 152.27 203.83 152.601C204.449 153.19 204.916 153.794 205.254 154.305V154.291Z" fill="#383838"/>
<path d="M215.943 154.521C215.482 154.931 214.777 154.888 214.368 154.427C213.994 154.003 213.433 153.485 212.663 153.075C212.339 152.903 211.98 152.751 211.577 152.636C209.678 152.083 208.11 152.694 207.441 152.953C207.218 153.039 207.003 153.14 206.801 153.241C206.197 153.543 205.686 153.909 205.255 154.283C204.557 154.909 204.082 155.557 203.802 156.002C203.788 156.031 203.773 156.053 203.752 156.074C203.723 156.031 203.701 155.995 203.672 155.952C203.414 155.506 202.982 154.859 202.32 154.226C202.68 153.73 203.176 153.147 203.824 152.586C204.133 152.313 204.471 152.047 204.852 151.802C205.377 151.45 205.974 151.133 206.636 150.874C206.722 150.838 206.837 150.795 206.967 150.752C207.923 150.4 209.829 149.839 212.116 150.472C212.145 150.479 212.174 150.486 212.203 150.493C212.951 150.709 213.605 151.025 214.166 151.363C214.993 151.867 215.605 152.457 216.043 152.946C216.453 153.406 216.41 154.104 215.95 154.514L215.943 154.521Z" fill="#383838"/>
<path d="M101.752 197.596C106.34 190.318 107.239 189.303 106.707 178.292C106.599 176.048 105.858 160.649 96.4293 157.679C89.9489 155.636 81.0448 159.987 79.1532 166.187C78.362 168.791 78.9158 172.114 80.4478 174.818C81.577 176.81 84.6194 179.213 86.4103 176.3C87.5611 174.415 84.7129 170.783 81.9654 169.107C77.3047 166.266 71.7954 168.453 70.9755 168.791C70.7022 168.906 64.1715 171.733 62.8409 178.292C62.8409 178.292 62.1073 181.91 63.5961 185.571C67.6094 195.467 86.2161 204.307 103.133 196.352L101.752 197.589V197.596Z" fill="#E7A4F7"/>
<path d="M102.771 198.61C102.441 198.761 102.117 198.833 101.865 198.891C92.5942 200.955 82.6975 199.984 74.0019 196.158C70.8661 194.777 68.4206 193.245 66.5219 191.461C62.7099 187.886 61.0341 183.247 61.9331 178.723C62.8106 174.286 65.5581 170.431 69.2693 168.402C71.9305 166.949 75.0664 166.511 78.0368 166.978C78.2742 165.72 78.7273 164.49 79.4034 163.375C80.7196 161.196 82.8198 159.376 85.632 157.981C89.4799 156.067 93.4213 155.622 96.7154 156.736C99.5852 157.707 102.138 159.923 103.922 162.979C105.282 165.31 106.202 168.036 106.907 171.812C108.367 179.622 107.396 188.598 104.167 197.085C103.987 197.553 103.692 197.97 103.311 198.279C103.138 198.416 102.958 198.524 102.779 198.61H102.771ZM70.9092 169.819C70.6791 169.927 70.4561 170.035 70.2259 170.157C67.0253 171.905 64.6519 175.257 63.8895 179.112C63.1343 182.945 64.5871 186.908 67.8884 190.001C69.6218 191.627 71.8874 193.036 74.8075 194.324C83.1147 197.977 92.5726 198.905 101.434 196.934C101.628 196.891 101.923 196.827 102.045 196.726C102.153 196.64 102.246 196.51 102.297 196.366C105.397 188.217 106.339 179.63 104.943 172.171C104.282 168.632 103.433 166.108 102.196 163.979C100.657 161.339 98.4847 159.433 96.0753 158.621C92.3137 157.348 88.4802 158.793 86.5238 159.757C84.0497 160.987 82.23 162.548 81.1152 164.396C80.5542 165.317 80.1874 166.345 80.0004 167.41C82.2803 168.1 84.3589 169.352 85.9125 171.114C86.9194 172.25 87.4804 173.343 87.6315 174.458C87.8472 176.033 87.1136 177.587 85.855 178.234C85.8118 178.256 85.7614 178.277 85.7183 178.299C83.8411 179.155 81.82 177.939 80.6477 176.63C78.7633 174.523 77.8067 171.718 77.8498 168.927C75.5267 168.539 73.0741 168.805 70.9164 169.798L70.9092 169.819ZM79.8637 169.46C79.9428 171.603 80.7124 173.725 82.1293 175.314C82.8773 176.149 84.0569 176.875 84.884 176.494L84.9271 176.472C85.4378 176.206 85.7471 175.458 85.6464 174.732C85.5529 174.02 85.1501 173.272 84.4093 172.444C83.1938 171.071 81.6043 170.064 79.8565 169.46H79.8637Z" fill="#383838"/>
<path d="M311.955 91.6669C320.226 93.8606 321.456 94.4144 331.748 90.6528C333.849 89.8832 348.248 84.6184 348.269 74.7865C348.284 68.0328 341.516 60.862 335.071 60.9124C332.367 60.934 329.375 62.4444 327.26 64.7028C325.7 66.3714 324.326 69.9676 327.62 70.8019C329.749 71.3413 332.353 67.5509 333.129 64.451C334.438 59.1862 330.734 54.6047 330.166 53.9214C329.979 53.6912 325.354 48.3329 318.737 49.0162C318.737 49.0162 315.084 49.3974 312.048 51.886C303.842 58.6252 300.965 78.9149 313.537 92.6091L311.948 91.6669H311.955Z" fill="#E7A4F7"/>
<path d="M311.292 92.9398C311.047 92.6737 310.882 92.3788 310.76 92.163C306.056 83.9709 304.042 74.29 305.092 64.9039C305.473 61.5235 306.2 58.7473 307.329 56.4097C309.587 51.7347 313.5 48.7643 318.06 48.2752C322.534 47.7933 327.007 49.2533 330.035 52.1806C332.207 54.2736 333.552 57.1218 333.991 60.0779C335.257 59.9268 336.559 59.9987 337.81 60.308C340.27 60.9122 342.615 62.365 344.78 64.6234C347.743 67.709 349.325 71.3195 349.246 74.7719C349.174 77.7783 347.829 80.8638 345.456 83.4602C343.643 85.4381 341.334 87.1212 337.954 88.9121C330.97 92.6161 322.16 94.3567 313.148 93.8029C312.651 93.7741 312.169 93.6159 311.759 93.3425C311.572 93.2203 311.421 93.0764 311.292 92.9326V92.9398ZM329.172 54.1513C329.007 53.9643 328.827 53.7845 328.647 53.6047C326.036 51.0802 322.16 49.8287 318.269 50.2459C314.406 50.663 311.069 53.2235 309.113 57.2656C308.084 59.3946 307.415 61.9623 307.063 65.1125C306.056 74.0814 307.983 83.3308 312.479 91.1633C312.579 91.3359 312.73 91.5948 312.853 91.6811C312.968 91.7602 313.119 91.8034 313.27 91.8178C321.922 92.35 330.359 90.6886 337.026 87.1571C340.191 85.4813 342.334 83.9277 343.988 82.1225C346.038 79.8784 347.203 77.2532 347.261 74.7287C347.354 70.7801 344.844 67.5651 343.348 65.9972C341.45 64.0121 339.428 62.7462 337.336 62.2356C336.293 61.9766 335.207 61.9335 334.142 62.0701C334.164 64.4364 333.588 66.7811 332.38 68.7806C331.596 70.0752 330.726 70.9311 329.712 71.4058C328.28 72.0747 326.59 71.8374 325.598 70.8376C325.562 70.8017 325.526 70.7657 325.49 70.7226C324.123 69.1978 324.677 66.9106 325.569 65.4146C327.014 62.998 329.388 61.2646 332.049 60.4734C331.725 58.1575 330.747 55.9063 329.172 54.1513ZM332.164 62.552C330.15 63.2641 328.367 64.6234 327.281 66.4431C326.712 67.3997 326.367 68.7303 326.971 69.4064L327 69.4423C327.403 69.8523 328.201 69.9242 328.863 69.6149C329.51 69.3129 330.1 68.7087 330.668 67.7665C331.61 66.2058 332.092 64.4005 332.157 62.5592L332.164 62.552Z" fill="#383838"/>
</svg>
