<svg width="16" height="16" viewBox="0 0 16 16" fill="none" xmlns="http://www.w3.org/2000/svg">
<path fill-rule="evenodd" clip-rule="evenodd" d="M0.894996 2.84663C0.708656 1.83165 0.615486 1.32416 0.844809 1.02086C0.91708 0.92528 1.00844 0.845769 1.11309 0.787383C1.44513 0.602118 1.9349 0.764442 2.91444 1.08909L12.4979 4.26535C14.0859 4.79163 14.8798 5.05477 14.9985 5.50897C15.0349 5.64839 15.0359 5.79469 15.0013 5.93459C14.8888 6.39035 14.0985 6.66419 12.5178 7.21187L7.64754 8.89939L5.59736 12.9747C4.83917 14.4818 4.46008 15.2353 3.99201 15.2857C3.8484 15.3011 3.70321 15.2803 3.56971 15.2252C3.13459 15.0455 2.98227 14.2158 2.67763 12.5565L0.894996 2.84663Z" fill="#383838" stroke="#383838" stroke-width="1.37947" stroke-linejoin="round"/>
</svg>
